<svg width="35" height="35" viewBox="0 0 35 35" fill="none" xmlns="http://www.w3.org/2000/svg">
<g clip-path="url(#clip0_902_8615)">
<path d="M16.036 17.0092C13.6372 16.2097 11.2021 16.6458 8.767 16.5004C8.65797 16.5004 8.47625 16.7548 8.4399 16.9002C8.33087 17.2636 8.47625 17.5544 8.65797 17.7725C9.34852 18.4994 10.1481 18.8265 10.984 18.8992C12.983 19.1172 15.0183 19.408 17.0173 19.1899C17.2717 19.2263 17.5261 19.2626 17.7805 19.2626C18.7982 19.3353 19.8158 19.3716 20.7971 19.3353C20.0339 20.0622 19.3797 20.7891 18.7982 21.6614C18.5437 22.0248 18.5074 22.4973 19.0162 22.9334C19.4524 23.3332 19.9612 23.4059 20.361 23.1515C21.0152 22.679 21.6694 22.2065 22.2509 21.625C23.1595 20.6801 23.9591 19.6624 24.8314 18.6811C25.2312 18.4994 25.3766 18.0269 25.1948 17.6271L25.0131 17.2273C23.9228 15.083 21.9602 13.7746 20.47 12.03C20.3973 11.9573 20.1066 11.9937 19.9612 12.1027C19.6341 12.2844 19.5251 12.5752 19.5251 12.8659C19.4524 13.8472 19.8158 14.6468 20.3246 15.2647C20.7608 15.7735 21.1606 16.3187 21.5604 16.8275C21.0879 16.7548 20.6154 16.7185 20.1429 16.7185C18.6891 16.7548 17.3807 16.9002 16.036 17.0092Z" fill="#4A4A5E"/>
<path d="M33.4031 19.2264C32.7852 21.5161 31.7312 23.8058 30.1684 25.8775C29.9867 26.1319 29.7686 26.3863 29.5506 26.6407L29.2235 27.0042L29.0781 27.1859L28.8964 27.3676C28.6783 27.5857 28.4239 27.8401 28.2058 28.0581L28.0241 28.2399L27.806 28.3853L27.4062 28.7124C26.9337 29.1485 26.3522 29.5119 25.8071 29.9117C25.5526 30.0935 25.2255 30.2388 24.9348 30.4206C24.644 30.5659 24.3533 30.784 24.0625 30.893C22.6451 31.6199 21.0822 32.0561 19.4831 32.3105C19.0833 32.3468 18.6835 32.4559 18.2837 32.4559L17.7022 32.4922H17.4114H17.266H17.1933H17.157L15.9213 32.4195L15.5942 32.3832C15.4851 32.3832 15.4124 32.3468 15.3034 32.3468L14.7219 32.2378L14.1404 32.1288C13.9587 32.0924 13.7406 32.0197 13.5589 31.9834L12.9774 31.838C12.7956 31.8017 12.5776 31.729 12.3958 31.6563L11.3055 31.2201C10.942 31.0384 10.5786 30.8567 10.2515 30.7113C8.87039 29.9481 7.59833 29.0031 6.47164 27.8764C5.3813 26.7497 4.47268 25.405 3.78213 24.0239L3.52771 23.4787L3.38233 23.2243L3.2733 22.9335L2.87351 21.8069L2.58275 20.6802C2.5464 20.5711 2.5464 20.4984 2.51006 20.3894L2.47372 20.0986L2.40103 19.5171L2.29199 18.9356L2.25565 18.3541L2.2193 17.7726V17.4818V17.4455V17.3728V17.2274L2.29199 15.9553C2.32834 15.5556 2.40103 15.1921 2.43737 14.8287C2.69178 13.3022 3.20061 11.7757 3.92751 10.3583C4.72709 9.0135 5.7084 7.77778 6.83509 6.68743C10.4332 3.27103 15.7759 1.88993 20.5734 3.12565L21.482 3.34372L22.3543 3.67082L22.7904 3.8162C22.9358 3.88889 23.0812 3.96158 23.2266 3.99792L24.0625 4.39772C25.1165 5.01558 26.1705 5.66978 27.0791 6.50571C27.5516 6.9055 27.9514 7.37799 28.3875 7.81412C28.6056 8.03219 28.7873 8.2866 28.969 8.54102C29.1508 8.79543 29.3688 9.0135 29.5142 9.26791C29.8413 9.77674 30.2048 10.2856 30.4592 10.8671C30.6046 11.1578 30.7499 11.4123 30.8953 11.703L31.2224 12.5753C32.2764 15.1921 32.4218 17.6636 33.1123 17.4455C33.4031 17.3364 33.6212 16.7549 33.7666 15.7373C33.7666 15.2285 33.7666 14.6469 33.7302 13.9564C33.6575 13.6293 33.6212 13.2658 33.5485 12.9024C33.5121 12.7207 33.4758 12.5389 33.4031 12.3209C33.3304 12.1391 33.2577 11.9211 33.2214 11.7394C32.7852 10.3219 32.0583 8.97715 31.2588 7.70509C30.8226 7.08723 30.4228 6.46937 29.8777 5.92419L29.5142 5.48806C29.4052 5.34268 29.2598 5.1973 29.1144 5.08827L28.2785 4.32503C27.1155 3.34372 25.8797 2.47144 24.4986 1.81724C23.8444 1.45379 23.1175 1.23572 22.3906 0.944964C22.0272 0.799585 21.6637 0.76324 21.3003 0.654206C20.9369 0.545171 20.5734 0.436137 20.1736 0.399792L19.2286 0.254413L18.7562 0.181724L18.4291 0.0363448L17.5931 0H17.3751H17.266H17.1933H17.1207H17.0843L16.6482 0.0363448C16.0303 0.0726895 15.4124 0.0726895 14.8309 0.181724C14.2131 0.290758 13.6316 0.363448 13.05 0.545171C10.6876 1.12669 8.4706 2.21703 6.54433 3.74351C4.6544 5.26999 3.05523 7.15992 1.96489 9.30426L1.5651 10.1038C1.45606 10.3946 1.31068 10.649 1.20165 10.9398L0.947235 11.812L0.801856 12.2482C0.765512 12.3936 0.729167 12.5389 0.692822 12.6843L0.474753 13.5566C0.438409 13.702 0.402064 13.8474 0.365719 13.9927L0.29303 14.4652C0.22034 15.0831 0.111306 15.7009 0.111306 16.2461C-0.143107 18.3541 0.0386163 20.6075 0.656477 22.7155C1.27434 24.8235 2.29199 26.8224 3.70944 28.567C5.09054 30.3115 6.83509 31.7653 8.7977 32.8557L10.3242 33.5826C10.833 33.8006 11.3782 33.9823 11.887 34.1641C12.4322 34.3094 12.9774 34.4548 13.5225 34.6002C14.0677 34.7092 14.6856 34.7819 15.2307 34.891L15.4488 34.9273H15.6305L16.0303 34.9637L16.7936 35H16.9753H17.0843H17.1933H17.2297H17.266L17.7022 34.9637L18.5381 34.9273L18.9742 34.891C19.1196 34.891 19.265 34.8546 19.4104 34.8183L20.2463 34.6729C20.7915 34.6002 21.3366 34.4548 21.8818 34.3094C24.0625 33.7279 26.0978 32.6739 27.8787 31.3292C29.6596 29.9481 31.1861 28.2762 32.3128 26.3499C32.4581 26.0955 32.6035 25.8775 32.7489 25.6231L33.1123 24.8598C33.2214 24.6054 33.3668 24.351 33.4758 24.0966L33.7666 23.297C33.8756 23.0426 33.9483 22.7882 34.0573 22.4974L34.2754 21.6978L34.4935 20.8982L34.6388 20.026C34.8206 19.1537 34.5661 18.027 34.4208 17.6635C34.021 16.9367 33.7302 17.8453 33.4031 19.2264Z" fill="#4A4A5E"/>
</g>
<defs>
<clipPath id="clip0_902_8615">
<rect width="35" height="35" fill="white"/>
</clipPath>
</defs>
</svg>
