<svg width="40" height="40" viewBox="0 0 40 40" fill="none" xmlns="http://www.w3.org/2000/svg">
<g clip-path="url(#clip0_859_5356)">
<path d="M25.0238 29.308C27.3854 25.9473 28.7933 22.087 29.747 18.0904C30.7462 13.9122 31.7453 9.41611 31.7907 5.10165C31.8361 3.55753 31.8361 1.51384 30.4737 0.514707C29.0658 -0.575261 27.2492 0.242215 26.1138 1.33218C23.4343 3.92086 23.4343 8.73488 23.071 12.1864C22.526 17.4092 22.3898 22.8136 22.8893 28.0364C21.9356 29.3534 24.0701 30.6251 25.0238 29.308ZM25.2509 14.0939C25.5234 11.6415 25.7051 9.0982 26.2046 6.69119C26.3863 5.8283 27.7942 1.33218 29.1566 2.74006C29.6562 3.28504 29.3837 5.19249 29.3383 5.91913C29.2475 7.23617 29.0658 8.5078 28.8387 9.82485C28.4754 11.8685 28.1121 14.0031 27.6579 16.0467C26.9767 19.0896 26.1138 22.087 24.7059 24.8573C24.7514 21.2695 24.8876 17.6817 25.2509 14.0939ZM20.7548 33.9858C19.7103 35.5753 19.2107 38.3003 21.0727 39.4811C25.0238 41.9789 28.6571 34.7579 24.7514 32.7596C23.5706 31.6696 21.5269 32.8504 20.7548 33.9858ZM22.7077 34.7579C22.7985 34.6216 22.9347 34.5308 23.0256 34.44C23.1164 34.5308 23.1618 34.5762 23.2526 34.6216C24.0701 35.0758 24.3426 35.8478 23.8885 36.7107C23.616 37.2557 22.526 38.164 22.0718 37.3011C21.8448 36.6653 22.3898 35.1666 22.7077 34.7579ZM18.8474 0.514707C17.4395 -0.575261 15.6229 0.242215 14.4875 1.33218C11.808 3.92086 11.808 8.73488 11.4447 12.1864C10.8543 17.4092 10.7634 22.8136 11.2176 28.0364C10.3093 29.3534 12.4438 30.6251 13.3975 29.308C15.7591 25.9473 17.167 22.087 18.1207 18.0904C19.1199 13.9122 20.119 9.41611 20.1644 5.10165C20.1644 3.55753 20.1644 1.51384 18.8474 0.514707ZM17.712 5.91913C17.6211 7.23617 17.4395 8.5078 17.2124 9.82485C16.8491 11.914 16.5312 14.0031 16.077 16.0922C15.3504 19.135 14.4875 22.087 13.125 24.8573C13.1704 21.2695 13.2613 17.6817 13.6246 14.0939C13.8971 11.6415 14.0788 9.0982 14.5783 6.69119C14.76 5.8283 16.1679 1.33218 17.5303 2.74006C18.0299 3.23963 17.7574 5.19249 17.712 5.91913ZM9.12848 33.9858C8.08393 35.5753 7.58436 38.3003 9.44639 39.4811C13.3975 41.9789 17.0307 34.7579 13.125 32.7596C11.9442 31.6696 9.90054 32.8504 9.12848 33.9858ZM11.0813 34.7579C11.1722 34.6216 11.3084 34.5308 11.3992 34.44C11.4901 34.5308 11.5355 34.5762 11.6263 34.6216C12.4438 35.0758 12.7163 35.8478 12.2621 36.7107C11.9896 37.2557 10.8997 38.164 10.4455 37.3011C10.2185 36.6653 10.7634 35.1666 11.0813 34.7579Z" fill="#E24D5F"/>
</g>
<defs>
<clipPath id="clip0_859_5356">
<rect width="40" height="40" fill="white"/>
</clipPath>
</defs>
</svg>
