<svg width="24" height="24" viewBox="0 0 24 24" fill="none" xmlns="http://www.w3.org/2000/svg">
<path d="M21.3572 12.6434C21.3812 14.8441 21.4132 17.0445 21.4248 19.2452C21.4288 20.023 21.3682 20.8009 21.3635 21.5789C21.3564 22.6925 20.4916 23.371 19.4755 23.3925C17.4103 23.4362 15.3443 23.4848 13.279 23.4744C10.8535 23.4621 8.42804 23.3986 6.00324 23.3357C5.43524 23.3072 4.86937 23.2466 4.30817 23.1545C3.62351 23.0588 2.94751 22.2746 2.92257 21.529C2.85964 19.6444 2.78857 17.7596 2.76791 15.8741C2.72217 11.7261 2.71324 7.57809 2.66911 3.43049C2.66244 2.79342 2.67697 2.17596 2.94031 1.58622C3.13724 1.14529 3.41737 0.786355 3.90657 0.653688C4.07964 0.608355 4.25724 0.582622 4.43617 0.576755C5.19884 0.546355 5.9631 0.543822 6.72484 0.498488C9.35977 0.341955 11.9942 0.399288 14.6291 0.487288C14.9879 0.499288 15.3476 0.518888 15.706 0.507555C15.8481 0.503468 15.9896 0.527978 16.122 0.579628C16.2545 0.631277 16.3752 0.709014 16.477 0.808222C17.8308 2.01169 19.1766 3.22462 20.5463 4.40982C21.0196 4.81956 21.1822 5.29569 21.1884 5.90742C21.2118 8.15302 21.2736 10.3984 21.3208 12.6438L21.3572 12.6434ZM15.0504 1.59542C14.787 1.57476 14.5658 1.54542 14.3443 1.54169C12.4584 1.50996 10.5726 1.48116 8.68657 1.45516C7.83404 1.44342 6.98124 1.43835 6.12871 1.43302C5.69537 1.43035 5.26124 1.41676 4.82924 1.43916C4.22591 1.47049 4.03937 1.64449 3.93097 2.23556C3.82276 2.79471 3.79716 3.36671 3.85497 3.93329C3.89057 4.26062 3.90844 4.58956 3.90871 4.91862C3.91777 10.2026 3.92471 15.4869 3.92924 20.7708C3.92657 20.8756 3.93057 20.9804 3.94124 21.0846C4.03097 21.765 4.39031 22.2212 5.16351 22.2518C8.05204 22.3656 10.9407 22.3668 13.8302 22.3178C15.2819 22.2932 16.734 22.2809 18.186 22.2644C18.5299 22.2604 18.8744 22.2738 19.2176 22.2584C19.9059 22.2272 20.2035 21.9321 20.1978 21.258C20.1872 20.0765 20.1576 18.8952 20.1338 17.7137C20.1215 17.1002 20.1088 16.4865 20.0879 15.8734C20.0387 14.4226 19.9608 12.9724 19.9387 11.5212C19.9139 9.90489 19.9387 8.28796 19.9399 6.67129C19.9399 6.55622 19.9283 6.44116 19.9219 6.32329C19.8713 6.31113 19.8198 6.30293 19.7679 6.29876C18.8551 6.31702 17.9423 6.34582 17.0294 6.35129C16.7453 6.35348 16.462 6.32088 16.1859 6.25422C15.6223 6.11556 15.4447 5.89809 15.3851 5.32089C15.3314 4.80022 15.2966 4.27756 15.2498 3.75609C15.1868 3.05742 15.1208 2.35836 15.0504 1.59542ZM19.2378 5.11276L19.2563 5.01782L16.2926 2.32876L16.2243 2.37342L16.6651 5.26796L19.2378 5.11276Z" fill="#3449B7"/>
</svg>
