<svg width="21" height="20" viewBox="0 0 21 20" fill="none" xmlns="http://www.w3.org/2000/svg">
<g clip-path="url(#clip0_925_4631)">
<path d="M0.5 15.221C0.504079 15.3352 0.5 15.4372 0.520395 15.5962C0.659077 16.926 1.55644 18.0884 2.79234 18.6024C3.09826 18.737 3.42457 18.8104 3.75496 18.8634C3.83654 18.8716 3.9222 18.8757 4.00378 18.8838C4.08943 18.892 4.17509 18.8961 4.23627 18.8961L4.64824 18.9083L6.29612 18.945C8.49057 18.9899 10.6932 18.998 12.8999 18.9328C13.4464 18.9491 13.9889 18.9613 14.5355 18.9776L15.8326 19.0021L16.4811 19.0103H16.6851L16.8482 19.0021C16.938 19.0021 17.1174 18.9776 17.2561 18.9573C17.819 18.8634 18.3207 18.6636 18.7816 18.3577C19.2344 18.0517 19.6219 17.652 19.9115 17.187C20.2011 16.7261 20.3928 16.1958 20.4621 15.6574C20.4866 15.5228 20.4907 15.3882 20.4948 15.2536C20.4948 15.1883 20.5029 15.1108 20.4989 15.0578L20.4948 14.8947L20.4825 14.2461C20.4621 13.3814 20.4336 12.5207 20.3887 11.6601C20.3398 10.6812 20.1522 9.86538 19.785 9.9388C19.4465 10.0041 19.1977 10.7016 19.161 11.705C19.1283 12.6064 19.0957 13.516 19.0631 14.4215L19.0427 15.0986C19.0345 15.1883 19.0305 15.2781 19.0182 15.3678C18.9978 15.4535 18.9937 15.5432 18.9652 15.6289C18.8795 15.9756 18.7205 16.2978 18.5043 16.5793C18.1576 17.032 17.6518 17.3624 17.0889 17.4929L16.9053 17.5256C16.8809 17.5337 16.8319 17.5378 16.7871 17.5378L16.6525 17.546L16.5831 17.55H16.5464L16.4118 17.5541L16.1385 17.5582L15.0454 17.5786L10.6728 17.6683C9.36753 17.55 8.05413 17.4807 6.73664 17.4399C6.07586 17.4195 5.41916 17.4032 4.75837 17.395L4.26075 17.391H4.13838L4.04457 17.3828C3.98338 17.3746 3.9222 17.3828 3.86102 17.3665C3.61628 17.342 3.38378 17.2604 3.16352 17.1585C2.71892 16.9545 2.35182 16.5915 2.11525 16.1632L2.03367 16.0001C2.00919 15.9429 1.99288 15.8858 1.9684 15.8287C1.94393 15.7716 1.93169 15.7104 1.91538 15.6533L1.89091 15.5636C1.88275 15.5351 1.88275 15.5106 1.87867 15.4861L1.86643 15.4127C1.86235 15.3882 1.8542 15.3678 1.8542 15.3189L1.84196 15.0701L1.83788 14.6132C1.8338 13.2876 1.8338 11.9619 1.85827 10.6445C1.86235 10.4079 1.71959 10.0408 1.6217 9.92249C1.42183 9.69407 1.2546 9.99183 1.12815 10.4405C0.928285 11.1829 0.777365 11.9986 0.671314 12.8593C0.618288 13.2876 0.577499 13.7281 0.548947 14.1768C0.532631 14.4011 0.520395 14.6255 0.508158 14.8498L0.5 15.0211L0.5 15.221Z" fill="white"/>
<path d="M13.5694 3.71856C12.8556 2.87015 12.1703 1.99318 11.3709 1.22227L11.3505 1.20188C11.0486 0.912273 10.5673 0.920431 10.2777 1.22227C10.0942 1.41398 9.91469 1.61384 9.74337 1.82187C9.61285 1.932 9.47824 2.03805 9.3518 2.15226C8.5401 2.87015 7.75695 3.62066 7.11656 4.50171C6.93301 4.75052 6.88814 5.06459 7.16551 5.30933C7.4184 5.53367 7.74879 5.55406 7.9976 5.36235C8.44628 5.01157 8.90312 4.66486 9.29877 4.25697C9.62916 3.91842 9.94324 3.56764 10.2532 3.20869C10.1961 3.77974 10.1431 4.35487 10.1513 4.92591C10.1676 6.03945 10.2492 7.15299 10.3022 8.27061C9.83311 10.2693 10.1023 12.3128 10.0044 14.3319C10.0003 14.4216 10.1431 14.5644 10.241 14.6092C10.4409 14.699 10.6081 14.5848 10.7345 14.4134C11.1547 13.8506 11.3382 13.1653 11.3872 12.4678C11.5055 10.7914 11.6849 9.11494 11.5503 7.42628C11.5666 7.21826 11.583 7.01023 11.5952 6.80221C11.6482 5.76209 11.6727 4.72605 11.5993 3.69001C12.2723 4.40381 13.0187 5.05236 13.6673 5.78248C13.7162 5.83551 13.8998 5.81919 13.9936 5.77432C14.1853 5.68459 14.2383 5.49696 14.2302 5.30933C14.2057 4.68118 13.9365 4.155 13.5694 3.71856Z" fill="white"/>
</g>
<defs>
<clipPath id="clip0_925_4631">
<rect width="20" height="20" fill="white" transform="translate(0.5)"/>
</clipPath>
</defs>
</svg>
