<svg width="96" height="96" viewBox="0 0 96 96" fill="none" xmlns="http://www.w3.org/2000/svg">
<g clip-path="url(#clip0_685_5023)">
<path d="M6.85954 54.7386C5.53701 49.717 5.04923 44.2134 5.7739 38.5607C5.84337 37.8778 5.98239 37.1547 6.12143 36.4316L6.34985 35.3815L6.42929 34.8765L6.57828 34.3313C6.75707 33.6771 6.96567 32.9139 7.14446 32.2597L7.29346 31.7145L7.55178 31.198L7.95909 30.1364C8.38624 28.7878 9.1016 27.4565 9.70764 26.0965C9.99575 25.471 10.4628 24.8341 10.8204 24.1684C11.2179 23.5717 11.5358 22.8371 11.973 22.3092C13.8907 19.3655 16.4047 16.8121 19.1871 14.5628C19.9125 14.0522 20.5584 13.4038 21.3236 12.962L22.3968 12.2506L22.9533 11.9293L23.2315 11.7686L23.3707 11.6883L23.4402 11.6481L25.8849 10.4204L26.5507 10.1278C26.7594 10.0073 26.9383 9.99586 27.1469 9.87538L28.3792 9.43941L29.6115 9.00344C29.9991 8.8715 30.496 8.76827 30.8836 8.63634L32.1556 8.26924C32.5432 8.1373 33.0401 8.03407 33.4674 7.97101L36.0314 7.59262C36.9259 7.53536 37.8203 7.4781 38.6054 7.39214C42.0838 7.3123 45.5523 7.69731 48.9414 8.58733C52.2609 9.5175 55.4712 11.0617 58.3039 12.9158L59.3873 13.6677L59.9439 13.9892L60.4707 14.4197L62.4685 16.1129L64.2577 17.9266C64.4465 18.0931 64.526 18.2308 64.7149 18.3973L65.1026 18.9081L65.8779 19.9297L66.7228 20.9112L67.4286 21.973L68.1343 23.0348L68.4524 23.5858L68.4922 23.6546L68.5717 23.7924L68.7308 24.0679L69.9834 26.5587C70.3512 27.3564 70.6097 28.1255 70.9378 28.8544C72.1209 32.0281 72.8171 35.483 72.9766 38.9722C72.9175 42.4041 72.3913 45.8301 71.4277 49.1412C68.2788 59.5912 59.5642 68.1121 49.03 71.0718L47.0524 71.6626L45.0251 72.0066L44.0313 72.2131C43.6735 72.236 43.3157 72.2589 42.9977 72.3507L40.9604 72.5168C38.2671 72.5107 35.5341 72.4357 32.8805 71.8557C31.5388 71.6202 30.2567 71.1666 28.9447 70.8221C28.2888 70.6498 27.6626 70.3685 27.0365 70.0872C26.4103 69.8059 25.7544 69.6337 25.1978 69.3122C24.0151 68.7095 22.7627 68.1469 21.6396 67.3261C21.0432 66.9357 20.4867 66.6143 19.8903 66.224L18.3099 64.9325C13.4297 61.1384 10.4475 56.6158 9.36443 57.7921C8.92722 58.32 9.14606 59.6629 9.98118 61.752C10.5379 62.7162 11.1741 63.8181 11.9991 65.0865C12.4961 65.626 12.9633 66.2746 13.5001 66.883C13.7685 67.1872 14.0368 67.4914 14.4145 67.8243C14.7525 68.0883 15.1302 68.4212 15.3986 68.7254C17.7841 70.9295 20.6466 72.6745 23.5686 74.2015C25.0793 74.8904 26.5205 75.6194 28.1604 76.0501L29.3332 76.4749C29.7009 76.6299 30.1382 76.7447 30.5357 76.7907L32.9707 77.3133C36.2703 77.8877 39.5897 78.1751 42.9488 77.8886C44.5986 77.8545 46.2284 77.4644 47.9377 77.2122C48.7924 77.0861 49.5278 76.7533 50.3427 76.5583C51.1576 76.3633 51.9725 76.1683 52.7775 75.7954L54.7451 75.0267L55.729 74.6423L56.5141 74.5564L58.1538 73.7015L58.5711 73.4605L58.7798 73.3401L58.919 73.2597L59.0581 73.1794L59.1276 73.1392L59.9226 72.5884C61.0654 71.8368 62.248 71.1541 63.2417 70.3049C64.3049 69.4155 65.3384 68.6352 66.2526 67.6482C70.1379 63.9358 73.1883 59.4197 75.205 54.3986C77.1522 49.4175 78.1453 44.0691 77.8861 38.8008L77.7765 36.8438C77.6671 36.1724 77.667 35.5296 77.5576 34.8582L77.0902 32.9241L76.8913 31.937C76.8018 31.6213 76.7123 31.3057 76.6228 30.99L76.0858 29.0962C75.9964 28.7805 75.9069 28.4649 75.8174 28.1492L75.4396 27.1735C74.9027 25.9224 74.4354 24.6311 73.839 23.598C72.0197 19.3223 69.2065 15.2531 65.7177 11.9413C62.2289 8.62944 58.0942 5.96601 53.4726 4.22647C48.9206 2.44677 43.9911 1.61965 39.0419 1.72223L35.325 2.03158C34.1126 2.18062 32.8703 2.43868 31.6976 2.65659C30.4951 2.98353 29.2927 3.31047 28.0902 3.6374C26.9275 4.03321 25.6654 4.57822 24.5026 4.97403L24.0455 5.14613L23.6977 5.34693L22.8928 5.71984L21.3922 6.49436L21.0444 6.69517L20.8357 6.81566L20.627 6.93614L20.5574 6.9763L20.4879 7.01646L19.6929 7.56728L18.1327 8.55987L17.3378 9.11068C17.0595 9.27133 16.821 9.50085 16.5825 9.73036L15.1417 10.9296C14.1778 11.6697 13.2934 12.5477 12.409 13.4256C8.87148 16.9372 6.12914 21.1836 4.19184 25.6997C2.2943 30.2848 1.20179 35.1397 1.15281 40.0349C1.15291 40.6777 1.11324 41.2515 1.11333 41.8943L1.25274 43.7422C1.3224 44.3448 1.32249 44.9875 1.39215 45.5901L1.71044 47.4266C1.78009 48.0292 1.91931 48.5916 2.02873 49.2631L2.48615 51.0192L2.94357 52.7754L3.61963 54.589C4.22614 56.4427 5.94574 58.2966 6.62162 58.8247C8.18207 59.7603 7.74448 57.7172 6.85954 54.7386Z" fill="white"/>
<path d="M80.7439 75.5711C76.7836 71.6108 73.5433 68.8619 69.8918 64.7201C69.7174 64.5456 68.1332 64.557 67.8298 64.744C67.0424 65.1825 63.7327 68.2602 63.6557 68.9187C63.5348 71.2497 66.6983 70.7253 67.9134 72.1855C70.7443 75.752 73.5108 79.4992 77.0773 82.3302C77.4231 82.7986 82.5924 88.8978 82.9995 89.305C88.4022 95.5874 85.0122 93.4046 89.3607 95.6662C90.3069 95.9994 96.4514 96.496 95.6215 89.4054C91.4604 81.1342 87.4641 81.2479 86.711 80.4947C84.3234 78.2297 83.0796 77.5391 80.7439 75.5711Z" fill="white"/>
<path d="M36.9893 38.7785C31.2681 36.8715 25.4602 37.9117 19.6522 37.5649C19.3922 37.5649 18.9587 38.1717 18.872 38.5185C18.612 39.3853 18.9587 40.0788 19.3922 40.5989C21.0392 42.3327 22.9463 43.1128 24.94 43.2862C29.7078 43.8063 34.5621 44.4998 39.3299 43.9797C39.9367 44.0664 50.1238 43.9797 50.7306 43.9797C52.1738 43.5086 55.3042 45.3452 59.4781 42.4643C59.4781 42.4643 61.5651 41.1713 61.5651 40.1278C61.5651 39.0843 48.9921 38.0851 46.7848 38.0851C43.3174 38.1717 40.1967 38.5185 36.9893 38.7785Z" fill="white"/>
<path d="M42.9162 38.0801C44.8233 32.3586 44.1297 21.6127 44.1298 20.7429C44.1299 19.8731 42.0513 18.917 41.7045 18.8303C40.8377 18.5703 39.0942 19.4402 38.5741 19.8736C37.5306 21.961 38.7475 24.1409 38.5741 26.1348C38.054 30.9028 38.5741 35.526 37.7151 40.4206C37.6284 41.0275 37.7151 51.2146 37.7151 51.8214C38.1862 53.2647 36.3496 56.3949 39.2305 60.569C39.2305 60.569 40.6958 61.5653 41.7393 60.5218C42.7827 59.4784 43.6097 50.083 43.6097 47.8756C43.523 44.408 43.1762 41.2876 42.9162 38.0801Z" fill="white"/>
</g>
<defs>
<clipPath id="clip0_685_5023">
<rect width="96" height="96" fill="white"/>
</clipPath>
</defs>
</svg>
