<svg width="24" height="24" viewBox="0 0 24 24" fill="none" xmlns="http://www.w3.org/2000/svg">
<g clip-path="url(#clip0_925_4622)">
<path d="M7.60394 21.3524C5.81034 20.5915 4.55037 19.4551 4.30825 19.9047C4.21437 20.0974 4.39719 20.5026 4.82212 21.0609C5.05929 21.3129 5.35082 21.6094 5.71645 21.9108C5.90916 22.0491 6.11174 22.1875 6.32915 22.3357C6.43785 22.4049 6.55149 22.4839 6.67008 22.5531C6.79361 22.6124 6.91713 22.6766 7.0456 22.7409C7.95475 23.2251 8.95285 23.5265 9.96082 23.7587C10.4698 23.8378 10.9836 23.9465 11.5024 23.9613L11.8928 23.986C12.0212 23.9959 12.1547 24.0058 12.2831 23.9959L13.0638 23.9712C14.1014 23.8872 15.144 23.7142 16.1223 23.3535C16.6263 23.2053 17.0908 22.9632 17.5701 22.7458C17.8072 22.6371 18.0246 22.4889 18.2519 22.3604C18.4743 22.222 18.7065 22.1035 18.919 21.9355L19.4427 21.5451L19.7046 21.3475L19.922 21.1498L20.3568 20.7546L20.4655 20.6557L20.5199 20.6063L20.5446 20.5816L20.5792 20.552L20.5841 20.547L20.589 20.5421L20.6039 20.5273L20.8163 20.295C21.093 19.9788 21.3895 19.6823 21.6267 19.3315C21.8737 18.9906 22.1306 18.6595 22.3283 18.289C23.188 16.8511 23.7315 15.2255 23.9193 13.5703C24.1071 11.915 23.9588 10.2153 23.445 8.63414L23.2325 8.04615C23.1584 7.85345 23.0991 7.65087 23.0003 7.46805L22.7335 6.90477L22.6 6.62313C22.5506 6.53419 22.4963 6.44525 22.4419 6.35631L22.1208 5.82268C22.0664 5.73374 22.017 5.6448 21.9528 5.5608L21.7601 5.30387C21.5031 4.96787 21.2511 4.60224 20.9794 4.34036C20.0702 3.19403 18.9041 2.18606 17.5799 1.45478C16.2508 0.708683 14.7635 0.239282 13.2417 0.0712863C11.7198 -0.0967097 10.1535 0.0317578 8.67121 0.46163L7.57429 0.83715C7.21854 0.990323 6.86772 1.15832 6.51691 1.31643C6.17597 1.50419 5.84492 1.70184 5.51387 1.89948C5.18282 2.11688 4.86165 2.36888 4.54048 2.60605L4.4219 2.69499L4.32308 2.78393L4.12543 2.9618L3.73015 3.31756L3.63133 3.4065L3.58192 3.45097L3.53251 3.49544L3.52263 3.51026L3.49298 3.54979L3.30028 3.76226L2.90993 4.19213L2.71723 4.40953C2.65794 4.48365 2.60359 4.56271 2.5443 4.64176L2.19842 5.11116C1.95631 5.41751 1.77843 5.76338 1.57585 6.09443C0.809985 7.44334 0.310939 8.94048 0.108355 10.4722C-0.094228 12.0039 -0.00528896 13.5752 0.370231 15.0723C0.419642 15.2601 0.454229 15.4528 0.518463 15.6307L0.706223 16.1791C0.770457 16.3619 0.824809 16.5448 0.903866 16.7226L1.14598 17.2513C1.22998 17.4243 1.30409 17.6071 1.39303 17.7751L1.68455 18.2791L1.97607 18.7781L2.32689 19.2673C2.66782 19.7812 3.32498 20.2061 3.58192 20.3197C4.09579 20.5223 3.80427 19.9195 3.2904 19.0845C2.485 17.6664 1.88714 16.026 1.64008 14.2669C1.59561 14.0495 1.60055 13.8222 1.57585 13.5999L1.5462 13.2639L1.53138 13.0959V12.9279C1.53138 12.7056 1.53138 12.4783 1.53632 12.251V12.083L1.55114 11.915L1.58079 11.5741C1.60055 11.1195 1.69938 10.6699 1.77349 10.2202C1.80808 9.99293 1.88714 9.77552 1.94149 9.55317C2.00572 9.33083 2.05019 9.10848 2.13913 8.89601C2.47512 7.83863 3.02358 6.86524 3.68074 5.98573C3.85368 5.77327 4.00191 5.5361 4.19955 5.34339L4.48119 5.04199L4.61954 4.89376L4.68871 4.81964L4.7233 4.78011L4.74307 4.76035L4.74801 4.75541L5.39529 4.18719L5.57316 4.0439C5.62752 3.99449 5.68187 3.96484 5.73622 3.92531L6.06233 3.69802L6.3835 3.47073C6.4922 3.39662 6.62067 3.33238 6.73431 3.26815L7.09007 3.06557C7.20865 2.99639 7.32724 2.92722 7.45077 2.87781L8.19687 2.54676C8.4538 2.45782 8.71568 2.37382 8.97261 2.28488C10.0152 1.97853 11.1022 1.82536 12.1892 1.84018C13.2763 1.85995 14.3534 2.06747 15.3762 2.41335L15.7567 2.5517L15.9494 2.62087L16.1322 2.70487L16.8684 3.05074L17.5651 3.46579C17.6244 3.50038 17.6837 3.53497 17.738 3.56955L17.9011 3.68814L18.2272 3.93025L18.5533 4.16742L18.8547 4.43918L19.1561 4.71094L19.3093 4.84435L19.3241 4.85423L19.3538 4.88388L19.4279 4.96787L20.0258 5.62503C20.1987 5.8375 20.337 6.04502 20.4952 6.25255C21.1029 7.11723 21.6118 8.11039 21.9478 9.14801C22.2295 10.1906 22.3431 11.2727 22.3085 12.3449C22.2097 15.7641 20.2778 19.0252 17.3675 20.7644L16.824 21.0905L16.2508 21.3574L15.9642 21.4957C15.8654 21.5352 15.7666 21.5698 15.6677 21.6044L15.0699 21.8169C14.2546 22.0442 13.4245 22.2369 12.5746 22.2665C12.1497 22.311 11.7248 22.2813 11.2998 22.2715C11.0874 22.2764 10.8799 22.227 10.6674 22.2072C10.4599 22.1776 10.2425 22.1677 10.0349 22.1183C9.61989 22.0195 9.19496 21.9552 8.79473 21.807C8.59215 21.7378 8.38463 21.6835 8.18698 21.6094L7.60394 21.3524Z" fill="#3449B7"/>
<path d="M12.8217 8.63429C12.5796 8.58488 12.377 8.64911 12.2238 8.74299C11.7149 9.05922 11.4926 9.43968 11.4333 9.82508C11.3641 10.2648 11.2801 10.7095 11.2307 11.1542H11.2208C10.4846 11.0702 9.74343 11.0455 9.01216 11.2481C8.80463 11.3074 8.63169 11.5347 8.64652 11.9794C8.66134 12.3895 8.80957 12.6909 9.02204 12.7354C9.40744 12.8194 9.79284 12.9132 10.1832 12.9034C10.5241 12.8935 10.8651 12.8589 11.206 12.8194C11.1961 12.8737 11.1912 12.9281 11.1813 12.9824C11.0973 13.7186 11.0726 14.4598 11.2752 15.1911C11.3345 15.3986 11.5617 15.5715 12.0064 15.5567C12.4165 15.5419 12.7179 15.3937 12.7624 15.1812C12.8464 14.7958 12.9403 14.4104 12.9304 14.02C12.9205 13.6791 12.8859 13.3332 12.8464 12.9923C13.6963 13.1554 14.561 12.9923 15.4158 13.0812C15.4652 13.0862 15.5442 12.9132 15.5689 12.7947C15.6183 12.5525 15.5541 12.35 15.4602 12.1968C15.144 11.6879 14.7635 11.4655 14.3781 11.4062C13.9334 11.337 13.4937 11.253 13.049 11.2036C13.1676 10.4032 13.0292 9.59285 13.1132 8.78746C13.1132 8.73311 12.9452 8.65899 12.8217 8.63429Z" fill="#3449B7"/>
</g>
<defs>
<clipPath id="clip0_925_4622">
<rect width="24" height="24" fill="white"/>
</clipPath>
</defs>
</svg>
