<svg width="30" height="27" viewBox="0 0 30 27" fill="none" xmlns="http://www.w3.org/2000/svg">
<path d="M28.8996 10.175C28.7744 9.78123 28.5332 9.43446 28.2075 9.18017C27.8818 8.92588 27.4869 8.77594 27.0746 8.75L19.6496 8.2375L16.8996 1.3C16.7494 0.918004 16.488 0.58988 16.1493 0.358105C15.8105 0.12633 15.41 0.0015786 14.9996 0C14.5891 0.0015786 14.1886 0.12633 13.8498 0.358105C13.5111 0.58988 13.2497 0.918004 13.0996 1.3L10.2996 8.275L2.92456 8.75C2.51269 8.77762 2.11858 8.92819 1.79322 9.18224C1.46786 9.43629 1.22622 9.78212 1.09956 10.175C0.969482 10.5739 0.961883 11.0026 1.07774 11.4059C1.19359 11.8092 1.42759 12.1685 1.74956 12.4375L7.42456 17.2375L5.73706 23.875C5.6203 24.324 5.64131 24.7978 5.79736 25.2347C5.9534 25.6716 6.23727 26.0515 6.61206 26.325C6.97585 26.5861 7.40927 26.7327 7.85686 26.7461C8.30445 26.7594 8.74584 26.6389 9.12456 26.4L14.9871 22.6875H15.0121L21.3246 26.675C21.6484 26.8854 22.0259 26.9983 22.4121 27C22.7274 26.9975 23.0379 26.9228 23.3198 26.7815C23.6017 26.6403 23.8475 26.4362 24.0382 26.1851C24.229 25.9341 24.3596 25.6426 24.4201 25.3331C24.4805 25.0236 24.4692 24.7044 24.3871 24.4L22.5996 17.1375L28.2496 12.4375C28.5715 12.1685 28.8055 11.8092 28.9214 11.4059C29.0372 11.0026 29.0296 10.5739 28.8996 10.175Z" fill="#9494AD"/>
</svg>
