<svg width="40" height="40" viewBox="0 0 40 40" fill="none" xmlns="http://www.w3.org/2000/svg">
<g clip-path="url(#clip0_25_2631)">
<path d="M13.6429 35.7078C13.4787 35.6422 13.3228 35.5601 13.1669 35.4863L12.2149 35.0349C10.9921 34.3455 9.79388 33.5905 8.75982 32.6303C8.20997 32.1871 7.74218 31.6537 7.25798 31.1448C7.00357 30.8986 6.81481 30.595 6.58502 30.3242C6.37164 30.0369 6.13364 29.7825 5.94489 29.4789C5.57558 28.8798 5.14883 28.3053 4.85338 27.657C4.69745 27.3369 4.5169 27.0332 4.36918 26.705L3.98346 25.7201C2.77706 22.7165 2.62113 19.9097 1.81686 20.1559C1.48038 20.2708 1.21776 20.9602 1.06183 22.1174C1.04542 22.6918 1.03721 23.3812 1.11107 24.1609C1.17673 24.5466 1.25059 24.9569 1.33266 25.3837C1.3819 25.597 1.41473 25.8186 1.48038 26.0402C1.55424 26.2536 1.6281 26.4752 1.70197 26.705C2.20258 28.3463 3.02326 29.8646 3.92601 31.3254C4.43483 32.023 4.90262 32.7452 5.50172 33.3771L5.92847 33.8613C6.06799 34.0254 6.21571 34.1896 6.37164 34.3291L7.31542 35.2154C8.62851 36.3316 10.0565 37.3574 11.6404 38.0796C12.4036 38.4982 13.2407 38.7608 14.0532 39.0644C14.4636 39.2121 14.8903 39.2942 15.3089 39.4091C15.7356 39.5158 16.1377 39.6389 16.5973 39.6881L17.6724 39.8441L18.2059 39.9179L18.6901 39.9426L19.6667 39.9836L19.9129 39.9918L20.036 40H20.0934H20.1673H20.1755H20.1919H20.2247L20.75 39.9754C21.4476 39.9261 22.1451 39.9343 22.8345 39.7948C23.5239 39.6799 24.2133 39.5979 24.8862 39.3927C27.5863 38.7115 30.1304 37.4477 32.3052 35.7242C34.4718 34.0008 36.2937 31.8342 37.5493 29.3722L37.9925 28.4366C38.132 28.1247 38.2961 27.8211 38.4028 27.4846L38.7475 26.508L38.9199 26.0238C38.9691 25.8597 39.0019 25.6873 39.0512 25.5232L39.2974 24.522C39.3384 24.3496 39.3876 24.1937 39.4123 24.0131L39.4861 23.4879C39.5764 22.7903 39.7077 22.0681 39.7077 21.4362C39.9867 19.0234 39.798 16.4629 39.1004 14.0583C38.411 11.6373 37.221 9.34756 35.6289 7.36151C34.0368 5.37546 32.0508 3.69307 29.8021 2.45384L28.0705 1.60854C27.4714 1.37874 26.8641 1.15716 26.265 0.935576C25.6494 0.755027 25.0257 0.607304 24.402 0.443168C23.7619 0.311859 23.0807 0.229791 22.4242 0.131309L22.178 0.0984817L21.9564 0.0820681L21.5132 0.0574477L20.6269 0.0164136L20.4053 0.00820681L20.2986 0H20.1837H20.1509H20.0934L19.6092 0.0246204L18.6244 0.0492409L18.1402 0.0738613C17.9843 0.0902749 17.8201 0.123102 17.6642 0.139516L16.7122 0.295445C16.0721 0.369307 15.4566 0.56627 14.8329 0.722199C12.3544 1.40336 10.0073 2.57694 7.97197 4.14444C5.92847 5.70373 4.19684 7.65696 2.87554 9.85638C2.7114 10.1354 2.53085 10.398 2.39134 10.6853L1.97279 11.547C1.84148 11.8342 1.68555 12.1215 1.56245 12.4169L1.22597 13.3197C1.11928 13.6233 0.996179 13.9188 0.897698 14.2224L0.651493 15.1498L0.405289 16.0854L0.241153 17.0784C0.0359822 18.0796 0.315014 19.3517 0.47915 19.7866C0.848457 20.6237 1.20956 19.5815 1.58707 17.9975C2.30927 15.3878 3.53208 12.7616 5.30476 10.398C5.50993 10.0944 5.78075 9.83176 6.01054 9.54452L6.37164 9.11777L6.55219 8.90439L6.74915 8.70743C7.01177 8.44481 7.2826 8.18219 7.54521 7.91137L7.74218 7.7144L7.96376 7.53385L8.39872 7.17275C8.95679 6.66393 9.59692 6.25359 10.2206 5.81042C10.5243 5.58063 10.8772 5.4247 11.1972 5.22774C11.5255 5.03898 11.8456 4.82561 12.1985 4.68609C13.8316 3.84079 15.6207 3.34017 17.4262 3.07755C17.8776 3.02831 18.329 2.92983 18.7885 2.93804L19.4697 2.91342L19.8144 2.90521L19.9867 2.897H20.0688H20.1098H20.1263L21.5542 2.99549L21.9236 3.02011C22.0467 3.02831 22.1451 3.05293 22.2518 3.06935L22.9002 3.18424L23.5485 3.29093C23.7619 3.33197 23.9835 3.40583 24.205 3.46327L24.8616 3.64382C25.0832 3.70127 25.2966 3.75872 25.5099 3.84899L26.7738 4.3332C27.1841 4.53016 27.5863 4.73533 27.9884 4.9405C29.5805 5.80222 31.0331 6.90193 32.2888 8.1904C33.5444 9.48707 34.562 10.9971 35.3581 12.6057L35.6453 13.213L35.7931 13.5166L35.908 13.8367L36.3675 15.1005L36.6958 16.4054C36.7204 16.5121 36.7533 16.6188 36.7779 16.7337L36.8271 17.0702L36.9256 17.7349L37.0323 18.3997L37.0651 19.0726L37.0979 19.7456L37.1144 20.0821V20.1149V20.1888L37.1062 20.3693L37.0405 21.8383C36.9913 22.2897 36.9092 22.6918 36.8599 23.1268C36.5563 24.8584 35.99 26.6229 35.1693 28.2314C34.2666 29.7825 33.1423 31.1941 31.8374 32.4169C27.7176 36.3233 21.6117 37.8826 16.1542 36.5039L15.1365 36.2413L14.1435 35.8802L13.6429 35.7078Z" fill="#3449B7"/>
<path d="M17.0733 24.8174L17.2046 24.9323C17.7134 25.3755 18.4767 25.3262 18.9198 24.8174C19.56 24.087 20.1673 23.3238 20.791 22.5852C23.171 21.5347 24.5415 19.4009 26.4126 17.8088C26.4947 17.7349 26.4126 17.4149 26.3142 17.2343C26.109 16.8732 25.7643 16.7337 25.4442 16.7009C24.3609 16.586 23.5156 16.9143 22.8427 17.4395C21.2341 18.7116 19.5435 19.8933 18.2797 21.5347C18.2222 21.5839 18.1566 21.6332 18.0991 21.6742C17.5657 21.1654 16.9912 20.6976 16.3675 20.2873C15.9818 20.0329 15.4483 20.0329 14.9395 20.5827C14.4799 21.0833 14.3568 21.666 14.6277 22.0517C15.1201 22.7493 15.6043 23.4551 16.2116 24.0378C16.4988 24.3086 16.7861 24.563 17.0733 24.8174Z" fill="#3449B7"/>
</g>
<defs>
<clipPath id="clip0_25_2631">
<rect width="40" height="40" fill="white"/>
</clipPath>
</defs>
</svg>
