<svg width="100" height="100" viewBox="0 0 100 100" fill="none" xmlns="http://www.w3.org/2000/svg">
<path d="M39.0067 17.3412C28.5327 18.3645 18.5245 23.9864 12.3711 32.5494C3.00256 45.5836 3.51626 64.7795 13.3642 77.4563C23.2121 90.133 41.4848 95.3987 56.656 90.1521C77.8752 82.8151 90.6491 56.0727 79.3464 35.3645C71.8231 21.5795 55.0546 14.1864 39.0067 17.3412ZM79.7697 63.0398C76.9313 69.1275 73.3902 74.433 68.2779 78.7234C50.1875 92.2713 23.9354 83.4028 15.2957 67.2467C7.95872 53.5261 12.419 35.4056 25.1943 25.6563C41.9519 12.8617 67.6724 18.2617 77.5423 36.3494C81.9587 44.4398 82.7204 54.3384 79.7697 63.0398ZM71.182 21.7439L74.3491 9.11242C74.4154 8.84811 74.374 8.56829 74.234 8.33451C74.094 8.10073 73.8669 7.93215 73.6026 7.86584C73.3382 7.79954 73.0584 7.84095 72.8247 7.98096C72.5909 8.12097 72.4223 8.34811 72.356 8.61242L69.1889 21.2439C69.1226 21.5082 69.164 21.7881 69.304 22.0218C69.444 22.2556 69.6711 22.4242 69.9354 22.4905C70.1997 22.5568 70.4796 22.5154 70.7133 22.3754C70.9471 22.2354 71.1157 22.0082 71.182 21.7439ZM84.6875 15.8631C84.5837 15.7768 84.4638 15.7118 84.3348 15.6719C84.2058 15.6321 84.0702 15.6181 83.9357 15.6308C83.8013 15.6436 83.6707 15.6827 83.5515 15.7461C83.4322 15.8095 83.3267 15.8958 83.2409 16.0001L76.7902 23.7795C76.7041 23.8834 76.6394 24.0033 76.5996 24.1322C76.5598 24.2611 76.5459 24.3966 76.5584 24.5309C76.571 24.6652 76.61 24.7958 76.673 24.9151C76.736 25.0343 76.822 25.14 76.9258 25.2261C77.0297 25.3122 77.1496 25.377 77.2785 25.4167C77.4074 25.4565 77.5429 25.4705 77.6772 25.4579C77.8115 25.4453 77.9421 25.4064 78.0614 25.3433C78.1806 25.2803 78.2863 25.1944 78.3724 25.0905L84.8231 17.3097C84.9094 17.2059 84.9743 17.0861 85.0141 16.9571C85.054 16.8282 85.068 16.6926 85.0555 16.5583C85.0428 16.4239 85.0039 16.2933 84.9407 16.174C84.8776 16.0547 84.7915 15.9491 84.6875 15.8631ZM94.2519 27.585C94.1948 27.4628 94.1141 27.353 94.0146 27.2619C93.915 27.1708 93.7985 27.1003 93.6717 27.0542C93.5449 27.0082 93.4102 26.9875 93.2754 26.9935C93.1406 26.9995 93.0084 27.032 92.8861 27.0891L82.7615 31.8179C82.5247 31.9395 82.3443 32.1481 82.2581 32.3999C82.1719 32.6517 82.1866 32.9271 82.2992 33.1683C82.4118 33.4095 82.6135 33.5976 82.8619 33.6932C83.1103 33.7888 83.3861 33.7844 83.6313 33.6809L93.756 28.9508C94.0026 28.8351 94.1933 28.6264 94.2863 28.3704C94.3792 28.1144 94.3669 27.8319 94.2519 27.585Z" fill="#3449B7"/>
<path d="M52.6095 27.5413C48.4418 27.1047 44.239 27.1231 40.0752 27.5961C39.8079 27.6265 39.5632 27.7606 39.3938 27.9697C39.2244 28.1788 39.144 28.4461 39.1698 28.7139C40.2602 40.1084 41.9328 56.2961 42.4026 61.3166C42.4248 61.5546 42.5293 61.7775 42.6981 61.9467C42.8668 62.116 43.0894 62.2212 43.3273 62.244C45.2122 62.4276 46.8068 62.2851 48.667 61.992C48.8854 61.9575 49.0868 61.8536 49.2415 61.6957C49.3962 61.5378 49.496 61.3343 49.5259 61.1153C49.9574 57.9166 50.4273 53.9673 50.9711 49.3947C53.6369 26.9016 53.7492 28.4865 53.3095 27.9262C53.2243 27.8187 53.1185 27.7293 52.9983 27.6632C52.8781 27.5971 52.7459 27.5557 52.6095 27.5413ZM40.4876 70.3372C40.4081 72.4632 41.6191 74.2139 43.7287 75.018C48.3314 76.7755 53.4273 71.8248 50.5177 67.192C47.5424 62.4618 40.6848 65.1605 40.4876 70.3372Z" fill="#F69F13"/>
</svg>
