<svg width="100" height="101" viewBox="0 0 100 101" fill="none" xmlns="http://www.w3.org/2000/svg">
<path d="M54.2646 41.4457C57.2058 41.4457 59.5587 39.0927 59.5587 36.1515C59.5587 33.2104 57.2058 30.8574 54.2646 30.8574C51.3234 30.8574 48.9705 33.2104 48.9705 36.1515C48.9705 39.0927 51.3234 41.4457 54.2646 41.4457Z" fill="white"/>
<path d="M75.4411 78.2104C76.0294 78.2104 76.6176 77.7692 76.6176 77.0339C76.6176 76.2986 76.1764 75.8574 75.4411 75.8574H75.2941C74.7058 75.8574 74.2646 76.2986 74.2646 77.0339C74.2646 77.7692 74.8529 78.2104 75.4411 78.2104Z" fill="white"/>
<path d="M34.4116 75.71C33.8233 75.71 33.2351 76.1511 33.2351 76.8864C33.2351 77.6217 33.6763 78.0629 34.4116 78.0629H34.5586C35.1469 78.0629 35.588 77.6217 35.588 76.8864C35.588 76.1511 34.9998 75.71 34.4116 75.71Z" fill="white"/>
<path d="M33.6763 91.5923C33.2352 92.0335 33.2352 92.7688 33.6763 93.21L33.8234 93.357C33.9705 93.5041 34.2646 93.6511 34.5587 93.6511C35.5881 93.6511 36.0293 92.4747 35.294 91.7394C34.7058 91.1511 34.1175 91.1511 33.6763 91.5923Z" fill="white"/>
<path d="M75.4411 91.1514C74.8529 91.1514 74.2646 91.5925 74.2646 92.3278V92.4749C74.2646 93.0631 74.7058 93.5043 75.4411 93.5043C76.1764 93.5043 76.6176 92.9161 76.6176 92.3278C76.6176 91.7396 76.0294 91.1514 75.4411 91.1514Z" fill="white"/>
<path d="M64.5588 80.269H42.5C41.9117 80.269 41.3235 80.7102 41.3235 81.4455C41.3235 82.1808 41.7647 82.622 42.5 82.622H64.5588C65.147 82.622 65.7353 82.1808 65.7353 81.4455C65.7353 80.7102 65.147 80.269 64.5588 80.269Z" fill="white"/>
<path d="M58.8233 87.3276H45.7351C45.1468 87.3276 44.5586 87.7688 44.5586 88.5041C44.5586 89.2394 44.9998 89.6806 45.7351 89.6806H58.8233C59.4115 89.6806 59.9998 89.2394 59.9998 88.5041C59.9998 87.7688 59.4115 87.3276 58.8233 87.3276Z" fill="white"/>
<path d="M93.8233 26.2984C96.1763 23.3572 94.4116 19.0925 91.7645 17.7689C89.4116 16.5925 86.3233 17.3278 85.1468 20.1219C78.8233 8.50424 67.2057 2.47483 54.9998 3.6513C36.4704 3.21012 21.6174 18.0631 21.6174 36.1513C21.6174 50.416 30.8821 62.6219 43.6763 67.0336C41.3233 70.5631 38.2351 71.5925 38.088 71.5925H33.6763C31.1763 71.5925 29.1174 73.6513 29.1174 76.1513V93.3572C29.1174 95.8572 31.1763 97.916 33.6763 97.916H76.4704C77.6468 97.916 78.6763 97.4748 79.4115 96.7395C83.5292 94.6807 83.6763 86.8866 83.5292 82.1807C83.3821 78.2101 82.7939 74.0925 79.1174 72.3278C91.6174 65.2689 98.9704 51.8866 97.3527 36.7395C97.0586 32.4748 95.8821 28.9454 93.8233 26.2984ZM23.8233 36.1513C23.8233 19.3866 37.4998 5.71012 54.2645 5.71012C71.0292 5.71012 84.7057 19.3866 84.7057 36.1513C84.7057 52.916 71.0292 66.5925 54.2645 66.5925C37.4998 66.5925 23.8233 52.916 23.8233 36.1513ZM45.8821 67.7689C51.9115 69.3866 58.6763 69.2395 64.9998 67.0336C66.0292 68.9454 67.0586 70.5631 68.3821 71.7395H42.4998C43.8233 70.5631 44.9998 69.2395 45.8821 67.7689ZM31.3233 93.3572V76.2984C31.3233 74.9748 32.3527 73.9454 33.6763 73.9454H76.4704C77.7939 73.9454 78.8233 74.9748 78.8233 76.2984V93.3572C78.8233 94.6807 77.7939 95.7101 76.4704 95.7101H33.6763C32.3527 95.7101 31.3233 94.6807 31.3233 93.3572ZM75.7351 71.7395H72.0586C71.6174 71.2984 69.4115 70.8572 67.0586 66.4454C71.6174 65.7101 78.8233 60.8572 81.9115 57.0336C88.9704 48.3572 89.7057 42.1807 88.8233 32.916C88.6763 31.2984 88.3821 29.8278 88.088 28.2101C89.4116 28.6513 90.7351 28.5042 92.0586 27.7689C98.8233 37.0336 96.9115 61.8866 75.7351 71.7395Z" fill="white"/>
<path d="M12.2058 22.9162C11.6175 22.622 11.0293 22.9162 10.7352 23.5044C7.64694 31.1515 7.94106 39.975 11.3234 47.475C11.4705 47.9162 11.9116 48.0632 12.3528 48.0632C12.4999 48.0632 12.6469 48.0632 12.794 47.9162C13.3822 47.622 13.5293 47.0338 13.3822 46.4456C10.1469 39.5338 9.99988 31.2985 12.794 24.2397C12.9411 23.7985 12.794 23.2103 12.2058 22.9162Z" fill="white"/>
<path d="M3.23518 38.6512C3.38224 39.0924 3.82342 39.3865 4.2646 39.3865C4.99989 39.3865 5.58813 38.6512 5.29401 37.9159C4.11754 34.3865 4.11754 30.4159 5.44107 26.8865C5.58813 26.2982 5.29401 25.71 4.70577 25.4159C4.11754 25.2688 3.5293 25.563 3.23518 26.1512C2.05871 30.2688 1.91166 34.6806 3.23518 38.6512Z" fill="white"/>
<path d="M51.7646 59.5335C36.9116 57.3276 27.6469 41.8865 33.0881 27.6217C35.5881 21.0041 41.1763 15.71 47.794 13.357C48.3822 13.21 48.6763 12.4747 48.5293 12.0335C48.3822 11.4453 47.6469 11.1512 47.2058 11.2982C39.8528 13.7982 33.8234 19.5335 31.0293 26.8865C25.294 42.3276 35.1469 59.2394 51.4705 61.7394C52.0587 61.8865 52.6469 61.4453 52.794 60.857C52.794 60.2688 52.3528 59.6806 51.7646 59.5335Z" fill="white"/>
</svg>
