<svg width="213" height="52" viewBox="0 0 213 52" fill="none" xmlns="http://www.w3.org/2000/svg">
<path d="M62.4881 43.7604V42.1503C62.4859 40.6765 61.8994 39.2637 60.8573 38.2216C59.8152 37.1795 58.4024 36.593 56.9286 36.5908H37.0715L32.8001 40.9204L28.5266 36.5908H9.15569C7.6819 36.593 6.2691 37.1795 5.22697 38.2216C4.18485 39.2637 3.59841 40.6765 3.59621 42.1503V43.7604H0V46.3261H24.5959C25.5578 47.6558 28.1277 50.5498 32.3888 50.7097C32.5113 50.7097 32.6339 50.7097 32.7565 50.7097C34.3774 50.7071 35.9726 50.3049 37.401 49.5389C38.8295 48.7728 40.0471 47.6665 40.9461 46.3178H65.5171V43.7604H62.4881ZM39.4877 43.7604L39.12 44.4107C38.4626 45.582 37.4961 46.5503 36.3259 47.2098C35.1557 47.8692 33.8268 48.1946 32.4843 48.1502C28.483 48.0006 26.4823 44.5602 26.3992 44.4107L26.0294 43.7604H6.16197V42.1503C6.16307 41.3567 6.47883 40.5958 7.04002 40.0346C7.60121 39.4734 8.36205 39.1577 9.15569 39.1566H27.4546L32.8001 44.5727L38.1456 39.1566H56.9286C57.7222 39.1577 58.4831 39.4734 59.0443 40.0346C59.6054 40.5958 59.9212 41.3567 59.9223 42.1503V43.7604H39.4877Z" fill="white"/>
<path d="M44.3868 0.709961H21.1246V3.27572H44.3868V0.709961Z" fill="white"/>
<path d="M31.4768 26.5546H28.3439V9.59982H25.7781V29.5088L32.7545 36.5724L39.7309 29.5088V9.59982H37.1651V26.5546H34.0488V6.99251H54.6559V4.42676H10.8615V6.99251H31.4768V26.5546ZM28.749 28.8689H36.76L32.7545 32.9264L28.749 28.8689Z" fill="white"/>
<path d="M52.254 8.78516L47.8019 16.499L48.9134 18.4249H57.8177L58.9208 16.499L54.477 8.78516H52.254ZM51.1363 15.8488L53.3655 11.9866L55.5968 15.855L51.1363 15.8488Z" fill="white"/>
<path d="M16.5954 18.4208L17.7069 16.499L13.2547 8.78516H11.0338L6.57959 16.499L7.69107 18.4249L16.5954 18.4208ZM12.1432 11.9929L14.3745 15.855H9.91403L12.1432 11.9929Z" fill="white"/>
<path d="M24.7288 40.6045H8.47205V42.3143H24.7288V40.6045Z" fill="white"/>
<path d="M57.0469 40.6045H40.7902V42.3143H57.0469V40.6045Z" fill="white"/>
<path d="M75.9791 22.71C76.2578 21.8666 76.5474 20.9793 76.8481 20.048C77.1561 19.1166 77.4458 18.233 77.7171 17.397L79.4881 12.018C79.8034 11.0426 80.0894 10.1663 80.3461 9.38896C80.6028 8.60429 80.8594 7.81596 81.1161 7.02396H85.7801C86.0441 7.84529 86.3008 8.64463 86.5501 9.42196C86.8068 10.1993 87.0928 11.0646 87.4081 12.018L89.1571 17.408C89.4431 18.2733 89.7328 19.1643 90.0261 20.081C90.3268 20.9976 90.6128 21.874 90.8841 22.71H87.1441C86.9094 21.874 86.6674 21.0196 86.4181 20.147C86.1688 19.267 85.9304 18.4346 85.7031 17.65L83.5471 10.093H83.2831L81.1051 17.573C80.8704 18.387 80.6211 19.2413 80.3571 20.136C80.1004 21.0233 79.8511 21.8813 79.6091 22.71H75.9791ZM79.7631 19.432L80.1481 16.726H87.1551L87.4631 19.432H79.7631ZM102.66 22.71C102.66 21.8666 102.66 21.049 102.66 20.257C102.66 19.465 102.66 18.5776 102.66 17.595V12.271C102.66 11.259 102.66 10.346 102.66 9.53196C102.66 8.71796 102.66 7.88196 102.66 7.02396H106.29C106.29 7.88196 106.29 8.71796 106.29 9.53196C106.29 10.346 106.29 11.259 106.29 12.271V17.595C106.29 18.5776 106.29 19.465 106.29 20.257C106.29 21.049 106.29 21.8666 106.29 22.71H102.66ZM92.8806 22.71C92.8806 21.8666 92.8806 21.049 92.8806 20.257C92.8806 19.465 92.8806 18.5776 92.8806 17.595V12.271C92.8806 11.259 92.8806 10.346 92.8806 9.53196C92.8806 8.71796 92.8806 7.88196 92.8806 7.02396H96.4996C96.4996 7.88196 96.4996 8.71796 96.4996 9.53196C96.4996 10.346 96.4996 11.259 96.4996 12.271V17.595C96.4996 18.5776 96.4996 19.465 96.4996 20.257C96.4996 21.049 96.4996 21.8666 96.4996 22.71H92.8806ZM95.5096 16.319V13.305H103.727V16.319H95.5096ZM116.861 23.007C115.445 23.007 114.221 22.7906 113.187 22.358C112.153 21.918 111.302 21.3203 110.635 20.565C109.967 19.8023 109.469 18.9333 109.139 17.958C108.816 16.9826 108.655 15.956 108.655 14.878C108.655 13.3526 108.955 11.974 109.557 10.742C110.165 9.50263 111.067 8.51996 112.263 7.79396C113.465 7.06796 114.965 6.70496 116.762 6.70496C118.126 6.70496 119.317 6.91763 120.337 7.34296C121.356 7.76096 122.203 8.34396 122.878 9.09196C123.56 9.83996 124.069 10.7053 124.407 11.688C124.744 12.6706 124.913 13.7266 124.913 14.856C124.913 16.418 124.601 17.8113 123.978 19.036C123.362 20.2606 122.456 21.2286 121.261 21.94C120.065 22.6513 118.599 23.007 116.861 23.007ZM116.806 20.026C117.532 20.026 118.166 19.8903 118.709 19.619C119.251 19.3403 119.702 18.959 120.062 18.475C120.421 17.991 120.689 17.441 120.865 16.825C121.048 16.2016 121.14 15.5453 121.14 14.856C121.14 14.13 121.041 13.4553 120.843 12.832C120.652 12.2013 120.37 11.6513 119.996 11.182C119.629 10.7126 119.178 10.346 118.643 10.082C118.107 9.81796 117.495 9.68596 116.806 9.68596C116.094 9.68596 115.464 9.82163 114.914 10.093C114.371 10.3643 113.916 10.742 113.55 11.226C113.183 11.7026 112.904 12.2526 112.714 12.876C112.523 13.4993 112.428 14.1593 112.428 14.856C112.428 15.5526 112.519 16.2126 112.703 16.836C112.886 17.452 113.157 18.002 113.517 18.486C113.883 18.9626 114.338 19.3403 114.881 19.619C115.431 19.8903 116.072 20.026 116.806 20.026ZM143.631 26.054L143.433 22.149L144.071 22.71H131.509C131.509 21.8666 131.509 21.049 131.509 20.257C131.509 19.465 131.509 18.5776 131.509 17.595V12.271C131.509 11.259 131.509 10.346 131.509 9.53196C131.509 8.71796 131.509 7.88196 131.509 7.02396H135.128C135.128 7.88196 135.128 8.71796 135.128 9.53196C135.128 10.346 135.128 11.259 135.128 12.271V17.012C135.128 17.9946 135.128 18.882 135.128 19.674C135.128 20.466 135.128 21.2836 135.128 22.127L133.456 19.696H140.716C141.677 19.696 142.66 19.696 143.664 19.696C144.676 19.696 145.677 19.696 146.667 19.696C146.667 20.224 146.667 20.763 146.667 21.313C146.667 21.863 146.667 22.4056 146.667 22.941C146.667 23.4543 146.667 23.9713 146.667 24.492C146.667 25.0126 146.667 25.5333 146.667 26.054H143.631ZM141.024 22.127C141.024 21.2836 141.024 20.466 141.024 19.674C141.024 18.882 141.024 17.9946 141.024 17.012V12.271C141.024 11.259 141.024 10.346 141.024 9.53196C141.024 8.71796 141.024 7.88196 141.024 7.02396H144.654C144.654 7.88196 144.654 8.71796 144.654 9.53196C144.654 10.346 144.654 11.259 144.654 12.271V17.012C144.654 17.9946 144.654 18.882 144.654 19.674C144.654 20.466 144.654 21.2836 144.654 22.127H141.024ZM156.19 23.007C154.914 23.007 153.766 22.8126 152.747 22.424C151.727 22.0353 150.855 21.4816 150.129 20.763C149.41 20.037 148.86 19.179 148.479 18.189C148.097 17.1916 147.907 16.088 147.907 14.878C147.907 13.3086 148.226 11.908 148.864 10.676C149.502 9.43663 150.418 8.46496 151.614 7.76096C152.809 7.05696 154.239 6.70496 155.904 6.70496C156.41 6.70496 156.908 6.73796 157.4 6.80396C157.898 6.86996 158.375 6.95796 158.83 7.06796C159.284 7.17796 159.706 7.30629 160.095 7.45296C160.491 7.59229 160.843 7.74263 161.151 7.90396L160.876 11.27C160.304 10.9106 159.754 10.6246 159.226 10.412C158.698 10.192 158.188 10.0343 157.697 9.93896C157.213 9.83629 156.751 9.78496 156.311 9.78496C155.416 9.78496 154.62 9.98296 153.924 10.379C153.227 10.7676 152.677 11.3433 152.274 12.106C151.878 12.8613 151.68 13.7853 151.68 14.878C151.68 15.5746 151.782 16.2346 151.988 16.858C152.193 17.474 152.501 18.0203 152.912 18.497C153.33 18.9736 153.85 19.3476 154.474 19.619C155.097 19.8903 155.827 20.026 156.663 20.026C157.007 20.026 157.352 20.004 157.697 19.96C158.049 19.9086 158.401 19.8316 158.753 19.729C159.105 19.6263 159.457 19.487 159.809 19.311C160.161 19.1276 160.513 18.9076 160.865 18.651L161.063 21.973C160.747 22.149 160.399 22.303 160.018 22.435C159.636 22.567 159.233 22.6733 158.808 22.754C158.39 22.842 157.957 22.9043 157.51 22.941C157.07 22.985 156.63 23.007 156.19 23.007ZM163.386 22.71C163.386 21.9253 163.386 21.1663 163.386 20.433C163.386 19.6923 163.386 18.8673 163.386 17.958V16.858C163.386 16.132 163.386 15.483 163.386 14.911C163.386 14.3316 163.386 13.789 163.386 13.283C163.386 12.7696 163.386 12.2526 163.386 11.732L166.543 11.644C166.543 12.128 166.543 12.6083 166.543 13.085C166.543 13.5543 166.543 14.0566 166.543 14.592C166.543 15.1273 166.543 15.7323 166.543 16.407V18.31H166.741L168.347 15.45C168.699 14.8193 169.047 14.196 169.392 13.58C169.744 12.9566 170.092 12.3406 170.437 11.732H173.671C173.671 12.2526 173.671 12.7696 173.671 13.283C173.671 13.789 173.671 14.3316 173.671 14.911C173.671 15.483 173.671 16.132 173.671 16.858V17.958C173.671 18.8673 173.671 19.6923 173.671 20.433C173.671 21.1663 173.671 21.9253 173.671 22.71H170.536C170.536 21.94 170.536 21.1956 170.536 20.477C170.536 19.7583 170.536 18.9553 170.536 18.068V16.132H170.327L168.743 18.959C168.391 19.5896 168.039 20.2203 167.687 20.851C167.342 21.4743 166.994 22.094 166.642 22.71H163.386ZM180.997 22.996C180.527 22.996 180.062 22.974 179.6 22.93C179.138 22.8933 178.694 22.8346 178.269 22.754C177.843 22.6733 177.436 22.567 177.048 22.435C176.666 22.303 176.318 22.149 176.003 21.973L176.201 18.706C176.545 18.9626 176.894 19.179 177.246 19.355C177.605 19.5236 177.964 19.6593 178.324 19.762C178.69 19.8646 179.057 19.9416 179.424 19.993C179.79 20.037 180.161 20.059 180.535 20.059C181.759 20.059 182.742 19.8646 183.483 19.476C184.231 19.08 184.773 18.5336 185.111 17.837C185.455 17.1403 185.628 16.3336 185.628 15.417V14.251C185.628 13.4956 185.51 12.8356 185.276 12.271C185.048 11.7063 184.722 11.237 184.297 10.863C183.879 10.489 183.384 10.2103 182.812 10.027C182.247 9.83629 181.631 9.74096 180.964 9.74096C180.472 9.74096 179.966 9.79229 179.446 9.89496C178.932 9.99763 178.404 10.1553 177.862 10.368C177.326 10.5733 176.773 10.8483 176.201 11.193L175.926 7.90396C176.226 7.74263 176.575 7.59229 176.971 7.45296C177.374 7.30629 177.81 7.17796 178.28 7.06796C178.749 6.95796 179.237 6.86996 179.743 6.80396C180.256 6.73796 180.78 6.70496 181.316 6.70496C182.584 6.70496 183.71 6.90663 184.693 7.30996C185.683 7.71329 186.515 8.28529 187.19 9.02596C187.872 9.75929 188.389 10.6246 188.741 11.622C189.093 12.612 189.269 13.701 189.269 14.889C189.269 16.5023 188.946 17.9176 188.301 19.135C187.663 20.3523 186.728 21.302 185.496 21.984C184.264 22.6586 182.764 22.996 180.997 22.996ZM178.698 16.187V13.503C179.35 13.503 180.021 13.503 180.711 13.503C181.4 13.503 182.225 13.503 183.186 13.503H186.288V16.187H183.197C182.265 16.187 181.451 16.187 180.755 16.187C180.065 16.187 179.38 16.187 178.698 16.187ZM201.592 22.127C201.592 21.2836 201.592 20.466 201.592 19.674C201.592 18.882 201.592 17.9946 201.592 17.012V12.843C201.592 11.831 201.592 10.918 201.592 10.104C201.592 9.28996 201.592 8.45396 201.592 7.59596L202.659 10.038H195.41L197.192 7.78296C197.141 8.70696 197.086 9.63829 197.027 10.577C196.976 11.5083 196.921 12.4396 196.862 13.371C196.796 14.4636 196.697 15.4133 196.565 16.22C196.433 17.0193 196.235 17.727 195.971 18.343C195.707 18.9516 195.348 19.5236 194.893 20.059L191.439 19.718C191.799 19.3953 192.125 18.9443 192.418 18.365C192.719 17.7783 192.972 17.0193 193.177 16.088C193.39 15.1566 193.533 14.009 193.606 12.645C193.665 11.655 193.724 10.687 193.782 9.74096C193.841 8.79496 193.892 7.88929 193.936 7.02396H205.222C205.222 7.88196 205.222 8.71796 205.222 9.53196C205.222 10.346 205.222 11.259 205.222 12.271V17.012C205.222 17.9946 205.222 18.882 205.222 19.674C205.222 20.466 205.222 21.2836 205.222 22.127H201.592ZM190.174 26.054C190.174 25.5333 190.174 25.0126 190.174 24.492C190.174 23.9786 190.174 23.4616 190.174 22.941C190.174 22.4056 190.174 21.8666 190.174 21.324C190.174 20.774 190.174 20.2313 190.174 19.696C191.164 19.696 192.165 19.696 193.177 19.696C194.189 19.696 195.176 19.696 196.136 19.696H201.273C202.241 19.696 203.231 19.696 204.243 19.696C205.255 19.696 206.256 19.696 207.246 19.696C207.246 20.2313 207.246 20.774 207.246 21.324C207.246 21.8666 207.246 22.4056 207.246 22.941C207.246 23.4616 207.246 23.9786 207.246 24.492C207.246 25.0126 207.246 25.5333 207.246 26.054H204.21L204.012 22.149L204.65 22.71H192.759L193.408 22.149L193.21 26.054H190.174Z" fill="#F4F5FC"/>
<path d="M75.7291 39.71C75.8358 39.4033 75.9478 39.0806 76.0651 38.742C76.1824 38.4033 76.2958 38.082 76.4051 37.778L77.0851 35.818C77.2104 35.466 77.3224 35.1486 77.4211 34.866C77.5198 34.5806 77.6198 34.294 77.7211 34.006H78.9411C79.0451 34.302 79.1451 34.5913 79.2411 34.874C79.3398 35.1566 79.4504 35.4726 79.5731 35.822L80.2491 37.786C80.3584 38.1006 80.4704 38.4246 80.5851 38.758C80.7024 39.0886 80.8131 39.406 80.9171 39.71H79.9411C79.8371 39.3873 79.7304 39.0566 79.6211 38.718C79.5118 38.3766 79.4078 38.054 79.3091 37.75L78.3651 34.83H78.2851L77.3291 37.722C77.2251 38.0366 77.1171 38.366 77.0051 38.71C76.8931 39.054 76.7838 39.3873 76.6771 39.71H75.7291ZM76.9011 38.366L76.9891 37.646H79.7571L79.8291 38.366H76.9011ZM85.5027 39.71C85.5027 39.3953 85.5027 39.0926 85.5027 38.802C85.5027 38.5113 85.5027 38.1886 85.5027 37.834V35.914C85.5027 35.5513 85.5027 35.222 85.5027 34.926C85.5027 34.63 85.5027 34.3233 85.5027 34.006H86.4427C86.4427 34.3233 86.4427 34.63 86.4427 34.926C86.4427 35.222 86.4427 35.5513 86.4427 35.914V37.834C86.4427 38.1886 86.4427 38.5113 86.4427 38.802C86.4427 39.0926 86.4427 39.3953 86.4427 39.71H85.5027ZM81.7947 39.71C81.7947 39.3953 81.7947 39.0926 81.7947 38.802C81.7947 38.5113 81.7947 38.1886 81.7947 37.834V35.914C81.7947 35.5513 81.7947 35.222 81.7947 34.926C81.7947 34.63 81.7947 34.3233 81.7947 34.006H82.7347C82.7347 34.3233 82.7347 34.63 82.7347 34.926C82.7347 35.222 82.7347 35.5513 82.7347 35.914V37.834C82.7347 38.1886 82.7347 38.5113 82.7347 38.802C82.7347 39.0926 82.7347 39.3953 82.7347 39.71H81.7947ZM82.4427 37.226V36.43H85.8187V37.226H82.4427ZM90.4107 39.806C89.9147 39.806 89.4827 39.7273 89.1147 39.57C88.7493 39.4126 88.4453 39.1966 88.2027 38.922C87.9627 38.6473 87.7827 38.3326 87.6627 37.978C87.5427 37.6233 87.4827 37.2486 87.4827 36.854C87.4827 36.302 87.5933 35.8033 87.8147 35.358C88.0387 34.91 88.3653 34.5553 88.7947 34.294C89.2267 34.03 89.756 33.898 90.3827 33.898C90.8573 33.898 91.2747 33.974 91.6347 34.126C91.9973 34.278 92.3 34.49 92.5427 34.762C92.788 35.0313 92.972 35.3446 93.0947 35.702C93.2173 36.0593 93.2787 36.4433 93.2787 36.854C93.2787 37.4166 93.1667 37.9206 92.9427 38.366C92.7187 38.8113 92.392 39.1633 91.9627 39.422C91.536 39.678 91.0187 39.806 90.4107 39.806ZM90.3907 39.014C90.7187 39.014 91.0027 38.9553 91.2427 38.838C91.4827 38.7206 91.6813 38.5606 91.8387 38.358C91.996 38.1553 92.112 37.9246 92.1867 37.666C92.264 37.4073 92.3027 37.1366 92.3027 36.854C92.3027 36.55 92.2613 36.2673 92.1787 36.006C92.096 35.7446 91.9733 35.5153 91.8107 35.318C91.6507 35.1206 91.452 34.9673 91.2147 34.858C90.9773 34.746 90.7027 34.69 90.3907 34.69C90.068 34.69 89.7867 34.7473 89.5467 34.862C89.3067 34.9766 89.1053 35.1353 88.9427 35.338C88.7827 35.5406 88.6627 35.7713 88.5827 36.03C88.5027 36.2886 88.4627 36.5633 88.4627 36.854C88.4627 37.142 88.5013 37.4153 88.5787 37.674C88.656 37.9326 88.7733 38.1633 88.9307 38.366C89.0907 38.566 89.292 38.7246 89.5347 38.842C89.7773 38.9566 90.0627 39.014 90.3907 39.014ZM98.8092 39.726C98.5638 39.3873 98.3198 39.0486 98.0772 38.71C97.8345 38.3713 97.5905 38.0326 97.3452 37.694C97.5905 37.3526 97.8345 37.0126 98.0772 36.674C98.3198 36.3353 98.5638 35.9966 98.8092 35.658L99.6612 35.71C99.4265 36.0353 99.1918 36.3606 98.9572 36.686C98.7252 37.0113 98.4918 37.3366 98.2572 37.662V37.742C98.4918 38.0646 98.7252 38.3873 98.9572 38.71C99.1918 39.0326 99.4265 39.3566 99.6612 39.682L98.8092 39.726ZM96.8612 39.726C96.6158 39.3873 96.3718 39.0486 96.1292 38.71C95.8865 38.3713 95.6425 38.0326 95.3972 37.694C95.6425 37.3526 95.8865 37.0126 96.1292 36.674C96.3718 36.3353 96.6158 35.9966 96.8612 35.658L97.7132 35.71C97.4785 36.0353 97.2438 36.3606 97.0092 36.686C96.7772 37.0113 96.5438 37.3366 96.3092 37.662V37.742C96.5438 38.0646 96.7772 38.3873 97.0092 38.71C97.2438 39.0326 97.4785 39.3566 97.7132 39.682L96.8612 39.726ZM105.119 40.934L105.067 39.562L105.259 39.71H100.623C100.623 39.3953 100.623 39.0926 100.623 38.802C100.623 38.5113 100.623 38.1886 100.623 37.834V35.914C100.623 35.5513 100.623 35.222 100.623 34.926C100.623 34.63 100.623 34.3233 100.623 34.006H101.563C101.563 34.3233 101.563 34.63 101.563 34.926C101.563 35.222 101.563 35.5513 101.563 35.914V37.686C101.563 38.0406 101.563 38.3646 101.563 38.658C101.563 38.9486 101.563 39.25 101.563 39.562L101.111 38.914H103.835C104.171 38.914 104.515 38.914 104.867 38.914C105.221 38.914 105.571 38.914 105.915 38.914C105.915 39.082 105.915 39.254 105.915 39.43C105.915 39.6033 105.915 39.7753 105.915 39.946C105.915 40.1086 105.915 40.2726 105.915 40.438C105.915 40.606 105.915 40.7713 105.915 40.934H105.119ZM104.243 39.562C104.243 39.25 104.243 38.9486 104.243 38.658C104.243 38.3646 104.243 38.0406 104.243 37.686V35.914C104.243 35.5513 104.243 35.222 104.243 34.926C104.243 34.63 104.243 34.3233 104.243 34.006H105.183C105.183 34.3233 105.183 34.63 105.183 34.926C105.183 35.222 105.183 35.5513 105.183 35.914V37.686C105.183 38.0406 105.183 38.3646 105.183 38.658C105.183 38.9486 105.183 39.25 105.183 39.562H104.243ZM106.775 39.71C106.775 39.3953 106.775 39.0926 106.775 38.802C106.775 38.5113 106.775 38.1886 106.775 37.834V35.91C106.775 35.5526 106.775 35.2246 106.775 34.926C106.775 34.6273 106.775 34.3206 106.775 34.006H110.407V34.798C110.148 34.798 109.871 34.798 109.575 34.798C109.279 34.798 108.93 34.798 108.527 34.798H107.171L107.695 34.15C107.695 34.4646 107.695 34.7713 107.695 35.07C107.695 35.366 107.695 35.694 107.695 36.054V37.69C107.695 38.042 107.695 38.3646 107.695 38.658C107.695 38.9486 107.695 39.2513 107.695 39.566L107.227 38.918H108.603C108.939 38.918 109.258 38.918 109.559 38.918C109.86 38.918 110.15 38.918 110.427 38.918V39.71H106.775ZM107.487 37.206V36.442H108.571C108.934 36.442 109.244 36.442 109.503 36.442C109.764 36.442 110.016 36.442 110.259 36.442V37.206C110.006 37.206 109.748 37.206 109.487 37.206C109.228 37.206 108.922 37.206 108.567 37.206H107.487ZM115.245 39.71C115.245 39.3953 115.245 39.0926 115.245 38.802C115.245 38.5113 115.245 38.1886 115.245 37.834V35.914C115.245 35.5513 115.245 35.222 115.245 34.926C115.245 34.63 115.245 34.3233 115.245 34.006H116.185C116.185 34.3233 116.185 34.63 116.185 34.926C116.185 35.222 116.185 35.5513 116.185 35.914V37.834C116.185 38.1886 116.185 38.5113 116.185 38.802C116.185 39.0926 116.185 39.3953 116.185 39.71H115.245ZM111.537 39.71C111.537 39.3953 111.537 39.0926 111.537 38.802C111.537 38.5113 111.537 38.1886 111.537 37.834V35.914C111.537 35.5513 111.537 35.222 111.537 34.926C111.537 34.63 111.537 34.3233 111.537 34.006H112.477C112.477 34.3233 112.477 34.63 112.477 34.926C112.477 35.222 112.477 35.5513 112.477 35.914V37.834C112.477 38.1886 112.477 38.5113 112.477 38.802C112.477 39.0926 112.477 39.3953 112.477 39.71H111.537ZM112.185 37.226V36.43H115.561V37.226H112.185ZM118.965 39.71C118.965 39.3953 118.965 39.0926 118.965 38.802C118.965 38.5113 118.965 38.1886 118.965 37.834V36.054C118.965 35.694 118.965 35.366 118.965 35.07C118.965 34.7713 118.965 34.4646 118.965 34.15L119.329 34.834H118.621C118.306 34.834 118.028 34.834 117.785 34.834C117.542 34.834 117.312 34.834 117.093 34.834V34.006H121.769V34.834C121.553 34.834 121.324 34.834 121.081 34.834C120.838 34.834 120.558 34.834 120.241 34.834H119.533L119.901 34.15C119.901 34.4646 119.901 34.7713 119.901 35.07C119.901 35.366 119.901 35.694 119.901 36.054V37.834C119.901 38.1886 119.901 38.5113 119.901 38.802C119.901 39.0926 119.901 39.3953 119.901 39.71H118.965ZM122.673 39.71C122.673 39.3953 122.673 39.0926 122.673 38.802C122.673 38.5113 122.673 38.1886 122.673 37.834V35.91C122.673 35.5526 122.673 35.2246 122.673 34.926C122.673 34.6273 122.673 34.3206 122.673 34.006C122.897 34.006 123.189 34.006 123.549 34.006C123.909 34.006 124.323 34.006 124.789 34.006C125.235 34.006 125.604 34.0633 125.897 34.178C126.191 34.2926 126.411 34.474 126.557 34.722C126.704 34.97 126.777 35.2953 126.777 35.698C126.777 36.0553 126.712 36.3726 126.581 36.65C126.451 36.9273 126.235 37.1446 125.933 37.302C125.632 37.4593 125.225 37.538 124.713 37.538C124.583 37.538 124.441 37.538 124.289 37.538C124.14 37.538 123.993 37.538 123.849 37.538C123.705 37.538 123.581 37.538 123.477 37.538V36.774H124.517C124.819 36.774 125.065 36.738 125.257 36.666C125.449 36.594 125.591 36.4793 125.681 36.322C125.775 36.1646 125.821 35.9593 125.821 35.706C125.821 35.498 125.788 35.3326 125.721 35.21C125.655 35.0846 125.567 34.9913 125.457 34.93C125.351 34.866 125.232 34.8233 125.101 34.802C124.973 34.7806 124.848 34.77 124.725 34.77H123.145L123.601 34.15C123.601 34.4646 123.601 34.7713 123.601 35.07C123.601 35.366 123.601 35.694 123.601 36.054V37.834C123.601 38.1886 123.601 38.5113 123.601 38.802C123.601 39.0926 123.601 39.3953 123.601 39.71H122.673ZM131.931 39.806C131.475 39.806 131.064 39.734 130.699 39.59C130.334 39.4433 130.023 39.238 129.767 38.974C129.511 38.71 129.315 38.398 129.179 38.038C129.043 37.678 128.975 37.2833 128.975 36.854C128.975 36.2806 129.092 35.7713 129.327 35.326C129.562 34.8806 129.892 34.5313 130.319 34.278C130.746 34.0246 131.248 33.898 131.827 33.898C132.014 33.898 132.196 33.9113 132.375 33.938C132.554 33.962 132.723 33.9966 132.883 34.042C133.046 34.0846 133.196 34.1326 133.335 34.186C133.474 34.2366 133.595 34.2913 133.699 34.35L133.619 35.238C133.414 35.1126 133.214 35.0113 133.019 34.934C132.824 34.8566 132.635 34.8006 132.451 34.766C132.267 34.7286 132.088 34.71 131.915 34.71C131.536 34.71 131.199 34.7966 130.903 34.97C130.607 35.1406 130.375 35.386 130.207 35.706C130.039 36.026 129.955 36.4086 129.955 36.854C129.955 37.15 129.998 37.4286 130.083 37.69C130.171 37.9486 130.302 38.178 130.475 38.378C130.648 38.5753 130.866 38.7313 131.127 38.846C131.388 38.958 131.691 39.014 132.035 39.014C132.168 39.014 132.3 39.006 132.431 38.99C132.564 38.9713 132.696 38.9433 132.827 38.906C132.96 38.8686 133.091 38.818 133.219 38.754C133.35 38.69 133.478 38.614 133.603 38.526L133.667 39.406C133.552 39.4726 133.427 39.5326 133.291 39.586C133.155 39.6366 133.012 39.678 132.863 39.71C132.714 39.742 132.56 39.766 132.403 39.782C132.246 39.798 132.088 39.806 131.931 39.806ZM134.759 39.71C134.759 39.3953 134.759 39.0926 134.759 38.802C134.759 38.5113 134.759 38.1886 134.759 37.834V35.91C134.759 35.5526 134.759 35.2246 134.759 34.926C134.759 34.6273 134.759 34.3206 134.759 34.006H138.391V34.798C138.133 34.798 137.855 34.798 137.559 34.798C137.263 34.798 136.914 34.798 136.511 34.798H135.155L135.679 34.15C135.679 34.4646 135.679 34.7713 135.679 35.07C135.679 35.366 135.679 35.694 135.679 36.054V37.69C135.679 38.042 135.679 38.3646 135.679 38.658C135.679 38.9486 135.679 39.2513 135.679 39.566L135.211 38.918H136.587C136.923 38.918 137.242 38.918 137.543 38.918C137.845 38.918 138.134 38.918 138.411 38.918V39.71H134.759ZM135.471 37.206V36.442H136.555C136.918 36.442 137.229 36.442 137.487 36.442C137.749 36.442 138.001 36.442 138.243 36.442V37.206C137.99 37.206 137.733 37.206 137.471 37.206C137.213 37.206 136.906 37.206 136.551 37.206H135.471ZM139.517 39.71C139.517 39.3953 139.517 39.0926 139.517 38.802C139.517 38.5113 139.517 38.1886 139.517 37.834V35.91C139.517 35.5526 139.517 35.2246 139.517 34.926C139.517 34.6273 139.517 34.3206 139.517 34.006C139.741 34.006 140.033 34.006 140.393 34.006C140.753 34.006 141.167 34.006 141.633 34.006C142.079 34.006 142.448 34.0633 142.741 34.178C143.035 34.2926 143.255 34.474 143.401 34.722C143.548 34.97 143.621 35.2953 143.621 35.698C143.621 36.0553 143.556 36.3726 143.425 36.65C143.295 36.9273 143.079 37.1446 142.777 37.302C142.476 37.4593 142.069 37.538 141.557 37.538C141.427 37.538 141.285 37.538 141.133 37.538C140.984 37.538 140.837 37.538 140.693 37.538C140.549 37.538 140.425 37.538 140.321 37.538V36.774H141.361C141.663 36.774 141.909 36.738 142.101 36.666C142.293 36.594 142.435 36.4793 142.525 36.322C142.619 36.1646 142.665 35.9593 142.665 35.706C142.665 35.498 142.632 35.3326 142.565 35.21C142.499 35.0846 142.411 34.9913 142.301 34.93C142.195 34.866 142.076 34.8233 141.945 34.802C141.817 34.7806 141.692 34.77 141.569 34.77H139.989L140.445 34.15C140.445 34.4646 140.445 34.7713 140.445 35.07C140.445 35.366 140.445 35.694 140.445 36.054V37.834C140.445 38.1886 140.445 38.5113 140.445 38.802C140.445 39.0926 140.445 39.3953 140.445 39.71H139.517ZM146.027 39.71C146.027 39.3953 146.027 39.0926 146.027 38.802C146.027 38.5113 146.027 38.1886 146.027 37.834V36.054C146.027 35.694 146.027 35.366 146.027 35.07C146.027 34.7713 146.027 34.4646 146.027 34.15L146.391 34.834H145.683C145.369 34.834 145.09 34.834 144.847 34.834C144.605 34.834 144.374 34.834 144.155 34.834V34.006H148.831V34.834C148.615 34.834 148.386 34.834 148.143 34.834C147.901 34.834 147.621 34.834 147.303 34.834H146.595L146.963 34.15C146.963 34.4646 146.963 34.7713 146.963 35.07C146.963 35.366 146.963 35.694 146.963 36.054V37.834C146.963 38.1886 146.963 38.5113 146.963 38.802C146.963 39.0926 146.963 39.3953 146.963 39.71H146.027ZM149.74 39.71C149.74 39.3953 149.74 39.0926 149.74 38.802C149.74 38.5113 149.74 38.1886 149.74 37.834V35.914C149.74 35.5513 149.74 35.222 149.74 34.926C149.74 34.63 149.74 34.3233 149.74 34.006H150.656C150.656 34.3233 150.656 34.6313 150.656 34.93C150.656 35.226 150.656 35.5553 150.656 35.918V38.126H150.728L151.856 36.518C152.133 36.118 152.416 35.7113 152.704 35.298C152.995 34.882 153.296 34.4513 153.608 34.006H154.408C154.408 34.3233 154.408 34.63 154.408 34.926C154.408 35.222 154.408 35.5513 154.408 35.914V37.834C154.408 38.1886 154.408 38.5113 154.408 38.802C154.408 39.0926 154.408 39.3953 154.408 39.71H153.492C153.492 39.3953 153.492 39.0926 153.492 38.802C153.492 38.5086 153.492 38.1846 153.492 37.83V35.586H153.424L152.292 37.194C151.951 37.682 151.637 38.13 151.352 38.538C151.067 38.946 150.793 39.3366 150.532 39.71H149.74ZM158.615 39.214L158.631 38.478H158.979C159.401 38.478 159.742 38.4166 160.003 38.294C160.265 38.1686 160.455 37.986 160.575 37.746C160.698 37.506 160.759 37.2126 160.759 36.866C160.759 36.5113 160.699 36.214 160.579 35.974C160.459 35.7313 160.271 35.5486 160.015 35.426C159.759 35.3006 159.423 35.238 159.007 35.238H158.671L158.655 34.502H159.019C159.665 34.502 160.186 34.602 160.583 34.802C160.983 35.002 161.274 35.2793 161.455 35.634C161.639 35.986 161.731 36.3966 161.731 36.866C161.731 37.3166 161.641 37.7193 161.459 38.074C161.278 38.426 160.985 38.7046 160.579 38.91C160.177 39.1126 159.638 39.214 158.963 39.214H158.615ZM158.159 39.214C157.653 39.214 157.223 39.1553 156.871 39.038C156.519 38.9206 156.234 38.7566 156.015 38.546C155.799 38.3326 155.641 38.0846 155.539 37.802C155.441 37.5166 155.391 37.2046 155.391 36.866C155.391 36.3966 155.482 35.986 155.663 35.634C155.847 35.2793 156.138 35.002 156.535 34.802C156.935 34.602 157.458 34.502 158.103 34.502H158.463L158.451 35.238H158.111C157.701 35.238 157.366 35.3006 157.107 35.426C156.849 35.5486 156.659 35.7313 156.539 35.974C156.422 36.214 156.363 36.5113 156.363 36.866C156.363 37.2126 156.423 37.506 156.543 37.746C156.666 37.986 156.858 38.1686 157.119 38.294C157.381 38.4166 157.722 38.478 158.143 38.478H158.491L158.503 39.214H158.159ZM158.091 39.862C158.091 39.718 158.091 39.582 158.091 39.454C158.091 39.326 158.091 39.194 158.091 39.058L158.115 39.042C158.115 38.858 158.115 38.67 158.115 38.478C158.115 38.2833 158.115 38.0806 158.115 37.87V35.846C158.115 35.6353 158.115 35.434 158.115 35.242C158.115 35.0473 158.115 34.858 158.115 34.674L158.091 34.658C158.091 34.522 158.091 34.39 158.091 34.262C158.091 34.1313 158.091 33.9953 158.091 33.854H159.031C159.031 33.9953 159.031 34.1313 159.031 34.262C159.031 34.39 159.031 34.522 159.031 34.658L159.007 34.674C159.007 34.858 159.007 35.0473 159.007 35.242C159.007 35.434 159.007 35.6353 159.007 35.846V37.87C159.007 38.0806 159.007 38.282 159.007 38.474C159.007 38.666 159.007 38.8553 159.007 39.042L159.031 39.058C159.031 39.1913 159.031 39.3233 159.031 39.454C159.031 39.582 159.031 39.718 159.031 39.862H158.091ZM162.709 39.71C162.709 39.3953 162.709 39.0926 162.709 38.802C162.709 38.5113 162.709 38.1886 162.709 37.834V35.914C162.709 35.5513 162.709 35.222 162.709 34.926C162.709 34.63 162.709 34.3233 162.709 34.006H163.625C163.625 34.3233 163.625 34.6313 163.625 34.93C163.625 35.226 163.625 35.5553 163.625 35.918V38.126H163.697L164.825 36.518C165.102 36.118 165.385 35.7113 165.673 35.298C165.963 34.882 166.265 34.4513 166.577 34.006H167.377C167.377 34.3233 167.377 34.63 167.377 34.926C167.377 35.222 167.377 35.5513 167.377 35.914V37.834C167.377 38.1886 167.377 38.5113 167.377 38.802C167.377 39.0926 167.377 39.3953 167.377 39.71H166.461C166.461 39.3953 166.461 39.0926 166.461 38.802C166.461 38.5086 166.461 38.1846 166.461 37.83V35.586H166.393L165.261 37.194C164.919 37.682 164.606 38.13 164.321 38.538C164.035 38.946 163.762 39.3366 163.501 39.71H162.709ZM172.14 39.71C171.913 39.4433 171.701 39.1926 171.504 38.958C171.307 38.7233 171.113 38.494 170.924 38.27L169.96 37.13H169.58V36.378H169.952L170.796 35.434C170.996 35.2126 171.192 34.9926 171.384 34.774C171.579 34.5526 171.805 34.2966 172.064 34.006H173.176C172.899 34.3073 172.628 34.6033 172.364 34.894C172.103 35.182 171.84 35.4726 171.576 35.766L170.576 36.87L170.56 36.454L171.672 37.782C171.845 37.9846 172.029 38.2033 172.224 38.438C172.421 38.6726 172.613 38.902 172.8 39.126C172.989 39.3473 173.155 39.542 173.296 39.71H172.14ZM168.732 39.71C168.732 39.3953 168.732 39.0926 168.732 38.802C168.732 38.5113 168.732 38.1886 168.732 37.834V35.914C168.732 35.5513 168.732 35.222 168.732 34.926C168.732 34.63 168.732 34.3233 168.732 34.006H169.668C169.668 34.3233 169.668 34.63 169.668 34.926C169.668 35.222 169.668 35.5513 169.668 35.914V37.834C169.668 38.1886 169.668 38.5113 169.668 38.802C169.668 39.0926 169.668 39.3953 169.668 39.71H168.732ZM173.713 39.71C173.82 39.4033 173.932 39.0806 174.049 38.742C174.167 38.4033 174.28 38.082 174.389 37.778L175.069 35.818C175.195 35.466 175.307 35.1486 175.405 34.866C175.504 34.5806 175.604 34.294 175.705 34.006H176.925C177.029 34.302 177.129 34.5913 177.225 34.874C177.324 35.1566 177.435 35.4726 177.557 35.822L178.233 37.786C178.343 38.1006 178.455 38.4246 178.569 38.758C178.687 39.0886 178.797 39.406 178.901 39.71H177.925C177.821 39.3873 177.715 39.0566 177.605 38.718C177.496 38.3766 177.392 38.054 177.293 37.75L176.349 34.83H176.269L175.313 37.722C175.209 38.0366 175.101 38.366 174.989 38.71C174.877 39.054 174.768 39.3873 174.661 39.71H173.713ZM174.885 38.366L174.973 37.646H177.741L177.813 38.366H174.885ZM184.275 40.934L184.223 39.562L184.415 39.71H179.779C179.779 39.3953 179.779 39.0926 179.779 38.802C179.779 38.5113 179.779 38.1886 179.779 37.834V35.914C179.779 35.5513 179.779 35.222 179.779 34.926C179.779 34.63 179.779 34.3233 179.779 34.006H180.719C180.719 34.3233 180.719 34.63 180.719 34.926C180.719 35.222 180.719 35.5513 180.719 35.914V37.686C180.719 38.0406 180.719 38.3646 180.719 38.658C180.719 38.9486 180.719 39.25 180.719 39.562L180.267 38.914H182.991C183.327 38.914 183.671 38.914 184.023 38.914C184.378 38.914 184.727 38.914 185.071 38.914C185.071 39.082 185.071 39.254 185.071 39.43C185.071 39.6033 185.071 39.7753 185.071 39.946C185.071 40.1086 185.071 40.2726 185.071 40.438C185.071 40.606 185.071 40.7713 185.071 40.934H184.275ZM183.399 39.562C183.399 39.25 183.399 38.9486 183.399 38.658C183.399 38.3646 183.399 38.0406 183.399 37.686V35.914C183.399 35.5513 183.399 35.222 183.399 34.926C183.399 34.63 183.399 34.3233 183.399 34.006H184.339C184.339 34.3233 184.339 34.63 184.339 34.926C184.339 35.222 184.339 35.5513 184.339 35.914V37.686C184.339 38.0406 184.339 38.3646 184.339 38.658C184.339 38.9486 184.339 39.25 184.339 39.562H183.399ZM185.935 39.71C185.935 39.3953 185.935 39.0926 185.935 38.802C185.935 38.5113 185.935 38.1886 185.935 37.834V35.914C185.935 35.5513 185.935 35.222 185.935 34.926C185.935 34.63 185.935 34.3233 185.935 34.006H186.851C186.851 34.3233 186.851 34.6313 186.851 34.93C186.851 35.226 186.851 35.5553 186.851 35.918V38.126H186.923L188.051 36.518C188.329 36.118 188.611 35.7113 188.899 35.298C189.19 34.882 189.491 34.4513 189.803 34.006H190.603C190.603 34.3233 190.603 34.63 190.603 34.926C190.603 35.222 190.603 35.5513 190.603 35.914V37.834C190.603 38.1886 190.603 38.5113 190.603 38.802C190.603 39.0926 190.603 39.3953 190.603 39.71H189.687C189.687 39.3953 189.687 39.0926 189.687 38.802C189.687 38.5086 189.687 38.1846 189.687 37.83V35.586H189.619L188.487 37.194C188.146 37.682 187.833 38.13 187.547 38.538C187.262 38.946 186.989 39.3366 186.727 39.71H185.935ZM191.959 39.71C191.959 39.3953 191.959 39.0926 191.959 38.802C191.959 38.5113 191.959 38.1886 191.959 37.834V35.914C191.959 35.5513 191.959 35.222 191.959 34.926C191.959 34.63 191.959 34.3233 191.959 34.006H192.875C192.875 34.3233 192.875 34.6313 192.875 34.93C192.875 35.226 192.875 35.5553 192.875 35.918V38.126H192.947L194.075 36.518C194.352 36.118 194.635 35.7113 194.923 35.298C195.213 34.882 195.515 34.4513 195.827 34.006H196.627C196.627 34.3233 196.627 34.63 196.627 34.926C196.627 35.222 196.627 35.5513 196.627 35.914V37.834C196.627 38.1886 196.627 38.5113 196.627 38.802C196.627 39.0926 196.627 39.3953 196.627 39.71H195.711C195.711 39.3953 195.711 39.0926 195.711 38.802C195.711 38.5086 195.711 38.1846 195.711 37.83V35.586H195.643L194.511 37.194C194.169 37.682 193.856 38.13 193.571 38.538C193.285 38.946 193.012 39.3366 192.751 39.71H191.959ZM76.1931 49.71C76.1931 49.3953 76.1931 49.0926 76.1931 48.802C76.1931 48.5113 76.1931 48.1886 76.1931 47.834V45.914C76.1931 45.5513 76.1931 45.222 76.1931 44.926C76.1931 44.63 76.1931 44.3233 76.1931 44.006H77.1091C77.1091 44.3233 77.1091 44.6313 77.1091 44.93C77.1091 45.226 77.1091 45.5553 77.1091 45.918V48.126H77.1811L78.3091 46.518C78.5864 46.118 78.8691 45.7113 79.1571 45.298C79.4478 44.882 79.7491 44.4513 80.0611 44.006H80.8611C80.8611 44.3233 80.8611 44.63 80.8611 44.926C80.8611 45.222 80.8611 45.5513 80.8611 45.914V47.834C80.8611 48.1886 80.8611 48.5113 80.8611 48.802C80.8611 49.0926 80.8611 49.3953 80.8611 49.71H79.9451C79.9451 49.3953 79.9451 49.0926 79.9451 48.802C79.9451 48.5086 79.9451 48.1846 79.9451 47.83V45.586H79.8771L78.7451 47.194C78.4038 47.682 78.0904 48.13 77.8051 48.538C77.5198 48.946 77.2464 49.3366 76.9851 49.71H76.1931ZM85.2558 49.802C85.0931 49.802 84.9304 49.794 84.7678 49.778C84.6078 49.762 84.4518 49.7393 84.2998 49.71C84.1504 49.678 84.0064 49.6366 83.8678 49.586C83.7318 49.5326 83.6064 49.4713 83.4918 49.402L83.5558 48.53C83.6811 48.6206 83.8078 48.6966 83.9358 48.758C84.0664 48.8166 84.1984 48.8646 84.3318 48.902C84.4651 48.9393 84.5998 48.9673 84.7358 48.986C84.8744 49.002 85.0131 49.01 85.1518 49.01C85.6478 49.01 86.0504 48.922 86.3598 48.746C86.6718 48.5673 86.8998 48.326 87.0438 48.022C87.1904 47.7153 87.2638 47.3686 87.2638 46.982V46.706C87.2638 46.3886 87.2158 46.1073 87.1198 45.862C87.0238 45.614 86.8878 45.4046 86.7118 45.234C86.5358 45.0633 86.3278 44.934 86.0878 44.846C85.8504 44.758 85.5891 44.714 85.3038 44.714C85.1198 44.714 84.9304 44.7313 84.7358 44.766C84.5438 44.8006 84.3478 44.8566 84.1478 44.934C83.9504 45.0086 83.7478 45.1073 83.5398 45.23L83.4598 44.35C83.5638 44.294 83.6864 44.2393 83.8278 44.186C83.9691 44.1326 84.1224 44.0846 84.2878 44.042C84.4558 43.9966 84.6318 43.962 84.8158 43.938C85.0024 43.9113 85.1918 43.898 85.3838 43.898C85.8211 43.898 86.2131 43.97 86.5598 44.114C86.9091 44.258 87.2064 44.4633 87.4518 44.73C87.6971 44.994 87.8838 45.306 88.0118 45.666C88.1424 46.026 88.2078 46.422 88.2078 46.854C88.2078 47.43 88.0931 47.9393 87.8638 48.382C87.6371 48.8246 87.3038 49.1726 86.8638 49.426C86.4264 49.6766 85.8904 49.802 85.2558 49.802ZM84.5158 47.218V46.45C84.7611 46.45 85.0144 46.45 85.2758 46.45C85.5371 46.45 85.8478 46.45 86.2078 46.45H87.4518V47.218H86.2118C85.8624 47.218 85.5571 47.218 85.2958 47.218C85.0344 47.218 84.7744 47.218 84.5158 47.218ZM92.6558 49.71C92.4291 49.4433 92.2171 49.1926 92.0198 48.958C91.8224 48.7233 91.6291 48.494 91.4398 48.27L90.4758 47.13H90.0958V46.378H90.4678L91.3118 45.434C91.5118 45.2126 91.7078 44.9926 91.8998 44.774C92.0944 44.5526 92.3211 44.2966 92.5798 44.006H93.6918C93.4144 44.3073 93.1438 44.6033 92.8798 44.894C92.6184 45.182 92.3558 45.4726 92.0918 45.766L91.0918 46.87L91.0758 46.454L92.1878 47.782C92.3611 47.9846 92.5451 48.2033 92.7398 48.438C92.9371 48.6726 93.1291 48.902 93.3158 49.126C93.5051 49.3473 93.6704 49.542 93.8118 49.71H92.6558ZM89.2478 49.71C89.2478 49.3953 89.2478 49.0926 89.2478 48.802C89.2478 48.5113 89.2478 48.1886 89.2478 47.834V45.914C89.2478 45.5513 89.2478 45.222 89.2478 44.926C89.2478 44.63 89.2478 44.3233 89.2478 44.006H90.1838C90.1838 44.3233 90.1838 44.63 90.1838 44.926C90.1838 45.222 90.1838 45.5513 90.1838 45.914V47.834C90.1838 48.1886 90.1838 48.5113 90.1838 48.802C90.1838 49.0926 90.1838 49.3953 90.1838 49.71H89.2478ZM97.048 49.806C96.592 49.806 96.1814 49.734 95.816 49.59C95.4507 49.4433 95.14 49.238 94.884 48.974C94.628 48.71 94.432 48.398 94.296 48.038C94.16 47.678 94.092 47.2833 94.092 46.854C94.092 46.2806 94.2094 45.7713 94.444 45.326C94.6787 44.8806 95.0094 44.5313 95.436 44.278C95.8627 44.0246 96.3654 43.898 96.944 43.898C97.1307 43.898 97.3134 43.9113 97.492 43.938C97.6707 43.962 97.84 43.9966 98 44.042C98.1627 44.0846 98.3134 44.1326 98.452 44.186C98.5907 44.2366 98.712 44.2913 98.816 44.35L98.736 45.238C98.5307 45.1126 98.3307 45.0113 98.136 44.934C97.9414 44.8566 97.752 44.8006 97.568 44.766C97.384 44.7286 97.2054 44.71 97.032 44.71C96.6534 44.71 96.316 44.7966 96.02 44.97C95.724 45.1406 95.492 45.386 95.324 45.706C95.156 46.026 95.072 46.4086 95.072 46.854C95.072 47.15 95.1147 47.4286 95.2 47.69C95.288 47.9486 95.4187 48.178 95.592 48.378C95.7654 48.5753 95.9827 48.7313 96.244 48.846C96.5054 48.958 96.808 49.014 97.152 49.014C97.2854 49.014 97.4174 49.006 97.548 48.99C97.6814 48.9713 97.8134 48.9433 97.944 48.906C98.0774 48.8686 98.208 48.818 98.336 48.754C98.4667 48.69 98.5947 48.614 98.72 48.526L98.784 49.406C98.6694 49.4726 98.544 49.5326 98.408 49.586C98.272 49.6366 98.1294 49.678 97.98 49.71C97.8307 49.742 97.6774 49.766 97.52 49.782C97.3627 49.798 97.2054 49.806 97.048 49.806ZM99.8806 49.71C99.8806 49.3953 99.8806 49.0926 99.8806 48.802C99.8806 48.5113 99.8806 48.1886 99.8806 47.834V45.914C99.8806 45.5513 99.8806 45.222 99.8806 44.926C99.8806 44.63 99.8806 44.3233 99.8806 44.006H104.501C104.501 44.3233 104.501 44.63 104.501 44.926C104.501 45.222 104.501 45.5513 104.501 45.914V47.834C104.501 48.1886 104.501 48.5113 104.501 48.802C104.501 49.0926 104.501 49.3953 104.501 49.71H103.561C103.561 49.3953 103.561 49.0926 103.561 48.802C103.561 48.5113 103.561 48.1886 103.561 47.834V46.054C103.561 45.694 103.561 45.366 103.561 45.07C103.561 44.7713 103.561 44.4646 103.561 44.15L103.861 44.802H100.521L100.821 44.15C100.821 44.4646 100.821 44.7713 100.821 45.07C100.821 45.366 100.821 45.694 100.821 46.054V47.834C100.821 48.1886 100.821 48.5113 100.821 48.802C100.821 49.0926 100.821 49.3953 100.821 49.71H99.8806ZM105.845 49.71C105.845 49.3953 105.845 49.0926 105.845 48.802C105.845 48.5113 105.845 48.1886 105.845 47.834V45.91C105.845 45.5526 105.845 45.2246 105.845 44.926C105.845 44.6273 105.845 44.3206 105.845 44.006H109.477V44.798C109.219 44.798 108.941 44.798 108.645 44.798C108.349 44.798 108 44.798 107.597 44.798H106.241L106.765 44.15C106.765 44.4646 106.765 44.7713 106.765 45.07C106.765 45.366 106.765 45.694 106.765 46.054V47.69C106.765 48.042 106.765 48.3646 106.765 48.658C106.765 48.9486 106.765 49.2513 106.765 49.566L106.297 48.918H107.673C108.009 48.918 108.328 48.918 108.629 48.918C108.931 48.918 109.22 48.918 109.497 48.918V49.71H105.845ZM106.557 47.206V46.442H107.641C108.004 46.442 108.315 46.442 108.573 46.442C108.835 46.442 109.087 46.442 109.329 46.442V47.206C109.076 47.206 108.819 47.206 108.557 47.206C108.299 47.206 107.992 47.206 107.637 47.206H106.557ZM110.603 49.71C110.603 49.3953 110.603 49.0926 110.603 48.802C110.603 48.5113 110.603 48.1886 110.603 47.834V45.91C110.603 45.5526 110.603 45.2246 110.603 44.926C110.603 44.6273 110.603 44.3206 110.603 44.006C110.827 44.006 111.119 44.006 111.479 44.006C111.839 44.006 112.252 44.006 112.719 44.006C113.164 44.006 113.534 44.0633 113.827 44.178C114.12 44.2926 114.34 44.474 114.487 44.722C114.634 44.97 114.707 45.2953 114.707 45.698C114.707 46.0553 114.642 46.3726 114.511 46.65C114.38 46.9273 114.164 47.1446 113.863 47.302C113.562 47.4593 113.155 47.538 112.643 47.538C112.512 47.538 112.371 47.538 112.219 47.538C112.07 47.538 111.923 47.538 111.779 47.538C111.635 47.538 111.511 47.538 111.407 47.538V46.774H112.447C112.748 46.774 112.995 46.738 113.187 46.666C113.379 46.594 113.52 46.4793 113.611 46.322C113.704 46.1646 113.751 45.9593 113.751 45.706C113.751 45.498 113.718 45.3326 113.651 45.21C113.584 45.0846 113.496 44.9913 113.387 44.93C113.28 44.866 113.162 44.8233 113.031 44.802C112.903 44.7806 112.778 44.77 112.655 44.77H111.075L111.531 44.15C111.531 44.4646 111.531 44.7713 111.531 45.07C111.531 45.366 111.531 45.694 111.531 46.054V47.834C111.531 48.1886 111.531 48.5113 111.531 48.802C111.531 49.0926 111.531 49.3953 111.531 49.71H110.603ZM117.113 49.71C117.113 49.3953 117.113 49.0926 117.113 48.802C117.113 48.5113 117.113 48.1886 117.113 47.834V46.054C117.113 45.694 117.113 45.366 117.113 45.07C117.113 44.7713 117.113 44.4646 117.113 44.15L117.477 44.834H116.769C116.455 44.834 116.176 44.834 115.933 44.834C115.691 44.834 115.46 44.834 115.241 44.834V44.006H119.917V44.834C119.701 44.834 119.472 44.834 119.229 44.834C118.987 44.834 118.707 44.834 118.389 44.834H117.681L118.049 44.15C118.049 44.4646 118.049 44.7713 118.049 45.07C118.049 45.366 118.049 45.694 118.049 46.054V47.834C118.049 48.1886 118.049 48.5113 118.049 48.802C118.049 49.0926 118.049 49.3953 118.049 49.71H117.113ZM124.534 49.71C124.534 49.3953 124.534 49.0926 124.534 48.802C124.534 48.5113 124.534 48.1886 124.534 47.834V45.914C124.534 45.5513 124.534 45.222 124.534 44.926C124.534 44.63 124.534 44.3233 124.534 44.006H125.474C125.474 44.3233 125.474 44.63 125.474 44.926C125.474 45.222 125.474 45.5513 125.474 45.914V47.834C125.474 48.1886 125.474 48.5113 125.474 48.802C125.474 49.0926 125.474 49.3953 125.474 49.71H124.534ZM120.826 49.71C120.826 49.3953 120.826 49.0926 120.826 48.802C120.826 48.5113 120.826 48.1886 120.826 47.834V45.914C120.826 45.5513 120.826 45.222 120.826 44.926C120.826 44.63 120.826 44.3233 120.826 44.006H121.766C121.766 44.3233 121.766 44.63 121.766 44.926C121.766 45.222 121.766 45.5513 121.766 45.914V47.834C121.766 48.1886 121.766 48.5113 121.766 48.802C121.766 49.0926 121.766 49.3953 121.766 49.71H120.826ZM121.474 47.226V46.43H124.85V47.226H121.474ZM129.442 49.806C128.946 49.806 128.514 49.7273 128.146 49.57C127.781 49.4126 127.477 49.1966 127.234 48.922C126.994 48.6473 126.814 48.3326 126.694 47.978C126.574 47.6233 126.514 47.2486 126.514 46.854C126.514 46.302 126.625 45.8033 126.846 45.358C127.07 44.91 127.397 44.5553 127.826 44.294C128.258 44.03 128.787 43.898 129.414 43.898C129.889 43.898 130.306 43.974 130.666 44.126C131.029 44.278 131.331 44.49 131.574 44.762C131.819 45.0313 132.003 45.3446 132.126 45.702C132.249 46.0593 132.31 46.4433 132.31 46.854C132.31 47.4166 132.198 47.9206 131.974 48.366C131.75 48.8113 131.423 49.1633 130.994 49.422C130.567 49.678 130.05 49.806 129.442 49.806ZM129.422 49.014C129.75 49.014 130.034 48.9553 130.274 48.838C130.514 48.7206 130.713 48.5606 130.87 48.358C131.027 48.1553 131.143 47.9246 131.218 47.666C131.295 47.4073 131.334 47.1366 131.334 46.854C131.334 46.55 131.293 46.2673 131.21 46.006C131.127 45.7446 131.005 45.5153 130.842 45.318C130.682 45.1206 130.483 44.9673 130.246 44.858C130.009 44.746 129.734 44.69 129.422 44.69C129.099 44.69 128.818 44.7473 128.578 44.862C128.338 44.9766 128.137 45.1353 127.974 45.338C127.814 45.5406 127.694 45.7713 127.614 46.03C127.534 46.2886 127.494 46.5633 127.494 46.854C127.494 47.142 127.533 47.4153 127.61 47.674C127.687 47.9326 127.805 48.1633 127.962 48.366C128.122 48.566 128.323 48.7246 128.566 48.842C128.809 48.9566 129.094 49.014 129.422 49.014ZM133.357 49.71C133.357 49.3953 133.357 49.0926 133.357 48.802C133.357 48.5113 133.357 48.1886 133.357 47.834V45.914C133.357 45.5513 133.357 45.222 133.357 44.926C133.357 44.63 133.357 44.3233 133.357 44.006H134.273C134.273 44.3233 134.273 44.6313 134.273 44.93C134.273 45.226 134.273 45.5553 134.273 45.918V48.126H134.345L135.473 46.518C135.75 46.118 136.033 45.7113 136.321 45.298C136.612 44.882 136.913 44.4513 137.225 44.006H138.025C138.025 44.3233 138.025 44.63 138.025 44.926C138.025 45.222 138.025 45.5513 138.025 45.914V47.834C138.025 48.1886 138.025 48.5113 138.025 48.802C138.025 49.0926 138.025 49.3953 138.025 49.71H137.109C137.109 49.3953 137.109 49.0926 137.109 48.802C137.109 48.5086 137.109 48.1846 137.109 47.83V45.586H137.041L135.909 47.194C135.568 47.682 135.254 48.13 134.969 48.538C134.684 48.946 134.41 49.3366 134.149 49.71H133.357ZM135.673 43.454C135.326 43.454 135.038 43.398 134.809 43.286C134.58 43.1713 134.408 43.0126 134.293 42.81C134.181 42.6046 134.124 42.3673 134.121 42.098L134.821 42.07C134.821 42.334 134.892 42.5406 135.033 42.69C135.177 42.8393 135.39 42.914 135.673 42.914C135.961 42.914 136.174 42.8406 136.313 42.694C136.454 42.5473 136.525 42.3486 136.525 42.098H137.221C137.221 42.3673 137.165 42.6046 137.053 42.81C136.944 43.0126 136.774 43.1713 136.545 43.286C136.316 43.398 136.025 43.454 135.673 43.454ZM144.704 49.562C144.704 49.25 144.704 48.9486 144.704 48.658C144.704 48.3646 144.704 48.0406 144.704 47.686V46.054C144.704 45.694 144.704 45.366 144.704 45.07C144.704 44.7713 144.704 44.4646 144.704 44.15L145.02 44.802H142.18L142.648 44.206C142.627 44.558 142.604 44.9126 142.58 45.27C142.559 45.6273 142.537 45.9833 142.516 46.338C142.489 46.7833 142.445 47.1686 142.384 47.494C142.325 47.8193 142.243 48.1046 142.136 48.35C142.029 48.5953 141.891 48.8206 141.72 49.026L140.816 48.93C140.965 48.77 141.097 48.5726 141.212 48.338C141.329 48.1033 141.427 47.8086 141.504 47.454C141.581 47.0966 141.636 46.6593 141.668 46.142C141.692 45.766 141.715 45.398 141.736 45.038C141.76 44.678 141.781 44.334 141.8 44.006H145.644C145.644 44.3233 145.644 44.63 145.644 44.926C145.644 45.222 145.644 45.5513 145.644 45.914V47.686C145.644 48.0406 145.644 48.3646 145.644 48.658C145.644 48.9486 145.644 49.25 145.644 49.562H144.704ZM140.336 50.934C140.336 50.7713 140.336 50.6073 140.336 50.442C140.336 50.2766 140.336 50.1113 140.336 49.946C140.336 49.7753 140.336 49.6033 140.336 49.43C140.336 49.2566 140.336 49.0846 140.336 48.914C140.685 48.914 141.037 48.914 141.392 48.914C141.747 48.914 142.092 48.914 142.428 48.914H144.288C144.627 48.914 144.973 48.914 145.328 48.914C145.683 48.914 146.033 48.914 146.38 48.914C146.38 49.0846 146.38 49.2566 146.38 49.43C146.38 49.6033 146.38 49.7753 146.38 49.946C146.38 50.1113 146.38 50.2766 146.38 50.442C146.38 50.6073 146.38 50.7713 146.38 50.934H145.584L145.528 49.562L145.724 49.71H140.992L141.188 49.562L141.132 50.934H140.336ZM147.244 49.71C147.244 49.3953 147.244 49.0926 147.244 48.802C147.244 48.5113 147.244 48.1886 147.244 47.834V45.91C147.244 45.5526 147.244 45.2246 147.244 44.926C147.244 44.6273 147.244 44.3206 147.244 44.006H150.876V44.798C150.617 44.798 150.34 44.798 150.044 44.798C149.748 44.798 149.398 44.798 148.996 44.798H147.64L148.164 44.15C148.164 44.4646 148.164 44.7713 148.164 45.07C148.164 45.366 148.164 45.694 148.164 46.054V47.69C148.164 48.042 148.164 48.3646 148.164 48.658C148.164 48.9486 148.164 49.2513 148.164 49.566L147.696 48.918H149.072C149.408 48.918 149.726 48.918 150.028 48.918C150.329 48.918 150.618 48.918 150.896 48.918V49.71H147.244ZM147.956 47.206V46.442H149.04C149.402 46.442 149.713 46.442 149.972 46.442C150.233 46.442 150.485 46.442 150.728 46.442V47.206C150.474 47.206 150.217 47.206 149.956 47.206C149.697 47.206 149.39 47.206 149.036 47.206H147.956ZM151.538 49.71C151.647 49.5633 151.771 49.3953 151.91 49.206C152.051 49.0166 152.196 48.8233 152.346 48.626C152.495 48.426 152.634 48.2393 152.762 48.066L153.614 46.93L153.902 47.326C153.544 47.326 153.242 47.2806 152.994 47.19C152.748 47.0993 152.55 46.9753 152.398 46.818C152.248 46.658 152.139 46.474 152.07 46.266C152 46.058 151.966 45.834 151.966 45.594C151.966 45.2046 152.042 44.894 152.194 44.662C152.348 44.43 152.576 44.2633 152.878 44.162C153.179 44.058 153.552 44.006 153.998 44.006C154.264 44.006 154.524 44.006 154.778 44.006C155.034 44.006 155.271 44.006 155.49 44.006C155.708 44.006 155.898 44.006 156.058 44.006C156.058 44.3206 156.058 44.6273 156.058 44.926C156.058 45.2246 156.058 45.554 156.058 45.914V47.834C156.058 48.1886 156.058 48.5113 156.058 48.802C156.058 49.0926 156.058 49.3953 156.058 49.71H155.13C155.13 49.3953 155.13 49.0926 155.13 48.802C155.13 48.5113 155.13 48.1886 155.13 47.834V46.058C155.13 45.6926 155.13 45.362 155.13 45.066C155.13 44.77 155.13 44.4646 155.13 44.15L155.622 44.77H154.03C153.907 44.77 153.782 44.7793 153.654 44.798C153.526 44.8166 153.407 44.8566 153.298 44.918C153.188 44.9766 153.1 45.0686 153.034 45.194C152.97 45.3166 152.938 45.4833 152.938 45.694C152.938 46.0806 153.046 46.354 153.262 46.514C153.478 46.6713 153.802 46.75 154.234 46.75H155.302V47.514H153.962L154.546 47.03L153.55 48.402C153.398 48.6073 153.243 48.8193 153.086 49.038C152.928 49.254 152.764 49.478 152.594 49.71H151.538ZM158.84 49.71C158.84 49.3953 158.84 49.0926 158.84 48.802C158.84 48.5113 158.84 48.1886 158.84 47.834V46.054C158.84 45.694 158.84 45.366 158.84 45.07C158.84 44.7713 158.84 44.4646 158.84 44.15L159.204 44.834H158.496C158.181 44.834 157.903 44.834 157.66 44.834C157.417 44.834 157.187 44.834 156.968 44.834V44.006H161.644V44.834C161.428 44.834 161.199 44.834 160.956 44.834C160.713 44.834 160.433 44.834 160.116 44.834H159.408L159.776 44.15C159.776 44.4646 159.776 44.7713 159.776 45.07C159.776 45.366 159.776 45.694 159.776 46.054V47.834C159.776 48.1886 159.776 48.5113 159.776 48.802C159.776 49.0926 159.776 49.3953 159.776 49.71H158.84ZM162.548 49.71C162.548 49.3953 162.548 49.0926 162.548 48.802C162.548 48.5113 162.548 48.1886 162.548 47.834V45.91C162.548 45.5526 162.548 45.2246 162.548 44.926C162.548 44.6273 162.548 44.3206 162.548 44.006H166.18V44.798C165.922 44.798 165.644 44.798 165.348 44.798C165.052 44.798 164.703 44.798 164.3 44.798H162.944L163.468 44.15C163.468 44.4646 163.468 44.7713 163.468 45.07C163.468 45.366 163.468 45.694 163.468 46.054V47.69C163.468 48.042 163.468 48.3646 163.468 48.658C163.468 48.9486 163.468 49.2513 163.468 49.566L163 48.918H164.376C164.712 48.918 165.031 48.918 165.332 48.918C165.634 48.918 165.923 48.918 166.2 48.918V49.71H162.548ZM163.26 47.206V46.442H164.344C164.707 46.442 165.018 46.442 165.276 46.442C165.538 46.442 165.79 46.442 166.032 46.442V47.206C165.779 47.206 165.522 47.206 165.26 47.206C165.002 47.206 164.695 47.206 164.34 47.206H163.26ZM167.298 49.79C167.226 49.79 167.156 49.786 167.086 49.778C167.017 49.7726 166.953 49.7646 166.894 49.754C166.838 49.746 166.786 49.7366 166.738 49.726L166.786 48.926C166.845 48.9366 166.897 48.9446 166.942 48.95C166.988 48.9553 167.03 48.958 167.07 48.958C167.292 48.958 167.462 48.866 167.582 48.682C167.705 48.4953 167.796 48.2073 167.854 47.818C167.913 47.4286 167.96 46.9326 167.994 46.33C168.016 45.946 168.037 45.5593 168.058 45.17C168.08 44.7806 168.102 44.3926 168.126 44.006H171.99C171.99 44.3233 171.99 44.63 171.99 44.926C171.99 45.222 171.99 45.5513 171.99 45.914V47.834C171.99 48.1886 171.99 48.5113 171.99 48.802C171.99 49.0926 171.99 49.3953 171.99 49.71H171.05C171.05 49.3953 171.05 49.0926 171.05 48.802C171.05 48.5113 171.05 48.1886 171.05 47.834V46.054C171.05 45.694 171.05 45.366 171.05 45.07C171.05 44.7713 171.05 44.4646 171.05 44.15L171.526 44.802H168.486L169.002 44.198C168.976 44.6033 168.949 45.01 168.922 45.418C168.896 45.8233 168.868 46.2446 168.838 46.682C168.804 47.202 168.762 47.6566 168.714 48.046C168.669 48.4353 168.596 48.7593 168.494 49.018C168.396 49.2766 168.252 49.47 168.062 49.598C167.873 49.726 167.618 49.79 167.298 49.79ZM175.354 49.71C174.951 49.71 174.587 49.71 174.262 49.71C173.936 49.71 173.628 49.71 173.338 49.71C173.338 49.3953 173.338 49.0926 173.338 48.802C173.338 48.5113 173.338 48.1886 173.338 47.834V45.914C173.338 45.554 173.338 45.2246 173.338 44.926C173.338 44.6273 173.338 44.3206 173.338 44.006H174.266C174.266 44.3206 174.266 44.6273 174.266 44.926C174.266 45.2246 174.266 45.554 174.266 45.914V47.686C174.266 47.91 174.266 48.1233 174.266 48.326C174.266 48.5286 174.266 48.7353 174.266 48.946H175.186C175.487 48.946 175.732 48.91 175.922 48.838C176.114 48.7633 176.255 48.6473 176.346 48.49C176.439 48.3326 176.486 48.126 176.486 47.87C176.486 47.6593 176.452 47.4913 176.386 47.366C176.322 47.238 176.235 47.142 176.126 47.078C176.019 47.014 175.9 46.9713 175.77 46.95C175.642 46.9286 175.516 46.918 175.394 46.918H174.15V46.15C174.312 46.15 174.502 46.15 174.718 46.15C174.934 46.15 175.179 46.15 175.454 46.15C175.899 46.15 176.268 46.2073 176.562 46.322C176.855 46.4366 177.075 46.6206 177.222 46.874C177.368 47.1246 177.442 47.4566 177.442 47.87C177.442 48.23 177.376 48.5486 177.246 48.826C177.115 49.1033 176.898 49.3206 176.594 49.478C176.29 49.6326 175.876 49.71 175.354 49.71ZM182.128 49.71C182.128 49.3953 182.128 49.0926 182.128 48.802C182.128 48.5113 182.128 48.1886 182.128 47.834V45.914C182.128 45.5513 182.128 45.222 182.128 44.926C182.128 44.63 182.128 44.3233 182.128 44.006H183.068C183.068 44.3233 183.068 44.63 183.068 44.926C183.068 45.222 183.068 45.5513 183.068 45.914V47.834C183.068 48.1886 183.068 48.5113 183.068 48.802C183.068 49.0926 183.068 49.3953 183.068 49.71H182.128ZM178.42 49.71C178.42 49.3953 178.42 49.0926 178.42 48.802C178.42 48.5113 178.42 48.1886 178.42 47.834V45.914C178.42 45.5513 178.42 45.222 178.42 44.926C178.42 44.63 178.42 44.3233 178.42 44.006H179.36C179.36 44.3233 179.36 44.63 179.36 44.926C179.36 45.222 179.36 45.5513 179.36 45.914V47.834C179.36 48.1886 179.36 48.5113 179.36 48.802C179.36 49.0926 179.36 49.3953 179.36 49.71H178.42ZM179.068 47.226V46.43H182.444V47.226H179.068ZM187.036 49.806C186.54 49.806 186.108 49.7273 185.74 49.57C185.374 49.4126 185.07 49.1966 184.828 48.922C184.588 48.6473 184.408 48.3326 184.288 47.978C184.168 47.6233 184.108 47.2486 184.108 46.854C184.108 46.302 184.218 45.8033 184.44 45.358C184.664 44.91 184.99 44.5553 185.42 44.294C185.852 44.03 186.381 43.898 187.008 43.898C187.482 43.898 187.9 43.974 188.26 44.126C188.622 44.278 188.925 44.49 189.168 44.762C189.413 45.0313 189.597 45.3446 189.72 45.702C189.842 46.0593 189.904 46.4433 189.904 46.854C189.904 47.4166 189.792 47.9206 189.568 48.366C189.344 48.8113 189.017 49.1633 188.588 49.422C188.161 49.678 187.644 49.806 187.036 49.806ZM187.016 49.014C187.344 49.014 187.628 48.9553 187.868 48.838C188.108 48.7206 188.306 48.5606 188.464 48.358C188.621 48.1553 188.737 47.9246 188.812 47.666C188.889 47.4073 188.928 47.1366 188.928 46.854C188.928 46.55 188.886 46.2673 188.804 46.006C188.721 45.7446 188.598 45.5153 188.436 45.318C188.276 45.1206 188.077 44.9673 187.84 44.858C187.602 44.746 187.328 44.69 187.016 44.69C186.693 44.69 186.412 44.7473 186.172 44.862C185.932 44.9766 185.73 45.1353 185.568 45.338C185.408 45.5406 185.288 45.7713 185.208 46.03C185.128 46.2886 185.088 46.5633 185.088 46.854C185.088 47.142 185.126 47.4153 185.204 47.674C185.281 47.9326 185.398 48.1633 185.556 48.366C185.716 48.566 185.917 48.7246 186.16 48.842C186.402 48.9566 186.688 49.014 187.016 49.014ZM193.595 49.806C193.139 49.806 192.728 49.734 192.363 49.59C191.998 49.4433 191.687 49.238 191.431 48.974C191.175 48.71 190.979 48.398 190.843 48.038C190.707 47.678 190.639 47.2833 190.639 46.854C190.639 46.2806 190.756 45.7713 190.991 45.326C191.226 44.8806 191.556 44.5313 191.983 44.278C192.41 44.0246 192.912 43.898 193.491 43.898C193.678 43.898 193.86 43.9113 194.039 43.938C194.218 43.962 194.387 43.9966 194.547 44.042C194.71 44.0846 194.86 44.1326 194.999 44.186C195.138 44.2366 195.259 44.2913 195.363 44.35L195.283 45.238C195.078 45.1126 194.878 45.0113 194.683 44.934C194.488 44.8566 194.299 44.8006 194.115 44.766C193.931 44.7286 193.752 44.71 193.579 44.71C193.2 44.71 192.863 44.7966 192.567 44.97C192.271 45.1406 192.039 45.386 191.871 45.706C191.703 46.026 191.619 46.4086 191.619 46.854C191.619 47.15 191.662 47.4286 191.747 47.69C191.835 47.9486 191.966 48.178 192.139 48.378C192.312 48.5753 192.53 48.7313 192.791 48.846C193.052 48.958 193.355 49.014 193.699 49.014C193.832 49.014 193.964 49.006 194.095 48.99C194.228 48.9713 194.36 48.9433 194.491 48.906C194.624 48.8686 194.755 48.818 194.883 48.754C195.014 48.69 195.142 48.614 195.267 48.526L195.331 49.406C195.216 49.4726 195.091 49.5326 194.955 49.586C194.819 49.6366 194.676 49.678 194.527 49.71C194.378 49.742 194.224 49.766 194.067 49.782C193.91 49.798 193.752 49.806 193.595 49.806ZM197.855 49.71C197.855 49.3953 197.855 49.0926 197.855 48.802C197.855 48.5113 197.855 48.1886 197.855 47.834V46.054C197.855 45.694 197.855 45.366 197.855 45.07C197.855 44.7713 197.855 44.4646 197.855 44.15L198.219 44.834H197.511C197.197 44.834 196.918 44.834 196.675 44.834C196.433 44.834 196.202 44.834 195.983 44.834V44.006H200.659V44.834C200.443 44.834 200.214 44.834 199.971 44.834C199.729 44.834 199.449 44.834 199.131 44.834H198.423L198.791 44.15C198.791 44.4646 198.791 44.7713 198.791 45.07C198.791 45.366 198.791 45.694 198.791 46.054V47.834C198.791 48.1886 198.791 48.5113 198.791 48.802C198.791 49.0926 198.791 49.3953 198.791 49.71H197.855ZM201.568 49.71C201.568 49.3953 201.568 49.0926 201.568 48.802C201.568 48.5113 201.568 48.1886 201.568 47.834V45.914C201.568 45.5513 201.568 45.222 201.568 44.926C201.568 44.63 201.568 44.3233 201.568 44.006H202.484C202.484 44.3233 202.484 44.6313 202.484 44.93C202.484 45.226 202.484 45.5553 202.484 45.918V48.126H202.556L203.684 46.518C203.961 46.118 204.244 45.7113 204.532 45.298C204.823 44.882 205.124 44.4513 205.436 44.006H206.236C206.236 44.3233 206.236 44.63 206.236 44.926C206.236 45.222 206.236 45.5513 206.236 45.914V47.834C206.236 48.1886 206.236 48.5113 206.236 48.802C206.236 49.0926 206.236 49.3953 206.236 49.71H205.32C205.32 49.3953 205.32 49.0926 205.32 48.802C205.32 48.5086 205.32 48.1846 205.32 47.83V45.586H205.252L204.12 47.194C203.779 47.682 203.465 48.13 203.18 48.538C202.895 48.946 202.621 49.3366 202.36 49.71H201.568ZM210.004 49.726L209.152 49.674C209.386 49.3486 209.621 49.0233 209.856 48.698C210.09 48.3726 210.325 48.0473 210.56 47.722V47.642C210.325 47.3193 210.09 46.9966 209.856 46.674C209.621 46.3486 209.386 46.0246 209.152 45.702L210.004 45.658C210.249 45.9966 210.493 46.3353 210.736 46.674C210.981 47.0126 211.225 47.3526 211.468 47.694C211.225 48.0326 210.981 48.3713 210.736 48.71C210.493 49.0486 210.249 49.3873 210.004 49.726ZM208.056 49.726L207.204 49.674C207.438 49.3486 207.672 49.0233 207.904 48.698C208.138 48.3726 208.374 48.0473 208.612 47.722V47.642C208.374 47.3193 208.138 46.9966 207.904 46.674C207.672 46.3486 207.438 46.0246 207.204 45.702L208.056 45.658C208.301 45.9966 208.545 46.3353 208.788 46.674C209.03 47.0126 209.274 47.3526 209.52 47.694C209.274 48.0326 209.03 48.3713 208.788 48.71C208.545 49.0486 208.301 49.3873 208.056 49.726Z" fill="#F4F5FC"/>
</svg>
