<svg width="80" height="80" viewBox="0 0 80 80" fill="none" xmlns="http://www.w3.org/2000/svg">
<path d="M69.6823 5.16699L71.153 6.11823C71.8171 6.54781 72.2379 7.26562 72.2817 8.05466C73.0664 21.979 73.3338 36.3527 73.2363 50.3221C73.2299 50.9708 72.9687 51.5911 72.509 52.0489C72.0494 52.5068 71.428 52.7655 70.7793 52.7692C67.325 52.8043 63.759 52.698 60.3749 52.8207C60.4987 51.7193 60.7168 50.7012 60.8395 49.5999C64.2697 49.7193 66.8746 49.9363 70.2905 49.601C70.4943 34.7791 70.6302 19.9604 69.6823 5.16699ZM36.0626 53.4607H10.9184C10.2907 53.4617 9.6859 53.2243 9.22638 52.7966C8.43734 52.0601 7.86529 51.5056 7.39844 50.5719C17.0247 50.7845 26.6379 50.2026 36.2423 49.5363C36.2817 51.0015 36.0242 51.9966 36.0626 53.4607Z" fill="white"/>
<path d="M62.3957 50.367C62.7047 54.8327 60.673 59.3971 57.1464 62.1555L56.1897 59.5319C59.1639 57.0443 60.9064 53.1484 60.776 49.2744C60.6478 45.4421 58.7201 41.8749 55.7393 39.51C59.5146 41.8114 62.0899 45.9407 62.3957 50.367Z" fill="white"/>
<path d="M58.4811 60.561C59.6044 62.6794 60.6948 65.1747 61.5813 67.4334C61.6635 67.6438 61.6537 67.8717 61.5594 68.0755C61.1496 68.9654 60.5874 70.2301 60.1271 70.1884C60.0098 70.1775 60.0833 70.3276 60.0581 70.2125C59.4224 67.2383 58.0515 64.0251 56.2992 61.5627C57.2622 60.4416 57.8372 59.0393 57.9386 57.5649M42.4767 74.1512L44.2224 74.4339C45.5813 73.4038 46.6356 71.9287 47.486 70.4503C47.2416 70.0997 46.9731 69.6175 46.7287 69.2668C45.4597 71.0827 44.0504 72.5917 42.4767 74.1512ZM49.5561 75.304C50.1338 75.1327 50.6776 74.8632 51.1638 74.5073C51.5452 71.9298 51.8849 69.1846 50.8898 66.7758C50.4219 69.6339 50.0241 72.446 49.5561 75.304ZM53.269 71.8388L54.6641 70.8876C54.915 69.5616 55.2033 68.126 55.4542 66.7988L54.5501 65.9966C54.2249 67.9651 53.7969 69.9151 53.2679 71.8388H53.269ZM8.15121 51.0662C7.94578 51.0659 7.74791 50.9887 7.5966 50.8497C7.44528 50.7108 7.35148 50.5202 7.33367 50.3155C6.41422 39.8421 6.73094 23.9977 7.20217 5.88486C7.20797 5.67452 7.29412 5.4744 7.44291 5.32561C7.5917 5.17682 7.79183 5.09067 8.00217 5.08486C35.8455 4.31774 54.8076 4.31774 69.4882 5.08486C69.9156 5.10788 70.2553 5.45528 70.2674 5.88267L70.3835 9.59774C70.4296 11.3095 70.4876 13.0213 70.5457 14.721C70.5929 16.5402 70.6498 18.3528 70.7068 20.1676L71.1737 38.6038C71.1923 39.7742 71.2109 40.9457 71.2186 42.1172C71.2296 43.6887 71.2427 45.2624 71.2296 46.8481C71.2296 47.5528 71.2186 48.2772 71.2076 48.9873C71.2076 50.1665 70.9161 50.3923 70.7594 50.5106C70.4285 50.8021 69.8981 50.7934 69.5123 50.7923L68.4712 50.7912C67.3994 50.8021 66.3167 50.8142 65.2471 50.8142L61.2 50.8503C60.982 50.8503 60.7729 50.7637 60.6188 50.6096C60.4647 50.4555 60.3781 50.2464 60.3781 50.0284C60.3781 49.8104 60.4647 49.6014 60.6188 49.4472C60.7729 49.2931 60.982 49.2065 61.2 49.2065L65.2394 49.1703C66.3112 49.1703 67.3874 49.1594 68.4624 49.1473H69.5583C69.5612 49.0897 69.5627 49.0319 69.5627 48.9742C69.5748 48.2575 69.5868 47.544 69.5868 46.8416C69.5978 45.258 69.5868 43.6931 69.5759 42.1292C69.5664 40.9624 69.5511 39.7956 69.5298 38.629L69.2383 25.8498L69.0641 20.2366C69.0071 18.4021 68.949 16.5862 68.9019 14.7703C68.8417 13.0617 68.7876 11.3528 68.7397 9.64377L68.6476 6.68925C54.2553 5.96706 35.7271 5.97473 8.82628 6.70678C8.366 24.4427 8.0734 39.9342 8.97093 50.172C8.98098 50.2857 8.96724 50.4002 8.93059 50.5083C8.89395 50.6163 8.8352 50.7156 8.75809 50.7997C8.68097 50.8838 8.58719 50.951 8.48271 50.9969C8.37822 51.0427 8.26533 51.0664 8.15121 51.0662Z" fill="white"/>
<path d="M15.7021 51.2218C14.4133 51.2218 13.1114 51.2218 11.8095 51.2097C10.6829 51.2152 9.50592 51.2097 8.34098 51.1977C8.23305 51.1971 8.12628 51.1753 8.02678 51.1334C7.92728 51.0916 7.837 51.0306 7.76108 50.9538C7.60777 50.7989 7.52229 50.5894 7.52345 50.3714C7.52461 50.1534 7.61232 49.9448 7.76728 49.7915C7.92224 49.6381 8.13176 49.5527 8.34975 49.5538H8.35852C9.51468 49.5648 10.6599 49.5648 11.8171 49.5648C13.1213 49.5768 14.4177 49.5768 15.7021 49.5768L19.9355 49.5659C21.4303 49.5659 22.9141 49.5538 24.4078 49.5418C26.01 49.5418 27.5739 49.5308 29.1377 49.5188L33.9728 49.4815C34.6654 49.4705 35.3667 49.4585 36.0659 49.4585C36.2839 49.4585 36.493 49.5451 36.6471 49.6992C36.8012 49.8534 36.8878 50.0624 36.8878 50.2804C36.8878 50.4984 36.8012 50.7075 36.6471 50.8616C36.493 51.0157 36.2839 51.1023 36.0659 51.1023C35.3755 51.1023 34.6851 51.1133 33.9925 51.1253L29.1487 51.1626C27.5815 51.1736 26.0144 51.1856 24.4451 51.1856C22.9218 51.1966 21.4336 51.2097 19.9344 51.2097L15.7021 51.2218ZM13.37 45.8125C13.1535 45.8125 12.9458 45.7271 12.7919 45.5748C12.638 45.4226 12.5504 45.2158 12.5481 44.9993L12.1865 11.0892C12.1853 10.9807 12.2056 10.873 12.2463 10.7724C12.2869 10.6719 12.3471 10.5803 12.4233 10.5031C12.4995 10.4259 12.5902 10.3645 12.6903 10.3225C12.7903 10.2805 12.8977 10.2588 13.0062 10.2585L64.6149 10.0393H64.6182C64.833 10.0393 65.0393 10.1233 65.1929 10.2734C65.3465 10.4236 65.4353 10.6279 65.4402 10.8426L66.1656 44.5445C66.168 44.6525 66.149 44.7598 66.1098 44.8604C66.0707 44.961 66.0121 45.0529 65.9374 45.1309C65.8627 45.2088 65.7733 45.2713 65.6745 45.3147C65.5756 45.3582 65.4692 45.3817 65.3612 45.384H65.3437C65.1289 45.384 64.9226 45.3 64.769 45.1499C64.6154 44.9997 64.5267 44.7954 64.5218 44.5807L63.8128 11.6853L13.8402 11.9001L14.1919 44.9818C14.1931 45.0897 14.173 45.1968 14.1327 45.297C14.0925 45.3972 14.0329 45.4884 13.9574 45.5655C13.8819 45.6427 13.7919 45.7042 13.6927 45.7466C13.5934 45.7889 13.4867 45.8113 13.3788 45.8125H13.37Z" fill="white"/>
<path d="M13.44 45.8783C13.222 45.8792 13.0126 45.7934 12.8578 45.6399C12.7031 45.4864 12.6156 45.2777 12.6148 45.0597C12.6139 44.8417 12.6996 44.6323 12.8532 44.4776C13.0067 44.3228 13.2154 44.2354 13.4334 44.2345L37.0816 44.0318H37.0893C37.3073 44.0309 37.5167 44.1166 37.6714 44.2702C37.8262 44.4237 37.9136 44.6324 37.9145 44.8504C37.9153 45.0684 37.8296 45.2778 37.6761 45.4325C37.5225 45.5873 37.3138 45.6747 37.0958 45.6756L13.4476 45.8783H13.44ZM60.0285 45.4838C59.9205 45.4843 59.8135 45.4636 59.7136 45.4227C59.6137 45.3819 59.5228 45.3218 59.4461 45.2458C59.2913 45.0924 59.2037 44.8837 59.2027 44.6657C59.2017 44.4477 59.2873 44.2383 59.4407 44.0834C59.5941 43.9286 59.8028 43.841 60.0208 43.84L65.3326 43.7918H65.3402C65.5582 43.7907 65.7677 43.8764 65.9225 44.0298C66.0774 44.1832 66.165 44.3919 66.166 44.6098C66.167 44.8278 66.0814 45.0373 65.928 45.1921C65.7745 45.347 65.5659 45.4346 65.3479 45.4356L60.0361 45.4838H60.0285ZM49.4137 75.4904C49.251 75.4903 49.0919 75.442 48.9567 75.3514C48.8215 75.2609 48.7162 75.1323 48.6542 74.9819L46.7178 70.2761C45.6354 71.6363 44.4455 72.9072 43.1594 74.0767C43.0361 74.1891 42.8815 74.2612 42.7162 74.2835C42.5509 74.3058 42.3827 74.2772 42.234 74.2015C42.0854 74.1258 41.9633 74.0066 41.8841 73.8598C41.8049 73.713 41.7723 73.5455 41.7906 73.3797L42.6093 65.6789C42.7693 64.2005 42.9304 62.7222 43.0805 61.2449C43.0895 61.136 43.1201 61.03 43.1705 60.9331C43.221 60.8361 43.2902 60.7502 43.3743 60.6804C43.4583 60.6106 43.5554 60.5582 43.6599 60.5263C43.7644 60.4944 43.8742 60.4837 43.9829 60.4948C44.0916 60.5059 44.1971 60.5385 44.293 60.5908C44.3889 60.6431 44.4735 60.714 44.5417 60.7993C44.6099 60.8847 44.6604 60.9828 44.6903 61.0879C44.7201 61.193 44.7287 61.303 44.7156 61.4115C44.5634 62.8937 44.406 64.3753 44.2432 65.8564L43.6646 71.2844C44.5973 70.2969 45.4677 69.2523 46.2706 68.1567C46.357 68.0391 46.473 67.9466 46.6069 67.8887C46.7408 67.8308 46.8877 67.8095 47.0325 67.8272C47.1773 67.8448 47.3148 67.9006 47.4309 67.989C47.547 68.0773 47.6375 68.195 47.6931 68.3298L49.1375 71.8367C49.4536 69.9201 49.6458 67.9851 49.7128 66.0438C49.7413 65.3687 49.5704 63.9035 49.4202 62.6104L49.3676 62.1578C49.3427 61.9413 49.4047 61.7237 49.5401 61.5529C49.6756 61.3821 49.8733 61.2721 50.0898 61.2471C50.306 61.2233 50.5228 61.2858 50.6932 61.4211C50.8635 61.5563 50.9736 61.7533 50.9994 61.9693L51.0531 62.4197C51.2186 63.84 51.3895 65.3085 51.3556 66.0975C51.2562 69.0459 50.8745 71.9781 50.2158 74.8537C50.1738 75.0345 50.0717 75.1958 49.9262 75.3112C49.7807 75.4267 49.6004 75.4894 49.4148 75.4893L49.4137 75.4904Z" fill="white"/>
<path d="M52.9948 72.0449C52.8298 72.0449 52.6686 71.9953 52.5321 71.9025C52.3957 71.8096 52.2904 71.6779 52.2299 71.5243C51.9252 70.7452 51.4737 69.8783 51.0386 69.0389C50.5784 68.1512 50.1039 67.235 49.7641 66.3671C49.709 66.2252 49.6939 66.0709 49.7203 65.921C49.7619 65.7071 49.8851 65.5178 50.0639 65.3932C50.2427 65.2687 50.463 65.2186 50.6781 65.2536C50.8319 65.281 50.9747 65.3516 51.0898 65.4572C51.2048 65.5628 51.2875 65.699 51.328 65.8498C51.6337 66.6147 52.0732 67.4608 52.4984 68.2816L52.7614 68.7901L52.8995 68.286C53.146 67.3994 53.3795 66.561 53.5921 65.5079C53.6193 65.3757 53.6787 65.2522 53.7649 65.1483C53.8512 65.0445 53.9616 64.9634 54.0866 64.9123C54.2115 64.8612 54.3471 64.8416 54.4814 64.8553C54.6157 64.8689 54.7446 64.9154 54.8567 64.9906C55.779 65.6243 56.6912 66.2725 57.5932 66.9347C57.8255 67.1046 58.0589 67.2734 58.2891 67.4389C57.2995 64.8547 55.7773 61.9572 55.1822 60.823C55.1299 60.7272 55.0972 60.6221 55.086 60.5136C55.0748 60.4051 55.0853 60.2954 55.1169 60.191C55.1485 60.0866 55.2006 59.9896 55.2701 59.9055C55.3395 59.8214 55.4251 59.752 55.5216 59.7013C55.6182 59.6506 55.7239 59.6197 55.8326 59.6103C55.9412 59.6008 56.0507 59.6131 56.1546 59.6464C56.2584 59.6797 56.3546 59.7334 56.4375 59.8042C56.5205 59.8751 56.5885 59.9617 56.6376 60.0591C58.8304 64.2345 60.1323 67.2701 60.6178 69.338C60.6556 69.499 60.644 69.6676 60.5845 69.8218C60.525 69.9761 60.4204 70.1088 60.2843 70.2027C60.1482 70.2965 59.9869 70.3472 59.8216 70.3479C59.6563 70.3487 59.4945 70.2996 59.3576 70.2071C58.4377 69.5737 57.5277 68.9263 56.6277 68.2652C56.0469 67.8432 55.466 67.4235 54.9323 67.0443C54.7888 67.6306 54.6386 68.1698 54.483 68.7276C54.2301 69.6129 54.0013 70.5049 53.797 71.4027C53.7587 71.5744 53.6663 71.7294 53.5333 71.8446C53.4003 71.9598 53.2338 72.0293 53.0584 72.0427L52.9948 72.0449ZM48.7318 57.5868C46.323 57.5868 43.8715 56.5643 42.2847 54.6356C40.8195 52.8515 40.2244 50.3473 40.734 48.0986C41.3488 45.3742 43.3729 43.2909 46.1499 42.5249C48.3428 41.9178 51.4628 42.1315 53.4956 43.9747C54.4381 44.8295 55.2085 45.9079 55.6085 46.9337C56.0447 48.058 56.1126 49.2043 56.1477 50.378C56.1521 50.5282 56.151 50.6761 56.1477 50.8263C56.071 52.8131 55.0551 54.7594 53.4266 56.0361C52.0918 57.0827 50.4228 57.5868 48.7318 57.5868ZM48.4633 43.8663C47.7904 43.8663 47.1439 43.955 46.5871 44.1084C44.4041 44.7112 42.8173 46.3375 42.3373 48.4591C42.1452 49.3512 42.1547 50.2748 42.3651 51.1627C42.5756 52.0506 42.9817 52.8803 43.5537 53.5912C45.6754 56.1687 49.8989 56.7178 52.4118 54.743C53.6666 53.76 54.4469 52.2739 54.5049 50.7682C54.5071 50.6586 54.5082 50.5446 54.5049 50.4317V50.4295C54.4743 49.4038 54.4184 48.4098 54.0765 47.5298C53.7652 46.7342 53.1515 45.8816 52.391 45.1923C51.3411 44.24 49.8485 43.8663 48.4633 43.8663Z" fill="white"/>
<path d="M48.4414 63.0115C48.1324 63.0115 47.8222 63.0005 47.511 62.9786C42.1959 62.6169 37.5351 58.983 35.9143 53.9375C35.1163 51.4176 35.1011 48.715 35.8705 46.1863C37.6458 40.3802 43.3225 36.4602 49.3609 36.8778C52.8381 37.1145 56.0403 38.6969 58.1444 41.2153C60.4995 44.0306 61.7148 47.532 61.4803 50.823C61.2918 53.4904 59.9724 55.9594 59.2042 57.1945C56.9379 60.8372 52.8732 63.0115 48.4414 63.0115ZM48.4874 38.4909C43.4913 38.4909 38.9214 41.829 37.4409 46.6674C36.7691 48.8635 36.7833 51.2668 37.4792 53.4356C38.8962 57.8454 42.9729 61.0224 47.6228 61.3402C51.8091 61.6164 55.7061 59.7052 57.8091 56.3254C58.9817 54.4438 59.7214 52.3967 59.8409 50.7068C60.0458 47.8378 58.9674 44.7616 56.8842 42.2695C55.0639 40.092 52.2814 38.7243 49.2502 38.5172C48.9963 38.5 48.7419 38.4912 48.4874 38.4909ZM50.2179 20.3101H20.9631C20.7451 20.3101 20.536 20.2235 20.3819 20.0694C20.2277 19.9152 20.1411 19.7062 20.1411 19.4882C20.1411 19.2702 20.2277 19.0611 20.3819 18.907C20.536 18.7529 20.7451 18.6663 20.9631 18.6663H50.2179C50.4358 18.6663 50.6449 18.7529 50.799 18.907C50.9532 19.0611 51.0398 19.2702 51.0398 19.4882C51.0398 19.7062 50.9532 19.9152 50.799 20.0694C50.6449 20.2235 50.4358 20.3101 50.2179 20.3101ZM37.7981 28.6137H20.5861C20.3681 28.6137 20.159 28.5271 20.0049 28.3729C19.8508 28.2188 19.7642 28.0097 19.7642 27.7917C19.7642 27.5738 19.8508 27.3647 20.0049 27.2106C20.159 27.0564 20.3681 26.9698 20.5861 26.9698H37.7981C38.0161 26.9698 38.2252 27.0564 38.3793 27.2106C38.5335 27.3647 38.6201 27.5738 38.6201 27.7917C38.6201 28.0097 38.5335 28.2188 38.3793 28.3729C38.2252 28.5271 38.0161 28.6137 37.7981 28.6137ZM29.0814 36.5413H21.9066C21.6886 36.5413 21.4796 36.4547 21.3254 36.3006C21.1713 36.1465 21.0847 35.9374 21.0847 35.7194C21.0847 35.5014 21.1713 35.2924 21.3254 35.1382C21.4796 34.9841 21.6886 34.8975 21.9066 34.8975H29.0814C29.2994 34.8975 29.5085 34.9841 29.6626 35.1382C29.8167 35.2924 29.9033 35.5014 29.9033 35.7194C29.9033 35.9374 29.8167 36.1465 29.6626 36.3006C29.5085 36.4547 29.2994 36.5413 29.0814 36.5413Z" fill="white"/>
<path d="M71.1529 6.11823L70.1074 5.44316C70.0384 5.34015 69.9468 5.25435 69.8394 5.19241C69.732 5.13046 69.6119 5.09402 69.4882 5.0859C54.8087 4.31768 35.8444 4.31878 8.00217 5.0848C7.79183 5.09061 7.5917 5.17676 7.44291 5.32555C7.29412 5.47434 7.20797 5.67446 7.20217 5.8848C6.73094 23.9977 6.41422 39.8421 7.33367 50.3155C7.3436 50.404 7.36804 50.4903 7.406 50.5708H7.39833C7.85641 51.4892 8.45696 52.0777 9.22628 52.7955C9.68546 53.2251 10.2904 53.4607 10.9183 53.4607H35.7808C36.8394 57.2722 39.5726 60.2727 43.017 61.8355C43.0038 61.9593 43.1233 60.8722 41.7896 73.3796C41.7238 73.9933 42.3375 74.4678 42.9216 74.2234L44.2213 74.4338C45.3698 73.5615 46.2926 72.3692 47.0674 71.1286L48.6531 74.9818C48.7114 75.1234 48.8081 75.2459 48.9323 75.3355C49.0565 75.425 49.2033 75.478 49.356 75.4885C49.5088 75.499 49.6615 75.4665 49.7968 75.3948C49.932 75.3231 50.0446 75.2149 50.1216 75.0826C50.4894 74.9311 50.8387 74.738 51.1627 74.5073C51.3819 73.0256 51.5792 71.4903 51.5244 69.9944C51.7885 70.5193 52.0394 71.0388 52.229 71.5243C52.4942 72.1982 53.4805 72.241 53.7545 71.5067L54.663 70.8875C54.88 69.7369 55.1233 68.5149 55.3479 67.3423C56.8241 68.401 58.2652 69.4684 59.3578 70.207C59.5335 70.3268 59.7491 70.373 59.9585 70.3357C60.1678 70.2984 60.3543 70.1806 60.4778 70.0075C60.8515 69.6327 61.2482 68.7473 61.5583 68.0755C61.6055 67.9756 61.6317 67.8671 61.6355 67.7567C61.6393 67.6462 61.6205 67.5362 61.5803 67.4333C60.7266 65.2569 59.6811 62.87 58.6016 60.8032C60.6654 58.5944 61.9664 55.782 62.3134 52.779C65.1057 52.7385 67.9759 52.7977 70.7781 52.7681C71.4267 52.7644 72.0478 52.5058 72.5075 52.0482C72.9671 51.5906 73.2284 50.9706 73.235 50.3221C73.3337 36.3527 73.0652 21.9791 72.2816 8.05357C72.2592 7.66487 72.1453 7.28696 71.9492 6.95063C71.753 6.61431 71.4802 6.32909 71.1529 6.11823ZM36.7496 44.0338L14.1841 44.2278L13.84 11.8991L63.8126 11.6854L64.5041 43.7993L60.1567 43.8388C59.7701 43.25 59.3404 42.6907 58.8712 42.1654C53.2274 34.2311 41.1835 35.4508 36.7496 44.0338ZM8.82628 6.70782C35.7271 5.97467 54.2553 5.967 68.6476 6.68919C68.7627 10.4196 69.8531 43.419 69.5572 49.1484C67.623 49.1484 62.6904 49.1922 62.24 49.1966C62.0351 47.9069 61.6465 46.6533 61.086 45.4738L65.3479 45.4355C65.4559 45.4345 65.5625 45.4122 65.6619 45.37C65.7612 45.3278 65.8513 45.2664 65.9269 45.1893C66.0025 45.1123 66.0622 45.0211 66.1025 44.921C66.1429 44.8209 66.1632 44.7138 66.1622 44.6059C66.1622 44.5993 66.1578 44.5928 66.1578 44.5862C66.1578 44.5708 66.1655 44.5588 66.1655 44.5445L65.44 10.8426C65.4354 10.6277 65.3468 10.4231 65.1931 10.2727C65.0395 10.1224 64.833 10.0382 64.6181 10.0382H64.6148C9.78189 10.3648 12.8778 10.0393 12.4241 10.504C12.348 10.5811 12.2879 10.6725 12.2473 10.773C12.2067 10.8734 12.1863 10.9809 12.1874 11.0892C12.6849 46.8152 12.2882 45.1308 12.8383 45.6064C12.9141 45.6915 13.0069 45.7597 13.1107 45.8066C13.2146 45.8534 13.3272 45.8778 13.4411 45.8782C13.5539 45.8782 35.9276 45.6864 36.0482 45.6843C35.6092 46.8993 35.3647 48.176 35.3238 49.4673C28.7397 49.533 16.5271 49.6097 8.92381 49.5549C8.08765 39.3171 8.37587 24.0974 8.82518 6.70672L8.82628 6.70782ZM37.44 46.6673C40.0767 38.059 51.3907 35.6974 56.8844 42.2695C58.9677 44.7615 60.046 47.8366 59.8411 50.7056C59.7205 52.3966 58.9808 54.4426 57.8093 56.3253C55.7052 59.7051 51.8093 61.6163 47.623 61.3401C40.4581 60.8503 35.2515 53.8201 37.44 46.6673ZM49.1375 71.8366L47.6931 68.3297C47.6375 68.1951 47.5471 68.0777 47.4312 67.9895C47.3153 67.9013 47.178 67.8455 47.0334 67.8278C46.2005 67.7182 46.3583 68.4415 43.6646 71.2842L44.6071 62.4426C46.4208 62.9971 47.875 63.0695 49.4597 62.9489C49.5989 64.1511 49.7392 65.4256 49.7129 66.0437C49.6458 67.985 49.4536 69.92 49.1375 71.8366ZM54.8581 64.9906C54.7459 64.9151 54.617 64.8684 54.4825 64.8546C54.3481 64.8408 54.2123 64.8603 54.0872 64.9115C53.9621 64.9626 53.8515 65.0437 53.7652 65.1478C53.6788 65.2518 53.6195 65.3754 53.5923 65.5078C53.3523 66.6936 53.086 67.6141 52.7605 68.79C52.2718 67.8399 51.7238 66.8152 51.3578 65.9155C51.3633 65.1593 51.2307 63.9473 51.0882 62.7243C52.6016 62.4174 54.0252 61.8497 55.303 61.053C55.9594 62.3056 57.3556 65.0015 58.2893 67.4388C57.212 66.6618 55.8465 65.6558 54.8581 64.9906Z" fill="white"/>
<path d="M56.1477 50.378C56.1127 49.2043 56.0447 48.058 55.6085 46.9337C52.9236 40.0493 42.357 40.9117 40.734 48.0986C39.6425 52.926 43.3631 57.5868 48.7318 57.5868C53.2118 57.5868 56.254 54.0931 56.1477 50.378ZM42.3373 48.4602C43.6053 42.8449 51.9812 42.1578 54.0765 47.5298C54.4513 48.4942 54.5258 49.9967 54.5039 50.7682C54.4469 52.2739 53.6666 53.76 52.4118 54.743C49.8979 56.7178 45.6754 56.1687 43.5538 53.5923C42.9817 52.8814 42.5756 52.0517 42.3652 51.1638C42.1547 50.2759 42.1452 49.3523 42.3373 48.4602ZM20.9631 20.3101H50.2179C50.4359 20.3101 50.6449 20.2235 50.799 20.0694C50.9532 19.9152 51.0398 19.7062 51.0398 19.4882C51.0398 19.2702 50.9532 19.0611 50.799 18.907C50.6449 18.7529 50.4359 18.6663 50.2179 18.6663H20.9631C20.7451 18.6663 20.536 18.7529 20.3819 18.907C20.2277 19.0611 20.1411 19.2702 20.1411 19.4882C20.1411 19.7062 20.2277 19.9152 20.3819 20.0694C20.536 20.2235 20.7451 20.3101 20.9631 20.3101ZM37.7981 26.9698H20.5861C20.3681 26.9698 20.159 27.0564 20.0049 27.2106C19.8508 27.3647 19.7642 27.5738 19.7642 27.7917C19.7642 28.0097 19.8508 28.2188 20.0049 28.3729C20.159 28.5271 20.3681 28.6137 20.5861 28.6137H37.7981C38.0161 28.6137 38.2252 28.5271 38.3793 28.3729C38.5335 28.2188 38.6201 28.0097 38.6201 27.7917C38.6201 27.5738 38.5335 27.3647 38.3793 27.2106C38.2252 27.0564 38.0161 26.9698 37.7981 26.9698ZM29.0814 34.8975H21.9066C21.6886 34.8975 21.4796 34.9841 21.3254 35.1382C21.1713 35.2924 21.0847 35.5014 21.0847 35.7194C21.0847 35.9374 21.1713 36.1465 21.3254 36.3006C21.4796 36.4547 21.6886 36.5413 21.9066 36.5413H29.0814C29.2994 36.5413 29.5085 36.4547 29.6626 36.3006C29.8167 36.1465 29.9033 35.9374 29.9033 35.7194C29.9033 35.5014 29.8167 35.2924 29.6626 35.1382C29.5085 34.9841 29.2994 34.8975 29.0814 34.8975Z" fill="white"/>
</svg>
