<svg width="16" height="16" viewBox="0 0 16 16" fill="none" xmlns="http://www.w3.org/2000/svg">
<mask id="path-1-outside-1_37_207" maskUnits="userSpaceOnUse" x="-2.91253" y="-3.64214" width="22.624" height="22.624" fill="#3449B7">
<rect fill="white" x="-2.91253" y="-3.64214" width="22.624" height="22.624"/>
<path d="M13.455 3.74769C13.9135 4.57821 14.2464 5.52991 14.3724 6.56025C14.3908 6.68395 14.3988 6.81774 14.4067 6.95154L14.4136 7.14701L14.4222 7.23969L14.4204 7.34247C14.4183 7.46581 14.4158 7.60971 14.4136 7.73305L14.4118 7.83583L14.3895 7.93826L14.3653 8.14346C14.3506 8.40024 14.2842 8.6664 14.2385 8.93292C14.2157 9.0559 14.162 9.18862 14.1289 9.3217C14.0856 9.44432 14.0625 9.58786 14.0092 9.70002C13.8033 10.303 13.4748 10.8628 13.0853 11.3803C12.9804 11.5019 12.8957 11.6443 12.7806 11.7554L12.6234 11.9275L12.5397 12.0083L12.4979 12.0486L12.477 12.0688L12.4665 12.0789L12.0908 12.4014L11.9866 12.4818C11.9552 12.5121 11.9242 12.5219 11.8928 12.5522L11.6952 12.6824L11.4976 12.8126C11.4352 12.8526 11.3522 12.8923 11.2898 12.9323L11.0821 13.0521C11.0197 13.0921 10.9368 13.1318 10.8643 13.1614L10.4294 13.3388C10.2743 13.3875 10.1193 13.4362 9.98474 13.4853C9.37527 13.6495 8.74668 13.731 8.10942 13.7199C7.48263 13.6987 6.84753 13.5642 6.26507 13.3587L6.04039 13.2725L5.92786 13.2397L5.8157 13.1863L5.3876 12.9732L4.99087 12.7298C4.95012 12.7086 4.92992 12.6877 4.88917 12.6664L4.79792 12.5928L4.61542 12.4457L4.42247 12.3087L4.25043 12.1514L4.07839 11.9942L3.9976 11.9106L3.9875 11.9001L3.9673 11.8792L3.9269 11.8374L3.59436 11.4511C3.49373 11.326 3.41366 11.2012 3.32312 11.0866C2.97218 10.5766 2.69443 9.99603 2.50973 9.3862C2.36614 8.77709 2.30514 8.14886 2.32636 7.52207C2.41237 5.53925 3.5659 3.65733 5.28967 2.67984L5.61171 2.49011L5.95358 2.34186L6.11947 2.2625C6.1815 2.24302 6.24353 2.22354 6.29546 2.1936L6.64707 2.07636C7.12203 1.96128 7.60708 1.85665 8.1008 1.8447C8.34783 1.82845 8.59415 1.85332 8.84083 1.85762C8.96417 1.85977 9.08715 1.88248 9.21013 1.90519C9.33311 1.9279 9.45645 1.93006 9.56898 1.96286C9.80448 2.01838 10.0504 2.0638 10.2852 2.16043C10.4078 2.2037 10.5204 2.23651 10.643 2.27977L10.9795 2.43987C12.0099 2.89995 12.7384 3.57068 12.8765 3.31606C12.9299 3.20389 12.8311 2.97598 12.5901 2.64276C12.4487 2.49636 12.2872 2.32903 12.0848 2.14044C11.973 2.06651 11.8616 1.97204 11.7397 1.88766C11.6787 1.84547 11.6178 1.80328 11.5363 1.76073C11.4648 1.72864 11.3833 1.68609 11.3224 1.6439C10.803 1.35724 10.2202 1.17228 9.63669 1.02844C9.33952 0.971843 9.05281 0.90515 8.74446 0.899768L8.51869 0.875264C8.44692 0.86373 8.3647 0.862295 8.29257 0.871317L7.83997 0.883979C7.23265 0.924786 6.63472 1.01716 6.05555 1.21268C5.76632 1.28988 5.49657 1.42912 5.20663 1.54743C5.06165 1.60659 4.94698 1.69712 4.81211 1.76674C4.67723 1.83635 4.54236 1.90597 4.41722 2.0066L4.10493 2.22734L3.94878 2.33771L3.81427 2.38677L3.56364 2.60858L3.50089 2.66918L3.46952 2.69947L3.44861 2.71967L3.42769 2.73987L3.41723 2.74997L3.30184 2.88161C3.13416 3.06375 2.95638 3.23543 2.81935 3.42839C2.67187 3.63144 2.52474 3.81394 2.40791 4.02781C1.88974 4.85156 1.55479 5.78132 1.42469 6.75578C1.30504 7.72015 1.37004 8.7083 1.65215 9.62827L1.75929 9.96943C1.8087 10.0834 1.83757 10.197 1.88698 10.3109L2.05615 10.6326L2.13551 10.7985C2.16545 10.8504 2.19538 10.9024 2.22532 10.9543L2.40495 11.2659C2.43489 11.3178 2.46482 11.3697 2.49476 11.4217L2.60513 11.5778C2.7559 11.7758 2.89621 11.9839 3.04769 12.1407C3.56022 12.818 4.23864 13.4159 5.00215 13.8507C5.76567 14.2856 6.61392 14.578 7.50652 14.6861C8.38866 14.8043 9.29458 14.7379 10.1623 14.5063L10.8035 14.2913C11.0105 14.2126 11.2178 14.1134 11.4147 14.0243C11.612 13.9147 11.8092 13.805 12.0065 13.6954C12.1937 13.5753 12.3916 13.4245 12.5788 13.3044L12.6517 13.2543L12.7039 13.2038L12.8291 13.1031L13.0588 12.9015L13.1111 12.851L13.1424 12.8207L13.1738 12.7904L13.1843 12.7803L13.1947 12.7702L13.3101 12.6386L13.5406 12.3959L13.656 12.2642C13.6978 12.2238 13.7295 12.173 13.7612 12.1221L13.9614 11.848C14.098 11.6756 14.2145 11.4823 14.331 11.289C14.7969 10.5157 15.0896 9.64691 15.2284 8.76513C15.3571 7.87289 15.3317 6.96769 15.1207 6.10036C15.0918 5.98677 15.0731 5.88362 15.0442 5.77002L14.9367 5.44942C14.8974 5.34592 14.8685 5.23233 14.8292 5.12882L14.6907 4.81796C14.6514 4.71446 14.6016 4.62106 14.5522 4.5071L14.3927 4.21644L14.2333 3.92578L14.0328 3.6344C13.8427 3.33292 13.4564 3.07942 13.3136 3.01524C12.9966 2.91718 13.1654 3.25941 13.455 3.74769Z"/>
</mask>
<path d="M13.455 3.74769C13.9135 4.57821 14.2464 5.52991 14.3724 6.56025C14.3908 6.68395 14.3988 6.81774 14.4067 6.95154L14.4136 7.14701L14.4222 7.23969L14.4204 7.34247C14.4183 7.46581 14.4158 7.60971 14.4136 7.73305L14.4118 7.83583L14.3895 7.93826L14.3653 8.14346C14.3506 8.40024 14.2842 8.6664 14.2385 8.93292C14.2157 9.0559 14.162 9.18862 14.1289 9.3217C14.0856 9.44432 14.0625 9.58786 14.0092 9.70002C13.8033 10.303 13.4748 10.8628 13.0853 11.3803C12.9804 11.5019 12.8957 11.6443 12.7806 11.7554L12.6234 11.9275L12.5397 12.0083L12.4979 12.0486L12.477 12.0688L12.4665 12.0789L12.0908 12.4014L11.9866 12.4818C11.9552 12.5121 11.9242 12.5219 11.8928 12.5522L11.6952 12.6824L11.4976 12.8126C11.4352 12.8526 11.3522 12.8923 11.2898 12.9323L11.0821 13.0521C11.0197 13.0921 10.9368 13.1318 10.8643 13.1614L10.4294 13.3388C10.2743 13.3875 10.1193 13.4362 9.98474 13.4853C9.37527 13.6495 8.74668 13.731 8.10942 13.7199C7.48263 13.6987 6.84753 13.5642 6.26507 13.3587L6.04039 13.2725L5.92786 13.2397L5.8157 13.1863L5.3876 12.9732L4.99087 12.7298C4.95012 12.7086 4.92992 12.6877 4.88917 12.6664L4.79792 12.5928L4.61542 12.4457L4.42247 12.3087L4.25043 12.1514L4.07839 11.9942L3.9976 11.9106L3.9875 11.9001L3.9673 11.8792L3.9269 11.8374L3.59436 11.4511C3.49373 11.326 3.41366 11.2012 3.32312 11.0866C2.97218 10.5766 2.69443 9.99603 2.50973 9.3862C2.36614 8.77709 2.30514 8.14886 2.32636 7.52207C2.41237 5.53925 3.5659 3.65733 5.28967 2.67984L5.61171 2.49011L5.95358 2.34186L6.11947 2.2625C6.1815 2.24302 6.24353 2.22354 6.29546 2.1936L6.64707 2.07636C7.12203 1.96128 7.60708 1.85665 8.1008 1.8447C8.34783 1.82845 8.59415 1.85332 8.84083 1.85762C8.96417 1.85977 9.08715 1.88248 9.21013 1.90519C9.33311 1.9279 9.45645 1.93006 9.56898 1.96286C9.80448 2.01838 10.0504 2.0638 10.2852 2.16043C10.4078 2.2037 10.5204 2.23651 10.643 2.27977L10.9795 2.43987C12.0099 2.89995 12.7384 3.57068 12.8765 3.31606C12.9299 3.20389 12.8311 2.97598 12.5901 2.64276C12.4487 2.49636 12.2872 2.32903 12.0848 2.14044C11.973 2.06651 11.8616 1.97204 11.7397 1.88766C11.6787 1.84547 11.6178 1.80328 11.5363 1.76073C11.4648 1.72864 11.3833 1.68609 11.3224 1.6439C10.803 1.35724 10.2202 1.17228 9.63669 1.02844C9.33952 0.971843 9.05281 0.90515 8.74446 0.899768L8.51869 0.875264C8.44692 0.86373 8.3647 0.862295 8.29257 0.871317L7.83997 0.883979C7.23265 0.924786 6.63472 1.01716 6.05555 1.21268C5.76632 1.28988 5.49657 1.42912 5.20663 1.54743C5.06165 1.60659 4.94698 1.69712 4.81211 1.76674C4.67723 1.83635 4.54236 1.90597 4.41722 2.0066L4.10493 2.22734L3.94878 2.33771L3.81427 2.38677L3.56364 2.60858L3.50089 2.66918L3.46952 2.69947L3.44861 2.71967L3.42769 2.73987L3.41723 2.74997L3.30184 2.88161C3.13416 3.06375 2.95638 3.23543 2.81935 3.42839C2.67187 3.63144 2.52474 3.81394 2.40791 4.02781C1.88974 4.85156 1.55479 5.78132 1.42469 6.75578C1.30504 7.72015 1.37004 8.7083 1.65215 9.62827L1.75929 9.96943C1.8087 10.0834 1.83757 10.197 1.88698 10.3109L2.05615 10.6326L2.13551 10.7985C2.16545 10.8504 2.19538 10.9024 2.22532 10.9543L2.40495 11.2659C2.43489 11.3178 2.46482 11.3697 2.49476 11.4217L2.60513 11.5778C2.7559 11.7758 2.89621 11.9839 3.04769 12.1407C3.56022 12.818 4.23864 13.4159 5.00215 13.8507C5.76567 14.2856 6.61392 14.578 7.50652 14.6861C8.38866 14.8043 9.29458 14.7379 10.1623 14.5063L10.8035 14.2913C11.0105 14.2126 11.2178 14.1134 11.4147 14.0243C11.612 13.9147 11.8092 13.805 12.0065 13.6954C12.1937 13.5753 12.3916 13.4245 12.5788 13.3044L12.6517 13.2543L12.7039 13.2038L12.8291 13.1031L13.0588 12.9015L13.1111 12.851L13.1424 12.8207L13.1738 12.7904L13.1843 12.7803L13.1947 12.7702L13.3101 12.6386L13.5406 12.3959L13.656 12.2642C13.6978 12.2238 13.7295 12.173 13.7612 12.1221L13.9614 11.848C14.098 11.6756 14.2145 11.4823 14.331 11.289C14.7969 10.5157 15.0896 9.64691 15.2284 8.76513C15.3571 7.87289 15.3317 6.96769 15.1207 6.10036C15.0918 5.98677 15.0731 5.88362 15.0442 5.77002L14.9367 5.44942C14.8974 5.34592 14.8685 5.23233 14.8292 5.12882L14.6907 4.81796C14.6514 4.71446 14.6016 4.62106 14.5522 4.5071L14.3927 4.21644L14.2333 3.92578L14.0328 3.6344C13.8427 3.33292 13.4564 3.07942 13.3136 3.01524C12.9966 2.91718 13.1654 3.25941 13.455 3.74769Z" fill="#3449B7"/>
<path d="M13.455 3.74769C13.9135 4.57821 14.2464 5.52991 14.3724 6.56025C14.3908 6.68395 14.3988 6.81774 14.4067 6.95154L14.4136 7.14701L14.4222 7.23969L14.4204 7.34247C14.4183 7.46581 14.4158 7.60971 14.4136 7.73305L14.4118 7.83583L14.3895 7.93826L14.3653 8.14346C14.3506 8.40024 14.2842 8.6664 14.2385 8.93292C14.2157 9.0559 14.162 9.18862 14.1289 9.3217C14.0856 9.44432 14.0625 9.58786 14.0092 9.70002C13.8033 10.303 13.4748 10.8628 13.0853 11.3803C12.9804 11.5019 12.8957 11.6443 12.7806 11.7554L12.6234 11.9275L12.5397 12.0083L12.4979 12.0486L12.477 12.0688L12.4665 12.0789L12.0908 12.4014L11.9866 12.4818C11.9552 12.5121 11.9242 12.5219 11.8928 12.5522L11.6952 12.6824L11.4976 12.8126C11.4352 12.8526 11.3522 12.8923 11.2898 12.9323L11.0821 13.0521C11.0197 13.0921 10.9368 13.1318 10.8643 13.1614L10.4294 13.3388C10.2743 13.3875 10.1193 13.4362 9.98474 13.4853C9.37527 13.6495 8.74668 13.731 8.10942 13.7199C7.48263 13.6987 6.84753 13.5642 6.26507 13.3587L6.04039 13.2725L5.92786 13.2397L5.8157 13.1863L5.3876 12.9732L4.99087 12.7298C4.95012 12.7086 4.92992 12.6877 4.88917 12.6664L4.79792 12.5928L4.61542 12.4457L4.42247 12.3087L4.25043 12.1514L4.07839 11.9942L3.9976 11.9106L3.9875 11.9001L3.9673 11.8792L3.9269 11.8374L3.59436 11.4511C3.49373 11.326 3.41366 11.2012 3.32312 11.0866C2.97218 10.5766 2.69443 9.99603 2.50973 9.3862C2.36614 8.77709 2.30514 8.14886 2.32636 7.52207C2.41237 5.53925 3.5659 3.65733 5.28967 2.67984L5.61171 2.49011L5.95358 2.34186L6.11947 2.2625C6.1815 2.24302 6.24353 2.22354 6.29546 2.1936L6.64707 2.07636C7.12203 1.96128 7.60708 1.85665 8.1008 1.8447C8.34783 1.82845 8.59415 1.85332 8.84083 1.85762C8.96417 1.85977 9.08715 1.88248 9.21013 1.90519C9.33311 1.9279 9.45645 1.93006 9.56898 1.96286C9.80448 2.01838 10.0504 2.0638 10.2852 2.16043C10.4078 2.2037 10.5204 2.23651 10.643 2.27977L10.9795 2.43987C12.0099 2.89995 12.7384 3.57068 12.8765 3.31606C12.9299 3.20389 12.8311 2.97598 12.5901 2.64276C12.4487 2.49636 12.2872 2.32903 12.0848 2.14044C11.973 2.06651 11.8616 1.97204 11.7397 1.88766C11.6787 1.84547 11.6178 1.80328 11.5363 1.76073C11.4648 1.72864 11.3833 1.68609 11.3224 1.6439C10.803 1.35724 10.2202 1.17228 9.63669 1.02844C9.33952 0.971843 9.05281 0.90515 8.74446 0.899768L8.51869 0.875264C8.44692 0.86373 8.3647 0.862295 8.29257 0.871317L7.83997 0.883979C7.23265 0.924786 6.63472 1.01716 6.05555 1.21268C5.76632 1.28988 5.49657 1.42912 5.20663 1.54743C5.06165 1.60659 4.94698 1.69712 4.81211 1.76674C4.67723 1.83635 4.54236 1.90597 4.41722 2.0066L4.10493 2.22734L3.94878 2.33771L3.81427 2.38677L3.56364 2.60858L3.50089 2.66918L3.46952 2.69947L3.44861 2.71967L3.42769 2.73987L3.41723 2.74997L3.30184 2.88161C3.13416 3.06375 2.95638 3.23543 2.81935 3.42839C2.67187 3.63144 2.52474 3.81394 2.40791 4.02781C1.88974 4.85156 1.55479 5.78132 1.42469 6.75578C1.30504 7.72015 1.37004 8.7083 1.65215 9.62827L1.75929 9.96943C1.8087 10.0834 1.83757 10.197 1.88698 10.3109L2.05615 10.6326L2.13551 10.7985C2.16545 10.8504 2.19538 10.9024 2.22532 10.9543L2.40495 11.2659C2.43489 11.3178 2.46482 11.3697 2.49476 11.4217L2.60513 11.5778C2.7559 11.7758 2.89621 11.9839 3.04769 12.1407C3.56022 12.818 4.23864 13.4159 5.00215 13.8507C5.76567 14.2856 6.61392 14.578 7.50652 14.6861C8.38866 14.8043 9.29458 14.7379 10.1623 14.5063L10.8035 14.2913C11.0105 14.2126 11.2178 14.1134 11.4147 14.0243C11.612 13.9147 11.8092 13.805 12.0065 13.6954C12.1937 13.5753 12.3916 13.4245 12.5788 13.3044L12.6517 13.2543L12.7039 13.2038L12.8291 13.1031L13.0588 12.9015L13.1111 12.851L13.1424 12.8207L13.1738 12.7904L13.1843 12.7803L13.1947 12.7702L13.3101 12.6386L13.5406 12.3959L13.656 12.2642C13.6978 12.2238 13.7295 12.173 13.7612 12.1221L13.9614 11.848C14.098 11.6756 14.2145 11.4823 14.331 11.289C14.7969 10.5157 15.0896 9.64691 15.2284 8.76513C15.3571 7.87289 15.3317 6.96769 15.1207 6.10036C15.0918 5.98677 15.0731 5.88362 15.0442 5.77002L14.9367 5.44942C14.8974 5.34592 14.8685 5.23233 14.8292 5.12882L14.6907 4.81796C14.6514 4.71446 14.6016 4.62106 14.5522 4.5071L14.3927 4.21644L14.2333 3.92578L14.0328 3.6344C13.8427 3.33292 13.4564 3.07942 13.3136 3.01524C12.9966 2.91718 13.1654 3.25941 13.455 3.74769Z" stroke="#3449B7" stroke-width="1.2" mask="url(#path-1-outside-1_37_207)"/>
</svg>
