<?xml version="1.0" standalone="no"?>
<!DOCTYPE svg PUBLIC "-//W3C//DTD SVG 1.1//EN" "http://www.w3.org/Graphics/SVG/1.1/DTD/svg11.dtd" >
<svg xmlns="http://www.w3.org/2000/svg" xmlns:xlink="http://www.w3.org/1999/xlink" version="1.1">
<metadata>
Created by FontForge 20190801 at Thu Oct 27 03:38:53 2022
 By root
Copyright 2019 The Commissioner Project Authors (https://github.com/kosbarts/Commissioner)
</metadata>
<defs>
<font id="Commissioner-ExtraBold" horiz-adv-x="0" >
  <font-face 
    font-family="Commissioner ExtraBold"
    font-weight="800"
    font-stretch="normal"
    units-per-em="2000"
    panose-1="0 0 0 0 0 0 0 0 0 0"
    ascent="1600"
    descent="-400"
    x-height="1001"
    cap-height="1426"
    bbox="-225 -449 2229 1935"
    underline-thickness="50"
    underline-position="-125"
    unicode-range="U+000D-04FF"
  />
<missing-glyph horiz-adv-x="1221" 
 />
    <glyph glyph-name="f_f.liga" unicode="ff" horiz-adv-x="1613" 
d="M961 0v205v224v100v130v148v147v128q0 125 35 206t94.5 126.5t135.5 63.5t158 18q52 0 97.5 -5t81.5 -13t58 -17l-27 -300q-38 14 -75.5 22.5t-72.5 8.5q-61 0 -94.5 -28t-33.5 -92v-35v-36l16 -57v-515v-224v-205h-373zM809 724v277h764v-277h-171h-166h-169h-258z
M182 0v205v224v100v130v148v147v128q0 125 35 206t95 126.5t136 63.5t158 18q51 0 97 -5t81.5 -13t58.5 -17l-28 -300q-37 14 -75 22.5t-72 8.5q-61 0 -95 -28t-34 -92v-35v-36l17 -57v-515v-224v-205h-374zM30 724v277h765v-277h-171.5h-165.5h-169h-259z" />
    <glyph glyph-name="f_f_i.liga" unicode="ffi" horiz-adv-x="2195" 
d="M961 0v205v224v100v130v148v147v128q0 125 35 206t94.5 126.5t135.5 63.5t158 18q52 0 97.5 -5t81.5 -13t58 -17l-27 -300q-38 14 -75.5 22.5t-72.5 8.5q-61 0 -94.5 -28t-33.5 -92v-35v-36l16 -57v-515v-224v-205h-373zM809 724v277h764v-277h-171h-166h-169h-258z
M182 0v205v224v100v130v148v147v128q0 125 35 206t95 126.5t136 63.5t158 18q51 0 97 -5t81.5 -13t58.5 -17l-28 -300q-37 14 -75 22.5t-72 8.5q-61 0 -95 -28t-34 -92v-35v-36l17 -57v-515v-224v-205h-374zM30 724v277h765v-277h-171.5h-165.5h-169h-259zM1717 0v205v224
v100v185v148.5v138.5l373 10v-141v-152v-189v-100v-224v-205h-373zM1902 1113q-99 0 -157.5 45t-58.5 149q0 90 58.5 139.5t159.5 49.5t158.5 -51.5t57.5 -137.5q0 -104 -58 -149t-160 -45z" />
    <glyph glyph-name="f_f_l.liga" unicode="ffl" horiz-adv-x="2178" 
d="M182 0v205v224v100v130v148v147v128q0 125 35 206t95 126.5t136 63.5t158 18q51 0 97 -5t81.5 -13t58.5 -17l-28 -300q-37 14 -75 22.5t-72 8.5q-61 0 -95 -28t-34 -92v-35v-36l17 -57v-515v-224v-205h-374zM30 724v277h765v-277h-171.5h-165.5h-169h-259zM961 0v205v224
v100v130v148v147v128q0 125 35 206t94.5 126.5t135.5 63.5t158 18q46 0 86.5 -4t72 -10t51.5 -12v-309q-38 14 -75.5 22.5t-72.5 8.5q-61 0 -94.5 -28t-33.5 -92v-35v-36l16 -57v-515v-224v-205h-373zM809 724v277h764v-277h-171h-166h-169h-258zM1709 0v205v224v557v240.5
v240.5l373 29v-243v-267v-557v-224v-205h-373z" />
    <glyph glyph-name="f_i.liga" unicode="fi" horiz-adv-x="1416" 
d="M182 0v205v224v100v130v148v147v128q0 125 35 206t95 126.5t136 63.5t158 18q51 0 97 -5t81.5 -13t58.5 -17l-28 -300q-37 14 -75 22.5t-72 8.5q-61 0 -95 -28t-34 -92v-35v-36l17 -57v-515v-224v-205h-374zM30 724v277h765v-277h-171.5h-165.5h-169h-259zM939 0v205v224
v100v185v148.5v138.5l373 10v-141v-152v-189v-100v-224v-205h-373zM1124 1113q-99 0 -157.5 45t-58.5 149q0 90 58.5 139.5t159.5 49.5t158.5 -51.5t57.5 -137.5q0 -104 -58 -149t-160 -45z" />
    <glyph glyph-name="f_l.liga" unicode="fl" horiz-adv-x="1400" 
d="M182 0v205v224v100v130v148v147v128q0 125 35 206t95 126.5t136 63.5t158 18q46 0 86 -4t71.5 -10t51.5 -12v-309q-37 14 -75 22.5t-72 8.5q-61 0 -95 -28t-34 -92v-35v-36l17 -57v-515v-224v-205h-374zM30 725v276h765v-276h-171.5h-165.5h-169h-259zM931 0v205v224v557
v240.5v240.5l373 29v-243v-267v-557v-224v-205h-373z" />
    <glyph glyph-name=".notdef" horiz-adv-x="1221" 
 />
    <glyph glyph-name="A" unicode="A" horiz-adv-x="1468" 
d="M33 0q35 114 74 241.5t75 240.5l151 490q41 134 74 240t66 214h527q35 -113 67.5 -219t72.5 -235l150 -490q37 -118 75.5 -243t73.5 -239h-426q-26 107 -53.5 220t-53.5 213l-159 649h-29l-162 -641q-26 -105 -55 -220t-56 -221h-412zM421 264l46 305h589l37 -305h-672z
" />
    <glyph glyph-name="glyph2" horiz-adv-x="2018" 
d="M22 0q52 116 108.5 242.5t106.5 240.5l217 491q56 125 105 235t96 217h1263v-329h-121.5h-138h-164.5h-304l150 263v-226.5v-251.5v-354v-242v-220l-127 263h309h144.5h135h128.5v-329h-993v219.5v241.5v488v250.5v197.5l202 -297h-258l-262 -651q-44 -109 -90 -224.5
t-90 -224.5h-417zM460 264l46 305h565l37 -305h-648zM1245 567v299h252h218.5h176.5v-299h-89.5h-91.5h-100h-114h-252z" />
    <glyph glyph-name="B" unicode="B" horiz-adv-x="1344" 
d="M648 0h-209h-178h-146v219.5v241.5v488v250.5v226.5h286h321q159 0 263 -23.5t164.5 -66.5t85.5 -102t25 -131q0 -91 -35 -158t-95 -109.5t-135 -59.5v-29q92 -21 158.5 -62t101.5 -109.5t35 -171.5q0 -92 -29 -166.5t-100 -127.5t-196 -81.5t-317 -28.5zM520 292h167
q58 0 97.5 16t59 49t19.5 82q0 71 -42 108t-125 37h-274v265h252q53 0 89 17.5t54.5 50t18.5 78.5q0 68 -35.5 106t-110.5 38h-170v-126.5v-152.5v-310v-141v-117z" />
    <glyph glyph-name="C" unicode="C" horiz-adv-x="1365" 
d="M826 -29q-176 0 -317.5 52t-241.5 149t-153 233t-53 305q0 214 86 383t251 266.5t403 97.5q68 0 135.5 -8.5t130.5 -23t118.5 -33t98.5 -41.5l-29 -380q-78 50 -149.5 80.5t-135.5 44.5t-120 14q-103 0 -184 -44.5t-128 -133.5t-47 -221q0 -81 24 -154.5t72.5 -129.5
t122.5 -88.5t174 -32.5q44 0 90 6.5t93 20.5t94.5 39t96.5 61l20 -375q-43 -22 -96 -39t-111.5 -27.5t-120.5 -15.5t-124 -5z" />
    <glyph glyph-name="D" unicode="D" horiz-adv-x="1463" 
d="M116 0v219.5v241.5v487v251.5v226.5h179.5h207h217.5q162 0 288.5 -47t214 -137.5t133.5 -222.5t46 -302q0 -151 -40.5 -281.5t-129.5 -228.5t-236 -152.5t-359 -54.5h-192h-171.5h-157.5zM529 326h106q125 0 199 51.5t106 141t32 203.5q0 85 -18.5 154t-58 119.5
t-100.5 77.5t-147 27h-119v-115v-138v-281v-130v-110z" />
    <glyph glyph-name="E" unicode="E" horiz-adv-x="1197" 
d="M115 0v219.5v241.5v488v250.5v226.5h982v-329h-188.5h-236.5h-324l171 263v-226.5v-251.5v-354v-242v-220l-145 263h326h214.5h193.5v-329h-993zM424 567v299h252h218h176v-299h-180h-215h-251z" />
    <glyph glyph-name="F" unicode="F" horiz-adv-x="1158" 
d="M116 0v219.5v241.5v487v251.5v226.5h969v-341h-187.5h-236.5h-306l164 275v-226.5v-251.5v-421v-241.5v-219.5h-403zM414 528v326h249h218h176v-326h-180.5h-214.5h-248z" />
    <glyph glyph-name="G" unicode="G" horiz-adv-x="1454" 
d="M836 -28q-183 0 -326.5 54t-243.5 152.5t-152.5 234t-52.5 298.5q0 220 90 388t260 263t413 95q75 0 146.5 -9t136.5 -24t121.5 -34.5t100.5 -39.5l-29 -379q-85 49 -164 80t-149 45t-129 14q-76 0 -143.5 -24.5t-118.5 -74.5t-79.5 -125.5t-28.5 -175.5q0 -83 23.5 -158
t71 -132t120.5 -89.5t171 -32.5q65 0 120.5 5.5t106 19t100 33.5t100.5 48l49 -361q-33 -14 -88 -26t-124.5 -22.5t-146.5 -16.5t-155 -6zM965 35v201.5v174.5v180v159h385v-159v-180v-173v-195z" />
    <glyph glyph-name="H" unicode="H" horiz-adv-x="1501" 
d="M973 0v219.5v241.5v487v251.5v226.5h413v-226.5v-251.5v-487v-241.5v-219.5h-413zM116 0v219.5v241.5v487v251.5v226.5h413v-226.5v-251.5v-487v-241.5v-219.5h-413zM423 546v341h661v-341h-661z" />
    <glyph glyph-name="I" unicode="I" horiz-adv-x="669" 
d="M124 0v219.5v241.5v487v251.5v226.5h421v-226.5v-251.5v-487v-241.5v-219.5h-421z" />
    <glyph glyph-name="J" unicode="J" horiz-adv-x="670" 
d="M-9 -307q50 72 81 148.5t46 158t15 170.5v516v262v251.5v226.5h413v-226.5v-251.5v-250v-282.5v-267.5q0 -84 -12.5 -153t-36.5 -124t-56 -99t-71 -79h-379z" />
    <glyph glyph-name="K" unicode="K" horiz-adv-x="1429" 
d="M909 0q-49 90 -93.5 170t-86.5 158l-142 255h-89v320h83l131 206q47 73 93.5 146t107.5 171h468q-82 -112 -161.5 -221.5t-160.5 -221.5l-204 -283l-9 182l227 -361q53 -82 113 -178t117 -186t98 -157h-492zM116 0v219.5v241.5v487v251.5v226.5h411v-226.5v-251.5v-487
v-241.5v-219.5h-411z" />
    <glyph glyph-name="L" unicode="L" horiz-adv-x="1170" 
d="M116 0v219.5v241.5v487v251.5v226.5h413v-226.5v-251.5v-420v-241.5v-219.5l-140 290h289h171h137.5h129.5v-357h-1000z" />
    <glyph glyph-name="M" unicode="M" horiz-adv-x="1934" 
d="M82 0q14 109 27.5 220.5t29.5 241.5l61 482q16 129 30 245.5t30 236.5h416q40 -106 75.5 -200.5t70.5 -187.5l140 -370h26l131 369q34 94 66.5 186t71.5 203h410q16 -119 31 -235t32 -248l63 -483q16 -130 30.5 -239.5t28.5 -220.5h-392q-15 128 -29.5 242.5t-26.5 215.5
l-36 288h-27l-92 -309q-34 -115 -67.5 -226t-63.5 -211h-271q-24 66 -50 139.5t-52.5 149t-53.5 148.5l-110 309h-27l-35 -285q-12 -102 -26 -218t-30 -243h-381z" />
    <glyph glyph-name="N" unicode="N" horiz-adv-x="1496" 
d="M116 0v219.5v241.5v487v251.5v226.5h356q85 -127 158 -235.5t147 -219.5l189 -281h29v258v251.5v226.5h385v-226.5v-251.5v-487v-241.5v-219.5h-352q-70 103 -144.5 213t-161.5 240l-193 284h-28v-276v-241.5v-219.5h-385z" />
    <glyph glyph-name="O" unicode="O" horiz-adv-x="1625" 
d="M819 -29q-199 0 -343 59.5t-235.5 164t-135.5 237.5t-44 279q0 208 81.5 377t247 269t419.5 100q193 0 335 -58t235 -160t139 -237t46 -289q0 -214 -84 -381.5t-250 -264t-411 -96.5zM814 306q79 0 138 32t100 88.5t61.5 130t20.5 156.5q0 86 -22.5 160.5t-64 130
t-100.5 86.5t-133 31q-77 0 -137 -31.5t-101 -87.5t-63 -130.5t-22 -158.5q0 -83 21 -156.5t61.5 -130t101 -88.5t139.5 -32z" />
    <glyph glyph-name="P" unicode="P" horiz-adv-x="1323" 
d="M115 0v219.5v241.5v488v250.5v226.5h246.5h362.5q179 0 301 -42.5t184.5 -146t62.5 -283.5q0 -147 -51.5 -257.5t-162 -172.5t-288.5 -62h-103h-107h-89v298h200q64 0 104 19.5t59 59.5t19 102q0 48 -12.5 80.5t-34.5 52t-50.5 28t-59.5 8.5h-370l195 250v-226.5v-251.5
v-421v-241.5v-219.5h-406z" />
    <glyph glyph-name="Q" unicode="Q" horiz-adv-x="1625" 
d="M1166 -354q-60 57 -118.5 111.5t-113.5 105.5l-145 135l222 221l222 -180q73 -58 143.5 -115t148.5 -121zM819 -29q-199 0 -343 59.5t-235.5 164t-135.5 237.5t-44 279q0 208 81.5 377t247 269t419.5 100q193 0 335 -58t235 -160t139 -237t46 -289q0 -214 -84 -381.5
t-250 -264t-411 -96.5zM814 306q79 0 138 32t100 88.5t61.5 130t20.5 156.5q0 86 -22.5 160.5t-64 130t-100.5 86.5t-133 31q-77 0 -137 -31.5t-101 -87.5t-63 -130.5t-22 -158.5q0 -83 21 -156.5t61.5 -130t101 -88.5t139.5 -32z" />
    <glyph glyph-name="R" unicode="R" horiz-adv-x="1407" 
d="M115 0v219.5v241.5v488v250.5v226.5h165.5h205h213.5q181 0 308 -38t194 -131t67 -257q0 -128 -50.5 -224t-157.5 -150t-276 -54l165 136l177 -289q41 -67 87.5 -143t90.5 -148.5t78 -127.5h-465q-45 80 -86.5 153t-81.5 143l-213 383l243 -165h-334v265h220
q54 0 94 14.5t61.5 52t21.5 105.5q0 46 -12 76.5t-34 49.5t-50 27t-59 8h-463l296 248v-228.5v-249.5v-421v-241.5v-219.5h-405z" />
    <glyph glyph-name="S" unicode="S" horiz-adv-x="1217" 
d="M591 -29q-89 0 -184.5 14t-179.5 36.5t-137 47.5l28 347q70 -38 147.5 -65t152.5 -41.5t139 -14.5q57 0 96.5 13t60.5 39.5t21 67.5q0 45 -33 74t-93.5 51t-142.5 44q-126 35 -215.5 86t-137.5 132.5t-48 210.5q0 133 56 233t171.5 155.5t294.5 55.5q68 0 138 -8
t136.5 -21.5t125 -31t101.5 -37.5l-28 -351q-66 39 -135.5 65.5t-135 39.5t-117.5 13q-51 0 -89.5 -12t-60.5 -37t-22 -64t23 -65t71 -46t122 -42q171 -48 270 -103.5t140.5 -135.5t41.5 -201q0 -139 -59.5 -240t-187.5 -155t-330 -54z" />
    <glyph glyph-name="glyph21" horiz-adv-x="1553" 
d="M770 -29q-190 0 -325 58.5t-219.5 160.5t-124.5 232.5t-40 273.5l12 156h1078v-280h-743l54 61q-1 -60 15.5 -117.5t53 -105.5t95.5 -76t143 -28q79 0 136.5 27t95.5 77.5t57.5 119t20.5 150.5v142q-3 72 -33 127.5t-83.5 94t-126.5 58t-161 19.5q-61 0 -120.5 -8.5
t-116.5 -25t-111.5 -40t-106.5 -51.5l-28 354q45 20 101 39.5t124 34.5t146.5 24t168.5 9q183 0 324.5 -50.5t238.5 -146.5t147 -234t50 -313q0 -222 -81 -389t-242 -260t-399 -93z" />
    <glyph glyph-name="T" unicode="T" horiz-adv-x="1297" 
d="M443 0v219.5v241.5v421v251.5v226.5l154 -291h-200h-192.5h-158.5v357h1205v-357h-158.5h-192.5h-200l154 291v-226.5v-251.5v-421v-241.5v-219.5h-411z" />
    <glyph glyph-name="U" unicode="U" horiz-adv-x="1454" 
d="M730 -29q-228 0 -365 70.5t-198 202.5t-61 314v100v139.5v150.5v251.5v226.5h412v-226.5v-251.5v-372q0 -87 22.5 -147.5t69.5 -91.5t119 -31q75 0 120.5 31t66 91.5t20.5 148.5v371v251.5v226.5h412v-226.5v-251.5v-151.5v-141.5v-98q0 -182 -65 -313.5t-201.5 -202
t-351.5 -70.5z" />
    <glyph glyph-name="V" unicode="V" horiz-adv-x="1447" 
d="M445 0q-31 107 -65 227.5t-64 224.5l-127 446q-22 77 -47.5 167.5t-52 183.5t-50.5 177h458q27 -125 56.5 -266.5t54.5 -266.5l99 -477h28l108 479q29 127 60 264.5t60 266.5h444q-24 -87 -50.5 -178.5t-52.5 -180t-48 -167.5l-130 -448q-31 -106 -65 -225.5t-66 -226.5
h-550z" />
    <glyph glyph-name="W" unicode="W" horiz-adv-x="2124" 
d="M396 0q-27 106 -57.5 226.5t-56.5 223.5l-113 449q-30 119 -65.5 260t-67.5 267h468q18 -118 39.5 -249t39.5 -249l70 -438h29l76 445q14 75 28.5 159.5t29 169.5t28.5 162h430q22 -118 45 -246t45 -248l80 -442h28l71 445q18 114 39 245t38 246h468q-33 -127 -69 -267.5
t-67 -256.5l-117 -452q-28 -106 -58.5 -226t-57.5 -224h-495q-21 104 -44.5 218.5t-44.5 219.5l-80 394h-29l-76 -394q-19 -103 -41.5 -219t-42.5 -219h-470z" />
    <glyph glyph-name="X" unicode="X" horiz-adv-x="1455" 
d="M44 0q49 101 99.5 205.5t105.5 217.5l176 362v-91l-156 296q-54 102 -109.5 207.5t-120.5 228.5h467q34 -77 66.5 -150.5t61.5 -140.5l75 -171h29l71 172q28 68 58.5 141t61.5 149h450q-59 -121 -113 -230t-99 -200l-172 -347v104l175 -313q65 -115 124 -221t122 -219
h-485q-33 74 -62.5 138.5t-56.5 124.5l-90 198h-28l-85 -199q-26 -62 -53 -126t-57 -136h-455z" />
    <glyph glyph-name="Y" unicode="Y" horiz-adv-x="1395" 
d="M504 473l-285 577q-46 94 -88.5 180t-97.5 196h468q27 -75 45.5 -129.5t35.5 -103t38 -106.5l66 -189h32l66 184q23 61 41 111.5t38 105t47 127.5h452q-45 -94 -91.5 -189.5t-90.5 -185.5l-282 -578h-394zM495 0v219.5v241.5v359h413v-359v-241.5v-219.5h-413z" />
    <glyph glyph-name="Z" unicode="Z" horiz-adv-x="1391" 
d="M69 0v212q47 59 105 133.5t117 151t109 140.5l446 570l36 -120h-332h-218h-239v339h1215v-273q-75 -94 -147 -184.5t-143 -179.5l-457 -573l-24 123h300h159.5h173h150.5v-339h-1251z" />
    <glyph glyph-name="a" unicode="a" horiz-adv-x="1052" 
d="M327 -26q-88 0 -149 37.5t-92.5 102.5t-31.5 146q0 87 31 144.5t79.5 93t102.5 54t100 26.5l267 45q2 37 -18 60t-61 34t-101 11q-34 0 -74.5 -5.5t-85 -16t-89.5 -26.5t-90 -38l-16 311q38 12 87 26t108 25.5t126 19t140 7.5q129 0 221 -37.5t140.5 -117.5t48.5 -208
v-122v-123v-68v-168.5v-186.5h-308l-25 140h-25q-26 -44 -66 -81.5t-94.5 -61t-124.5 -23.5zM492 258q24 0 48.5 11.5t46 32.5t37.5 49v147q-10 -9 -23.5 -16.5t-38 -15.5t-66.5 -19q-25 -6 -45.5 -19.5t-32.5 -34t-12 -50.5q0 -45 27 -65t59 -20z" />
    <glyph glyph-name="glyph30" horiz-adv-x="1602" 
d="M1180 -29q-185 0 -303 68t-175 187.5t-57 275.5q0 155 44 274.5t145 187t272 67.5q141 0 241.5 -48.5t154 -148t53.5 -255.5q0 -41 -2.5 -73t-7.5 -63l-317 110q2 12 3 25.5t1 24.5q0 84 -35 132.5t-89 48.5q-41 0 -73.5 -25.5t-52 -75t-19.5 -123.5v-63
q0 -108 62.5 -165.5t201.5 -57.5q35 0 87.5 7.5t109 22.5t103.5 38l12 -309q-39 -17 -92 -31t-120 -22.5t-147 -8.5zM486 258q25 0 49.5 11.5t45.5 32.5t38 49v147q-10 -9 -24 -16.5t-38.5 -15.5t-66.5 -19q-25 -6 -45 -19.5t-32.5 -34t-12.5 -50.5q0 -45 27 -65t59 -20z
M371 -26q-113 0 -184 37.5t-105 102.5t-34 146q0 87 31.5 144.5t79.5 93t102.5 54t100.5 26.5l267 45q1 37 -19 60t-60.5 34t-101.5 11q-34 0 -74.5 -5.5t-84.5 -16t-89.5 -26.5t-89.5 -38l-16 311q35 12 81 26t100.5 25.5t117 19t130.5 7.5q190 0 283.5 -85t93.5 -278
l-51 -158l-12 -258q-61 -103 -131.5 -163.5t-153.5 -87.5t-181 -27zM762 443v162l568 16l215 -36v-142h-783z" />
    <glyph glyph-name="b" unicode="b" horiz-adv-x="1185" 
d="M742 -29q-66 0 -118.5 18t-94.5 51t-76 79h-23l-43 -119h-291v205v224v557v240.5v240.5l373 29v-243v-267v-82h28q26 42 61.5 70.5t81 42.5t99.5 14q130 0 217 -70.5t130.5 -190.5t43.5 -269q0 -139 -41.5 -260t-127.5 -195.5t-219 -74.5zM593 284q52 0 86.5 31t51.5 80
t17 103q0 58 -17.5 106.5t-52 78t-86.5 29.5q-24 0 -47 -7.5t-42.5 -21t-33.5 -32.5v-284q12 -24 29 -42.5t41 -29.5t54 -11z" />
    <glyph glyph-name="c" unicode="c" horiz-adv-x="958" 
d="M597 -23q-175 0 -296.5 67t-185 184t-63.5 270t57.5 273t174 189t293.5 69q60 0 120 -8.5t113.5 -24t94.5 -37.5l-26 -317q-58 33 -104 48.5t-82 21t-62 5.5q-90 0 -144.5 -56t-54.5 -152q0 -69 30 -120.5t87 -80.5t137 -29q35 0 69 6.5t67 20t64 33.5l15 -317
q-36 -14 -80 -24t-99.5 -15.5t-124.5 -5.5z" />
    <glyph glyph-name="d" unicode="d" horiz-adv-x="1178" 
d="M444 -29q-134 0 -220 74.5t-127.5 195.5t-41.5 260q0 149 43.5 269t130.5 190.5t217 70.5q55 0 100 -14t80.5 -42.5t61.5 -70.5h28v82v239v242l373 29v-243v-267v-557v-224v-205h-314l-24 129h-24q-34 -52 -76 -87t-93.5 -53t-113.5 -18zM592 284q30 0 54 11t41.5 29.5
t28.5 42.5v284q-14 19 -33 32.5t-42.5 21t-47.5 7.5q-52 0 -86.5 -29.5t-52 -78t-17.5 -106.5q0 -54 17.5 -103t52 -80t85.5 -31z" />
    <glyph glyph-name="e" unicode="e" horiz-adv-x="1053" 
d="M625 -29q-202 0 -328.5 68t-185.5 187.5t-59 275.5q0 155 54.5 274.5t164.5 187t278 67.5q143 0 243.5 -48.5t154 -148t53.5 -255.5q0 -41 -2.5 -73t-7.5 -63l-316 110q2 12 3 25.5t1 24.5q0 84 -35 132.5t-90 48.5q-41 0 -73.5 -25.5t-52 -75t-19.5 -123.5v-63
q0 -72 27.5 -121.5t85.5 -75.5t151 -26q36 0 88.5 7.5t108.5 22.5t103 38l12 -309q-39 -17 -92 -31t-120 -22.5t-147 -8.5zM194 443v162l581 16l215 -36v-142h-796z" />
    <glyph glyph-name="glyph35" horiz-adv-x="1053" 
d="M503 -29q-142 0 -242.5 48t-154 148t-53.5 255q0 42 2.5 74t6.5 62l317 -109q-1 -13 -2.5 -26t-1.5 -25q0 -83 35 -132t90 -49q40 0 73 25.5t52.5 75t19.5 123.5v64q0 72 -27.5 121.5t-86 75t-150.5 25.5q-36 0 -88.5 -7.5t-108.5 -22.5t-104 -38l-12 310
q40 16 93.5 30.5t120 23t146.5 8.5q202 0 328 -68t185 -188t59 -276q0 -155 -53.5 -274.5t-164 -186.5t-279.5 -67zM277 380l-215 36v142h797v-161z" />
    <glyph glyph-name="f" unicode="f" horiz-adv-x="835" 
d="M182 0v205v224v100v130v148v147v128q0 125 35 206t95 126.5t136 63.5t158 18q51 0 97 -5t81.5 -13t58.5 -17l-28 -300q-37 14 -75 22.5t-72 8.5q-61 0 -95 -28t-34 -92v-35v-36l17 -57v-515v-224v-205h-374zM30 724v277h765v-277h-171.5h-165.5h-169h-259z" />
    <glyph glyph-name="g" unicode="g" horiz-adv-x="1108" 
d="M471 -411q-114 0 -191.5 18.5t-123.5 50.5t-66 73t-20 86q0 65 32.5 106t77 64t80.5 33v23q-27 5 -54.5 24.5t-47 51t-19.5 75.5q0 33 13.5 65t41.5 58.5t74 43.5v24q-40 15 -78.5 40.5t-70.5 63t-51.5 88t-19.5 116.5q0 92 46 168.5t145 123t258 46.5q61 0 106 -6
t94 -12t124 -6h255v-231h-170h-164l96 142q51 -42 77 -102t26 -137q0 -92 -45 -154t-118.5 -99t-159.5 -55q-72 -15 -106 -28t-34 -42q0 -17 14.5 -26t45 -12.5t78.5 -3.5h38q121 0 213.5 -23t144.5 -82t52 -168q0 -111 -52.5 -187.5t-140.5 -122.5t-192.5 -66.5
t-207.5 -20.5zM522 -175q66 0 109.5 16t64.5 37.5t21 38.5q0 19 -13.5 34t-50.5 23.5t-110 8.5h-28q-32 -3 -65 -13.5t-54.5 -28.5t-21.5 -44q0 -15 9 -28t27 -23t46 -15.5t66 -5.5zM495 539q23 1 46.5 8t43.5 19.5t32 31t12 42.5q0 31 -17 53t-45 33.5t-63 11.5
q-32 0 -58.5 -11.5t-42 -32.5t-15.5 -48t14.5 -49t39 -37t53.5 -21z" />
    <glyph glyph-name="h" unicode="h" horiz-adv-x="1162" 
d="M96 0v205v224v557v240.5v240.5l373 29v-242.5v-267.5v-109h30q30 43 70 78t91.5 55.5t115.5 20.5q146 0 225 -87.5t79 -265.5v-126.5v-122.5v-223.5v-205.5h-373v203v205v144q0 70 -21 105.5t-76 35.5q-30 0 -55.5 -12t-47 -33t-38.5 -46v-194v-205.5v-202.5h-373z" />
    <glyph glyph-name="i" unicode="i" horiz-adv-x="581" 
d="M104 0v205v224v100v185v148.5v138.5l373 10v-141v-152v-189v-100v-224v-205h-373zM289 1113q-99 0 -157.5 45t-58.5 149q0 90 58.5 139.5t159.5 49.5t158.5 -51.5t57.5 -137.5q0 -104 -58 -149t-160 -45z" />
    <glyph glyph-name="glyph40" horiz-adv-x="581" 
d="M104 0v205v224v100v185v148.5v138.5l373 10v-141v-152v-189v-100v-224v-205h-373z" />
    <glyph glyph-name="i.locl" horiz-adv-x="581" 
d="M104 0v205v224v100v185v148.5v138.5l373 10v-141v-152v-189v-100v-224v-205h-373zM289 1113q-99 0 -157.5 45t-58.5 149q0 90 58.5 139.5t159.5 49.5t158.5 -51.5t57.5 -137.5q0 -104 -58 -149t-160 -45z" />
    <glyph glyph-name="j" unicode="j" horiz-adv-x="580" 
d="M-33 -395q49 65 79.5 141.5t44 161.5t13.5 175v346v100v185v148.5v138.5l373 10v-141v-152v-189v-170.5v-155.5v-158q0 -72 -9.5 -136t-28.5 -118t-49 -98t-71 -77zM293 1113q-99 0 -157.5 45t-58.5 149q0 90 58.5 139.5t159.5 49.5t158.5 -51.5t57.5 -137.5
q0 -104 -58 -149t-160 -45z" />
    <glyph glyph-name="glyph43" horiz-adv-x="580" 
d="M-33 -395q49 65 79.5 141.5t44 161.5t13.5 175v346v100v185v148.5v138.5l373 10v-141v-152v-189v-170.5v-155.5v-158q0 -72 -9.5 -136t-28.5 -118t-49 -98t-71 -77z" />
    <glyph glyph-name="k" unicode="k" horiz-adv-x="1184" 
d="M724 0q-31 58 -63 115.5t-63 113.5l-80 146h-78v242h80l74 136l68 124t67 124h428q-65 -92 -128 -182.5t-127 -181.5l-125 -180l-18 162l162 -247q64 -93 127.5 -186.5t125.5 -185.5h-450zM96 0v205v224v557v240.5v240.5l373 29v-242.5v-267.5v-634v-177.5v-174.5h-373z
" />
    <glyph glyph-name="glyph45" horiz-adv-x="1184" 
d="M96 0v205v224v116v181v140.5v134.5l373 11v-207.5v-210.5v-242v-177.5v-174.5h-373zM724 0q-31 58 -63 115.5t-63 113.5l-80 146h-78v242h80l74 136l68 124t67 124h428q-65 -92 -128 -182.5t-127 -181.5l-125 -180l-18 162l162 -247q64 -93 127.5 -186.5t125.5 -185.5
h-450z" />
    <glyph glyph-name="l" unicode="l" horiz-adv-x="565" 
d="M96 0v205v224v557v240.5v240.5l373 29v-243v-267v-557v-224v-205h-373z" />
    <glyph glyph-name="m" unicode="m" horiz-adv-x="1746" 
d="M96 0v205v224v100v233.5v238.5l311 17l16 -167h30q35 51 80.5 91.5t103.5 64.5t131 24q111 0 173.5 -56.5t85.5 -161.5l26 -1q7 -30 10.5 -63.5t3.5 -70.5v-126.5v-122.5v-223.5v-205.5h-373v203v205v144q0 70 -20.5 105.5t-71.5 35.5q-28 0 -52 -12.5t-44.5 -33
t-36.5 -45.5v-194v-205.5v-202.5h-373zM1290 0v203v205v144q0 70 -20 105.5t-71 35.5q-28 0 -52.5 -12t-45.5 -33t-37 -46l-56 248h30q37 52 84.5 92.5t108 64.5t135.5 24q144 0 221 -88t77 -265v-126.5v-122.5v-223.5v-205.5h-374z" />
    <glyph glyph-name="n" unicode="n" horiz-adv-x="1162" 
d="M96 0v205v224v100v233.5v238.5l311 17l16 -167h30q35 51 81.5 91.5t106.5 64.5t135 24q146 0 225 -87.5t79 -265.5v-126.5v-122.5v-223.5v-205.5h-373v203v205v144q0 70 -21 105.5t-76 35.5q-30 0 -55.5 -12t-47 -33t-38.5 -46v-194v-205.5v-202.5h-373z" />
    <glyph glyph-name="o" unicode="o" horiz-adv-x="1196" 
d="M603 -29q-144 0 -248 43t-171.5 117.5t-99.5 170t-32 200.5q0 150 60 269.5t180.5 189.5t302.5 70q140 0 243 -40.5t171 -113t101 -168.5t33 -207q0 -152 -61.5 -272t-182 -189.5t-296.5 -69.5zM602 271q54 0 90 32.5t53.5 85t17.5 113.5q0 74 -21 125t-57.5 77t-84.5 26
q-54 0 -91.5 -30t-57 -81.5t-19.5 -116.5q0 -61 19.5 -113.5t57.5 -85t93 -32.5z" />
    <glyph glyph-name="p" unicode="p" horiz-adv-x="1185" 
d="M96 -395v210.5v229.5v484v233.5v238.5l329 17l11 -140h29q30 51 70 85t91 51t113 17q130 0 217 -70.5t130.5 -190.5t43.5 -269q0 -139 -41.5 -260t-127.5 -195.5t-219 -74.5q-57 0 -103.5 15.5t-83 44t-66.5 68.5h-20v-75v-205.5v-202.5zM593 284q52 0 86.5 31t51.5 80
t17 103q0 58 -17.5 106.5t-52 78t-86.5 29.5q-24 0 -47 -7.5t-42.5 -21t-33.5 -32.5v-284q12 -24 29 -42.5t41 -29.5t54 -11z" />
    <glyph glyph-name="q" unicode="q" horiz-adv-x="1182" 
d="M716 -395v208v211v75h-20q-30 -39 -67 -68t-82.5 -44.5t-102.5 -15.5q-134 0 -220 74.5t-127.5 195.5t-41.5 260q0 149 43.5 269t130.5 190.5t217 70.5q62 0 113 -17t91.5 -51t70.5 -85h28l11 123l329 17v-246v-243v-484v-224v-205zM592 284q30 0 54 11t41.5 29.5
t28.5 42.5v284q-14 19 -33 32.5t-42.5 21t-47.5 7.5q-52 0 -86.5 -29.5t-52 -78t-17.5 -106.5q0 -54 17.5 -103t52 -80t85.5 -31z" />
    <glyph glyph-name="r" unicode="r" horiz-adv-x="840" 
d="M96 0v205v224v100v233.5v238.5l311 17l16 -172h30q38 76 82 115.5t89.5 54.5t89.5 15q19 0 48 -4t54 -15l-32 -360q-42 1 -75.5 2t-68.5 1q-28 0 -53.5 -5t-47 -17.5t-39.5 -33.5t-31 -52v-139v-205.5v-202.5h-373z" />
    <glyph glyph-name="s" unicode="s" horiz-adv-x="944" 
d="M451 -29q-83 0 -153.5 8.5t-127 23.5t-98.5 34l22 303q43 -29 98.5 -50.5t113 -33t108.5 -11.5q33 0 57.5 6t38 21t13.5 42q0 24 -17 38.5t-56.5 27t-107.5 29.5q-96 24 -156 62t-88.5 94.5t-28.5 137.5q0 153 102 239.5t285 86.5q82 0 155 -10t132.5 -26t99.5 -32
l-23 -307q-46 30 -100 49.5t-102.5 29t-77.5 9.5q-26 0 -46 -6.5t-31 -20.5t-11 -36q0 -21 11 -37.5t41 -30.5t87 -29q113 -30 181.5 -65t99 -86t30.5 -130q0 -99 -46 -173t-146 -115.5t-259 -41.5z" />
    <glyph glyph-name="t" unicode="t" horiz-adv-x="859" 
d="M551 -29q-117 0 -201.5 32.5t-129 108t-44.5 202.5v113v129.5v157.5v197v217v198l368 63v-153.5v-151.5v-173v-472q0 -81 27 -124.5t92 -43.5q29 0 63.5 11t70.5 34l19 -297q-29 -16 -72.5 -27t-94 -16t-98.5 -5zM30 724v277h783v-277h-180.5h-174.5h-169h-259z" />
    <glyph glyph-name="u" unicode="u" horiz-adv-x="1155" 
d="M386 -29q-145 0 -224.5 88t-79.5 264v117.5v104.5v181v140.5v134.5l373 11v-207.5v-210.5v-153q0 -69 21.5 -104.5t76.5 -35.5q29 0 54 12t46 32.5t39 45.5v203v205v202h373v-208v-248v-116v-224v-205h-311l-17 150h-30q-35 -51 -81.5 -91.5t-106 -64t-133.5 -23.5z" />
    <glyph glyph-name="v" unicode="v" horiz-adv-x="1120" 
d="M363 0q-32 94 -65 190t-66 189l-61 177q-38 111 -76.5 222.5t-77.5 222.5l403 11q20 -93 39.5 -187t39.5 -188l50 -236h29l50 237q21 97 40.5 188l37.5 175h397q-38 -111 -76.5 -223t-77.5 -224l-61 -178q-32 -94 -64 -187.5t-65 -188.5h-396z" />
    <glyph glyph-name="w" unicode="w" horiz-adv-x="1694" 
d="M319 0q-29 95 -57 189.5t-58 191.5l-54 178q-33 112 -66 221t-67 221l398 11q18 -94 38 -196t39 -197l46 -235h26l44 238q17 96 34.5 189.5t34.5 189.5h344q17 -91 35 -188t35 -190l44 -239h27l44 245q17 89 35 188.5t33 183.5h403q-34 -111 -68.5 -222t-68.5 -220
l-55 -176q-30 -97 -60 -193.5t-59 -189.5h-412q-17 76 -35 158t-35 158l-41 189h-25l-40 -195q-15 -73 -31.5 -154t-32.5 -156h-395z" />
    <glyph glyph-name="x" unicode="x" horiz-adv-x="1174" 
d="M30 0q36 71 63.5 123t52 99t52.5 100l123 236l1 -76l-126 217q-29 50 -55 95t-54.5 94.5t-64.5 112.5l414 11q23 -55 43 -103.5t41 -101.5l54 -129h26l51 127q20 53 38 98t38 98h420q-40 -66 -69.5 -113.5t-55.5 -90.5t-58 -95l-133 -218l-20 75l148 -241
q46 -75 89.5 -145.5t106.5 -172.5h-444q-20 50 -36.5 91.5t-37.5 91.5l-56 140h-23l-49 -133q-19 -52 -35 -94t-36 -96h-408z" />
    <glyph glyph-name="y" unicode="y" horiz-adv-x="1133" 
d="M204 -395q41 105 84 214.5t85 213.5v-64q-35 102 -71.5 207t-70.5 205l-63 181q-36 107 -75 219.5t-76 219.5l403 11q20 -98 39.5 -191t39.5 -191l49 -242h28l55 241q22 95 42.5 186.5t41.5 185.5h401q-31 -80 -59.5 -155.5t-63 -165.5t-81.5 -216l-108 -281
q-72 -190 -123 -324.5t-93 -242.5z" />
    <glyph glyph-name="z" unicode="z" horiz-adv-x="1052" 
d="M55 0v171q68 89 133.5 174t126.5 164l242 315l42 -103h-177h-104.5h-126h-124.5v280h904v-204q-32 -42 -73 -94.5t-84.5 -108.5t-84.5 -108l-229 -295l-33 89h192h103h121h115v-280h-943z" />
    <glyph glyph-name="glyph61" horiz-adv-x="835" 
d="M182 0v205v224v100v130v148v147v128q0 125 35 206t95 126.5t136 63.5t158 18q46 0 86 -4t71.5 -10t51.5 -12v-309q-37 14 -75 22.5t-72 8.5q-61 0 -95 -28t-34 -92v-35v-36l17 -57v-515v-224v-205h-374zM30 725v276h765v-276h-171.5h-165.5h-169h-259z" />
    <glyph glyph-name="glyph67" horiz-adv-x="1613" 
d="M182 0v205v224v100v130v148v147v128q0 125 35 206t95 126.5t136 63.5t158 18q51 0 97 -5t81.5 -13t58.5 -17l-28 -300q-37 14 -75 22.5t-72 8.5q-61 0 -95 -28t-34 -92v-35v-36l17 -57v-515v-224v-205h-374zM30 724v277h765v-277h-171.5h-165.5h-169h-259zM961 0v205v224
v100v130v148v147v128q0 125 35 206t94.5 126.5t135.5 63.5t158 18q46 0 86.5 -4t72 -10t51.5 -12v-309q-38 14 -75.5 22.5t-72.5 8.5q-61 0 -94.5 -28t-33.5 -92v-35v-36l16 -57v-515v-224v-205h-373zM809 724v277h764v-277h-171h-166h-169h-258z" />
    <glyph glyph-name="uni0410" unicode="&#x410;" horiz-adv-x="1468" 
d="M33 0q35 114 74 241.5t75 240.5l151 490q41 134 74 240t66 214h527q35 -113 67.5 -219t72.5 -235l150 -490q37 -118 75.5 -243t73.5 -239h-426q-26 107 -53.5 220t-53.5 213l-159 649h-29l-162 -641q-26 -105 -55 -220t-56 -221h-412zM421 264l46 305h589l37 -305h-672z
" />
    <glyph glyph-name="uni0411" unicode="&#x411;" horiz-adv-x="1326" 
d="M754 0h-345.5h-293.5v219.5v241.5v487v173v153v152h1063v-338h-224.5h-281.5h-337l186 272v-226.5v-251.5v-354v-118.5v-111.5h151q57 0 97.5 15t62 50.5t21.5 94.5q0 41 -13 69t-36 45t-51 24.5t-57 7.5h-225v270h118.5h134.5q180 0 301.5 -38t184 -132.5t62.5 -262.5
q0 -132 -52 -231.5t-166 -154.5t-300 -55z" />
    <glyph glyph-name="uni0412" unicode="&#x412;" horiz-adv-x="1344" 
d="M648 0h-209h-178h-146v219.5v241.5v488v250.5v226.5h286h321q159 0 263 -23.5t164.5 -66.5t85.5 -102t25 -131q0 -91 -35 -158t-95 -109.5t-135 -59.5v-29q92 -21 158.5 -62t101.5 -109.5t35 -171.5q0 -92 -29 -166.5t-100 -127.5t-196 -81.5t-317 -28.5zM520 292h167
q58 0 97.5 16t59 49t19.5 82q0 71 -42 108t-125 37h-274v265h252q53 0 89 17.5t54.5 50t18.5 78.5q0 68 -35.5 106t-110.5 38h-170v-126.5v-152.5v-310v-141v-117z" />
    <glyph glyph-name="uni0413" unicode="&#x413;" horiz-adv-x="1167" 
d="M116 0v219.5v241.5v487v251.5v226.5h987v-357h-220.5h-277.5h-247l171 291v-226.5v-251.5v-421v-241.5v-219.5h-413z" />
    <glyph glyph-name="uni0403" unicode="&#x403;" horiz-adv-x="1167" 
d="M116 0v219.5v241.5v487v251.5v226.5h987v-357h-220.5h-277.5h-247l171 291v-226.5v-251.5v-421v-241.5v-219.5h-413zM382 1539q60 98 118.5 194.5t116.5 193.5l380 8q-60 -68 -118.5 -134.5t-115 -131t-111.5 -126.5z" />
    <glyph glyph-name="uni0490" unicode="&#x490;" horiz-adv-x="1180" 
d="M116 0v219.5v241.5v487v251.5v226.5h696l-63 -80l22 366h344v-157.5v-157.5v-163.5v-164.5h-220.5h-276.5h-260l171 291v-226.5v-251.5v-421v-241.5v-219.5h-413z" />
    <glyph glyph-name="uni0414" unicode="&#x414;" horiz-adv-x="1639" 
d="M1012 67v219.5v241.5v354v251.5v226.5l112 -275h-613l201 255q-7 -120 -13.5 -242t-13.5 -243q-7 -134 -21.5 -232t-47 -174.5t-93.5 -145.5l-391 37q43 31 81 102.5t65.5 192.5t37.5 300q7 130 14 254t13 237h1083v-226.5v-251.5v-420v-241.5v-219.5h-414zM20 -302
v157.5v157.5v163.5v164.5h282h278h469h278.5h281.5v-164.5v-163.5v-157.5v-157.5h-344l-22 366l67 -64h-991l67 64l-22 -366h-344z" />
    <glyph glyph-name="uni0415" unicode="&#x415;" horiz-adv-x="1197" 
d="M115 0v219.5v241.5v488v250.5v226.5h982v-329h-188.5h-236.5h-324l171 263v-226.5v-251.5v-354v-242v-220l-145 263h326h214.5h193.5v-329h-993zM424 567v299h252h218h176v-299h-180h-215h-251z" />
    <glyph glyph-name="uni0400" unicode="&#x400;" horiz-adv-x="1197" 
d="M115 0v219.5v241.5v488v250.5v226.5h982v-329h-188.5h-236.5h-324l171 263v-226.5v-251.5v-354v-242v-220l-145 263h326h214.5h193.5v-329h-993zM424 567v299h252h218h176v-299h-180h-215h-251zM562 1539q-55 63 -112 126.5t-114.5 129t-118.5 132.5l379 8
q59 -99 118 -196.5t118 -195.5z" />
    <glyph glyph-name="uni0401" unicode="&#x401;" horiz-adv-x="1197" 
d="M115 0v219.5v241.5v488v250.5v226.5h982v-329h-188.5h-236.5h-324l171 263v-226.5v-251.5v-354v-242v-220l-145 263h326h214.5h193.5v-329h-993zM424 567v299h252h218h176v-299h-180h-215h-251zM848 1530q-87 0 -136 46t-49 139q0 81 49.5 130.5t137.5 49.5q86 0 135 -52
t49 -128q0 -93 -49 -139t-137 -46zM376 1530q-87 0 -135.5 46t-48.5 139q0 81 49 130.5t137 49.5q86 0 135 -52t49 -128q0 -93 -49 -139t-137 -46z" />
    <glyph glyph-name="uni0416" unicode="&#x416;" horiz-adv-x="2157" 
d="M1643 0q-46 91 -86 170.5t-78 156.5l-129 256h-99v320h91l121 206q43 73 85.5 147t98.5 170h462q-77 -113 -153 -223t-152 -221l-192 -282l-8 182l215 -361q48 -82 105.5 -177.5t111.5 -186t94 -157.5h-487zM27 0q40 67 94 157.5t111.5 186.5t106.5 177l214 361l-34 -182
l-183 283q-72 110 -143.5 220.5t-145.5 222.5h471q54 -96 95.5 -170.5t82.5 -146.5l116 -206h94v-320h-99l-131 -253q-40 -79 -82 -159.5t-89 -170.5h-478zM877 0v219.5v241.5v487v251.5v226.5h403v-226.5v-251.5v-487v-241.5v-219.5h-403z" />
    <glyph glyph-name="uni0417" unicode="&#x417;" horiz-adv-x="1200" 
d="M574 -29q-64 0 -133.5 7t-136 20.5t-123 31t-94.5 37.5l23 346q52 -28 105.5 -49.5t106.5 -37t103 -23.5t93 -8q73 0 117 19.5t64 53.5t20 77q0 73 -50 106t-154 33h-93.5h-80.5v265h63h78q70 0 116.5 18.5t70.5 51.5t24 76q0 45 -23 75.5t-65 46t-100 15.5
q-40 0 -84.5 -8t-92.5 -24.5t-99 -42.5t-103 -63l-49 353q44 24 97.5 43.5t115.5 34.5t130 23.5t140 8.5q194 0 316.5 -47t180.5 -128t58 -184q0 -138 -76.5 -216t-189.5 -106v-28q87 -18 154 -57.5t105 -109t38 -178.5q0 -118 -54 -216.5t-179 -157t-339 -58.5z" />
    <glyph glyph-name="uni0418" unicode="&#x418;" horiz-adv-x="1496" 
d="M116 0v219.5v241.5v487v251.5v226.5h401v-228v-252v-267h29l187 286q72 111 145 222.5t155 238.5h347v-226.5v-251.5v-487v-241.5v-219.5h-401v221v243v284h-27l-190 -288q-87 -131 -160 -242.5t-143 -217.5h-343z" />
    <glyph glyph-name="uni0419" unicode="&#x419;" horiz-adv-x="1496" 
d="M116 0v219.5v241.5v487v251.5v226.5h401v-228v-252v-267h29l187 286q72 111 145 222.5t155 238.5h347v-226.5v-251.5v-487v-241.5v-219.5h-401v221v243v284h-27l-190 -288q-87 -131 -160 -242.5t-143 -217.5h-343zM743 1518q-151 0 -250.5 44t-149 130t-51.5 212l292 11
q0 -82 38 -132.5t121 -50.5t121 48.5t38 123.5h292q-1 -126 -50 -212t-148.5 -130t-252.5 -44z" />
    <glyph glyph-name="uni040D" unicode="&#x40d;" horiz-adv-x="1496" 
d="M116 0v219.5v241.5v487v251.5v226.5h401v-228v-252v-267h29l187 286q72 111 145 222.5t155 238.5h347v-226.5v-251.5v-487v-241.5v-219.5h-401v221v243v284h-27l-190 -288q-87 -131 -160 -242.5t-143 -217.5h-343zM694 1539q-55 63 -112 126.5t-114.5 129t-118.5 132.5
l379 8q59 -99 118 -196.5t118 -195.5z" />
    <glyph glyph-name="uni048A" unicode="&#x48a;" horiz-adv-x="1590" 
d="M1111 -302l66 344l93 -42h-207v341h261.5h262.5q-19 -81 -37.5 -164.5t-35.5 -162.5q-17 -77 -35 -158t-36 -158h-332zM116 0v219.5v241.5v487v251.5v226.5h401v-228v-252v-267h29l187 286q72 111 145 222.5t155 238.5h347v-226.5v-251.5v-487v-241.5v-219.5h-401v221
v243v284h-27l-190 -288q-87 -131 -160 -242.5t-143 -217.5h-343zM742 1518q-150 0 -249.5 44t-149 130t-51.5 212l292 11q0 -82 38 -132.5t120 -50.5q84 0 122 48.5t38 123.5h292q-1 -126 -50 -212t-149 -130t-253 -44z" />
    <glyph glyph-name="uni041A" unicode="&#x41a;" horiz-adv-x="1429" 
d="M909 0q-49 90 -93.5 170t-86.5 158l-142 255h-89v320h83l131 206q47 73 93.5 146t107.5 171h468q-82 -112 -161.5 -221.5t-160.5 -221.5l-204 -283l-9 182l227 -361q53 -82 113 -178t117 -186t98 -157h-492zM116 0v219.5v241.5v487v251.5v226.5h411v-226.5v-251.5v-487
v-241.5v-219.5h-411z" />
    <glyph glyph-name="uni040C" unicode="&#x40c;" horiz-adv-x="1429" 
d="M909 0q-49 90 -93.5 170t-86.5 158l-142 255h-89v320h83l131 206q47 73 93.5 146t107.5 171h468q-82 -112 -161.5 -221.5t-160.5 -221.5l-204 -283l-9 182l227 -361q53 -82 113 -178t117 -186t98 -157h-492zM116 0v219.5v241.5v487v251.5v226.5h411v-226.5v-251.5v-487
v-241.5v-219.5h-411zM508 1539q60 98 118.5 194.5t116.5 193.5l380 8q-60 -68 -118.5 -134.5t-115 -131t-111.5 -126.5z" />
    <glyph glyph-name="uni041B" unicode="&#x41b;" horiz-adv-x="1523" 
d="M217 -25q-40 0 -75 3t-65 8.5t-55 11.5l15 339q22 -3 37 -4.5t26 -1.5q66 0 106.5 61t62 185.5t31.5 315.5q6 128 13 265t13 268h1082v-226.5v-251.5v-487v-241.5v-219.5h-414v219.5v241.5v421v251.5v226.5l194 -275h-696l219 258q-10 -151 -21.5 -299.5t-22.5 -310.5
q-13 -186 -31.5 -328t-61.5 -238t-127.5 -144t-229.5 -48z" />
    <glyph glyph-name="uni041C" unicode="&#x41c;" horiz-adv-x="1934" 
d="M82 0q14 109 27.5 220.5t29.5 241.5l61 482q16 129 30 245.5t30 236.5h416q40 -106 75.5 -200.5t70.5 -187.5l140 -370h26l131 369q34 94 66.5 186t71.5 203h410q16 -119 31 -235t32 -248l63 -483q16 -130 30.5 -239.5t28.5 -220.5h-392q-15 128 -29.5 242.5t-26.5 215.5
l-36 288h-27l-92 -309q-34 -115 -67.5 -226t-63.5 -211h-271q-24 66 -50 139.5t-52.5 149t-53.5 148.5l-110 309h-27l-35 -285q-12 -102 -26 -218t-30 -243h-381z" />
    <glyph glyph-name="uni041D" unicode="&#x41d;" horiz-adv-x="1501" 
d="M973 0v219.5v241.5v487v251.5v226.5h413v-226.5v-251.5v-487v-241.5v-219.5h-413zM116 0v219.5v241.5v487v251.5v226.5h413v-226.5v-251.5v-487v-241.5v-219.5h-413zM423 546v341h661v-341h-661z" />
    <glyph glyph-name="uni041E" unicode="&#x41e;" horiz-adv-x="1625" 
d="M819 -29q-199 0 -343 59.5t-235.5 164t-135.5 237.5t-44 279q0 208 81.5 377t247 269t419.5 100q193 0 335 -58t235 -160t139 -237t46 -289q0 -214 -84 -381.5t-250 -264t-411 -96.5zM814 306q79 0 138 32t100 88.5t61.5 130t20.5 156.5q0 86 -22.5 160.5t-64 130
t-100.5 86.5t-133 31q-77 0 -137 -31.5t-101 -87.5t-63 -130.5t-22 -158.5q0 -83 21 -156.5t61.5 -130t101 -88.5t139.5 -32z" />
    <glyph glyph-name="uni041F" unicode="&#x41f;" horiz-adv-x="1492" 
d="M116 0v219.5v241.5v487v251.5v226.5h1261v-226.5v-251.5v-487v-241.5v-219.5h-413v219.5v241.5v421v251.5v226.5l109 -275h-653l109 275v-226.5v-251.5v-421v-241.5v-219.5h-413z" />
    <glyph glyph-name="uni0420" unicode="&#x420;" horiz-adv-x="1323" 
d="M115 0v219.5v241.5v488v250.5v226.5h246.5h362.5q179 0 301 -42.5t184.5 -146t62.5 -283.5q0 -147 -51.5 -257.5t-162 -172.5t-288.5 -62h-103h-107h-89v298h200q64 0 104 19.5t59 59.5t19 102q0 48 -12.5 80.5t-34.5 52t-50.5 28t-59.5 8.5h-370l195 250v-226.5v-251.5
v-421v-241.5v-219.5h-406z" />
    <glyph glyph-name="uni0421" unicode="&#x421;" horiz-adv-x="1365" 
d="M826 -29q-176 0 -317.5 52t-241.5 149t-153 233t-53 305q0 214 86 383t251 266.5t403 97.5q68 0 135.5 -8.5t130.5 -23t118.5 -33t98.5 -41.5l-29 -380q-78 50 -149.5 80.5t-135.5 44.5t-120 14q-103 0 -184 -44.5t-128 -133.5t-47 -221q0 -81 24 -154.5t72.5 -129.5
t122.5 -88.5t174 -32.5q44 0 90 6.5t93 20.5t94.5 39t96.5 61l20 -375q-43 -22 -96 -39t-111.5 -27.5t-120.5 -15.5t-124 -5z" />
    <glyph glyph-name="uni0422" unicode="&#x422;" horiz-adv-x="1297" 
d="M443 0v219.5v241.5v421v251.5v226.5l154 -291h-200h-192.5h-158.5v357h1205v-357h-158.5h-192.5h-200l154 291v-226.5v-251.5v-421v-241.5v-219.5h-411z" />
    <glyph glyph-name="uni0423" unicode="&#x423;" horiz-adv-x="1424" 
d="M335 0q40 92 81.5 188.5t86.5 202.5l-288 627q-47 102 -89.5 195.5t-97.5 212.5h463q22 -69 40.5 -123.5t34 -102t31.5 -94.5t34 -102l76 -228h29l73 225q18 57 33.5 105t31 95.5t33.5 102t40 122.5h444q-57 -132 -117 -270t-111 -256l-194 -449q-45 -105 -96.5 -225
t-98.5 -226h-439z" />
    <glyph glyph-name="uni040E" unicode="&#x40e;" horiz-adv-x="1424" 
d="M335 0q40 92 81.5 188.5t86.5 202.5l-288 627q-47 102 -89.5 195.5t-97.5 212.5h463q22 -69 40.5 -123.5t34 -102t31.5 -94.5t34 -102l76 -228h29l73 225q18 57 33.5 105t31 95.5t33.5 102t40 122.5h444q-57 -132 -117 -270t-111 -256l-194 -449q-45 -105 -96.5 -225
t-98.5 -226h-439zM710 1518q-216 0 -317 97.5t-103 288.5l292 11q0 -79 25 -132t103 -53q54 0 82 23.5t38 63t10 87.5h292q-1 -191 -101 -288.5t-321 -97.5z" />
    <glyph glyph-name="uni0424" unicode="&#x424;" horiz-adv-x="1833" 
d="M938 124l7 299h153q104 0 163.5 37t84 102t24.5 150q0 87 -25 152.5t-84 102t-161 36.5h-145l-7 299h156q241 0 390.5 -74t218.5 -207t69 -310q0 -170 -68 -303t-220 -208.5t-404 -75.5h-152zM743 124q-188 0 -320 43.5t-214 122.5t-120 186t-38 235q0 177 69.5 310
t219 207t389.5 74h156l-7 -299h-145q-101 0 -160.5 -36.5t-84.5 -102t-25 -152.5q0 -85 24.5 -150t84 -102t164.5 -37h152l7 -299h-152zM717 -25v95.5v93.5l13 9v140.5v150.5v498v150.5v140.5l-13 9v93.5v95.5h399v-95.5v-93.5l-12 -9v-140.5v-150.5v-498v-150v-141l12 -9
v-93v-96h-399z" />
    <glyph glyph-name="uni0425" unicode="&#x425;" horiz-adv-x="1455" 
d="M44 0q49 101 99.5 205.5t105.5 217.5l176 362v-91l-156 296q-54 102 -109.5 207.5t-120.5 228.5h467q34 -77 66.5 -150.5t61.5 -140.5l75 -171h29l71 172q28 68 58.5 141t61.5 149h450q-59 -121 -113 -230t-99 -200l-172 -347v104l175 -313q65 -115 124 -221t122 -219
h-485q-33 74 -62.5 138.5t-56.5 124.5l-90 198h-28l-85 -199q-26 -62 -53 -126t-57 -136h-455z" />
    <glyph glyph-name="uni0427" unicode="&#x427;" horiz-adv-x="1413" 
d="M884 0v206.5v227.5v73q-50 -19 -101.5 -32.5t-109.5 -20.5t-129 -7q-141 0 -246.5 50t-164 148t-58.5 243v50.5v50.5v229.5v207.5h414v-227v-207v-51q0 -49 18 -88t61 -62t116 -23q40 0 75 6t66.5 16t58.5 24v134v251.5v226.5h413v-226.5v-251.5v-487v-241.5v-219.5h-413
z" />
    <glyph glyph-name="uni0426" unicode="&#x426;" horiz-adv-x="1573" 
d="M1199 -302l-22 366l67 -64h-1128v219.5v241.5v487v251.5v226.5h413v-226.5v-251.5v-420v-241.5v-219.5l-187 274h642h277.5h281.5v-164v-164v-157v-158h-344zM946 67v219.5v241.5v420v251.5v226.5h414v-226.5v-251.5v-420v-241.5v-219.5h-414z" />
    <glyph glyph-name="uni0428" unicode="&#x428;" horiz-adv-x="2135" 
d="M116 0v219.5v241.5v487v251.5v226.5h413v-226.5v-251.5v-420v-241.5v-219.5l-187 274h1461l-197 -274v219.5v241.5v420v251.5v226.5h413v-226.5v-251.5v-487v-241.5v-219.5h-1903zM866 67v219.5v241.5v420v251.5v226.5h403v-226.5v-251.5v-420v-241.5v-219.5h-403z" />
    <glyph glyph-name="uni0429" unicode="&#x429;" horiz-adv-x="2232" 
d="M1859 -302l-23 366l67 -64h-1787v219.5v241.5v487v251.5v226.5h413v-226.5v-251.5v-420v-241.5v-219.5l-187 274h1302h278h281v-164v-164v-157v-158h-344zM866 67v219.5v241.5v420v251.5v226.5h403v-226.5v-251.5v-420v-241.5v-219.5h-403zM1606 67v219.5v241.5v420
v251.5v226.5h413v-226.5v-251.5v-420v-241.5v-219.5h-413z" />
    <glyph glyph-name="uni040F" unicode="&#x40f;" horiz-adv-x="1493" 
d="M116 0v219.5v241.5v487v251.5v226.5h413v-226.5v-251.5v-420v-241.5v-219.5l-180 274h801l-186 -274v219.5v241.5v420v251.5v226.5h413v-226.5v-251.5v-487v-241.5v-219.5h-1261zM577 -302q-2 91 -4.5 181.5t-4.5 182.5h361q-2 -91 -4.5 -182t-4.5 -182h-343z" />
    <glyph glyph-name="uni042C" unicode="&#x42c;" horiz-adv-x="1326" 
d="M754 0h-345.5h-293.5v219.5v241.5v487v251.5v226.5h406v-226.5v-251.5v-420v-118.5v-111.5h151q63 0 103 19.5t59 60t19 102.5q0 48 -12.5 81t-34.5 52.5t-50.5 28.5t-59.5 9h-225v315h118.5h134.5q180 0 301.5 -42.5t184 -146t62.5 -285.5q0 -147 -52 -258t-166 -172.5
t-300 -61.5z" />
    <glyph glyph-name="uni042A" unicode="&#x42a;" horiz-adv-x="1631" 
d="M1059 0h-344.5h-293.5v219.5v241.5v421v251.5v226.5l169 -291h-193h-193h-159v357h781v-226.5v-251.5v-420v-118.5v-111.5h151q64 0 104 19.5t59 60t19 102.5q0 48 -12.5 81t-34.5 52.5t-50.5 28.5t-60.5 9h-224v315h118h135q179 0 301 -42.5t184 -146t62 -285.5
q0 -147 -51.5 -258t-165.5 -172.5t-301 -61.5z" />
    <glyph glyph-name="uni042B" unicode="&#x42b;" horiz-adv-x="1962" 
d="M754 0h-345.5h-293.5v219.5v241.5v487v251.5v226.5h406v-226.5v-251.5v-420v-118.5v-111.5h151q63 0 103 19.5t59 60t19 102.5q0 48 -12.5 81t-34.5 52.5t-50.5 28.5t-59.5 9h-225v315h118.5h134.5q180 0 301.5 -42.5t184 -146t62.5 -285.5q0 -147 -52 -258t-166 -172.5
t-300 -61.5zM1425 0v219.5v241.5v487v251.5v226.5h421v-226.5v-251.5v-487v-241.5v-219.5h-421z" />
    <glyph glyph-name="uni0409" unicode="&#x409;" horiz-adv-x="2200" 
d="M217 -25q-40 0 -75 3.5t-65 8.5t-55 11l15 339q22 -3 37 -4.5t26 -1.5q66 0 106.5 61t62 185.5t31.5 315.5q6 128 13 265t13 268h1069v-226.5v-251.5v-420v-118.5v-111.5h151q64 0 104 19.5t59 60t19 102.5q0 48 -12.5 81t-34.5 52.5t-50.5 28.5t-59.5 9h-225v315h118.5
h134.5q179 0 301 -42.5t184 -146t62 -285.5q0 -147 -51.5 -258t-165.5 -172.5t-301 -61.5h-344.5h-293.5v219.5v241.5v421v251.5v226.5l212 -275h-710l219 258q-10 -151 -21.5 -299.5t-22.5 -310.5q-13 -187 -31.5 -328.5t-61.5 -237.5t-127.5 -144t-229.5 -48z" />
    <glyph glyph-name="uni040A" unicode="&#x40a;" horiz-adv-x="2166" 
d="M115 0v219.5v241.5v487v251.5v226.5h414v-226.5v-251.5v-487v-241.5v-219.5h-414zM423 546v340h645v-340h-645zM1594 0h-345h-294v219.5v241.5v487v251.5v226.5h406v-226.5v-251.5v-420v-118.5v-111.5h151q64 0 104 19.5t59 60t19 102.5q0 48 -12.5 81t-34.5 52.5
t-50.5 28.5t-59.5 9h-225v315h118.5h134.5q179 0 301 -42.5t184 -146t62 -285.5q0 -147 -51.5 -258t-165.5 -172.5t-301 -61.5z" />
    <glyph glyph-name="uni0405" unicode="&#x405;" horiz-adv-x="1217" 
d="M591 -29q-89 0 -184.5 14t-179.5 36.5t-137 47.5l28 347q70 -38 147.5 -65t152.5 -41.5t139 -14.5q57 0 96.5 13t60.5 39.5t21 67.5q0 45 -33 74t-93.5 51t-142.5 44q-126 35 -215.5 86t-137.5 132.5t-48 210.5q0 133 56 233t171.5 155.5t294.5 55.5q68 0 138 -8
t136.5 -21.5t125 -31t101.5 -37.5l-28 -351q-66 39 -135.5 65.5t-135 39.5t-117.5 13q-51 0 -89.5 -12t-60.5 -37t-22 -64t23 -65t71 -46t122 -42q171 -48 270 -103.5t140.5 -135.5t41.5 -201q0 -139 -59.5 -240t-187.5 -155t-330 -54z" />
    <glyph glyph-name="uni0404" unicode="&#x404;" horiz-adv-x="1379" 
d="M826 -29q-176 0 -317.5 52t-241.5 149t-153 233t-53 305q0 214 86 383t251.5 266.5t402.5 97.5q73 0 143 -8.5t134.5 -22.5t120 -33t99.5 -42l-30 -367q-78 47 -150 76t-140 43t-134 14q-100 0 -184 -36.5t-134.5 -114.5t-50.5 -206v-98q0 -80 24.5 -147t74 -115
t126.5 -74.5t182 -26.5q50 0 99 6.5t97.5 20.5t96.5 38t96 60l20 -366q-43 -22 -96 -39t-113 -27.5t-125 -15.5t-131 -5zM404 568v287h257h218h176v-287h-181h-214h-256z" />
    <glyph glyph-name="uni042D" unicode="&#x42d;" horiz-adv-x="1379" 
d="M553 -29q-67 0 -131.5 5t-124.5 15.5t-113 27.5t-96 39l20 366q48 -36 96 -60t96.5 -38t97.5 -20.5t99 -6.5q150 0 239 42t128.5 120t39.5 185v139q0 89 -28 152.5t-78 103t-116.5 58t-144.5 18.5q-66 0 -134.5 -14t-141 -43t-150.5 -76l-30 367q44 23 99.5 42t120.5 33
t135.5 22.5t142.5 8.5q182 0 320 -56t231 -157t140 -237.5t47 -296.5q0 -225 -89 -391t-260 -257t-415 -91zM323 568v287h177h218h257v-287h-257h-213.5h-181.5z" />
    <glyph glyph-name="uni0406" unicode="&#x406;" horiz-adv-x="669" 
d="M124 0v219.5v241.5v487v251.5v226.5h421v-226.5v-251.5v-487v-241.5v-219.5h-421z" />
    <glyph glyph-name="uni0407" unicode="&#x407;" horiz-adv-x="669" 
d="M124 0v219.5v241.5v487v251.5v226.5h421v-226.5v-251.5v-487v-241.5v-219.5h-421zM563 1530q-87 0 -136 46t-49 139q0 81 49.5 130.5t137.5 49.5q86 0 135 -52t49 -128q0 -93 -49 -139t-137 -46zM91 1530q-87 0 -135.5 46t-48.5 139q0 81 49 130.5t137 49.5q86 0 135 -52
t49 -128q0 -93 -49 -139t-137 -46z" />
    <glyph glyph-name="uni0408" unicode="&#x408;" horiz-adv-x="670" 
d="M-9 -307q50 72 81 148.5t46 158t15 170.5v516v262v251.5v226.5h413v-226.5v-251.5v-250v-282.5v-267.5q0 -84 -12.5 -153t-36.5 -124t-56 -99t-71 -79h-379z" />
    <glyph glyph-name="uni040B" unicode="&#x40b;" horiz-adv-x="1709" 
d="M421 0v219.5v241.5v421v251.5v226.5l154 -291h-178h-192.5h-158.5v357h1282v-341h-184.5h-224.5h-241l155 275v-226.5v-251.5v-71q50 20 99 35t105 24t126 9q141 0 246 -51.5t163 -147.5t58 -233v-54.5v-54.5v-177v-161h-414v163v179v35q0 53 -18 94t-58 64t-109 23
q-40 0 -74.5 -5.5t-65.5 -15.5t-58 -24v-61v-237v-215h-412z" />
    <glyph glyph-name="uni042E" unicode="&#x42e;" horiz-adv-x="2230" 
d="M1429 -29q-200 0 -342 59.5t-231 164t-130.5 237.5t-41.5 279q0 156 44 291t133.5 237.5t228.5 160t329 57.5t331.5 -58t234.5 -160t138.5 -237t45.5 -289q0 -214 -84 -381.5t-248.5 -264t-407.5 -96.5zM116 0v219.5v241.5v487v251.5v226.5h413v-226.5v-251.5v-487
v-241.5v-219.5h-413zM423 546v341h516v-341h-516zM1424 306q76 0 135 32t99 88.5t60.5 130t20.5 156.5q0 86 -22 160.5t-63.5 130t-100 86.5t-129.5 31q-77 0 -136.5 -31.5t-99.5 -87.5t-61 -130.5t-21 -158.5q0 -83 20 -156.5t60 -130t99.5 -88.5t138.5 -32z" />
    <glyph glyph-name="uni042F" unicode="&#x42f;" horiz-adv-x="1398" 
d="M26 0q32 55 75.5 127.5t89 149t85.5 142.5l172 289l158 -142q-127 0 -218.5 31t-150.5 88t-87 135.5t-28 175.5q0 166 66.5 259.5t194 132t307.5 38.5h215.5h209.5h167v-226.5v-251.5v-487v-241.5v-219.5h-405v219.5v241.5v421v251.5v226.5l213 -248h-387q-32 0 -60 -8
t-49.5 -27t-34 -49.5t-12.5 -76.5q0 -101 48.5 -136.5t129.5 -35.5h227v-266h-336l239 165l-209 -382q-40 -70 -80.5 -143t-85.5 -153h-454z" />
    <glyph glyph-name="uni0402" unicode="&#x402;" horiz-adv-x="1691" 
d="M1010 -302q45 67 81.5 130.5t63 125t44 120.5t26 116.5t8.5 114.5q0 130 -51.5 191.5t-146.5 61.5q-37 0 -72.5 -5.5t-69 -15.5t-60.5 -24v-61v-237v-215h-412v219.5v241.5v421v251.5v226.5l154 -291h-178h-192.5h-158.5v357h1282v-341h-184.5h-224.5h-241l155 275
v-226.5v-251.5v-71q50 21 101.5 36t109 23.5t122.5 8.5q145 0 256 -57t174 -172t63 -290q0 -75 -12 -151t-34 -148.5t-53 -138.5t-69 -123t-80 -101h-401z" />
    <glyph glyph-name="uni0462" unicode="&#x462;" horiz-adv-x="1494" 
d="M279 0v219.5v241.5v487v251.5v226.5h406v-226.5v-251.5v-413v-123v-114h170q59 0 96 15t54 46.5t17 80.5q0 38 -11 63t-30.5 39.5t-46 20.5t-57.5 6h-242v269h131h147q180 0 296.5 -38.5t174 -128t57.5 -244.5q0 -126 -48.5 -222t-158.5 -150.5t-297 -54.5h-354.5h-303.5
zM13 1011v302h143h129h555h129.5h142.5v-302h-142.5h-129.5h-555h-129h-143z" />
    <glyph glyph-name="uni046A" unicode="&#x46a;" horiz-adv-x="2157" 
d="M27 0q40 67 94 157.5t111.5 186.5t106.5 177l214 361l-63 -263l-145 208q-57 81 -114 162.5t-115 163.5v273h1914v-273q-61 -82 -121 -164t-120 -163l-152 -207l-33 263l215 -361q48 -82 105.5 -177.5t111.5 -186t94 -157.5h-487q-46 91 -86 170.5t-78 156.5l-129 256
h-543l-131 -253q-40 -79 -82 -159.5t-89 -170.5h-478zM877 0v219.5v241.5v287h403v-287v-241.5v-219.5h-403zM767 824h619l253 381l27 -117h-1174l32 117z" />
    <glyph glyph-name="uni0472" unicode="&#x472;" horiz-adv-x="1625" 
d="M820 -29q-200 0 -343 60t-235 164t-136.5 237t-44.5 279q0 208 82 377t248 269t418 100q191 0 333.5 -58t236 -160t139.5 -237t46 -289q0 -213 -85 -381t-250.5 -264.5t-408.5 -96.5zM814 297q83 0 145 26t103.5 70.5t62 101t20.5 117.5v201q0 89 -39.5 161t-113 114.5
t-178.5 42.5q-81 0 -143 -25t-104.5 -69t-64.5 -101.5t-22 -122.5v-201q0 -62 21 -118.5t63 -100.5t104.5 -70t145.5 -26zM410 572v284h820v-284h-820z" />
    <glyph glyph-name="uni0474" unicode="&#x474;" horiz-adv-x="1505" 
d="M442 0q-30 107 -64 227.5t-63 224.5l-127 446q-21 77 -46.5 167.5t-52 183.5t-50.5 177h458q26 -125 55.5 -266.5t54.5 -266.5l97 -477h29l85 369q18 85 38 175t39 175q20 106 60 174t110 101t178 33q51 0 93 -3t78.5 -8t67.5 -11l-15 -341q-22 4 -38.5 5.5t-28.5 1.5
q-58 0 -88 -40.5t-57 -135.5q-24 -82 -49.5 -170.5t-50.5 -174t-46 -158.5q-27 -95 -57 -202t-59 -206h-551z" />
    <glyph glyph-name="uni0492" unicode="&#x492;" horiz-adv-x="1223" 
d="M171 0v219.5v241.5v487v251.5v226.5h988v-357h-221.5h-276.5h-247l160 291v-226.5v-251.5v-421v-241.5v-219.5h-403zM27 539v274h214h196h110h197h213v-274h-213h-197h-110h-196h-214z" />
    <glyph glyph-name="uni0494" unicode="&#x494;" horiz-adv-x="1387" 
d="M706 -302q45 67 81.5 130.5t63 125t44 120.5t26.5 116.5t9 114.5q0 130 -52 191.5t-147 61.5q-36 0 -72 -5.5t-69.5 -15.5t-60.5 -24v-61v-237v-215h-413v219.5v241.5v487v251.5v226.5h987v-357h-220.5h-277.5h-247l171 291v-226.5v-251.5v-71q50 21 101.5 36t109 23.5
t123.5 8.5q144 0 255 -57t174 -172t63 -290q0 -75 -12 -151t-34 -148.5t-53 -138.5t-69 -123t-80 -101h-401z" />
    <glyph glyph-name="uni0496" unicode="&#x496;" horiz-adv-x="2259" 
d="M1885 -302l-22 366l66 -64h-164v341h232.5h231.5v-164v-164v-157v-158h-344zM1643 0q-46 91 -86 170.5t-78 156.5l-129 256h-99v320h91l121 206q43 73 85.5 147t98.5 170h462q-77 -113 -153 -223t-152 -221l-192 -282l-8 182l215 -361q48 -82 105.5 -177.5t111.5 -186
t94 -157.5h-487zM27 0q40 67 94 157.5t111.5 186.5t106.5 177l214 361l-34 -182l-183 283q-72 110 -143.5 220.5t-145.5 222.5h471q54 -96 95.5 -170.5t82.5 -146.5l116 -206h94v-320h-99l-131 -253q-40 -79 -82 -159.5t-89 -170.5h-478zM877 0v219.5v241.5v487v251.5v226.5
h403v-226.5v-251.5v-487v-241.5v-219.5h-403z" />
    <glyph glyph-name="uni0498" unicode="&#x498;" horiz-adv-x="1200" 
d="M429 -302q-2 91 -5 182t-5 182h362q-2 -91 -4.5 -182t-4.5 -182h-343zM574 -29q-64 0 -133.5 7t-136 20.5t-123 31t-93.5 37.5l22 343q52 -27 105.5 -48.5t106.5 -37t103 -23.5t93 -8q73 0 117 19t64 53.5t20 79.5q0 77 -49.5 111t-154.5 34h-93.5h-80.5v254h63h78
q70 0 116.5 18.5t70.5 52.5t24 80q0 47 -23 78t-65 46t-100 15q-40 0 -84.5 -7.5t-92.5 -24t-99 -42.5t-103 -63l-49 350q44 24 97.5 43.5t115.5 34.5t130 23.5t140 8.5q194 0 316.5 -47t180.5 -128t58 -184q0 -138 -76.5 -216t-188.5 -106v-28q86 -18 153 -57.5t105 -109
t38 -178.5q0 -118 -54 -216.5t-179 -157t-339 -58.5z" />
    <glyph glyph-name="uni049A" unicode="&#x49a;" horiz-adv-x="1522" 
d="M1148 -302l-22 366l67 -64h-164v341h232h231v-164v-164v-157v-158h-344zM909 0q-49 90 -93.5 170t-86.5 158l-142 255h-89v320h83l131 206q47 73 93.5 146t107.5 171h468q-82 -112 -161.5 -221.5t-160.5 -221.5l-204 -283l-9 182l227 -361q53 -82 113 -178t117 -186
t98 -157h-492zM116 0v219.5v241.5v487v251.5v226.5h411v-226.5v-251.5v-487v-241.5v-219.5h-411z" />
    <glyph glyph-name="uni049C" unicode="&#x49c;" horiz-adv-x="1655" 
d="M1139 0q-44 89 -83.5 169.5t-77.5 158.5l-126 255h-373v320h367l118 206q42 73 83.5 146t97.5 171h458q-75 -112 -148.5 -221.5t-147.5 -221.5l-187 -283l-9 182l212 -361q48 -82 104 -178t109 -186.5t92 -156.5h-489zM115 0v219.5v241.5v487v251.5v226.5h412v-226.5
v-251.5v-487v-241.5v-219.5h-412zM633 200v184.5v167.5v339v168v185h202v-185v-168v-339v-167.5v-184.5h-202z" />
    <glyph glyph-name="uni049E" unicode="&#x49e;" horiz-adv-x="1501" 
d="M982 0q-49 86 -93.5 163t-85.5 151l-142 245h-97v295h130l121 225q44 80 87 160t100 187h452q-74 -120 -145 -237t-143 -237l-182 -301l-59 203l224 -349q52 -80 111.5 -173t116 -180t97.5 -152h-492zM173 0v219.5v241.5v487v251.5v226.5h411v-226.5v-251.5v-487v-241.5
v-219.5h-411zM6 1048v258h174.5h158.5h58h159.5h173.5v-258h-173.5h-159.5h-58h-158.5h-174.5z" />
    <glyph glyph-name="uni04A0" unicode="&#x4a0;" horiz-adv-x="1734" 
d="M1215 0q-50 90 -94 170t-87 158l-141 255h-89v320h82l132 206q47 73 93 146t108 171h468q-83 -112 -162.5 -221.5t-160.5 -221.5l-204 -283l-8 182l227 -361q52 -82 112 -178t117 -186t99 -157h-492zM421 0v219.5v241.5v421v251.5v226.5l154 -291h-178h-192.5h-158.5v357
h787v-226.5v-251.5v-487v-241.5v-219.5h-412z" />
    <glyph glyph-name="uni04A2" unicode="&#x4a2;" horiz-adv-x="1599" 
d="M1225 -302l-22 366l67 -64h-177v341h238h238v-164v-164v-157v-158h-344zM973 0v219.5v241.5v487v251.5v226.5h413v-226.5v-251.5v-487v-241.5v-219.5h-413zM116 0v219.5v241.5v487v251.5v226.5h413v-226.5v-251.5v-487v-241.5v-219.5h-413zM423 546v341h661v-341h-661z
" />
    <glyph glyph-name="uni04A4" unicode="&#x4a4;" horiz-adv-x="2008" 
d="M956 0v219.5v241.5v487v251.5v226.5h988v-357h-221.5h-276.5h-247l170 291v-226.5v-251.5v-421v-241.5v-219.5h-413zM116 0v219.5v241.5v487v251.5v226.5h413v-226.5v-251.5v-487v-241.5v-219.5h-413zM423 546v341h645v-341h-645z" />
    <glyph glyph-name="uni04A6" unicode="&#x4a6;" horiz-adv-x="2215" 
d="M1534 -302q46 67 82 130.5t62.5 125t44 120.5t26.5 116.5t9 114.5q0 130 -52 191.5t-147 61.5q-36 0 -72 -5.5t-69 -15.5t-61 -24v-61v-237v-215h-413v219.5v241.5v421v251.5v226.5l194 -275h-796l187 275v-226.5v-251.5v-421v-241.5v-219.5h-413v219.5v241.5v487v251.5
v226.5h1241v-226.5v-251.5v-137q50 21 101.5 36t109 23.5t123.5 8.5q144 0 255 -57t174 -172t63 -290q0 -75 -12 -151t-34 -148.5t-53 -138.5t-69 -123t-80 -101h-401z" />
    <glyph glyph-name="uni04A8" unicode="&#x4a8;" horiz-adv-x="1816" 
d="M829 -29q-182 0 -324.5 54t-241.5 153t-150.5 236t-51.5 303q0 194 75.5 355t225 263.5t370.5 121.5l14 -331q-72 -21 -122 -69.5t-81 -110t-45 -125t-14 -117.5q0 -94 26.5 -171t79.5 -131.5t128.5 -84t173.5 -29.5q114 0 196.5 41.5t135.5 111.5t78.5 157t25.5 177
q0 71 -15.5 120.5t-44.5 76t-70 26.5q-82 0 -116 -76.5t-34 -189.5q0 -99 27 -184t84 -149t146.5 -99.5t214.5 -35.5q46 0 87 4.5t81 14t82 25.5l12 -300q-30 -14 -69.5 -22t-82 -11.5t-80.5 -3.5q-117 0 -223 30t-192 86l-104 101q-96 74 -162 161.5t-99.5 192.5t-33.5 230
q0 172 56.5 295t165 188t263.5 65q141 0 248.5 -63.5t168 -181.5t60.5 -281q0 -125 -34 -238.5t-101.5 -201t-168.5 -134.5l-144 -120q-85 -67 -194.5 -98t-226.5 -31z" />
    <glyph glyph-name="uni04AA" unicode="&#x4aa;" horiz-adv-x="1365" 
d="M618 -302q-2 91 -5 182t-5 182h362q-2 -91 -4.5 -182t-4.5 -182h-343zM826 -29q-176 0 -317.5 52t-241.5 149t-153 233t-53 305q0 214 86 383t251 266.5t403 97.5q68 0 135.5 -8.5t130.5 -23t118.5 -33t98.5 -41.5l-29 -380q-78 50 -149.5 80.5t-135.5 44.5t-120 14
q-103 0 -184 -44.5t-128 -133.5t-47 -221q0 -81 24 -154.5t72.5 -129.5t122.5 -88.5t174 -32.5q44 0 90 6.5t93 20.5t94.5 39t96.5 61l20 -375q-43 -22 -96 -39t-111.5 -27.5t-120.5 -15.5t-124 -5z" />
    <glyph glyph-name="uni04AC" unicode="&#x4ac;" horiz-adv-x="1297" 
d="M694 -302l-22 366l66 -64h-177v341h239h238v-164v-164v-157v-158h-344zM443 0v219.5v241.5v421v251.5v226.5l154 -291h-200h-192.5h-158.5v357h1205v-357h-158.5h-192.5h-200l154 291v-226.5v-251.5v-421v-241.5v-219.5h-411z" />
    <glyph glyph-name="uni04AE" unicode="&#x4ae;" horiz-adv-x="1395" 
d="M504 473l-285 577q-46 94 -88.5 180t-97.5 196h468q27 -75 45.5 -129.5t35.5 -103t38 -106.5l66 -189h32l66 184q23 61 41 111.5t38 105t47 127.5h452q-45 -94 -91.5 -189.5t-90.5 -185.5l-282 -578h-394zM495 0v219.5v241.5v359h413v-359v-241.5v-219.5h-413z" />
    <glyph glyph-name="uni04B0" unicode="&#x4b0;" horiz-adv-x="1395" 
d="M140 465v274h214h196h297h197h213v-274h-213h-197h-297h-196h-214zM504 473l-285 577q-46 94 -88.5 180t-97.5 196h468q27 -75 45.5 -129.5t35.5 -103t38 -106.5l66 -189h32l66 184q23 61 41 111.5t38 105t47 127.5h452q-45 -94 -91.5 -189.5t-90.5 -185.5l-282 -578
h-394zM495 0v219.5v241.5v359h413v-359v-241.5v-219.5h-413z" />
    <glyph glyph-name="uni04B2" unicode="&#x4b2;" horiz-adv-x="1537" 
d="M1163 -302l-22 366l66 -64h-164v341h232.5h231.5v-164v-164v-157v-158h-344zM44 0q49 101 99.5 205.5t105.5 217.5l176 362v-91l-156 296q-54 102 -109.5 207.5t-120.5 228.5h467q34 -77 66.5 -150.5t61.5 -140.5l75 -171h29l71 172q28 68 58.5 141t61.5 149h450
q-59 -121 -113 -230t-99 -200l-172 -347v104l175 -313q65 -115 124 -221t122 -219h-485q-33 74 -62.5 138.5t-56.5 124.5l-90 198h-28l-85 -199q-26 -62 -53 -126t-57 -136h-455z" />
    <glyph glyph-name="uni04B4" unicode="&#x4b4;" horiz-adv-x="1919" 
d="M1545 -302l-22 366l67 -64h-1170v219.5v241.5v421v251.5v226.5l154 -291h-177h-192.5h-158.5v357h1106v-357h-133h-163h-179l155 291v-226.5v-251.5v-354v-241.5v-219.5l-139 274h637h278h281v-164v-164v-157v-158h-344zM1293 67v219.5v241.5v420v251.5v226.5h413v-226.5
v-251.5v-420v-241.5v-219.5h-413z" />
    <glyph glyph-name="uni04B6" unicode="&#x4b6;" horiz-adv-x="1511" 
d="M1137 -302l-22 366l66 -64h-177v341h239h238v-164v-164v-157v-158h-344zM884 0v206.5v227.5v73q-50 -19 -101.5 -32.5t-109.5 -20.5t-129 -7q-141 0 -246.5 50t-164 148t-58.5 243v50.5v50.5v229.5v207.5h414v-227v-207v-51q0 -49 18 -88t61 -62t116 -23q40 0 75 6
t66.5 16t58.5 24v134v251.5v226.5h413v-226.5v-251.5v-487v-241.5v-219.5h-413z" />
    <glyph glyph-name="uni04B8" unicode="&#x4b8;" horiz-adv-x="1500" 
d="M971 0v206.5v228.5v77q-57 -15 -110.5 -26t-106 -18.5t-105 -11.5t-105.5 -4q-141 0 -246.5 48t-163.5 145t-58 241v52v51v229v208h413v-227v-208v-80q0 -80 41.5 -122.5t145.5 -42.5q52 0 108 6t106 16.5t81 22.5v157v251.5v226.5h414v-226.5v-251.5v-487v-241.5v-219.5
h-414zM631 199v184.5v167.5v283v168v185h206v-185v-168v-283v-167.5v-184.5h-206z" />
    <glyph glyph-name="uni04BA" unicode="&#x4ba;" horiz-adv-x="1409" 
d="M116 0v219.5v241.5v487v251.5v226.5h413v-206.5v-227.5v-73q51 19 100 32.5t105.5 20.5t126.5 7q142 0 247 -49.5t163 -145.5t58 -237v-54.5v-55.5v-229v-208h-413v206.5v227.5v42q0 54 -18 95t-58.5 64t-110.5 23q-40 0 -75 -6t-66.5 -16t-58.5 -24v-151v-241.5v-219.5
h-413z" />
    <glyph glyph-name="uni04BC" unicode="&#x4bc;" horiz-adv-x="1897" 
d="M1165 -29q-183 0 -324.5 50t-238.5 146.5t-147.5 234.5t-50.5 312q0 222 81.5 389t242 260.5t399.5 93.5q190 0 325 -59t219.5 -161t124 -232.5t39.5 -273.5l-11 -155h-1079v280h743l-53 -62q1 60 -16 118t-53.5 105.5t-95 75.5t-142.5 28q-79 0 -137 -27t-95.5 -77
t-56.5 -119t-21 -151v-142q3 -95 55 -162t141.5 -102t206.5 -35q62 0 121.5 8.5t116.5 25.5t111.5 40t105.5 51l29 -354q-45 -20 -101.5 -39.5t-124 -34.5t-146 -23.5t-168.5 -8.5zM424 580q-204 0 -302.5 87t-98.5 276q0 38 5.5 83.5t16.5 93t26.5 92t35.5 80.5l290 -14
q-18 -36 -33.5 -86t-25 -99t-9.5 -84q0 -60 13 -94.5t46 -49.5t92 -15h108v-270h-164z" />
    <glyph glyph-name="uni04BE" unicode="&#x4be;" horiz-adv-x="1897" 
d="M949 -302q-2 91 -5 182t-5 182h362q-2 -91 -4.5 -182t-4.5 -182h-343zM1165 -29q-183 0 -324.5 50t-238.5 146t-147 234.5t-50 312.5q0 222 81 389t241.5 260.5t399.5 93.5q190 0 325 -59t219.5 -161t124 -232.5t39.5 -273.5l-11 -151h-1078v272h742l-53 -58
q1 60 -16 118t-53 105.5t-95 75.5t-143 28q-79 0 -136.5 -27t-95.5 -77t-57 -119t-21 -151v-141q3 -96 55 -163t142 -102t206 -35q62 0 121.5 8.5t116.5 25t111.5 40t105.5 51.5l29 -353q-45 -21 -101 -40.5t-124 -34.5t-146.5 -23.5t-168.5 -8.5zM424 580q-204 0 -302.5 87
t-98.5 276q0 38 6 83.5t16.5 93t26 92t35.5 80.5l290 -14q-18 -36 -33 -86t-24.5 -99t-9.5 -84q0 -60 12.5 -95t45.5 -49.5t92 -14.5h97v-270h-153z" />
    <glyph glyph-name="uni04C0" unicode="&#x4c0;" horiz-adv-x="669" 
d="M124 0v219.5v241.5v487v251.5v226.5h421v-226.5v-251.5v-487v-241.5v-219.5h-421z" />
    <glyph glyph-name="uni04C1" unicode="&#x4c1;" horiz-adv-x="2157" 
d="M1643 0q-46 91 -86 170.5t-78 156.5l-129 256h-99v320h91l121 206q43 73 85.5 147t98.5 170h462q-77 -113 -153 -223t-152 -221l-192 -282l-8 182l215 -361q48 -82 105.5 -177.5t111.5 -186t94 -157.5h-487zM27 0q40 67 94 157.5t111.5 186.5t106.5 177l214 361l-34 -182
l-183 283q-72 110 -143.5 220.5t-145.5 222.5h471q54 -96 95.5 -170.5t82.5 -146.5l116 -206h94v-320h-99l-131 -253q-40 -79 -82 -159.5t-89 -170.5h-478zM877 0v219.5v241.5v487v251.5v226.5h403v-226.5v-251.5v-487v-241.5v-219.5h-403zM1076 1518q-216 0 -317 97.5
t-103 288.5l292 11q0 -79 25 -132t103 -53q54 0 82 23.5t38 63t10 87.5h292q-1 -191 -101 -288.5t-321 -97.5z" />
    <glyph glyph-name="uni04C3" unicode="&#x4c3;" horiz-adv-x="1455" 
d="M809 -302q41 69 72 141.5t52 147t31 146t10 137.5q0 102 -26 173t-80.5 108.5t-140.5 37.5q-38 0 -72 -6.5t-65 -18.5t-63 -28v-75v-241.5v-219.5h-411v219.5v241.5v487v251.5v226.5h411v-226.5v-251.5v-154q35 11 66.5 19.5t62.5 15.5l30 -20q31 7 62.5 11.5t63.5 7
t64 2.5q163 0 280 -55t180.5 -170.5t63.5 -295.5q0 -60 -8.5 -127t-25 -133.5t-40 -130.5t-52.5 -120t-64 -100h-401zM842 696l-329 83l199 330q47 73 93.5 146t107.5 171h468q-82 -112 -161.5 -221.5t-160.5 -221.5z" />
    <glyph glyph-name="uni04C5" unicode="&#x4c5;" horiz-adv-x="1617" 
d="M1138 -302l66 344l93 -42h-207v341h262h262q-18 -81 -37 -164.5t-36 -162.5q-17 -77 -35 -158t-36 -158h-332zM217 -25q-40 0 -75 3t-65 8.5t-55 11.5l15 339q22 -3 37 -4.5t26 -1.5q66 0 106.5 61t62 185.5t31.5 315.5q6 128 13 265t13 268h1082v-226.5v-251.5v-487
v-241.5v-219.5h-414v219.5v241.5v421v251.5v226.5l194 -275h-696l219 258q-10 -151 -21.5 -299.5t-22.5 -310.5q-13 -186 -31.5 -328t-61.5 -238t-127.5 -144t-229.5 -48z" />
    <glyph glyph-name="uni04C7" unicode="&#x4c7;" horiz-adv-x="1501" 
d="M831 -302q49 73 80.5 149t46.5 157.5t15 170.5v528v245v251.5v226.5h413v-226.5v-251.5v-245v-282.5v-267.5q0 -84 -13 -153t-36.5 -124t-56 -99t-71.5 -79h-378zM116 0v219.5v241.5v487v251.5v226.5h413v-226.5v-251.5v-487v-241.5v-219.5h-413zM423 546v341h661v-341
h-661z" />
    <glyph glyph-name="uni04C9" unicode="&#x4c9;" horiz-adv-x="1596" 
d="M1116 -302l66 344l93 -42h-207v341h262.5h261.5q-18 -81 -37 -164.5t-36 -162.5q-17 -77 -35 -158t-35 -158h-333zM973 0v219.5v241.5v487v251.5v226.5h413v-226.5v-251.5v-487v-241.5v-219.5h-413zM116 0v219.5v241.5v487v251.5v226.5h413v-226.5v-251.5v-487v-241.5
v-219.5h-413zM423 546v341h661v-341h-661z" />
    <glyph glyph-name="uni04CB" unicode="&#x4cb;" horiz-adv-x="1413" 
d="M701 -302v141.5v141.5v147.5v147.5h239h237l-293 -258v191v225v81q-50 -19 -101.5 -32.5t-109.5 -20t-129 -6.5q-141 0 -246.5 49t-164 145.5t-58.5 237.5v50.5v50.5v229.5v207.5h414v-227v-207v-42q0 -53 18 -94.5t61 -64.5t116 -23q40 0 75 6t66.5 16t58.5 24v134
v251.5v226.5h413v-226.5v-251.5v-487v-241.5v-219.5h-297l67 64l-22 -366h-344z" />
    <glyph glyph-name="uni04CD" unicode="&#x4cd;" horiz-adv-x="2017" 
d="M1538 -302l66 344l93 -42h-207v341h262h262q-19 -81 -37.5 -164.5t-35.5 -162.5q-17 -77 -35 -158t-36 -158h-332zM82 0q14 109 27.5 220.5t29.5 241.5l61 482q16 129 30 245.5t30 236.5h416q40 -106 75.5 -200.5t70.5 -187.5l140 -370h26l131 369q34 94 66.5 186
t71.5 203h410q16 -119 31 -235t32 -248l63 -483q16 -130 30.5 -239.5t28.5 -220.5h-392q-15 128 -29.5 242.5t-26.5 215.5l-36 288h-27l-92 -309q-34 -115 -67.5 -226t-63.5 -211h-271q-24 66 -50 139.5t-52.5 149t-53.5 148.5l-110 309h-27l-35 -285q-12 -102 -26 -218
t-30 -243h-381z" />
    <glyph glyph-name="uni04D0" unicode="&#x4d0;" horiz-adv-x="1468" 
d="M33 0q35 114 74 241.5t75 240.5l151 490q41 134 74 240t66 214h527q35 -113 67.5 -219t72.5 -235l150 -490q37 -118 75.5 -243t73.5 -239h-426q-26 107 -53.5 220t-53.5 213l-159 649h-29l-162 -641q-26 -105 -55 -220t-56 -221h-412zM421 264l46 305h589l37 -305h-672z
M734 1518q-151 0 -250.5 44t-149 130t-51.5 212l292 11q0 -82 38 -132.5t121 -50.5t121 48.5t38 123.5h292q-1 -126 -50 -212t-148.5 -130t-252.5 -44z" />
    <glyph glyph-name="uni04D2" unicode="&#x4d2;" horiz-adv-x="1468" 
d="M33 0q35 114 74 241.5t75 240.5l151 490q41 134 74 240t66 214h527q35 -113 67.5 -219t72.5 -235l150 -490q37 -118 75.5 -243t73.5 -239h-426q-26 107 -53.5 220t-53.5 213l-159 649h-29l-162 -641q-26 -105 -55 -220t-56 -221h-412zM421 264l46 305h589l37 -305h-672z
M971 1530q-87 0 -136 46t-49 139q0 81 49.5 130.5t137.5 49.5q86 0 135 -52t49 -128q0 -93 -49 -139t-137 -46zM499 1530q-87 0 -135.5 46t-48.5 139q0 81 49 130.5t137 49.5q86 0 135 -52t49 -128q0 -93 -49 -139t-137 -46z" />
    <glyph glyph-name="uni04D4" unicode="&#x4d4;" horiz-adv-x="2018" 
d="M22 0q52 116 108.5 242.5t106.5 240.5l217 491q56 125 105 235t96 217h1263v-329h-121.5h-138h-164.5h-304l150 263v-226.5v-251.5v-354v-242v-220l-127 263h309h144.5h135h128.5v-329h-993v219.5v241.5v488v250.5v197.5l202 -297h-258l-262 -651q-44 -109 -90 -224.5
t-90 -224.5h-417zM460 264l46 305h565l37 -305h-648zM1245 567v299h252h218.5h176.5v-299h-89.5h-91.5h-100h-114h-252z" />
    <glyph glyph-name="uni04D6" unicode="&#x4d6;" horiz-adv-x="1197" 
d="M115 0v219.5v241.5v488v250.5v226.5h982v-329h-188.5h-236.5h-324l171 263v-226.5v-251.5v-354v-242v-220l-145 263h326h214.5h193.5v-329h-993zM424 567v299h252h218h176v-299h-180h-215h-251zM610 1518q-216 0 -317 97.5t-103 288.5l292 11q0 -79 25 -132t103 -53
q54 0 82 23.5t38 63t10 87.5h292q-1 -191 -101 -288.5t-321 -97.5z" />
    <glyph glyph-name="uni04D8" unicode="&#x4d8;" horiz-adv-x="1553" 
d="M770 -29q-190 0 -325 58.5t-219.5 160.5t-124.5 232.5t-40 273.5l12 156h1078v-280h-743l54 61q-1 -60 15.5 -117.5t53 -105.5t95.5 -76t143 -28q79 0 136.5 27t95.5 77.5t57.5 119t20.5 150.5v142q-3 72 -33 127.5t-83.5 94t-126.5 58t-161 19.5q-61 0 -120.5 -8.5
t-116.5 -25t-111.5 -40t-106.5 -51.5l-28 354q45 20 101 39.5t124 34.5t146.5 24t168.5 9q183 0 324.5 -50.5t238.5 -146.5t147 -234t50 -313q0 -222 -81 -389t-242 -260t-399 -93z" />
    <glyph glyph-name="uni04DA" unicode="&#x4da;" horiz-adv-x="1553" 
d="M770 -29q-190 0 -325 58.5t-219.5 160.5t-124.5 232.5t-40 273.5l12 156h1078v-280h-743l54 61q-1 -60 15.5 -117.5t53 -105.5t95.5 -76t143 -28q79 0 136.5 27t95.5 77.5t57.5 119t20.5 150.5v142q-3 72 -33 127.5t-83.5 94t-126.5 58t-161 19.5q-61 0 -120.5 -8.5
t-116.5 -25t-111.5 -40t-106.5 -51.5l-28 354q45 20 101 39.5t124 34.5t146.5 24t168.5 9q183 0 324.5 -50.5t238.5 -146.5t147 -234t50 -313q0 -222 -81 -389t-242 -260t-399 -93zM1013 1530q-87 0 -136 46t-49 139q0 81 49.5 130.5t137.5 49.5q86 0 135 -52t49 -128
q0 -93 -49 -139t-137 -46zM541 1530q-87 0 -135.5 46t-48.5 139q0 81 49 130.5t137 49.5q86 0 135 -52t49 -128q0 -93 -49 -139t-137 -46z" />
    <glyph glyph-name="uni04DC" unicode="&#x4dc;" horiz-adv-x="2157" 
d="M1643 0q-46 91 -86 170.5t-78 156.5l-129 256h-99v320h91l121 206q43 73 85.5 147t98.5 170h462q-77 -113 -153 -223t-152 -221l-192 -282l-8 182l215 -361q48 -82 105.5 -177.5t111.5 -186t94 -157.5h-487zM27 0q40 67 94 157.5t111.5 186.5t106.5 177l214 361l-34 -182
l-183 283q-72 110 -143.5 220.5t-145.5 222.5h471q54 -96 95.5 -170.5t82.5 -146.5l116 -206h94v-320h-99l-131 -253q-40 -79 -82 -159.5t-89 -170.5h-478zM877 0v219.5v241.5v487v251.5v226.5h403v-226.5v-251.5v-487v-241.5v-219.5h-403zM1314 1530q-87 0 -136 46t-49 139
q0 81 49.5 130.5t137.5 49.5q86 0 135 -52t49 -128q0 -93 -49 -139t-137 -46zM842 1530q-87 0 -135.5 46t-48.5 139q0 81 49 130.5t137 49.5q86 0 135 -52t49 -128q0 -93 -49 -139t-137 -46z" />
    <glyph glyph-name="uni04DE" unicode="&#x4de;" horiz-adv-x="1200" 
d="M574 -29q-64 0 -133.5 7t-136 20.5t-123 31t-94.5 37.5l23 346q52 -28 105.5 -49.5t106.5 -37t103 -23.5t93 -8q73 0 117 19.5t64 53.5t20 77q0 73 -50 106t-154 33h-93.5h-80.5v265h63h78q70 0 116.5 18.5t70.5 51.5t24 76q0 45 -23 75.5t-65 46t-100 15.5
q-40 0 -84.5 -8t-92.5 -24.5t-99 -42.5t-103 -63l-49 353q44 24 97.5 43.5t115.5 34.5t130 23.5t140 8.5q194 0 316.5 -47t180.5 -128t58 -184q0 -138 -76.5 -216t-189.5 -106v-28q87 -18 154 -57.5t105 -109t38 -178.5q0 -118 -54 -216.5t-179 -157t-339 -58.5zM836 1530
q-87 0 -136 46t-49 139q0 81 49.5 130.5t137.5 49.5q86 0 135 -52t49 -128q0 -93 -49 -139t-137 -46zM364 1530q-87 0 -135.5 46t-48.5 139q0 81 49 130.5t137 49.5q86 0 135 -52t49 -128q0 -93 -49 -139t-137 -46z" />
    <glyph glyph-name="uni04E0" unicode="&#x4e0;" horiz-adv-x="1200" 
d="M567 -29q-64 0 -133.5 7t-136.5 20.5t-123.5 31t-94.5 37.5l23 346q52 -28 105.5 -49.5t107 -37t104 -23.5t94.5 -8q76 0 121 19.5t65 54t20 77.5q0 57 -28.5 91.5t-83.5 50t-133 15.5h-72h-72v217q30 33 62.5 68.5t64.5 70.5l207 228l-10 -90h-101h-217.5h-239.5v329
h984v-251q-59 -60 -116.5 -121t-118.5 -125l-128 -133l-28 37q144 -11 246 -61.5t156.5 -142t54.5 -224.5q0 -118 -54 -217t-180.5 -158t-344.5 -59z" />
    <glyph glyph-name="uni04E2" unicode="&#x4e2;" horiz-adv-x="1496" 
d="M116 0v219.5v241.5v487v251.5v226.5h401v-228v-252v-267h29l187 286q72 111 145 222.5t155 238.5h347v-226.5v-251.5v-487v-241.5v-219.5h-401v221v243v284h-27l-190 -288q-87 -131 -160 -242.5t-143 -217.5h-343zM387 1579v272h169.5h187.5h187.5h169.5v-272h-169.5
h-187.5h-187.5h-169.5z" />
    <glyph glyph-name="uni04E4" unicode="&#x4e4;" horiz-adv-x="1496" 
d="M116 0v219.5v241.5v487v251.5v226.5h401v-228v-252v-267h29l187 286q72 111 145 222.5t155 238.5h347v-226.5v-251.5v-487v-241.5v-219.5h-401v221v243v284h-27l-190 -288q-87 -131 -160 -242.5t-143 -217.5h-343zM980 1530q-87 0 -136 46t-49 139q0 81 49.5 130.5
t137.5 49.5q86 0 135 -52t49 -128q0 -93 -49 -139t-137 -46zM508 1530q-87 0 -135.5 46t-48.5 139q0 81 49 130.5t137 49.5q86 0 135 -52t49 -128q0 -93 -49 -139t-137 -46z" />
    <glyph glyph-name="uni04E6" unicode="&#x4e6;" horiz-adv-x="1625" 
d="M819 -29q-199 0 -343 59.5t-235.5 164t-135.5 237.5t-44 279q0 208 81.5 377t247 269t419.5 100q193 0 335 -58t235 -160t139 -237t46 -289q0 -214 -84 -381.5t-250 -264t-411 -96.5zM814 306q79 0 138 32t100 88.5t61.5 130t20.5 156.5q0 86 -22.5 160.5t-64 130
t-100.5 86.5t-133 31q-77 0 -137 -31.5t-101 -87.5t-63 -130.5t-22 -158.5q0 -83 21 -156.5t61.5 -130t101 -88.5t139.5 -32zM1049 1530q-87 0 -136 46t-49 139q0 81 49.5 130.5t137.5 49.5q86 0 135 -52t49 -128q0 -93 -49 -139t-137 -46zM577 1530q-87 0 -135.5 46
t-48.5 139q0 81 49 130.5t137 49.5q86 0 135 -52t49 -128q0 -93 -49 -139t-137 -46z" />
    <glyph glyph-name="uni04E8" unicode="&#x4e8;" horiz-adv-x="1625" 
d="M820 -29q-200 0 -343 60t-235 164t-136.5 237t-44.5 279q0 208 82 377t248 269t418 100q191 0 333.5 -58t236 -160t139.5 -237t46 -289q0 -213 -85 -381t-250.5 -264.5t-408.5 -96.5zM814 297q83 0 145 26t103.5 70.5t62 101t20.5 117.5v201q0 89 -39.5 161t-113 114.5
t-178.5 42.5q-81 0 -143 -25t-104.5 -69t-64.5 -101.5t-22 -122.5v-201q0 -62 21 -118.5t63 -100.5t104.5 -70t145.5 -26zM410 572v284h820v-284h-820z" />
    <glyph glyph-name="uni04EA" unicode="&#x4ea;" horiz-adv-x="1625" 
d="M820 -29q-200 0 -343 60t-235 164t-136.5 237t-44.5 279q0 208 82 377t248 269t418 100q191 0 333.5 -58t236 -160t139.5 -237t46 -289q0 -213 -85 -381t-250.5 -264.5t-408.5 -96.5zM814 297q83 0 145 26t103.5 70.5t62 101t20.5 117.5v201q0 89 -39.5 161t-113 114.5
t-178.5 42.5q-81 0 -143 -25t-104.5 -69t-64.5 -101.5t-22 -122.5v-201q0 -62 21 -118.5t63 -100.5t104.5 -70t145.5 -26zM410 572v284h820v-284h-820zM1048 1530q-87 0 -136 46t-49 139q0 81 49.5 130.5t137.5 49.5q86 0 135 -52t49 -128q0 -93 -49 -139t-137 -46z
M576 1530q-87 0 -135.5 46t-48.5 139q0 81 49 130.5t137 49.5q86 0 135 -52t49 -128q0 -93 -49 -139t-137 -46z" />
    <glyph glyph-name="uni04EC" unicode="&#x4ec;" horiz-adv-x="1379" 
d="M553 -29q-67 0 -131.5 5t-124.5 15.5t-113 27.5t-96 39l20 366q48 -36 96 -60t96.5 -38t97.5 -20.5t99 -6.5q150 0 239 42t128.5 120t39.5 185v139q0 89 -28 152.5t-78 103t-116.5 58t-144.5 18.5q-66 0 -134.5 -14t-141 -43t-150.5 -76l-30 367q44 23 99.5 42t120.5 33
t135.5 22.5t142.5 8.5q182 0 320 -56t231 -157t140 -237.5t47 -296.5q0 -225 -89 -391t-260 -257t-415 -91zM323 568v287h177h218h257v-287h-257h-213.5h-181.5zM880 1530q-87 0 -136 46t-49 139q0 81 49.5 130.5t137.5 49.5q86 0 135 -52t49 -128q0 -93 -49 -139t-137 -46z
M408 1530q-87 0 -135.5 46t-48.5 139q0 81 49 130.5t137 49.5q86 0 135 -52t49 -128q0 -93 -49 -139t-137 -46z" />
    <glyph glyph-name="uni04EE" unicode="&#x4ee;" horiz-adv-x="1424" 
d="M335 0q40 92 81.5 188.5t86.5 202.5l-288 627q-47 102 -89.5 195.5t-97.5 212.5h463q22 -69 40.5 -123.5t34 -102t31.5 -94.5t34 -102l76 -228h29l73 225q18 57 33.5 105t31 95.5t33.5 102t40 122.5h444q-57 -132 -117 -270t-111 -256l-194 -449q-45 -105 -96.5 -225
t-98.5 -226h-439zM355 1579v272h169.5h187.5h187.5h169.5v-272h-169.5h-187.5h-187.5h-169.5z" />
    <glyph glyph-name="uni04F0" unicode="&#x4f0;" horiz-adv-x="1424" 
d="M335 0q40 92 81.5 188.5t86.5 202.5l-288 627q-47 102 -89.5 195.5t-97.5 212.5h463q22 -69 40.5 -123.5t34 -102t31.5 -94.5t34 -102l76 -228h29l73 225q18 57 33.5 105t31 95.5t33.5 102t40 122.5h444q-57 -132 -117 -270t-111 -256l-194 -449q-45 -105 -96.5 -225
t-98.5 -226h-439zM948 1530q-87 0 -136 46t-49 139q0 81 49.5 130.5t137.5 49.5q86 0 135 -52t49 -128q0 -93 -49 -139t-137 -46zM476 1530q-87 0 -135.5 46t-48.5 139q0 81 49 130.5t137 49.5q86 0 135 -52t49 -128q0 -93 -49 -139t-137 -46z" />
    <glyph glyph-name="uni04F2" unicode="&#x4f2;" horiz-adv-x="1424" 
d="M335 0q40 92 81.5 188.5t86.5 202.5l-288 627q-47 102 -89.5 195.5t-97.5 212.5h463q22 -69 40.5 -123.5t34 -102t31.5 -94.5t34 -102l76 -228h29l73 225q18 57 33.5 105t31 95.5t33.5 102t40 122.5h444q-57 -132 -117 -270t-111 -256l-194 -449q-45 -105 -96.5 -225
t-98.5 -226h-439zM761 1539q56 97 112.5 194t112.5 194l358 8q-57 -68 -112.5 -134.5t-109.5 -131t-106 -126.5zM325 1539q44 98 87.5 194.5t87.5 193.5l342 8q-48 -68 -94.5 -134.5t-92 -131t-88.5 -126.5z" />
    <glyph glyph-name="uni04F4" unicode="&#x4f4;" horiz-adv-x="1413" 
d="M884 0v206.5v227.5v73q-50 -19 -101.5 -32.5t-109.5 -20.5t-129 -7q-141 0 -246.5 50t-164 148t-58.5 243v50.5v50.5v229.5v207.5h414v-227v-207v-51q0 -49 18 -88t61 -62t116 -23q40 0 75 6t66.5 16t58.5 24v134v251.5v226.5h413v-226.5v-251.5v-487v-241.5v-219.5h-413
zM922 1530q-87 0 -136 46t-49 139q0 81 49.5 130.5t137.5 49.5q86 0 135 -52t49 -128q0 -93 -49 -139t-137 -46zM450 1530q-87 0 -135.5 46t-48.5 139q0 81 49 130.5t137 49.5q86 0 135 -52t49 -128q0 -93 -49 -139t-137 -46z" />
    <glyph glyph-name="uni04F6" unicode="&#x4f6;" horiz-adv-x="1167" 
d="M368 -302l-22 366l67 -64h-177v341h238h238v-164v-164v-157v-158h-344zM116 0v219.5v241.5v487v251.5v226.5h987v-357h-220.5h-277.5h-247l171 291v-226.5v-251.5v-421v-241.5v-219.5h-413z" />
    <glyph glyph-name="uni04F8" unicode="&#x4f8;" horiz-adv-x="1962" 
d="M754 0h-345.5h-293.5v219.5v241.5v487v251.5v226.5h406v-226.5v-251.5v-420v-118.5v-111.5h151q63 0 103 19.5t59 60t19 102.5q0 48 -12.5 81t-34.5 52.5t-50.5 28.5t-59.5 9h-225v315h118.5h134.5q180 0 301.5 -42.5t184 -146t62.5 -285.5q0 -147 -52 -258t-166 -172.5
t-300 -61.5zM1425 0v219.5v241.5v487v251.5v226.5h421v-226.5v-251.5v-487v-241.5v-219.5h-421zM1218 1530q-87 0 -136 46t-49 139q0 81 49.5 130.5t137.5 49.5q86 0 135 -52t49 -128q0 -93 -49 -139t-137 -46zM746 1530q-87 0 -135.5 46t-48.5 139q0 81 49 130.5t137 49.5
q86 0 135 -52t49 -128q0 -93 -49 -139t-137 -46z" />
    <glyph glyph-name="uni04FA" unicode="&#x4fa;" horiz-adv-x="1223" 
d="M234 -302q36 53 62.5 107t43 109.5t24.5 114t8 120.5l63 -149h-264v219.5v241.5v487v251.5v226.5h988v-357h-221.5h-276.5h-247l160 291v-227v-251v-421v-239.5v-203.5l-316 258h250.5h249.5v-68v-68q0 -81 -12.5 -148t-35 -120.5t-53 -96.5t-65.5 -77h-358zM27 539v274
h214h196h110h197h213v-274h-213h-197h-110h-196h-214z" />
    <glyph glyph-name="uni04FC" unicode="&#x4fc;" horiz-adv-x="1443" 
d="M881 -302q22 35 36.5 71t22 73.5t7.5 76.5q0 55 -13 108t-39.5 111t-65.5 125l-107 198h-28l-85 -199q-26 -62 -53 -126t-57 -136h-455q49 101 99.5 205.5t105.5 217.5l176 362v-91l-156 296q-54 102 -109.5 207.5t-120.5 228.5h467q34 -77 66.5 -150.5t61.5 -140.5
l75 -171h29l71 172q28 68 58.5 141t61.5 149h450q-59 -121 -113 -230t-99 -200l-172 -347v104l180 -316q72 -122 115.5 -207.5t64 -153t20.5 -139.5q0 -43 -12 -86t-38 -81.5t-67 -71.5h-377z" />
    <glyph glyph-name="uni04FE" unicode="&#x4fe;" horiz-adv-x="1455" 
d="M44 0q51 101 104 205.5t110 217.5l183 354v-83l-163 296q-56 102 -114 207.5t-125 228.5h467q34 -77 66.5 -150.5t61.5 -140.5l75 -171h29l71 172q28 68 58.5 141t61.5 149h449q-62 -119 -118 -229t-103 -201l-178 -347v104l181 -313q67 -115 129 -221t127 -219h-485
q-33 74 -62.5 138.5t-56.5 124.5l-90 198h-28l-85 -199q-26 -62 -53 -126t-57 -136h-455zM99 581v274h222.5h186.5h414h186.5h222.5v-274h-222.5h-186.5h-414h-186.5h-222.5z" />
    <glyph glyph-name="uni048C" unicode="&#x48c;" horiz-adv-x="1425" 
d="M214 0v219.5v241.5v487v251.5v226.5h406v-226.5v-251.5v-413v-123v-114h151q57 0 97.5 15t62 50.5t21.5 94.5q0 41 -13 69t-36 46t-51 26t-57 8h-225v270h118.5h134.5q180 0 301.5 -39t184 -134t62.5 -263q0 -132 -52 -231.5t-166 -154.5t-300 -55h-345.5h-293.5zM8 1016
v257h142.5h129.5h487h130h142v-257h-142h-130h-487h-129.5h-142.5z" />
    <glyph glyph-name="uni048E" unicode="&#x48e;" horiz-adv-x="1323" 
d="M115 0v219.5v241.5v488v250.5v226.5h246.5h362.5q179 0 301 -42.5t184.5 -146t62.5 -283.5q0 -147 -51.5 -257.5t-162 -172.5t-288.5 -62h-103h-107h-89v280h215q66 0 105.5 22t57 66.5t17.5 110.5q0 51 -13 86.5t-35.5 56t-52 30.5t-61.5 10h-377l194 236v-152v-153
v-173v-421v-241.5v-219.5h-406zM1078 247q-52 61 -99.5 116t-88.5 101l-102 177q-41 48 -88 102t-100 115l112 105q53 -61 99.5 -115t88.5 -104l148 -141q41 -47 88 -101.5t99 -115.5z" />
    <glyph glyph-name="uni0414.locl" horiz-adv-x="1602" 
d="M114 40q33 109 68 225t66 221l146 487q39 131 71 239t64 214h544q32 -106 64 -212.5t71 -239.5l147 -494q32 -108 65.5 -220.5t65.5 -219.5h-431q-31 129 -63 262.5t-62 255.5l-119 501h-28l-122 -502q-30 -122 -63.5 -257t-64.5 -260h-419zM24 -302v157.5v157.5v163.5
v164.5h282h278h433h278.5h281.5v-164.5v-163.5v-157.5v-157.5h-344l-22 366l67 -64h-955l67 64l-22 -366h-344z" />
    <glyph glyph-name="uni041B.locl" horiz-adv-x="1471" 
d="M33 0q34 115 72.5 242.5t72.5 242.5l147 488q40 131 72 238.5t64 214.5h551q32 -107 64 -213t71 -240l148 -492q35 -118 72.5 -242t71.5 -239h-461q-30 132 -61.5 268.5t-60.5 263.5l-109 478h-29l-113 -479q-30 -124 -63 -264.5t-63 -266.5h-446z" />
    <glyph glyph-name="uni0424.locl" horiz-adv-x="1817" 
d="M930 30l7 288h130q99 3 161 58t92 143.5t30 189.5q0 105 -30 195t-92.5 146t-159.5 58h-121l-7 288h138q174 -6 303.5 -59.5t214.5 -146t127.5 -215t42.5 -266.5q0 -139 -41.5 -259.5t-127 -212t-218 -145.5t-313.5 -62h-136zM751 30q-180 8 -312 62t-218 145.5t-128 212
t-42 259.5q0 144 42.5 266.5t128 215t213.5 146t299 59.5h143l-7 -288h-121q-96 -2 -158.5 -58t-93 -146t-30.5 -195q0 -101 30 -189.5t92.5 -143.5t160.5 -58h130l7 -288h-136zM717 -81v93.5v91.5l8 32v140v150v570v150v140l-8 33v91.5v93.5h383v-93.5v-91.5l-8 -33v-140
v-150v-570v-149.5v-140.5l8 -32v-91v-94h-383z" />
    <glyph glyph-name="uni0492.locl" horiz-adv-x="1158" 
d="M116 0v219.5v241.5v487v251.5v226.5h969v-341h-187.5h-236.5h-306l164 275v-226.5v-251.5v-421v-241.5v-219.5h-403zM414 528v326h249h218h176v-326h-180.5h-214.5h-248z" />
    <glyph glyph-name="uni0498.locl" horiz-adv-x="1200" 
d="M567 -446q-29 0 -56.5 2.5t-49.5 7t-37 9.5v215q11 -3 31.5 -8t47.5 -5q46 0 70.5 18t24.5 52q0 31 -20 60.5t-55.5 56t-83.5 46.5l70 66l187 -23v-72q46 -22 85 -55t62 -77.5t23 -100.5q0 -82 -69 -137t-230 -55zM574 -29q-64 0 -133.5 7t-136 20.5t-123 31t-93.5 37.5
l22 343q52 -27 105.5 -48.5t106.5 -37t103 -23.5t93 -8q73 0 117 19t64 53.5t20 79.5q0 77 -49.5 111t-154.5 34h-93.5h-80.5v254h63h78q70 0 116.5 18.5t70.5 52.5t24 80q0 47 -23 78t-65 46t-100 15q-40 0 -84.5 -7.5t-92.5 -24t-99 -42.5t-103 -63l-49 350
q44 24 97.5 43.5t115.5 34.5t130 23.5t140 8.5q194 0 316.5 -47t180.5 -128t58 -184q0 -138 -76.5 -216t-188.5 -106v-28q86 -18 153 -57.5t105 -109t38 -178.5q0 -118 -54 -216.5t-179 -157t-339 -58.5z" />
    <glyph glyph-name="uni04AA.locl" horiz-adv-x="1365" 
d="M756 -446q-30 0 -57 2.5t-49 7t-37 9.5v215q11 -3 31.5 -8t47.5 -5q46 0 70.5 18t24.5 52q0 31 -20 60.5t-55.5 56t-83.5 46.5l70 66l187 -23v-72q46 -22 85 -55t61.5 -77.5t22.5 -100.5q0 -82 -68.5 -137t-229.5 -55zM826 -29q-176 0 -317.5 52t-241.5 149t-153 233
t-53 305q0 214 86 383t251 266.5t403 97.5q68 0 135.5 -8.5t130.5 -23t118.5 -33t98.5 -41.5l-29 -380q-78 50 -149.5 80.5t-135.5 44.5t-120 14q-103 0 -184 -44.5t-128 -133.5t-47 -221q0 -81 24 -154.5t72.5 -129.5t122.5 -88.5t174 -32.5q44 0 90 6.5t93 20.5t94.5 39
t96.5 61l20 -375q-43 -22 -96 -39t-111.5 -27.5t-120.5 -15.5t-124 -5z" />
    <glyph glyph-name="uni04AA.locl" horiz-adv-x="1365" 
d="M826 -29q-176 0 -317.5 52t-241.5 149t-153 233t-53 305q0 214 86 383t251 266.5t403 97.5q68 0 135.5 -8.5t130.5 -23t118.5 -33t98.5 -41.5l-29 -380q-78 50 -149.5 80.5t-135.5 44.5t-120 14q-103 0 -184 -44.5t-128 -133.5t-47 -221q0 -81 24 -154.5t72.5 -129.5
t122.5 -88.5t174 -32.5q44 0 90 6.5t93 20.5t94.5 39t96.5 61l20 -375q-43 -22 -96 -39t-111.5 -27.5t-120.5 -15.5t-124 -5zM730 -449q-29 0 -56.5 2t-50.5 6.5t-38 10.5v198q12 -3 35 -7t50 -4q48 0 72 14.5t24 43.5q0 18 -11 32.5t-36 27.5t-69 25l69 163h189v-63
l-38 -89q65 -14 105 -38.5t57 -59t17 -79.5q0 -52 -30 -93.5t-100 -65.5t-189 -24z" />
    <glyph glyph-name="uni0430" unicode="&#x430;" horiz-adv-x="1047" 
d="M327 -26q-88 0 -149 37.5t-92.5 102.5t-31.5 146q0 87 31 144.5t79.5 93t102.5 54t100 26.5l267 45q2 37 -18 60t-61 34t-101 11q-34 0 -74.5 -5.5t-85 -16t-89.5 -26.5t-90 -38l-16 311q38 12 87 26t108 25.5t126 19t140 7.5q129 0 221 -37.5t140.5 -117.5t48.5 -208
v-122v-123v-68v-168.5v-186.5h-308l-25 140h-25q-26 -44 -66 -81.5t-94.5 -61t-124.5 -23.5zM492 258q24 0 48.5 11.5t46 32.5t37.5 49v147q-10 -9 -23.5 -16.5t-38 -15.5t-66.5 -19q-25 -6 -45.5 -19.5t-32.5 -34t-12 -50.5q0 -45 27 -65t59 -20z" />
    <glyph glyph-name="uni0431" unicode="&#x431;" horiz-adv-x="1202" 
d="M621 -29q-179 0 -305 73t-191.5 225t-65.5 390q0 241 58.5 408t185.5 261t331 113q22 2 75 7t120 11t133 12.5t114 10.5l27 -341q-48 -4 -116 -9t-136.5 -10.5t-120 -9.5t-66.5 -5q-94 -8 -155.5 -48.5t-91.5 -128t-32 -239.5l71 -62q0 -65 8.5 -128.5t27.5 -115.5
t50.5 -83t76.5 -31q47 0 79 27t49 76.5t17 115.5q0 60 -16 105t-48.5 70.5t-81.5 25.5q-28 0 -60 -10t-64 -32t-62 -59q-48 27 -64.5 65.5t-11 76t20.5 62.5h38q38 50 90 85t117 54t140 19q130 0 215.5 -57.5t127.5 -159t42 -234.5q0 -163 -63.5 -282.5t-181.5 -183.5
t-281 -64z" />
    <glyph glyph-name="uni0432" unicode="&#x432;" horiz-adv-x="1113" 
d="M92 0v205v225v100v184v148.5v138.5h269h304q144 0 226 -30t116.5 -82.5t34.5 -120.5q0 -92 -46.5 -146t-109.5 -72v-21q46 -15 86 -42.5t65 -75.5t25 -125q0 -89 -40.5 -153t-137 -98.5t-265.5 -34.5h-294.5h-232.5zM452 240h123q39 0 65 8t39.5 27t13.5 52
q0 40 -25.5 63.5t-85.5 23.5h-234v179h218q34 0 57 9.5t35 28.5t12 49q0 42 -23.5 65t-73.5 23h-121v-116.5v-121.5v-100v-97v-93z" />
    <glyph glyph-name="uni0433" unicode="&#x433;" horiz-adv-x="887" 
d="M92 0v205v224v100v185v148.5v138.5h762v-290h-174h-172h-261l218 231v-122v-128.5v-162.5v-100v-224v-205h-373z" />
    <glyph glyph-name="uni0453" unicode="&#x453;" horiz-adv-x="887" 
d="M92 0v205v224v100v185v148.5v138.5h762v-290h-174h-172h-261l218 231v-122v-128.5v-162.5v-100v-224v-205h-373zM247 1118q59 108 118 214t117 213l380 8q-60 -75 -118.5 -148t-114.5 -143.5t-112 -139.5z" />
    <glyph glyph-name="uni0491" unicode="&#x491;" horiz-adv-x="901" 
d="M92 0v205v224v100v185v148.5v138.5h506l-63 -55l15 306h319v-132.5v-132.5v-137.5v-138.5h-174.5h-171.5h-261l203 231v-122v-128.5v-162.5v-100v-224v-205h-373z" />
    <glyph glyph-name="uni0434" unicode="&#x434;" horiz-adv-x="1265" 
d="M737 59v110v115v145v100v162.5v128.5v122l142 -220h-489l157 220q-1 -61 -3.5 -121.5t-4.5 -122.5t-4 -128q-2 -71 -12.5 -128t-29 -103.5t-46.5 -86.5l-341 24q22 16 46 55t42.5 110t24.5 182q6 101 11 193.5t10 184.5h856v-138.5v-148.5v-185v-100v-205v-165h-359z
M16 -264v132.5v132.5v139v139h170.5h166.5h552h168h170v-139v-139v-132.5v-132.5h-319l-15 306l53 -42h-665l53 42l-15 -306h-319z" />
    <glyph glyph-name="uni0435" unicode="&#x435;" horiz-adv-x="1053" 
d="M625 -29q-202 0 -328.5 68t-185.5 187.5t-59 275.5q0 155 54.5 274.5t164.5 187t278 67.5q143 0 243.5 -48.5t154 -148t53.5 -255.5q0 -41 -2.5 -73t-7.5 -63l-316 110q2 12 3 25.5t1 24.5q0 84 -35 132.5t-90 48.5q-41 0 -73.5 -25.5t-52 -75t-19.5 -123.5v-63
q0 -72 27.5 -121.5t85.5 -75.5t151 -26q36 0 88.5 7.5t108.5 22.5t103 38l12 -309q-39 -17 -92 -31t-120 -22.5t-147 -8.5zM194 443v162l581 16l215 -36v-142h-796z" />
    <glyph glyph-name="uni0450" unicode="&#x450;" horiz-adv-x="1053" 
d="M625 -29q-202 0 -328.5 68t-185.5 187.5t-59 275.5q0 155 54.5 274.5t164.5 187t278 67.5q143 0 243.5 -48.5t154 -148t53.5 -255.5q0 -41 -2.5 -73t-7.5 -63l-316 110q2 12 3 25.5t1 24.5q0 84 -35 132.5t-90 48.5q-41 0 -73.5 -25.5t-52 -75t-19.5 -123.5v-63
q0 -72 27.5 -121.5t85.5 -75.5t151 -26q36 0 88.5 7.5t108.5 22.5t103 38l12 -309q-39 -17 -92 -31t-120 -22.5t-147 -8.5zM194 443v162l581 16l215 -36v-142h-796zM500 1118q-55 68 -111.5 138t-114.5 142.5t-119 146.5l379 8q58 -108 117.5 -215.5t118.5 -215.5z" />
    <glyph glyph-name="uni0451" unicode="&#x451;" horiz-adv-x="1053" 
d="M625 -29q-202 0 -328.5 68t-185.5 187.5t-59 275.5q0 155 54.5 274.5t164.5 187t278 67.5q143 0 243.5 -48.5t154 -148t53.5 -255.5q0 -41 -2.5 -73t-7.5 -63l-316 110q2 12 3 25.5t1 24.5q0 84 -35 132.5t-90 48.5q-41 0 -73.5 -25.5t-52 -75t-19.5 -123.5v-63
q0 -72 27.5 -121.5t85.5 -75.5t151 -26q36 0 88.5 7.5t108.5 22.5t103 38l12 -309q-39 -17 -92 -31t-120 -22.5t-147 -8.5zM194 443v162l581 16l215 -36v-142h-796zM786 1109q-87 0 -136 46t-49 139q0 81 49.5 130.5t137.5 49.5q86 0 135 -52t49 -128q0 -93 -49 -139
t-137 -46zM314 1109q-87 0 -135.5 46t-48.5 139q0 81 49 130.5t137 49.5q86 0 135 -52t49 -128q0 -93 -49 -139t-137 -46z" />
    <glyph glyph-name="uni0436" unicode="&#x436;" horiz-adv-x="1758" 
d="M10 0q60 93 121 186t120 185l157 248l-17 -162l-120 180q-61 91 -122 181.5t-123 182.5l418 10q33 -64 66 -127.5t66 -127.5l72 -139h88v-242h-87l-74 -146l-58 -114t-58 -115h-449zM699 0v174.5v177.5v242v205.5v201.5h360v-201.5v-205.5v-242v-177.5v-174.5h-360z
M1299 0q-31 59 -59.5 115.5t-58.5 114.5l-74 145h-85v242h88l68 136q32 62 63 124l62 124h427q-61 -92 -121.5 -182t-121.5 -182l-120 -180l-19 162l157 -246q60 -93 121.5 -186.5t121.5 -186.5h-449z" />
    <glyph glyph-name="uni0437" unicode="&#x437;" horiz-adv-x="984" 
d="M440 -23q-70 0 -128.5 4.5t-105.5 13t-84 18.5t-65 21l17 291q34 -16 83.5 -31t110 -24.5t126.5 -9.5q58 0 93.5 8.5t52 26t16.5 42.5q0 21 -14.5 38t-41.5 26t-66 9h-105h-91v185h84h95q55 0 87 18.5t32 54.5q0 21 -13.5 37.5t-43 25t-77.5 8.5q-47 0 -95 -5t-101 -18
t-113 -38l-27 291q44 17 110.5 30t146 21t156.5 8q156 0 251.5 -33t138.5 -92t43 -135q0 -93 -47 -144.5t-111 -73.5v-28q46 -14 86.5 -40.5t66 -73.5t25.5 -121q0 -89 -44.5 -159.5t-151.5 -110.5t-296 -40z" />
    <glyph glyph-name="uni0438" unicode="&#x438;" horiz-adv-x="1176" 
d="M92 0v205v224v100v185v148.5v138.5l357 10v-125.5v-135v-167.5v-94h21l115 223q37 72 74 145t74 144h351v-138.5v-148.5v-185v-100v-224v-205h-357v198.5v217.5v95h-21l-112 -219q-37 -73 -74.5 -146.5t-74.5 -145.5h-353z" />
    <glyph glyph-name="uni0439" unicode="&#x439;" horiz-adv-x="1176" 
d="M92 0v205v224v100v185v148.5v138.5l357 10v-125.5v-135v-167.5v-94h21l115 223q37 72 74 145t74 144h351v-138.5v-148.5v-185v-100v-224v-205h-357v198.5v217.5v95h-21l-112 -219q-37 -73 -74.5 -146.5t-74.5 -145.5h-353zM586 1093q-216 0 -317 97.5t-103 288.5l292 11
q0 -79 25 -132t103 -53q54 0 82 23.5t38 63t10 87.5h292q-1 -191 -101 -288.5t-321 -97.5z" />
    <glyph glyph-name="uni045D" unicode="&#x45d;" horiz-adv-x="1176" 
d="M92 0v205v224v100v185v148.5v138.5l357 10v-125.5v-135v-167.5v-94h21l115 223q37 72 74 145t74 144h351v-138.5v-148.5v-185v-100v-224v-205h-357v198.5v217.5v95h-21l-112 -219q-37 -73 -74.5 -146.5t-74.5 -145.5h-353zM538 1118q-55 68 -111.5 138t-114.5 142.5
t-119 146.5l379 8q58 -108 117.5 -215.5t118.5 -215.5z" />
    <glyph glyph-name="uni048B" unicode="&#x48b;" horiz-adv-x="1257" 
d="M811 -264l51 306l109 -42h-204v277h238.5h250.5q-16 -69 -32 -139t-32 -136q-15 -65 -30.5 -132.5t-30.5 -133.5h-320zM92 0v205v224v100v185v148.5v138.5l357 10v-125.5v-134.5v-167v-95h21l119 223q39 72 77.5 145t76.5 144h341v-138.5v-148.5v-185v-100v-224v-205
h-357v198.5v217.5v95h-21l-117 -220q-38 -73 -77 -146t-77 -145h-343zM587 1093q-217 0 -318 97.5t-103 288.5l292 11q0 -79 25.5 -132t103.5 -53q53 0 81 23.5t38.5 63t10.5 87.5h292q-2 -191 -102 -288.5t-320 -97.5z" />
    <glyph glyph-name="uni043A" unicode="&#x43a;" horiz-adv-x="1180" 
d="M92 0v205v224v116v181v140.5v134.5l373 11v-207.5v-210.5v-242v-177.5v-174.5h-373zM720 0q-31 58 -63 115.5t-63 113.5l-80 146h-78v242h80l74 136l68 124t67 124h428q-65 -92 -128 -182.5t-127 -181.5l-125 -180l-18 162l162 -247q64 -93 127.5 -186.5t125.5 -185.5
h-450z" />
    <glyph glyph-name="uni045C" unicode="&#x45c;" horiz-adv-x="1180" 
d="M92 0v205v224v116v181v140.5v134.5l373 11v-207.5v-210.5v-242v-177.5v-174.5h-373zM720 0q-31 58 -63 115.5t-63 113.5l-80 146h-78v242h80l74 136l68 124t67 124h428q-65 -92 -128 -182.5t-127 -181.5l-125 -180l-18 162l162 -247q64 -93 127.5 -186.5t125.5 -185.5
h-450zM367 1118q59 108 118 214t117 213l380 8q-60 -75 -118.5 -148t-114.5 -143.5t-112 -139.5z" />
    <glyph glyph-name="uni043B" unicode="&#x43b;" horiz-adv-x="1210" 
d="M197 -25q-29 0 -62.5 2.5t-64 7.5t-51.5 11l14 306q15 -2 28.5 -3.5t21.5 -1.5q40 0 64.5 30t38 80.5t20.5 113t11 128.5q5 92 11 182t11 170h879v-138.5v-148.5v-185v-100v-224v-205h-373v205v224v100v162.5v128.5v122l221 -231h-571l173 231q-5 -65 -10.5 -141.5
t-11 -152t-11.5 -139.5q-9 -126 -25.5 -225t-50.5 -168t-96.5 -105t-165.5 -36z" />
    <glyph glyph-name="uni043C" unicode="&#x43c;" horiz-adv-x="1515" 
d="M49 0q12 108 22.5 215t20.5 213l14 134q11 109 22.5 219.5t21.5 219.5h413q23 -65 47 -132t47 -133l90 -258h27l87 258q23 67 45.5 133.5t44.5 131.5h403q12 -107 24.5 -219t24.5 -219l16 -142q11 -100 23 -206.5t24 -214.5h-347q-9 83 -17 166t-16 165l-21 209h-25
l-61 -221q-22 -81 -44 -160t-44 -159h-261q-25 80 -49.5 158t-48.5 155l-71 227h-25l-20 -203q-9 -85 -17 -169l-16 -168h-334z" />
    <glyph glyph-name="uni043D" unicode="&#x43d;" horiz-adv-x="1167" 
d="M92 0v205v224v100v185v148.5v138.5l368 11v-141.5v-152.5v-189v-100v-224v-205h-368zM315 358v285h538v-285h-538zM706 0v205v224v100v185v148.5v138.5h369v-138.5v-148.5v-185v-100v-224v-205h-369z" />
    <glyph glyph-name="uni043E" unicode="&#x43e;" horiz-adv-x="1196" 
d="M603 -29q-144 0 -248 43t-171.5 117.5t-99.5 170t-32 200.5q0 150 60 269.5t180.5 189.5t302.5 70q140 0 243 -40.5t171 -113t101 -168.5t33 -207q0 -152 -61.5 -272t-182 -189.5t-296.5 -69.5zM602 271q54 0 90 32.5t53.5 85t17.5 113.5q0 74 -21 125t-57.5 77t-84.5 26
q-54 0 -91.5 -30t-57 -81.5t-19.5 -116.5q0 -61 19.5 -113.5t57.5 -85t93 -32.5z" />
    <glyph glyph-name="uni043F" unicode="&#x43f;" horiz-adv-x="1172" 
d="M92 0v205v224v100v185v148.5v138.5h988v-138.5v-148.5v-185v-100v-224v-205h-374v205v224v100v162.5v128.5v122l147 -231h-535l147 231v-122v-128.5v-162.5v-100v-224v-205h-373z" />
    <glyph glyph-name="uni0440" unicode="&#x440;" horiz-adv-x="1182" 
d="M92 -395v210.5v229.5v484v233.5v238.5l329 17l11 -140h29q30 51 70 85t91 51t113 17q130 0 217 -70.5t130.5 -190.5t43.5 -269q0 -139 -41.5 -260t-127.5 -195.5t-219 -74.5q-57 0 -103.5 15.5t-83 44t-66.5 68.5h-20v-75v-205.5v-202.5zM589 284q52 0 86.5 31t51.5 80
t17 103q0 58 -17.5 106.5t-52 78t-86.5 29.5q-24 0 -47 -7.5t-42.5 -21t-33.5 -32.5v-284q12 -24 29 -42.5t41 -29.5t54 -11z" />
    <glyph glyph-name="uni0441" unicode="&#x441;" horiz-adv-x="958" 
d="M597 -23q-175 0 -296.5 67t-185 184t-63.5 270t57.5 273t174 189t293.5 69q60 0 120 -8.5t113.5 -24t94.5 -37.5l-26 -317q-58 33 -104 48.5t-82 21t-62 5.5q-90 0 -144.5 -56t-54.5 -152q0 -69 30 -120.5t87 -80.5t137 -29q35 0 69 6.5t67 20t64 33.5l15 -317
q-36 -14 -80 -24t-99.5 -15.5t-124.5 -5.5z" />
    <glyph glyph-name="uni0442" unicode="&#x442;" horiz-adv-x="975" 
d="M301 0v205v224v100v162.5v128.5v122l115 -231h-48h-167h-170v290h913v-290h-170h-168h-48l116 231v-122v-128.5v-162.5v-100v-224v-205h-373z" />
    <glyph glyph-name="uni0443" unicode="&#x443;" horiz-adv-x="1133" 
d="M204 -395q41 105 84 214.5t85 213.5v-64q-35 102 -71.5 207t-70.5 205l-63 181q-36 107 -75 219.5t-76 219.5l403 11q20 -98 39.5 -191t39.5 -191l49 -242h28l55 241q22 95 42.5 186.5t41.5 185.5h401q-31 -80 -59.5 -155.5t-63 -165.5t-81.5 -216l-108 -281
q-72 -190 -123 -324.5t-93 -242.5z" />
    <glyph glyph-name="uni045E" unicode="&#x45e;" horiz-adv-x="1133" 
d="M204 -395q41 105 84 214.5t85 213.5v-64q-35 102 -71.5 207t-70.5 205l-63 181q-36 107 -75 219.5t-76 219.5l403 11q20 -98 39.5 -191t39.5 -191l49 -242h28l55 241q22 95 42.5 186.5t41.5 185.5h401q-31 -80 -59.5 -155.5t-63 -165.5t-81.5 -216l-108 -281
q-72 -190 -123 -324.5t-93 -242.5zM564 1093q-216 0 -317 97.5t-103 288.5l292 11q0 -79 25 -132t103 -53q54 0 82 23.5t38 63t10 87.5h292q-1 -191 -101 -288.5t-321 -97.5z" />
    <glyph glyph-name="uni0444" unicode="&#x444;" horiz-adv-x="1653" 
d="M646 -395v200.5v218.5v40h-19q-26 -24 -60 -45.5t-75 -34.5t-90 -13q-95 0 -162 42t-109 115.5t-61.5 169.5t-19.5 203q0 153 36.5 272.5t111.5 188.5t190 69q53 0 95.5 -16t75.5 -41t58 -53h29v65v240.5v240.5l361 29v-242.5v-267.5v-65h29q25 28 58 53t75.5 41t95.5 16
q86 0 149.5 -39.5t105.5 -110.5t62.5 -168t20.5 -212q0 -143 -35.5 -263.5t-112.5 -193.5t-203 -73q-49 0 -90.5 13t-75.5 34.5t-60 45.5h-19v-40v-205.5v-202.5zM550 262q23 0 41 10t32.5 28t22.5 39v339q-11 17 -26.5 29.5t-33.5 19.5t-37 7q-46 0 -75 -27.5t-42.5 -80
t-13.5 -128.5q0 -51 7.5 -94t23 -75t41 -49.5t60.5 -17.5zM1103 262q47 0 76 30.5t42.5 84t13.5 121.5q0 76 -13.5 128.5t-42.5 80t-75 27.5q-18 0 -37 -7t-34 -19.5t-26 -29.5v-339q13 -32 37.5 -54.5t58.5 -22.5z" />
    <glyph glyph-name="uni0445" unicode="&#x445;" horiz-adv-x="1174" 
d="M30 0q36 71 63.5 123t52 99t52.5 100l123 236l1 -76l-126 217q-29 50 -55 95t-54.5 94.5t-64.5 112.5l414 11q23 -55 43 -103.5t41 -101.5l54 -129h26l51 127q20 53 38 98t38 98h420q-40 -66 -69.5 -113.5t-55.5 -90.5t-58 -95l-133 -218l-20 75l148 -241
q46 -75 89.5 -145.5t106.5 -172.5h-444q-20 50 -36.5 91.5t-37.5 91.5l-56 140h-23l-49 -133q-19 -52 -35 -94t-36 -96h-408z" />
    <glyph glyph-name="uni0447" unicode="&#x447;" horiz-adv-x="1131" 
d="M671 0v159.5v169.5q-38 -16 -76.5 -26.5t-79.5 -15.5t-87 -5q-105 0 -185.5 36t-126.5 107.5t-46 180.5v155v123v117l369 11v-149v-182q0 -72 26.5 -101t88.5 -29q19 0 39.5 3t41 9.5t36.5 17.5v49v145.5v115v110.5h368v-138.5v-148.5v-185v-100v-224v-205h-368z" />
    <glyph glyph-name="uni0446" unicode="&#x446;" horiz-adv-x="1243" 
d="M902 -264l-15 306l53 -42h-848v205v224v100v185v148.5v138.5l373 11v-141.5v-152.5v-189v-100v-145v-115v-110l-228 231h536h222h226v-145.5v-144.5v-131.5v-132.5h-319zM701 59v110v115v145v100v185v148.5v138.5h373v-138.5v-148.5v-185v-100v-145v-115v-110h-373z" />
    <glyph glyph-name="uni0448" unicode="&#x448;" horiz-adv-x="1695" 
d="M92 0v205v224v100v185v148.5v138.5l373 11v-141.5v-152.5v-189v-100v-145v-115v-110l-228 231h1165l-173 -231v110v115v145v100v185v148.5v138.5h373v-138.5v-148.5v-185v-100v-224v-205h-1510zM671 59v110v115v145v100v185v148.5v138.5h352v-138.5v-148.5v-185v-100
v-145v-115v-110h-352z" />
    <glyph glyph-name="uni0449" unicode="&#x449;" horiz-adv-x="1771" 
d="M1430 -264l-14 306l52 -42h-1376v205v224v100v185v148.5v138.5l373 11v-141.5v-152.5v-189v-100v-145v-115v-110l-228 231h1012h247h253v-145.5v-144.5v-131.5v-132.5h-319zM671 59v110v115v145v100v185v148.5v138.5h352v-138.5v-148.5v-185v-100v-145v-115v-110h-352z
M1229 59v110v115v145v100v185v148.5v138.5h373v-138.5v-148.5v-185v-100v-145v-115v-110h-373z" />
    <glyph glyph-name="uni045F" unicode="&#x45f;" horiz-adv-x="1170" 
d="M92 0v205v224v100v185v148.5v138.5l373 11v-141.5v-152.5v-189v-100v-145v-115v-110l-232 231h704l-233 -231v110v115v145v100v185v148.5v138.5h374v-138.5v-148.5v-185v-100v-224v-205h-986zM428 -264q-3 82 -5 164t-5 162h334q-2 -81 -4.5 -163t-4.5 -163h-315z" />
    <glyph glyph-name="uni044C" unicode="&#x44c;" horiz-adv-x="1100" 
d="M92 0v205v224v100v185v148.5v138.5l368 11v-184.5v-191.5v-201v-193h85q40 0 72 10.5t50.5 39t18.5 79.5q0 36 -9 60.5t-25.5 39.5t-39 21t-49.5 6h-149l-87 242h133h148q142 0 242.5 -33.5t153.5 -112.5t53 -216q0 -114 -41.5 -199t-130 -132t-230.5 -47h-314.5h-248.5z
" />
    <glyph glyph-name="uni044A" unicode="&#x44a;" horiz-adv-x="1305" 
d="M297 0v205v224v100v174.5v140.5v130l115 -263h-48h-165h-168v290h634v-178v-187v-201v-193h85q40 0 72 10.5t50.5 39t18.5 79.5q0 36 -9.5 60.5t-26 39.5t-39 21t-48.5 6h-149l-87 242h132.5h148.5q141 0 242 -33.5t154 -112.5t53 -216q0 -114 -41.5 -199t-130.5 -132
t-231 -47h-314h-248z" />
    <glyph glyph-name="uni044B" unicode="&#x44b;" horiz-adv-x="1628" 
d="M92 0v205v224v100v185v148.5v138.5l368 11v-184.5v-191.5v-201v-193h85q40 0 72 10.5t50.5 39t18.5 79.5q0 36 -9 60.5t-25.5 39.5t-39 21t-49.5 6h-149l-87 242h133h148q142 0 242.5 -33.5t153.5 -112.5t53 -216q0 -114 -41.5 -199t-130 -132t-230.5 -47h-314.5h-248.5z
M1163 0v205v224v100v185v148.5v138.5l373 10v-141v-152v-189v-100v-224v-205h-373z" />
    <glyph glyph-name="uni0459" unicode="&#x459;" horiz-adv-x="1749" 
d="M197 -25q-29 0 -62.5 2.5t-64 7.5t-51.5 11l14 306q15 -2 28.5 -3t21.5 -1q40 0 64.5 29.5t38 80t20.5 113t10 128.5q6 92 12 182t11 170h871v-178v-187v-201v-193h85q39 0 71.5 10.5t50.5 39t18 79.5q0 36 -9 60.5t-25.5 39.5t-39 21t-49.5 6h-149l-87 242h133h149
q141 0 241.5 -33.5t153.5 -112.5t53 -216q0 -114 -41.5 -199t-130 -132t-230.5 -47h-314.5h-248.5v205v224v100v162.5v128.5v122l221 -231h-567l173 231q-5 -65 -10.5 -141.5t-11 -152t-11.5 -139.5q-9 -126 -25.5 -225t-50.5 -168t-96.5 -105t-165.5 -36z" />
    <glyph glyph-name="uni045A" unicode="&#x45a;" horiz-adv-x="1710" 
d="M92 0v205v224v100v185v148.5v138.5l368 11v-141.5v-152.5v-189v-100v-224v-205h-368zM315 358v285h535v-285h-535zM702 0v205v224v100v185v148.5v138.5h369v-178v-187v-201v-193h85q40 0 72 10.5t50.5 39t18.5 79.5q0 36 -9.5 60.5t-26 39.5t-39 21t-49.5 6h-149l-87 242
h133h149q141 0 241.5 -33.5t154 -112.5t53.5 -216q0 -114 -42 -199t-130.5 -132t-230.5 -47h-314h-249z" />
    <glyph glyph-name="uni0455" unicode="&#x455;" horiz-adv-x="944" 
d="M451 -29q-83 0 -153.5 8.5t-127 23.5t-98.5 34l22 303q43 -29 98.5 -50.5t113 -33t108.5 -11.5q33 0 57.5 6t38 21t13.5 42q0 24 -17 38.5t-56.5 27t-107.5 29.5q-96 24 -156 62t-88.5 94.5t-28.5 137.5q0 153 102 239.5t285 86.5q82 0 155 -10t132.5 -26t99.5 -32
l-23 -307q-46 30 -100 49.5t-102.5 29t-77.5 9.5q-26 0 -46 -6.5t-31 -20.5t-11 -36q0 -21 11 -37.5t41 -30.5t87 -29q113 -30 181.5 -65t99 -86t30.5 -130q0 -99 -46 -173t-146 -115.5t-259 -41.5z" />
    <glyph glyph-name="uni0454" unicode="&#x454;" horiz-adv-x="985" 
d="M619 -23q-183 0 -309.5 65t-192 182.5t-65.5 273.5q0 157 59 276.5t178.5 186.5t300.5 67q57 0 118.5 -7.5t119.5 -21.5t100 -36l-26 -287q-60 24 -110.5 37t-90.5 17t-69 4q-69 0 -119 -19t-77.5 -58.5t-27.5 -103.5v-89q0 -72 37 -116.5t98.5 -65t136.5 -20.5
q42 0 81.5 6t77 18t70.5 32l16 -294q-36 -14 -81.5 -25t-101 -16.5t-123.5 -5.5zM359 410v185h146h159h128v-185h-87.5h-91.5h-108h-146z" />
    <glyph glyph-name="uni044D" unicode="&#x44d;" horiz-adv-x="985" 
d="M380 -23q-69 0 -128 6t-107 16.5t-85 24.5l16 294q34 -20 71 -32t77 -18t82 -6q76 0 137 19t97.5 62t36.5 114v95q0 62 -27.5 102.5t-76.5 60t-118 19.5q-29 0 -70 -4t-91.5 -17t-110.5 -37l-26 287q43 21 97 35.5t113.5 22t116.5 7.5q179 0 301.5 -67.5t185 -186.5
t62.5 -276q0 -156 -62 -273.5t-185 -182.5t-306 -65zM193 410v185h128.5h158.5h146v-185h-146h-107.5h-92h-87.5z" />
    <glyph glyph-name="uni0456" unicode="&#x456;" horiz-adv-x="581" 
d="M104 0v205v224v100v185v148.5v138.5l373 10v-141v-152v-189v-100v-224v-205h-373zM289 1113q-99 0 -157.5 45t-58.5 149q0 90 58.5 139.5t159.5 49.5t158.5 -51.5t57.5 -137.5q0 -104 -58 -149t-160 -45z" />
    <glyph glyph-name="uni0457" unicode="&#x457;" horiz-adv-x="581" 
d="M104 0v205v224v100v185v148.5v138.5l373 10v-141v-152v-189v-100v-224v-205h-373zM498 1109q-81 0 -127 46t-46 139q0 81 46.5 130.5t128.5 49.5t127.5 -52t45.5 -128q0 -62 -21 -103t-60 -61.5t-94 -20.5zM83 1109q-81 0 -126.5 46t-45.5 139q0 81 46 130.5t128 49.5
t127.5 -52t45.5 -128q0 -62 -21 -103t-59.5 -61.5t-94.5 -20.5z" />
    <glyph glyph-name="uni0458" unicode="&#x458;" horiz-adv-x="580" 
d="M-33 -395q49 65 79.5 141.5t44 161.5t13.5 175v346v100v185v148.5v138.5l373 10v-141v-152v-189v-170.5v-155.5v-158q0 -72 -9.5 -136t-28.5 -118t-49 -98t-71 -77zM293 1113q-99 0 -157.5 45t-58.5 149q0 90 58.5 139.5t159.5 49.5t158.5 -51.5t57.5 -137.5
q0 -104 -58 -149t-160 -45z" />
    <glyph glyph-name="uni045B" unicode="&#x45b;" horiz-adv-x="1162" 
d="M96 0v205v224v557v240.5v240.5l373 29v-242.5v-267.5v-109h30q30 43 70 78t91.5 55.5t115.5 20.5q146 0 225 -87.5t79 -265.5v-126.5v-122.5v-223.5v-205.5h-373v203v205v144q0 70 -21 105.5t-76 35.5q-30 0 -55.5 -12t-47 -33t-38.5 -46v-194v-205.5v-202.5h-373z
M-35 1123v240h179.5h162.5h200h164.5h177.5v-240h-177.5h-164.5h-200h-162.5h-179.5z" />
    <glyph glyph-name="uni044E" unicode="&#x44e;" horiz-adv-x="1708" 
d="M1116 -29q-139 0 -240.5 43t-166.5 117.5t-96.5 170t-31.5 200.5q0 150 58.5 269.5t176 189.5t292.5 70q140 0 243 -40.5t170.5 -113t100.5 -168.5t33 -207q0 -152 -61.5 -272t-182 -189.5t-295.5 -69.5zM92 0v205v224v100v185v148.5v138.5l368 11v-141.5v-152.5v-189
v-100v-224v-205h-368zM316 358v285h437v-285h-437zM1115 271q54 0 89.5 32.5t53 85t17.5 113.5q0 74 -20.5 125t-57.5 77t-84 26q-54 0 -89.5 -30t-53 -81.5t-17.5 -116.5q0 -61 17.5 -113.5t53.5 -85t91 -32.5z" />
    <glyph glyph-name="uni044F" unicode="&#x44f;" horiz-adv-x="1132" 
d="M21 0q43 75 87 150.5t86 149.5l122 207l130 -124q-129 0 -212 36t-123 105t-40 166q0 121 55 188.5t156.5 95t241.5 27.5h191.5h180h144.5v-138.5v-148.5v-185v-100v-224v-205h-360v101.5v103v114.5v213v113.5v101.5h-118q-32 0 -58 -11t-41.5 -34.5t-15.5 -60.5
q0 -33 12.5 -53t31.5 -30t40.5 -13t38.5 -3h162v-214h-266l174 91l-86 -162q-34 -64 -67.5 -128.5t-67.5 -128.5h-398z" />
    <glyph glyph-name="uni0452" unicode="&#x452;" horiz-adv-x="1168" 
d="M549 -340q30 60 57 130t50 145.5t39 157.5t25.5 167.5t9.5 174.5q0 101 -13.5 157t-40.5 78.5t-66 22.5q-30 0 -55.5 -12t-47 -33t-38.5 -46v-194v-205.5v-202.5h-373v205v224v557v240.5v240.5l373 29v-242.5v-267.5v-109h30q30 43 70 78t91.5 55.5t115.5 20.5
q103 0 178.5 -49.5t116.5 -171t41 -338.5q0 -94 -10.5 -187.5t-29.5 -181t-43.5 -166.5t-54 -147t-59.5 -120zM-35 1123v240h179.5h162.5h200h164.5h177.5v-240h-177.5h-164.5h-200h-162.5h-179.5z" />
    <glyph glyph-name="uni0463" unicode="&#x463;" horiz-adv-x="1324" 
d="M297 0v205v224v557v240.5v240.5l369 29v-242.5v-267.5v-424v-179v-172h113q40 0 69.5 9.5t45.5 34t16 69.5q0 31 -8 52t-23 33.5t-36.5 18t-48.5 5.5h-160l-87 191h93h119.5h106.5q212 0 313.5 -68t101.5 -233q0 -98 -37.5 -170.5t-122 -112.5t-226.5 -40h-332.5h-265.5z
M31 738v263h381v-263h-48h-165h-168zM555 753v248h502v-248h-222.5h-217.5h-62z" />
    <glyph glyph-name="uni046B" unicode="&#x46b;" horiz-adv-x="1758" 
d="M10 0q60 93 121 186t120 185l157 248l-43 -162l-93 121q-47 60 -93 120.5t-95 122.5v180h1588v-180q-46 -60 -93 -121t-92 -120l-94 -123l-45 162l157 -246q60 -93 121.5 -186.5t121.5 -186.5h-449q-31 59 -59.5 115.5t-58.5 114.5l-74 145h-458l-74 -146l-58 -114
t-58 -115h-449zM699 0v174.5v177.5v188h360v-188v-177.5v-174.5h-360zM637 569h485l138 209l28 -37h-820l28 37z" />
    <glyph glyph-name="uni0473" unicode="&#x473;" horiz-adv-x="1196" 
d="M603 -29q-144 0 -248 43t-171.5 117.5t-99.5 170t-32 200.5q0 150 60.5 269.5t181 189.5t301.5 70q140 0 243 -40.5t171 -112.5t101 -168.5t33 -207.5q0 -152 -61.5 -272t-182 -189.5t-296.5 -69.5zM602 237q65 0 105 31t58.5 81.5t18.5 108.5v96q0 60 -23 108t-63.5 76
t-96.5 28q-63 0 -105.5 -28.5t-63 -77t-20.5 -106.5v-96q0 -58 21 -108.5t63 -81.5t106 -31zM194 405v196h812v-196h-812z" />
    <glyph glyph-name="uni0475" unicode="&#x475;" horiz-adv-x="1147" 
d="M361 0q-32 94 -65 189.5t-65 189.5l-61 177q-38 111 -76 223t-77 222l403 11q20 -93 39.5 -187t38.5 -188l49 -236h29l42 177q12 52 24 103l24 102q12 67 38.5 120.5t85 85t164.5 31.5q30 0 64 -2.5t65 -7.5t52 -12l-14 -306q-15 3 -32 4t-26 1q-45 0 -64 -24t-33 -64
q-27 -78 -53 -154.5t-53 -154.5q-26 -76 -51.5 -150t-51.5 -150h-396z" />
    <glyph glyph-name="uni0493" unicode="&#x493;" horiz-adv-x="913" 
d="M118 0v205v224v100v185v148.5v138.5h762v-290h-174h-172h-261l218 231v-122v-128.5v-162.5v-100v-224v-205h-373zM12 350v224h165.5h150.5h106h151h165v-224h-165h-151h-106h-150.5h-165.5z" />
    <glyph glyph-name="uni0495" unicode="&#x495;" horiz-adv-x="1122" 
d="M594 -340q23 45 44.5 98.5t39 111.5t27.5 115.5t10 111.5q0 67 -14.5 110t-43.5 64t-73 21q-19 0 -40.5 -3t-41 -10t-37.5 -19v-93.5v-82.5v-84h-373v205v224v100v185v148.5v138.5h762v-290h-174h-172h-261l218 231v-114.5v-121v-153.5v-50q40 14 80 24t82 15.5t86 5.5
q117 0 202.5 -42.5t132 -132.5t46.5 -233q0 -63 -13 -127.5t-35 -126.5t-49 -117t-56 -99z" />
    <glyph glyph-name="uni0497" unicode="&#x497;" horiz-adv-x="1860" 
d="M1519 -264l-15 306l53 -42h-132v285h207h205v-142v-142v-132.5v-132.5h-318zM10 0q60 93 121 186t120 185l157 248l-17 -162l-120 180q-61 91 -122 181.5t-123 182.5l418 10q33 -64 66 -127.5t66 -127.5l72 -139h88v-242h-87l-74 -146l-58 -114t-58 -115h-449zM699 0
v174.5v177.5v242v205.5v201.5h360v-201.5v-205.5v-242v-177.5v-174.5h-360zM1299 0q-31 59 -59.5 115.5t-58.5 114.5l-74 145h-85v242h88l68 136q32 62 63 124l62 124h427q-61 -92 -121.5 -182t-121.5 -182l-120 -180l-19 162l157 -246q60 -93 121.5 -186.5t121.5 -186.5
h-449z" />
    <glyph glyph-name="uni0499" unicode="&#x499;" horiz-adv-x="983" 
d="M327 -264q-2 82 -4.5 164t-4.5 162h334q-3 -81 -5 -163t-5 -163h-315zM440 -23q-70 0 -128.5 5t-106 13t-84.5 18t-64 21l16 286q34 -16 84 -31t110.5 -24.5t126.5 -9.5q57 0 92.5 9.5t52 29t16.5 46.5q0 23 -14 41t-41 28t-66 10h-104.5h-89.5v167h83h94q54 0 86.5 20.5
t32.5 57.5q0 24 -13.5 42t-43 27t-78.5 9q-46 0 -94.5 -4.5t-101 -17.5t-113.5 -38l-26 287q43 17 110 30t146.5 21t156.5 8q156 0 251 -33t138 -92t43 -135q0 -93 -46.5 -144.5t-110.5 -73.5v-28q46 -14 86.5 -40.5t65.5 -73.5t25 -121q0 -89 -44.5 -159.5t-151.5 -110.5
t-295 -40z" />
    <glyph glyph-name="uni049B" unicode="&#x49b;" horiz-adv-x="1266" 
d="M937 -264l-14 306l53 -42h-132v285h207h205v-142v-142v-132.5v-132.5h-319zM92 0v205v224v116v181v140.5v134.5l373 11v-207.5v-210.5v-242v-177.5v-174.5h-373zM720 0q-31 58 -63 115.5t-63 113.5l-80 146h-77v242h80l73 136q35 62 68.5 124t66.5 124h428
q-64 -92 -127.5 -182.5t-126.5 -181.5l-126 -180l-18 162l163 -247q63 -93 126.5 -186.5t125.5 -185.5h-450z" />
    <glyph glyph-name="uni049D" unicode="&#x49d;" horiz-adv-x="1411" 
d="M952 0q-29 58 -59 116t-60 114l-75 145h-321v242h324l70 136q31 62 62.5 124t63.5 124h426q-62 -92 -123 -182.5t-122 -182.5l-120 -179l-18 162l158 -246q61 -93 122 -187t121 -186h-449zM92 0v205v224v116v181v140.5v134.5l373 11v-207.5v-210.5v-242v-177.5v-174.5
h-373zM557 80v187v170v116v170v187h192v-187v-170v-116v-170v-187h-192z" />
    <glyph glyph-name="uni049F" unicode="&#x49f;" horiz-adv-x="1184" 
d="M724 0q-31 58 -63 115.5t-63 113.5l-80 146h-78v242h80l74 136l68 124t67 124h428q-65 -92 -128 -182.5t-127 -181.5l-125 -180l-18 162l162 -247q64 -93 127.5 -186.5t125.5 -185.5h-450zM96 0v205v224v557v240.5v240.5l373 29v-242.5v-267.5v-634v-177.5v-174.5h-373z
M-35 1123v240h179.5h162.5h94h163.5h178.5v-240h-178.5h-163.5h-94h-162.5h-179.5z" />
    <glyph glyph-name="uni04A1" unicode="&#x4a1;" horiz-adv-x="1385" 
d="M925 0q-31 58 -63 115.5t-63 113.5l-80 146h-77v242h80l73 136l68 124t67 124h428q-65 -92 -128 -182.5t-126 -181.5l-126 -180l-18 162l162 -247q64 -93 127.5 -186.5t125.5 -185.5h-450zM297 0v205v224v116v170.5v132.5v127l116 -264h-48h-165h-169v290h639v-201.5
v-205.5v-242v-177.5v-174.5h-373z" />
    <glyph glyph-name="uni04A3" unicode="&#x4a3;" horiz-adv-x="1244" 
d="M902 -264l-14 306l53 -42h-143v285h212h211v-142v-142v-132.5v-132.5h-319zM92 0v205v224v100v185v148.5v138.5l368 11v-141.5v-152.5v-189v-100v-224v-205h-368zM315 358v285h538v-285h-538zM706 0v205v224v100v185v148.5v138.5h369v-138.5v-148.5v-185v-100v-224v-205
h-369z" />
    <glyph glyph-name="uni04A5" unicode="&#x4a5;" horiz-adv-x="1492" 
d="M702 0v205v224v100v185v148.5v138.5h757v-290h-173.5h-172.5h-256l214 231v-122v-128.5v-162.5v-100v-224v-205h-369zM92 0v205v224v100v185v148.5v138.5l368 11v-141.5v-152.5v-189v-100v-224v-205h-368zM315 358v285h534v-285h-534z" />
    <glyph glyph-name="uni04A7" unicode="&#x4a7;" horiz-adv-x="1734" 
d="M1206 -340q23 45 44.5 98.5t39 111.5t27.5 116t10 111q0 67 -14.5 110t-43.5 64t-72 21q-19 0 -40 -3t-41 -10t-37 -19v-93.5v-82.5v-84h-373v205v224v100v162.5v128.5v122l147 -226h-535l147 226v-122v-128.5v-162.5v-100v-224v-205h-373v205v224v100v185v148.5v138.5
h987v-129.5v-130.5v-175v-46q40 13 80 23.5t81.5 16t85.5 5.5q117 0 202.5 -43.5t131.5 -137t46 -244.5q0 -63 -13 -128t-35 -127t-49 -116.5t-56 -98.5z" />
    <glyph glyph-name="uni04A9" unicode="&#x4a9;" horiz-adv-x="1419" 
d="M636 -29q-181 0 -311.5 65.5t-201.5 184.5t-71 279q0 155 59 272t171 187t271 82l8 -308q-49 -14 -78.5 -48t-43 -79t-13.5 -93q0 -58 15.5 -106.5t48.5 -84t83.5 -55t118.5 -19.5q100 0 168 35t102.5 101t34.5 158q0 66 -22 109t-64 43q-45 0 -65.5 -47.5t-20.5 -115.5
q0 -80 27 -139t78 -97t123 -57t163 -19q35 0 81.5 5.5t97.5 22.5l11 -249q-32 -12 -82.5 -19.5t-95.5 -7.5q-75 0 -150.5 17t-141.5 69l-124 108q-111 68 -172.5 169.5t-61.5 228.5q0 134 45 227.5t129.5 142.5t202.5 49q109 0 193.5 -48t132.5 -139t48 -221
q0 -135 -47 -230.5t-153 -170.5l-140 -88q-50 -59 -146.5 -86.5t-206.5 -27.5z" />
    <glyph glyph-name="uni04AB" unicode="&#x4ab;" horiz-adv-x="958" 
d="M397 -264q-3 82 -5.5 164t-4.5 162h334q-2 -81 -4.5 -163t-5.5 -163h-314zM597 -23q-175 0 -296.5 67t-185 184t-63.5 270t57.5 273t174 189t293.5 69q60 0 120 -8.5t113.5 -24t94.5 -37.5l-26 -317q-58 33 -104 48.5t-82 21t-62 5.5q-90 0 -144.5 -56t-54.5 -152
q0 -69 30 -120.5t87 -80.5t137 -29q35 0 69 6.5t67 20t64 33.5l15 -317q-36 -14 -80 -24t-99.5 -15.5t-124.5 -5.5z" />
    <glyph glyph-name="uni04AD" unicode="&#x4ad;" horiz-adv-x="975" 
d="M502 -264l-15 306l53 -42h-143v285h212h212v-142v-142v-132.5v-132.5h-319zM301 0v205v224v100v162.5v128.5v122l115 -231h-48h-167h-170v290h913v-290h-170h-168h-48l116 231v-122v-128.5v-162.5v-100v-224v-205h-373z" />
    <glyph glyph-name="uni04AF" unicode="&#x4af;" horiz-adv-x="1120" 
d="M373 -395v191.5v192.5q-33 95 -67.5 193t-68.5 193l-63 179q-39 111 -78.5 223.5t-78.5 223.5l403 11q22 -98 43 -195t42 -195l44 -219h28l45 220q22 101 43.5 195.5t40.5 182.5h397q-40 -112 -79.5 -225t-78.5 -224l-64 -180q-33 -97 -66.5 -191.5t-67.5 -191.5v-187
v-186z" />
    <glyph glyph-name="uni04B1" unicode="&#x4b1;" horiz-adv-x="1120" 
d="M373 -395v191.5v192.5q-33 95 -67.5 193t-68.5 193l-63 179q-39 111 -78.5 223.5t-78.5 223.5l403 11q22 -98 43 -195t42 -195l44 -219h28l45 220q22 101 43.5 195.5t40.5 182.5h397q-40 -112 -79.5 -225t-78.5 -224l-64 -180q-33 -97 -66.5 -191.5t-67.5 -191.5v-187
v-186zM135 0v224h195.5h177.5h103h177.5h194.5v-224h-194.5h-177.5h-103h-177.5h-195.5z" />
    <glyph glyph-name="uni04B3" unicode="&#x4b3;" horiz-adv-x="1266" 
d="M925 -264l-14 306l52 -42h-131v285h206.5h205.5v-142v-142v-132.5v-132.5h-319zM30 0q36 71 63.5 123t52 99t52.5 100l123 236l1 -76l-126 217q-29 50 -55 95t-54.5 94.5t-64.5 112.5l414 11q23 -55 43 -103.5t41 -101.5l54 -129h26l51 127q20 53 38 98t38 98h420
q-40 -66 -69.5 -113.5t-55.5 -90.5t-58 -95l-133 -218l-20 75l148 -241q46 -75 89.5 -145.5t106.5 -172.5h-444q-20 50 -36.5 91.5t-37.5 91.5l-56 140h-23l-49 -133q-19 -52 -35 -94t-36 -96h-408z" />
    <glyph glyph-name="uni04B5" unicode="&#x4b5;" horiz-adv-x="1513" 
d="M1172 -264l-15 306l53 -42h-913v205v224v100v162.5v128.5v122l116 -231h-48h-165h-169v290h828v-290h-170h-168h-48l189 231v-122v-128.5v-162.5v-100v-145v-115v-110l-139 231h521h221h226v-145.5v-144.5v-131.5v-132.5h-319zM971 59v110v115v145v100v185v148.5v138.5
h373v-138.5v-148.5v-185v-100v-145v-115v-110h-373z" />
    <glyph glyph-name="uni04B7" unicode="&#x4b7;" horiz-adv-x="1208" 
d="M867 -264l-14 306l52 -42h-142v285h212h211v-142v-142v-132.5v-132.5h-319zM671 0v159.5v169.5q-38 -16 -76.5 -26.5t-79.5 -15.5t-87 -5q-105 0 -185.5 36t-126.5 107.5t-46 180.5v155v123v117l369 11v-149v-182q0 -72 26.5 -101t88.5 -29q19 0 39.5 3t41 9.5t36.5 17.5
v49v145.5v115v110.5h368v-138.5v-148.5v-185v-100v-224v-205h-368z" />
    <glyph glyph-name="uni04B9" unicode="&#x4b9;" horiz-adv-x="1295" 
d="M834 0v159v170q-63 -15 -126.5 -25.5t-128.5 -16t-133 -5.5q-118 0 -202 35.5t-129 107t-45 180.5v154.5v124v117.5l362 11v-148.5v-182.5q0 -80 34.5 -109.5t122.5 -29.5q31 0 66 2.5t78.5 9.5t100.5 17v59v145.5v115v110.5h369v-138.5v-148.5v-185v-100v-224v-205h-369
zM540 82v176v161v116v160.5v176.5h194v-176.5v-160.5v-116v-159v-178h-194z" />
    <glyph glyph-name="uni04BB" unicode="&#x4bb;" horiz-adv-x="1160" 
d="M94 0v205v224v557v240.5v240.5l373 29v-242.5v-267.5v-109h30q30 43 70 78t91.5 55.5t115.5 20.5q146 0 225 -87.5t79 -265.5v-126.5v-122.5v-223.5v-205.5h-373v203v205v144q0 70 -21 105.5t-76 35.5q-30 0 -55.5 -12t-47 -33t-38.5 -46v-194v-205.5v-202.5h-373z" />
    <glyph glyph-name="uni04BD" unicode="&#x4bd;" horiz-adv-x="1349" 
d="M387 399q-192 0 -277 76.5t-85 236.5q0 32 4 69t12 76.5t21 77.5t31 71l260 -15q-12 -32 -24.5 -74t-20.5 -83t-8 -73q0 -57 14 -89t47 -45t90 -13h101v-215h-165zM921 -28q-202 0 -328.5 68t-185 188t-58.5 276q0 155 54 274.5t164 186.5t279 67q142 0 242.5 -48
t154 -148t53.5 -255q0 -42 -2 -73.5t-7 -63.5l-317 110q2 13 3 26.5t1 24.5q0 84 -35 132.5t-90 48.5q-40 0 -73 -25.5t-52.5 -75t-19.5 -123.5v-64q0 -72 27.5 -121t85.5 -75t151 -26q36 0 88.5 7.5t108.5 22.5t104 38l12 -310q-40 -16 -93 -30.5t-120 -23t-147 -8.5z
M490 444v162l581 17l216 -36v-143h-797z" />
    <glyph glyph-name="uni04BF" unicode="&#x4bf;" horiz-adv-x="1349" 
d="M387 399q-192 0 -277 76.5t-85 236.5q0 32 4 69t12 76.5t21 77.5t31 71l260 -15q-12 -32 -24.5 -74t-20.5 -83t-8 -73q0 -57 14 -89t47 -45t90 -13h101v-215h-165zM693 -262q-3 82 -5.5 164t-4.5 162h334q-3 -82 -5 -163.5t-5 -162.5h-314zM921 -28q-202 0 -328.5 68
t-185 188t-58.5 276q0 155 54 274.5t164 186.5t279 67q142 0 242.5 -48t154 -148t53.5 -255q0 -42 -2 -73.5t-7 -63.5l-317 110q2 13 3 26.5t1 24.5q0 84 -35 132.5t-90 48.5q-40 0 -73 -25.5t-52.5 -75t-19.5 -123.5v-64q0 -72 27.5 -121t85.5 -75t151 -26q36 0 88.5 7.5
t108.5 22.5t104 38l12 -310q-40 -16 -93 -30.5t-120 -23t-147 -8.5zM490 444v162l581 17l216 -36v-143h-797z" />
    <glyph glyph-name="uni04CF" unicode="&#x4cf;" horiz-adv-x="561" 
d="M94 0v205v224v557v240.5v240.5l373 29v-243v-267v-557v-224v-205h-373z" />
    <glyph glyph-name="uni04C2" unicode="&#x4c2;" horiz-adv-x="1758" 
d="M10 0q60 93 121 186t120 185l157 248l-17 -162l-120 180q-61 91 -122 181.5t-123 182.5l418 10q33 -64 66 -127.5t66 -127.5l72 -139h88v-242h-87l-74 -146l-58 -114t-58 -115h-449zM699 0v174.5v177.5v242v205.5v201.5h360v-201.5v-205.5v-242v-177.5v-174.5h-360z
M1299 0q-31 59 -59.5 115.5t-58.5 114.5l-74 145h-85v242h88l68 136q32 62 63 124l62 124h427q-61 -92 -121.5 -182t-121.5 -182l-120 -180l-19 162l157 -246q60 -93 121.5 -186.5t121.5 -186.5h-449zM877 1093q-216 0 -317 97.5t-103 288.5l292 11q0 -79 25 -132t103 -53
q54 0 82 23.5t38 63t10 87.5h292q-1 -191 -101 -288.5t-321 -97.5z" />
    <glyph glyph-name="uni04C4" unicode="&#x4c4;" horiz-adv-x="1196" 
d="M638 -340q24 45 45.5 99.5t39 115.5t28 125t10.5 128q0 83 -21.5 139t-59 83.5t-85.5 27.5q-21 0 -44.5 -4t-45 -13t-40.5 -24v-170.5v-166.5h-373v205v224v116v181v140.5v134.5l373 11v-207.5v-210.5v-30q23 9 47 16.5t47 13.5l27 -28q22 6 44.5 9.5t45.5 5.5t46 2
q122 0 216.5 -39.5t148.5 -128t54 -235.5q0 -71 -13.5 -143t-36 -139.5t-50 -125.5t-55.5 -102zM761 456l-284 74l113 223q35 62 68.5 124t66.5 124h428q-64 -92 -127.5 -182.5t-126.5 -181.5z" />
    <glyph glyph-name="uni04C6" unicode="&#x4c6;" horiz-adv-x="1291" 
d="M845 -264l51 306l109 -42h-204v277h238.5h250.5q-16 -69 -32 -139t-32 -136q-15 -65 -30.5 -132.5t-30.5 -133.5h-320zM197 -25q-29 0 -62.5 2.5t-64 7.5t-51.5 11l14 306q15 -2 28.5 -3.5t21.5 -1.5q40 0 64.5 30t38 80.5t20.5 113t11 128.5q5 92 11 182t11 170h879
v-138.5v-148.5v-185v-100v-224v-205h-373v205v224v100v162.5v128.5v122l221 -231h-571l173 231q-5 -65 -10.5 -141.5t-11 -152t-11.5 -139.5q-9 -126 -25.5 -225t-50.5 -168t-96.5 -105t-165.5 -36z" />
    <glyph glyph-name="uni04C8" unicode="&#x4c8;" horiz-adv-x="1167" 
d="M568 -341q50 65 80.5 141.5t44 161.5t13.5 175v271v121v185v148.5v138.5h369v-138.5v-148.5v-185v-152v-131v-147q0 -72 -9 -136t-27.5 -118t-48 -98t-70.5 -77zM92 0v205v224v100v185v148.5v138.5l368 11v-141.5v-152.5v-189v-100v-224v-205h-368zM315 358v285h538v-285
h-538z" />
    <glyph glyph-name="uni04CA" unicode="&#x4ca;" horiz-adv-x="1248" 
d="M802 -264l51 306l109 -42h-205v277h238.5h250.5q-15 -69 -31.5 -139t-31.5 -136q-16 -65 -31 -132.5t-31 -133.5h-319zM92 0v205v224v100v185v148.5v138.5l368 11v-141.5v-152.5v-189v-100v-224v-205h-368zM315 358v285h538v-285h-538zM706 0v205v224v100v185v148.5
v138.5h369v-138.5v-148.5v-185v-100v-224v-205h-369z" />
    <glyph glyph-name="uni04CC" unicode="&#x4cc;" horiz-adv-x="1131" 
d="M524 -264v112.5v111.5v120.5v120.5h212h212l-277 -183v171.5v182.5q-38 -17 -76.5 -27.5t-79.5 -15t-87 -4.5q-105 0 -185.5 35.5t-126.5 107.5t-46 180v195v158l369 11v-131v-159q0 -72 26.5 -100t88.5 -28q19 0 39.5 2.5t41 9t36.5 17.5v48v182.5v147.5h368v-138.5
v-148.5v-185v-100v-224v-205h-234l53 42l-15 -306h-319z" />
    <glyph glyph-name="uni04CE" unicode="&#x4ce;" horiz-adv-x="1639" 
d="M1193 -264l51 306l109 -42h-205v277h239h251q-16 -69 -32 -139t-32 -136q-15 -65 -30.5 -132.5t-31.5 -133.5h-319zM49 0q12 108 22.5 215t20.5 213l14 134q11 109 22.5 219.5t21.5 219.5h413q23 -65 47 -132t47 -133l90 -258h27l87 258q23 67 45.5 133.5t44.5 131.5h403
q12 -107 24.5 -219t24.5 -219l16 -142q11 -100 23 -206.5t24 -214.5h-347q-9 83 -17 166t-16 165l-21 209h-25l-61 -221q-22 -81 -44 -160t-44 -159h-261q-25 80 -49.5 158t-48.5 155l-71 227h-25l-20 -203q-9 -85 -17 -169l-16 -168h-334z" />
    <glyph glyph-name="uni04D1" unicode="&#x4d1;" horiz-adv-x="1047" 
d="M327 -26q-88 0 -149 37.5t-92.5 102.5t-31.5 146q0 87 31 144.5t79.5 93t102.5 54t100 26.5l267 45q2 37 -18 60t-61 34t-101 11q-34 0 -74.5 -5.5t-85 -16t-89.5 -26.5t-90 -38l-16 311q38 12 87 26t108 25.5t126 19t140 7.5q129 0 221 -37.5t140.5 -117.5t48.5 -208
v-122v-123v-68v-168.5v-186.5h-308l-25 140h-25q-26 -44 -66 -81.5t-94.5 -61t-124.5 -23.5zM492 258q24 0 48.5 11.5t46 32.5t37.5 49v147q-10 -9 -23.5 -16.5t-38 -15.5t-66.5 -19q-25 -6 -45.5 -19.5t-32.5 -34t-12 -50.5q0 -45 27 -65t59 -20zM531 1093
q-216 0 -317 97.5t-103 288.5l292 11q0 -79 25 -132t103 -53q54 0 82 23.5t38 63t10 87.5h292q-1 -191 -101 -288.5t-321 -97.5z" />
    <glyph glyph-name="uni04D3" unicode="&#x4d3;" horiz-adv-x="1047" 
d="M327 -26q-88 0 -149 37.5t-92.5 102.5t-31.5 146q0 87 31 144.5t79.5 93t102.5 54t100 26.5l267 45q2 37 -18 60t-61 34t-101 11q-34 0 -74.5 -5.5t-85 -16t-89.5 -26.5t-90 -38l-16 311q38 12 87 26t108 25.5t126 19t140 7.5q129 0 221 -37.5t140.5 -117.5t48.5 -208
v-122v-123v-68v-168.5v-186.5h-308l-25 140h-25q-26 -44 -66 -81.5t-94.5 -61t-124.5 -23.5zM492 258q24 0 48.5 11.5t46 32.5t37.5 49v147q-10 -9 -23.5 -16.5t-38 -15.5t-66.5 -19q-25 -6 -45.5 -19.5t-32.5 -34t-12 -50.5q0 -45 27 -65t59 -20zM769 1109q-87 0 -136 46
t-49 139q0 81 49.5 130.5t137.5 49.5q86 0 135 -52t49 -128q0 -93 -49 -139t-137 -46zM297 1109q-87 0 -135.5 46t-48.5 139q0 81 49 130.5t137 49.5q86 0 135 -52t49 -128q0 -93 -49 -139t-137 -46z" />
    <glyph glyph-name="uni04D5" unicode="&#x4d5;" horiz-adv-x="1604" 
d="M1180 -29q-185 0 -303 68t-175 187.5t-57 275.5q0 155 44 274.5t145 187t272 67.5q141 0 241.5 -48.5t154 -148t53.5 -255.5q0 -41 -2.5 -73t-7.5 -63l-317 110q2 12 3 25.5t1 24.5q0 84 -35 132.5t-89 48.5q-41 0 -73.5 -25.5t-52 -75t-19.5 -123.5v-63
q0 -108 62.5 -165.5t201.5 -57.5q35 0 87.5 7.5t109 22.5t103.5 38l12 -309q-39 -17 -92 -31t-120 -22.5t-147 -8.5zM486 258q25 0 49.5 11.5t45.5 32.5t38 49v147q-10 -9 -24 -16.5t-38.5 -15.5t-66.5 -19q-25 -6 -45 -19.5t-32.5 -34t-12.5 -50.5q0 -45 27 -65t59 -20z
M371 -26q-113 0 -184 37.5t-105 102.5t-34 146q0 87 31.5 144.5t79.5 93t102.5 54t100.5 26.5l267 45q1 37 -19 60t-60.5 34t-101.5 11q-34 0 -74.5 -5.5t-84.5 -16t-89.5 -26.5t-89.5 -38l-16 311q35 12 81 26t100.5 25.5t117 19t130.5 7.5q190 0 283.5 -85t93.5 -278
l-51 -158l-12 -258q-61 -103 -131.5 -163.5t-153.5 -87.5t-181 -27zM762 443v162l568 16l215 -36v-142h-783z" />
    <glyph glyph-name="uni04D7" unicode="&#x4d7;" horiz-adv-x="1053" 
d="M625 -29q-202 0 -328.5 68t-185.5 187.5t-59 275.5q0 155 54.5 274.5t164.5 187t278 67.5q143 0 243.5 -48.5t154 -148t53.5 -255.5q0 -41 -2.5 -73t-7.5 -63l-316 110q2 12 3 25.5t1 24.5q0 84 -35 132.5t-90 48.5q-41 0 -73.5 -25.5t-52 -75t-19.5 -123.5v-63
q0 -72 27.5 -121.5t85.5 -75.5t151 -26q36 0 88.5 7.5t108.5 22.5t103 38l12 -309q-39 -17 -92 -31t-120 -22.5t-147 -8.5zM194 443v162l581 16l215 -36v-142h-796zM548 1093q-216 0 -317 97.5t-103 288.5l292 11q0 -79 25 -132t103 -53q54 0 82 23.5t38 63t10 87.5h292
q-1 -191 -101 -288.5t-321 -97.5z" />
    <glyph glyph-name="uni04D9" unicode="&#x4d9;" horiz-adv-x="1053" 
d="M503 -29q-142 0 -242.5 48t-154 148t-53.5 255q0 42 2.5 74t6.5 62l317 -109q-1 -13 -2.5 -26t-1.5 -25q0 -83 35 -132t90 -49q40 0 73 25.5t52.5 75t19.5 123.5v64q0 72 -27.5 121.5t-86 75t-150.5 25.5q-36 0 -88.5 -7.5t-108.5 -22.5t-104 -38l-12 310
q40 16 93.5 30.5t120 23t146.5 8.5q202 0 328 -68t185 -188t59 -276q0 -155 -53.5 -274.5t-164 -186.5t-279.5 -67zM277 380l-215 36v142h797v-161z" />
    <glyph glyph-name="uni04DB" unicode="&#x4db;" horiz-adv-x="1053" 
d="M503 -29q-142 0 -242.5 48t-154 148t-53.5 255q0 42 2.5 74t6.5 62l317 -109q-1 -13 -2.5 -26t-1.5 -25q0 -83 35 -132t90 -49q40 0 73 25.5t52.5 75t19.5 123.5v64q0 72 -27.5 121.5t-86 75t-150.5 25.5q-36 0 -88.5 -7.5t-108.5 -22.5t-104 -38l-12 310
q40 16 93.5 30.5t120 23t146.5 8.5q202 0 328 -68t185 -188t59 -276q0 -155 -53.5 -274.5t-164 -186.5t-279.5 -67zM277 380l-215 36v142h797v-161zM735 1109q-87 0 -136 46t-49 139q0 81 49.5 130.5t137.5 49.5q86 0 135 -52t49 -128q0 -93 -49 -139t-137 -46zM263 1109
q-87 0 -135.5 46t-48.5 139q0 81 49 130.5t137 49.5q86 0 135 -52t49 -128q0 -93 -49 -139t-137 -46z" />
    <glyph glyph-name="uni04DD" unicode="&#x4dd;" horiz-adv-x="1758" 
d="M10 0q60 93 121 186t120 185l157 248l-17 -162l-120 180q-61 91 -122 181.5t-123 182.5l418 10q33 -64 66 -127.5t66 -127.5l72 -139h88v-242h-87l-74 -146l-58 -114t-58 -115h-449zM699 0v174.5v177.5v242v205.5v201.5h360v-201.5v-205.5v-242v-177.5v-174.5h-360z
M1299 0q-31 59 -59.5 115.5t-58.5 114.5l-74 145h-85v242h88l68 136q32 62 63 124l62 124h427q-61 -92 -121.5 -182t-121.5 -182l-120 -180l-19 162l157 -246q60 -93 121.5 -186.5t121.5 -186.5h-449zM1115 1109q-87 0 -136 46t-49 139q0 81 49.5 130.5t137.5 49.5
q86 0 135 -52t49 -128q0 -93 -49 -139t-137 -46zM643 1109q-87 0 -135.5 46t-48.5 139q0 81 49 130.5t137 49.5q86 0 135 -52t49 -128q0 -93 -49 -139t-137 -46z" />
    <glyph glyph-name="uni04DF" unicode="&#x4df;" horiz-adv-x="983" 
d="M440 -23q-70 0 -128.5 4.5t-105.5 13t-84 18.5t-65 21l17 291q34 -16 83.5 -31t110 -24.5t126.5 -9.5q58 0 93.5 8.5t52 26t16.5 42.5q0 21 -14.5 38t-41.5 26t-66 9h-105h-91v185h84h95q55 0 87 18.5t32 54.5q0 21 -13.5 37.5t-43 25t-77.5 8.5q-47 0 -95 -5t-101 -18
t-113 -38l-27 291q44 17 110.5 30t146 21t156.5 8q156 0 251.5 -33t138.5 -92t43 -135q0 -93 -47 -144.5t-111 -73.5v-28q46 -14 86.5 -40.5t66 -73.5t25.5 -121q0 -89 -44.5 -159.5t-151.5 -110.5t-296 -40zM721 1109q-87 0 -136 46t-49 139q0 81 49.5 130.5t137.5 49.5
q86 0 135 -52t49 -128q0 -93 -49 -139t-137 -46zM249 1109q-87 0 -135.5 46t-48.5 139q0 81 49 130.5t137 49.5q86 0 135 -52t49 -128q0 -93 -49 -139t-137 -46z" />
    <glyph glyph-name="uni04E1" unicode="&#x4e1;" horiz-adv-x="985" 
d="M381 -411q-75 0 -139.5 7.5t-118 20t-97.5 26.5l24 316q54 -23 106 -37t100 -19.5t86 -5.5q84 0 132.5 21t68.5 57.5t20 81.5q0 53 -26 84t-73 44.5t-110 13.5h-69h-69v234q28 31 56 63t55 63l202 225l47 -63h-180h-103.5h-126h-124.5v280h881v-237q-61 -67 -121 -134
t-121 -134l-138 -153l-100 55h65q115 0 212.5 -43t157.5 -128t60 -211q0 -122 -57.5 -218t-180.5 -152.5t-319 -56.5z" />
    <glyph glyph-name="uni04E3" unicode="&#x4e3;" horiz-adv-x="1176" 
d="M92 0v205v224v100v185v148.5v138.5l357 10v-125.5v-135v-167.5v-94h21l115 223q37 72 74 145t74 144h351v-138.5v-148.5v-185v-100v-224v-205h-357v198.5v217.5v95h-21l-112 -219q-37 -73 -74.5 -146.5t-74.5 -145.5h-353zM231 1158v271h169.5h187.5h187.5h169.5v-271
h-169.5h-187.5h-187.5h-169.5z" />
    <glyph glyph-name="uni04E5" unicode="&#x4e5;" horiz-adv-x="1176" 
d="M92 0v205v224v100v185v148.5v138.5l357 10v-125.5v-135v-167.5v-94h21l115 223q37 72 74 145t74 144h351v-138.5v-148.5v-185v-100v-224v-205h-357v198.5v217.5v95h-21l-112 -219q-37 -73 -74.5 -146.5t-74.5 -145.5h-353zM824 1109q-87 0 -136 46t-49 139
q0 81 49.5 130.5t137.5 49.5q86 0 135 -52t49 -128q0 -93 -49 -139t-137 -46zM352 1109q-87 0 -135.5 46t-48.5 139q0 81 49 130.5t137 49.5q86 0 135 -52t49 -128q0 -93 -49 -139t-137 -46z" />
    <glyph glyph-name="uni04E7" unicode="&#x4e7;" horiz-adv-x="1196" 
d="M603 -29q-144 0 -248 43t-171.5 117.5t-99.5 170t-32 200.5q0 150 60 269.5t180.5 189.5t302.5 70q140 0 243 -40.5t171 -113t101 -168.5t33 -207q0 -152 -61.5 -272t-182 -189.5t-296.5 -69.5zM602 271q54 0 90 32.5t53.5 85t17.5 113.5q0 74 -21 125t-57.5 77t-84.5 26
q-54 0 -91.5 -30t-57 -81.5t-19.5 -116.5q0 -61 19.5 -113.5t57.5 -85t93 -32.5zM834 1109q-87 0 -136 46t-49 139q0 81 49.5 130.5t137.5 49.5q86 0 135 -52t49 -128q0 -93 -49 -139t-137 -46zM362 1109q-87 0 -135.5 46t-48.5 139q0 81 49 130.5t137 49.5q86 0 135 -52
t49 -128q0 -93 -49 -139t-137 -46z" />
    <glyph glyph-name="uni04E9" unicode="&#x4e9;" horiz-adv-x="1196" 
d="M603 -29q-144 0 -248 43t-171.5 117.5t-99.5 170t-32 200.5q0 150 60.5 269.5t181 189.5t301.5 70q140 0 243 -40.5t171 -112.5t101 -168.5t33 -207.5q0 -152 -61.5 -272t-182 -189.5t-296.5 -69.5zM602 237q65 0 105 31t58.5 81.5t18.5 108.5v96q0 60 -23 108t-63.5 76
t-96.5 28q-63 0 -105.5 -28.5t-63 -77t-20.5 -106.5v-96q0 -58 21 -108.5t63 -81.5t106 -31zM194 405v196h812v-196h-812z" />
    <glyph glyph-name="uni04EB" unicode="&#x4eb;" horiz-adv-x="1196" 
d="M603 -29q-144 0 -248 43t-171.5 117.5t-99.5 170t-32 200.5q0 150 60.5 269.5t181 189.5t301.5 70q140 0 243 -40.5t171 -112.5t101 -168.5t33 -207.5q0 -152 -61.5 -272t-182 -189.5t-296.5 -69.5zM602 237q65 0 105 31t58.5 81.5t18.5 108.5v96q0 60 -23 108t-63.5 76
t-96.5 28q-63 0 -105.5 -28.5t-63 -77t-20.5 -106.5v-96q0 -58 21 -108.5t63 -81.5t106 -31zM194 405v196h812v-196h-812zM834 1109q-87 0 -136 46t-49 139q0 81 49.5 130.5t137.5 49.5q86 0 135 -52t49 -128q0 -93 -49 -139t-137 -46zM362 1109q-87 0 -135.5 46t-48.5 139
q0 81 49 130.5t137 49.5q86 0 135 -52t49 -128q0 -93 -49 -139t-137 -46z" />
    <glyph glyph-name="uni04ED" unicode="&#x4ed;" horiz-adv-x="985" 
d="M380 -23q-69 0 -128 6t-107 16.5t-85 24.5l16 294q34 -20 71 -32t77 -18t82 -6q76 0 137 19t97.5 62t36.5 114v95q0 62 -27.5 102.5t-76.5 60t-118 19.5q-29 0 -70 -4t-91.5 -17t-110.5 -37l-26 287q43 21 97 35.5t113.5 22t116.5 7.5q179 0 301.5 -67.5t185 -186.5
t62.5 -276q0 -156 -62 -273.5t-185 -182.5t-306 -65zM193 410v185h128.5h158.5h146v-185h-146h-107.5h-92h-87.5zM708 1109q-87 0 -136 46t-49 139q0 81 49.5 130.5t137.5 49.5q86 0 135 -52t49 -128q0 -93 -49 -139t-137 -46zM236 1109q-87 0 -135.5 46t-48.5 139
q0 81 49 130.5t137 49.5q86 0 135 -52t49 -128q0 -93 -49 -139t-137 -46z" />
    <glyph glyph-name="uni04EF" unicode="&#x4ef;" horiz-adv-x="1133" 
d="M204 -395q41 105 84 214.5t85 213.5v-64q-35 102 -71.5 207t-70.5 205l-63 181q-36 107 -75 219.5t-76 219.5l403 11q20 -98 39.5 -191t39.5 -191l49 -242h28l55 241q22 95 42.5 186.5t41.5 185.5h401q-31 -80 -59.5 -155.5t-63 -165.5t-81.5 -216l-108 -281
q-72 -190 -123 -324.5t-93 -242.5zM209 1158v271h169.5h187.5h187.5h169.5v-271h-169.5h-187.5h-187.5h-169.5z" />
    <glyph glyph-name="uni04F1" unicode="&#x4f1;" horiz-adv-x="1133" 
d="M204 -395q41 105 84 214.5t85 213.5v-64q-35 102 -71.5 207t-70.5 205l-63 181q-36 107 -75 219.5t-76 219.5l403 11q20 -98 39.5 -191t39.5 -191l49 -242h28l55 241q22 95 42.5 186.5t41.5 185.5h401q-31 -80 -59.5 -155.5t-63 -165.5t-81.5 -216l-108 -281
q-72 -190 -123 -324.5t-93 -242.5zM802 1109q-87 0 -136 46t-49 139q0 81 49.5 130.5t137.5 49.5q86 0 135 -52t49 -128q0 -93 -49 -139t-137 -46zM330 1109q-87 0 -135.5 46t-48.5 139q0 81 49 130.5t137 49.5q86 0 135 -52t49 -128q0 -93 -49 -139t-137 -46z" />
    <glyph glyph-name="uni04F3" unicode="&#x4f3;" horiz-adv-x="1133" 
d="M204 -395q41 105 84 214.5t85 213.5v-64q-35 102 -71.5 207t-70.5 205l-63 181q-36 107 -75 219.5t-76 219.5l403 11q20 -98 39.5 -191t39.5 -191l49 -242h28l55 241q22 95 42.5 186.5t41.5 185.5h401q-31 -80 -59.5 -155.5t-63 -165.5t-81.5 -216l-108 -281
q-72 -190 -123 -324.5t-93 -242.5zM615 1118q57 108 113 214t112 213l358 8q-57 -75 -112.5 -148t-109.5 -144t-106 -139zM179 1118q44 108 87.5 214t87.5 213l342 8q-48 -75 -94.5 -148t-92 -144t-88.5 -139z" />
    <glyph glyph-name="uni04F5" unicode="&#x4f5;" horiz-adv-x="1131" 
d="M671 0v159.5v169.5q-38 -16 -76.5 -26.5t-79.5 -15.5t-87 -5q-105 0 -185.5 36t-126.5 107.5t-46 180.5v155v123v117l369 11v-149v-182q0 -72 26.5 -101t88.5 -29q19 0 39.5 3t41 9.5t36.5 17.5v49v145.5v115v110.5h368v-138.5v-148.5v-185v-100v-224v-205h-368z
M793 1109q-87 0 -136 46t-49 139q0 81 49.5 130.5t137.5 49.5q86 0 135 -52t49 -128q0 -93 -49 -139t-137 -46zM321 1109q-87 0 -135.5 46t-48.5 139q0 81 49 130.5t137 49.5q86 0 135 -52t49 -128q0 -93 -49 -139t-137 -46z" />
    <glyph glyph-name="uni04F7" unicode="&#x4f7;" horiz-adv-x="887" 
d="M293 -264l-14 306l52 -42h-142v285h212h211v-142v-142v-132.5v-132.5h-319zM92 0v205v224v100v185v148.5v138.5h762v-290h-174h-172h-261l218 231v-122v-128.5v-162.5v-100v-224v-205h-373z" />
    <glyph glyph-name="uni04F9" unicode="&#x4f9;" horiz-adv-x="1628" 
d="M92 0v205v224v100v185v148.5v138.5l368 11v-184.5v-191.5v-201v-193h85q40 0 72 10.5t50.5 39t18.5 79.5q0 36 -9 60.5t-25.5 39.5t-39 21t-49.5 6h-149l-87 242h133h148q142 0 242.5 -33.5t153.5 -112.5t53 -216q0 -114 -41.5 -199t-130 -132t-230.5 -47h-314.5h-248.5z
M1163 0v205v224v100v185v148.5v138.5l373 10v-141v-152v-189v-100v-224v-205h-373zM1049 1109q-87 0 -136 46t-49 139q0 81 49.5 130.5t137.5 49.5q86 0 135 -52t49 -128q0 -93 -49 -139t-137 -46zM577 1109q-87 0 -135.5 46t-48.5 139q0 81 49 130.5t137 49.5q86 0 135 -52
t49 -128q0 -93 -49 -139t-137 -46z" />
    <glyph glyph-name="uni04FB" unicode="&#x4fb;" horiz-adv-x="913" 
d="M157 -341q49 65 80 140.5t45.5 157t14.5 165.5l60 -122h-239v205v224v100v185v148.5v138.5h762v-290h-174h-172h-261l218 231v-122v-128.5v-162.5v-100v-222v-189l-276 183h212h211v-57v-56q0 -68 -8 -129.5t-25 -114.5t-44 -97t-65 -77zM12 350v224h165.5h150.5h106h151
h165v-224h-165h-151h-106h-150.5h-165.5z" />
    <glyph glyph-name="uni04FD" unicode="&#x4fd;" horiz-adv-x="1165" 
d="M650 -340q28 40 48.5 81.5t31.5 85t11 89.5q0 47 -13 94t-33 91.5t-41 81.5l-73 140h-23l-49 -133q-19 -52 -35 -94t-36 -96h-408q36 71 63.5 123t52 99t52.5 100l123 236l1 -76l-126 217q-29 50 -55 95t-54.5 94.5t-64.5 112.5l414 11q23 -55 43 -103.5t41 -101.5
l54 -129h26l51 127q20 53 38 98t38 98h420q-40 -66 -69.5 -113.5t-55.5 -90.5t-58 -95l-133 -218l-20 75l148 -241q80 -130 121 -215.5t41 -173.5q0 -51 -11.5 -97t-33.5 -86.5t-53 -75.5z" />
    <glyph glyph-name="uni04FF" unicode="&#x4ff;" horiz-adv-x="1174" 
d="M30 0q36 71 63.5 123t52 99t52.5 100l123 236l1 -76l-126 217q-29 50 -55 95t-54.5 94.5t-64.5 112.5l414 11q23 -55 43 -103.5t41 -101.5l54 -129h26l51 127q20 53 38 98t38 98h420q-40 -66 -69.5 -113.5t-55.5 -90.5t-58 -95l-133 -218l-20 75l148 -241
q46 -75 89.5 -145.5t106.5 -172.5h-444q-20 50 -36.5 91.5t-37.5 91.5l-56 140h-23l-49 -133q-19 -52 -35 -94t-36 -96h-408zM79 394v224h220.5h201.5h142h202h220v-224h-220h-202h-142h-201.5h-220.5z" />
    <glyph glyph-name="uni048D" unicode="&#x48d;" horiz-adv-x="1200" 
d="M176 0v205v224v482v217v198l369 63v-153.5v-151.5v-173v-342v-179.5v-172.5h110q40 0 69.5 10t45.5 35.5t16 72.5q0 33 -9 55t-24.5 35t-37.5 18.5t-49 5.5h-153l-87 198h91.5h115h105.5q211 0 315 -68.5t104 -246.5q0 -100 -38.5 -175t-123.5 -116t-227 -41h-329h-263z
M31 775v226h355v-226h-87h-134h-134zM434 775v226h502v-226h-222h-218h-62z" />
    <glyph glyph-name="uni048F" unicode="&#x48f;" horiz-adv-x="1182" 
d="M92 -395v210.5v229.5v484v233.5v238.5l329 18l12 -141h28q30 51 70.5 85t91.5 51t113 17q130 0 217 -70.5t130 -190.5t43 -269q0 -139 -41.5 -260t-127 -195.5t-219.5 -74.5q-57 0 -103 15.5t-83 44t-67 68.5h-20v-75v-205.5v-202.5zM962 -182q-50 64 -95.5 121
t-83.5 105l-71 152q-40 50 -84 106t-95 119l115 95q50 -64 94.5 -120t83.5 -106l104 -133q39 -49 83.5 -105t94.5 -119zM597 268q56 0 93 31.5t55.5 83.5t18.5 115q0 58 -18.5 106.5t-56 78t-92.5 29.5q-26 0 -51 -7.5t-45 -21t-36 -32.5v-300q13 -24 31.5 -42.5t43.5 -29.5
t57 -11z" />
    <glyph glyph-name="glyph297" horiz-adv-x="581" 
d="M83 1109q-82 0 -127.5 46t-45.5 139q0 81 46 130.5t129 49.5q82 0 127.5 -52t45.5 -128q0 -62 -21 -103t-60 -61.5t-94 -20.5zM580 1109q-81 0 -127 46t-46 139q0 81 46.5 130.5t128.5 49.5t127.5 -52t45.5 -128q0 -62 -21 -103t-60 -61.5t-94 -20.5zM104 0v205v224v100
v185v148.5v138.5l373 10v-141v-152v-189v-100v-224v-205h-373z" />
    <glyph glyph-name="glyph298" horiz-adv-x="581" 
d="M498 1109q-82 0 -127.5 46t-45.5 139q0 81 46 130.5t129 49.5q81 0 126.5 -52t45.5 -128q0 -62 -20.5 -103t-59.5 -61.5t-94 -20.5zM104 0v205v224v100v185v148.5v138.5l373 10v-141v-152v-189v-100v-224v-205h-373z" />
    <glyph glyph-name="uni0432.locl" horiz-adv-x="1183" 
d="M621 -29q-168 0 -289.5 49.5t-187.5 165t-66 312.5v455q0 197 66.5 316.5t185 173t276.5 53.5q156 0 262 -47t159 -133t53 -204q0 -86 -30 -149.5t-78 -103.5t-103 -59v-28q55 -11 102.5 -37t83.5 -67.5t56.5 -102t20.5 -141.5q0 -133 -56 -235.5t-169.5 -160
t-285.5 -57.5zM610 263q46 0 77 20.5t47.5 59t16.5 92.5q0 64 -19.5 108.5t-61.5 69t-109 24.5h-183v244h170q102 0 143 55t41 123q0 46 -15 80.5t-45.5 54t-75.5 19.5q-79 0 -112.5 -64t-33.5 -169v-511q0 -64 16.5 -110t52 -71t91.5 -25z" />
    <glyph glyph-name="uni0433.locl" horiz-adv-x="951" 
d="M510 -29q-158 0 -259.5 30.5t-150 93.5t-48.5 158q0 79 32.5 138t103 105.5t185.5 84.5q80 28 109.5 47t29.5 53q0 24 -13.5 38.5t-36 20.5t-49.5 6q-34 0 -84.5 -9t-107 -28.5t-106.5 -51.5l-17 304q43 16 104.5 32t137 26t158.5 10q125 0 214 -33t136 -99t47 -165
q0 -76 -29 -133t-91 -100t-159 -75q-67 -22 -107.5 -39t-58.5 -33.5t-18 -38.5q0 -26 15.5 -40t43 -19.5t61.5 -5.5q46 0 101.5 12t110.5 34.5t99 50.5l12 -310q-41 -18 -96 -32.5t-122.5 -23t-146.5 -8.5z" />
    <glyph glyph-name="uni0434.locl" horiz-adv-x="1182" 
d="M547 -411q-70 0 -143.5 7t-138.5 20t-107 28l21 293q48 -25 107 -40.5t117.5 -23t105.5 -7.5q82 0 129 23.5t66.5 72t19.5 124.5v62h-20q-30 -47 -67.5 -75.5t-84 -40.5t-104.5 -12q-101 0 -174.5 42.5t-122 115t-72 163.5t-23.5 186q0 136 43 250.5t130 184t217 69.5
q62 0 113 -17t91 -50.5t70 -85.5h29l11 123l329 18v-247v-243v-421q0 -153 -48.5 -270t-166.5 -183t-327 -66zM592 315q30 0 54 10t41.5 28t28.5 40v261q-14 18 -33.5 31t-42.5 20t-47 7q-52 0 -86.5 -27t-52 -72.5t-17.5 -98.5q0 -51 17.5 -96.5t52 -74t85.5 -28.5z" />
    <glyph glyph-name="uni0436.locl" horiz-adv-x="1758" 
d="M699 0v174.5v177.5v634v240.5v240.5l360 29v-242.5v-267.5v-634v-177.5v-174.5h-360zM10 0q60 93 121 186t120 185l157 248l-17 -162l-120 180q-61 91 -122 181.5t-123 182.5l418 10q33 -64 66 -127.5t66 -127.5l72 -139h88v-242h-87l-74 -146l-58 -114t-58 -115h-449z
M1299 0q-31 59 -59.5 115.5t-58.5 114.5l-74 145h-85v242h88l68 136q32 62 63 124l62 124h427q-61 -92 -121.5 -182t-121.5 -182l-120 -180l-19 162l157 -246q60 -93 121.5 -186.5t121.5 -186.5h-449z" />
    <glyph glyph-name="uni0437.locl" horiz-adv-x="983" 
d="M381 -411q-75 0 -139.5 7.5t-118 20t-97.5 26.5l24 316q54 -23 106 -37t100 -19.5t87 -5.5q82 0 130 21t68 57t20 80q0 52 -26 82t-72.5 43t-108.5 13h-64.5h-65.5v252h58h59q89 0 144 38t55 114q0 44 -20 71.5t-57.5 41.5t-88.5 14q-65 0 -137 -21t-152 -59l-16 311
q48 18 108 35.5t132.5 29t154.5 11.5q148 0 248 -40.5t151.5 -116t51.5 -182.5q0 -92 -34 -158t-87 -106.5t-110 -58.5v-29q45 -10 89 -32.5t81.5 -60.5t60 -95t22.5 -136q0 -122 -58 -218.5t-180.5 -152.5t-317.5 -56z" />
    <glyph glyph-name="uni0438.locl" horiz-adv-x="1156" 
d="M385 -29q-145 0 -224.5 88t-79.5 264v117.5v104.5v181v140.5v134.5l373 11v-207.5v-210.5v-153q0 -69 21.5 -104.5t76.5 -35.5q29 0 54 12t46 32.5t39 45.5v203v205v202h373v-208v-248v-116v-224v-205h-311l-17 150h-30q-35 -51 -81.5 -91.5t-106 -64t-133.5 -23.5z" />
    <glyph glyph-name="uni0439.locl" horiz-adv-x="1156" 
d="M385 -29q-145 0 -224.5 88t-79.5 264v117.5v104.5v181v140.5v134.5l373 11v-207.5v-210.5v-153q0 -69 21.5 -104.5t76.5 -35.5q29 0 54 12t46 32.5t39 45.5v203v205v202h373v-208v-248v-116v-224v-205h-311l-17 150h-30q-35 -51 -81.5 -91.5t-106 -64t-133.5 -23.5z
M572 1093q-216 0 -317 97.5t-103 288.5l292 11q0 -79 25 -132t103 -53q54 0 82 23.5t38 63t10 87.5h292q-1 -191 -101 -288.5t-321 -97.5z" />
    <glyph glyph-name="uni045D.locl" horiz-adv-x="1156" 
d="M385 -29q-145 0 -224.5 88t-79.5 264v117.5v104.5v181v140.5v134.5l373 11v-207.5v-210.5v-153q0 -69 21.5 -104.5t76.5 -35.5q29 0 54 12t46 32.5t39 45.5v203v205v202h373v-208v-248v-116v-224v-205h-311l-17 150h-30q-35 -51 -81.5 -91.5t-106 -64t-133.5 -23.5z
M524 1118q-55 68 -111.5 138t-114.5 142.5t-119 146.5l379 8q58 -108 117.5 -215.5t118.5 -215.5z" />
    <glyph glyph-name="uni043A.locl" horiz-adv-x="1182" 
d="M722 0q-31 58 -63 115.5t-63 113.5l-80 146h-78v242h80l74 136l68 124t67 124h428q-65 -92 -128 -182.5t-127 -181.5l-125 -180l-18 162l162 -247q64 -93 127.5 -186.5t125.5 -185.5h-450zM94 0v205v224v557v240.5v240.5l373 29v-242.5v-267.5v-634v-177.5v-174.5h-373z
" />
    <glyph glyph-name="uni043B.locl" horiz-adv-x="1132" 
d="M18 0q39 111 78 223t77 222l63 180q33 94 65.5 187.5t65.5 188.5h396q33 -94 66.5 -190t66.5 -190l62 -176q39 -110 78 -221.5t78 -223.5h-406q-20 90 -39.5 180t-39.5 182l-52 238h-29l-52 -236q-21 -95 -41.5 -186.5t-39.5 -177.5h-397z" />
    <glyph glyph-name="uni043F.locl" horiz-adv-x="1158" 
d="M92 0v205v224v100v233.5v238.5l311 17l16 -167h30q35 51 81.5 91.5t106.5 64.5t135 24q146 0 225 -87.5t79 -265.5v-126.5v-122.5v-223.5v-205.5h-373v203v205v144q0 70 -21 105.5t-76 35.5q-30 0 -55.5 -12t-47 -33t-38.5 -46v-194v-205.5v-202.5h-373z" />
    <glyph glyph-name="uni0442.locl" horiz-adv-x="1741" 
d="M92 0v205v224v100v233.5v238.5l311 17l16 -167h30q35 51 80.5 91.5t103.5 64.5t131 24q111 0 173.5 -56.5t85.5 -161.5l26 -1q7 -30 10.5 -63.5t3.5 -70.5v-126.5v-122.5v-223.5v-205.5h-373v203v205v144q0 70 -20.5 105.5t-71.5 35.5q-28 0 -52 -12.5t-44.5 -33
t-36.5 -45.5v-194v-205.5v-202.5h-373zM1286 0v203v205v144q0 70 -20 105.5t-71 35.5q-28 0 -52.5 -12t-45.5 -33t-37 -46l-56 248h30q37 52 84.5 92.5t108 64.5t135.5 24q144 0 221 -88t77 -265v-126.5v-122.5v-223.5v-205.5h-374z" />
    <glyph glyph-name="uni0444.locl" horiz-adv-x="1617" 
d="M627 -395v175v191q-205 0 -333.5 74.5t-188 195.5t-59.5 261q0 150 62.5 269.5t191 189.5t327.5 70v217v219l362 29v-222v-243q199 0 328 -70t191.5 -189.5t62.5 -269.5q0 -140 -59.5 -261t-187.5 -195.5t-335 -74.5v-179.5v-175.5zM630 250v501q-74 0 -121.5 -32
t-71 -88t-23.5 -129q0 -67 23.5 -124.5t71 -92.5t121.5 -35zM987 250q74 0 121.5 35t70.5 92.5t23 124.5q0 73 -23 129t-70.5 88t-121.5 32v-501z" />
    <glyph glyph-name="uni0446.locl" horiz-adv-x="1233" 
d="M892 -264l-15 306l53 -42h-143v285h212.5h211.5v-142v-142v-132.5v-132.5h-319zM385 -29q-145 0 -224.5 88t-79.5 264v117.5v104.5v181v140.5v134.5l374 11v-207.5v-210.5v-153q0 -69 21 -104.5t76 -35.5q29 0 54 12t46.5 32.5t38.5 45.5v203v205v202h373v-208v-248v-116
v-224v-205h-311l-16 150h-30q-35 -51 -81.5 -91.5t-106 -64t-134.5 -23.5z" />
    <glyph glyph-name="uni0448.locl" horiz-adv-x="1709" 
d="M963 -29q-98 0 -162.5 53t-85.5 163l-27 1q-15 60 -15 135v117.5v104.5v181v140.5v134.5h352v-208v-248v-104q0 -69 20 -104.5t72 -35.5q26 0 49 12t42.5 32.5t35.5 46.5v202v205v202h373v-208v-248v-116v-224v-205h-310l-17 150h-30q-34 -52 -79.5 -92.5t-99.5 -63.5
t-118 -23zM384 -29q-145 0 -224 88t-79 264v117.5v104.5v181v140.5v134.5l374 11v-207.5v-210.5v-153q0 -69 19.5 -104.5t71.5 -35.5q27 0 51 12t45 34.5t39 51.5l46 -249h-30q-35 -51 -80.5 -91.5t-102.5 -64t-130 -23.5z" />
    <glyph glyph-name="uni0449.locl" horiz-adv-x="1786" 
d="M1445 -264l-15 306l53 -42h-143v285h212.5h211.5v-142v-142v-132.5v-132.5h-319zM963 -29q-98 0 -162.5 53t-85.5 163l-27 1q-15 60 -15 135v117.5v104.5v181v140.5v134.5h352v-208v-248v-104q0 -69 20 -104.5t72 -35.5q26 0 49 12t42.5 32.5t35.5 46.5v202v205v202h373
v-208v-248v-116v-224v-205h-310l-17 150h-30q-34 -52 -79.5 -92.5t-99.5 -63.5t-118 -23zM384 -29q-145 0 -224 88t-79 264v117.5v104.5v181v140.5v134.5l374 11v-207.5v-210.5v-153q0 -69 19.5 -104.5t71.5 -35.5q27 0 51 12t45 34.5t39 51.5l46 -249h-30
q-35 -51 -80.5 -91.5t-102.5 -64t-130 -23.5z" />
    <glyph glyph-name="uni044C.locl" horiz-adv-x="1155" 
d="M604 -29q-161 0 -278 47.5t-181 154t-64 279.5v77v185v148.5v138.5l368 11v-171.5v-212.5v-167q0 -57 14 -106.5t45.5 -79.5t85.5 -30q43 0 73 20t45 52.5t15 71.5t-15 71t-44.5 51t-72.5 19q-34 0 -76 -22.5t-92 -87.5q-22 66 -16.5 135t28.5 131h38q47 59 113.5 93
t156.5 34q114 0 195 -53t124 -144t43 -207q0 -130 -52.5 -228.5t-164 -154t-288.5 -55.5z" />
    <glyph glyph-name="uni044A.locl" horiz-adv-x="1371" 
d="M820 -29q-161 0 -278 47.5t-181 154t-64 279.5v77v174.5v140.5v130l198 -263h-131h-165h-168v290h634v-179.5v-187.5v-173q0 -57 14 -106.5t45.5 -79.5t85.5 -30q43 0 73 20t45.5 52.5t15.5 71.5t-15.5 71t-45 51t-72.5 19q-34 0 -76 -22.5t-92 -87.5q-22 66 -16.5 135
t28.5 131h38q47 59 113.5 93t156.5 34q114 0 195 -53t124 -144t43 -207q0 -130 -52.5 -228.5t-164 -154t-288.5 -55.5z" />
    <glyph glyph-name="uni044E.locl" horiz-adv-x="1714" 
d="M1122 -29q-139 0 -240.5 43t-166.5 117.5t-96.5 170t-31.5 200.5q0 150 58.5 269.5t176 189.5t292.5 70q140 0 243 -40.5t170.5 -113t100.5 -168.5t33 -207q0 -152 -61.5 -272t-182 -189.5t-295.5 -69.5zM94 0v205v224v557v240.5v240.5l373 29v-243v-267v-557v-224v-205
h-373zM322 358v285h437v-285h-437zM1121 271q54 0 89.5 32.5t53 85t17.5 113.5q0 74 -21 125t-57.5 77t-83.5 26q-54 0 -89.5 -30t-53 -81.5t-17.5 -116.5q0 -61 17.5 -113.5t53.5 -85t91 -32.5z" />
    <glyph glyph-name="uni0493.locl" horiz-adv-x="887" 
d="M92 0v205v224v100v185v148.5v138.5h762v-290h-174h-172h-261l218 231v-122v-128.5v-162.5v-100v-224v-205h-373zM290 350v224h107h171h188v-224h-188h-171h-107z" />
    <glyph glyph-name="uni0499.locl" horiz-adv-x="983" 
d="M452 -446q-30 0 -57 2.5t-49.5 7t-37.5 9.5v215q12 -3 32.5 -8t47.5 -5q46 0 70.5 18t24.5 52q0 31 -20 60.5t-55.5 56t-83.5 46.5l70 66l187 -23v-72q46 -22 84.5 -55t61.5 -77.5t23 -100.5q0 -82 -68.5 -137t-229.5 -55zM440 -23q-70 0 -128.5 5t-106 13t-84.5 18
t-64 21l16 286q34 -16 84 -31t110.5 -24.5t126.5 -9.5q57 0 92.5 9.5t52 29t16.5 46.5q0 23 -14 41t-41 28t-66 10h-104.5h-89.5v167h83h94q54 0 86.5 20.5t32.5 57.5q0 24 -13.5 42t-43 27t-78.5 9q-46 0 -94.5 -4.5t-101 -17.5t-113.5 -38l-26 287q43 17 110 30t146.5 21
t156.5 8q156 0 251 -33t138 -92t43 -135q0 -93 -46.5 -144.5t-110.5 -73.5v-28q46 -14 86.5 -40.5t65.5 -73.5t25 -121q0 -89 -44.5 -159.5t-151.5 -110.5t-295 -40z" />
    <glyph glyph-name="uni04AB.locl" horiz-adv-x="958" 
d="M521 -446q-30 0 -57 2.5t-49 7t-37 9.5v215q11 -3 31.5 -8t47.5 -5q46 0 70.5 18t24.5 52q0 31 -20 60.5t-55.5 56t-83.5 46.5l70 66l187 -23v-72q46 -22 84.5 -55t61.5 -77.5t23 -100.5q0 -82 -68.5 -137t-229.5 -55zM597 -23q-175 0 -296.5 67t-185 184t-63.5 270
t57.5 273t174 189t293.5 69q60 0 120 -8.5t113.5 -24t94.5 -37.5l-26 -317q-58 33 -104 48.5t-82 21t-62 5.5q-90 0 -144.5 -56t-54.5 -152q0 -69 30 -120.5t87 -80.5t137 -29q35 0 69 6.5t67 20t64 33.5l15 -317q-36 -14 -80 -24t-99.5 -15.5t-124.5 -5.5z" />
    <glyph glyph-name="uni04AB.locl" horiz-adv-x="958" 
d="M597 -23q-175 0 -296.5 67t-185 184t-63.5 270t57.5 273t174 189t293.5 69q60 0 120 -8.5t113.5 -24t94.5 -37.5l-26 -317q-58 33 -104 48.5t-82 21t-62 5.5q-90 0 -144.5 -56t-54.5 -152q0 -69 30 -120.5t87 -80.5t137 -29q35 0 69 6.5t67 20t64 33.5l15 -317
q-36 -14 -80 -24t-99.5 -15.5t-124.5 -5.5zM495 -449q-29 0 -56.5 2t-50.5 6.5t-38 10.5v198q12 -3 35 -7t50 -4q48 0 72 14.5t24 43.5q0 18 -11 32.5t-36 27.5t-69 25l69 163h189v-63l-38 -89q65 -14 105 -38.5t57 -59t17 -79.5q0 -52 -30 -93.5t-100 -65.5t-189 -24z" />
    <glyph glyph-name="uni0431.locl" horiz-adv-x="1201" 
d="M601 -29q-126 0 -227.5 35.5t-173 99.5t-110 150.5t-38.5 186.5q0 103 30.5 179.5t81.5 131.5t114.5 96t129.5 73l210 -201q-65 -37 -105.5 -80t-59.5 -88.5t-19 -92.5q0 -39 11.5 -74t33.5 -61.5t53 -42t70 -15.5q49 0 86 24.5t57.5 67.5t20.5 97q0 53 -21 97
t-65.5 81.5t-114.5 68.5l-188 156q-86 41 -140 86.5t-80 98t-26 117.5q0 134 87 209.5t284 84.5l186 8q91 4 155.5 7.5t114.5 7.5t98 9l24 -317q-43 -3 -89 -5t-101 -4t-122.5 -3t-152.5 -2q-79 -1 -106 -13.5t-27 -38.5q0 -23 30 -41t105 -48l99 -39q148 -56 243.5 -124.5
t142 -157t46.5 -208.5q0 -156 -67 -272t-189.5 -180t-290.5 -64z" />
    <glyph glyph-name="zero" unicode="0" horiz-adv-x="1343" 
d="M677 -28q-165 0 -280.5 55.5t-186.5 154t-104 228.5t-33 278q0 210 61.5 372.5t192.5 255t341 92.5q160 0 273.5 -53t186.5 -149.5t107.5 -228t34.5 -287.5q0 -215 -63.5 -376.5t-195 -251.5t-334.5 -90zM673 289q74 0 118 51.5t63 142t19 207.5q0 121 -20.5 211
t-65 139.5t-114.5 49.5q-72 0 -116.5 -50t-65 -140t-20.5 -210q0 -118 19.5 -208.5t63.5 -141.5t119 -51z" />
    <glyph glyph-name="one" unicode="1" horiz-adv-x="933" 
d="M119 830l-88 295q143 66 286.5 131.5t286.5 131.5l-15 -340q-117 -54 -234.5 -108.5t-235.5 -109.5zM403 0v205v224v388v201.5v201.5l201 168l186 -10v-240.5v-240.5v-468v-224v-205h-387z" />
    <glyph glyph-name="two" unicode="2" horiz-adv-x="1155" 
d="M80 0v256q51 43 102 85l102 84q119 99 204.5 183.5t131.5 163.5t46 159q0 77 -44.5 116.5t-133.5 39.5q-47 0 -96 -12t-98 -32t-97 -46.5t-93 -57.5l-32 364q47 21 104 39.5t121 33.5t133 23.5t140 8.5q160 0 270.5 -50.5t167 -146t56.5 -228.5q0 -102 -39 -202.5
t-121.5 -197.5t-211.5 -192l-183 -137l-45 74h232h190h189v-328h-995z" />
    <glyph glyph-name="three" unicode="3" horiz-adv-x="1179" 
d="M563 -29q-76 0 -147.5 8t-135.5 22t-117.5 32t-95.5 38l27 347q53 -27 108 -50t109.5 -40t107 -26.5t101.5 -9.5q107 0 151 36.5t44 95.5q0 68 -53 101.5t-158 33.5h-96.5h-95.5v263h83.5h83.5q71 0 115.5 16t65.5 45t21 72q0 66 -47.5 98.5t-130.5 32.5q-46 0 -95 -10
t-98 -27.5t-97 -41t-93 -50.5l-32 351q46 19 101 37.5t118 32.5t130 22.5t136 8.5q164 0 277 -45.5t171 -127t58 -192.5q0 -86 -33 -147t-89 -97.5t-126 -50.5v-28q54 -10 104 -34.5t90 -65t63.5 -99.5t23.5 -138q0 -121 -58.5 -214t-180 -146t-310.5 -53z" />
    <glyph glyph-name="four" unicode="4" horiz-adv-x="1243" 
d="M639 0v197v217l29 50v352v200.5v201.5l258 126q-50 -71 -98 -139.5t-96 -136.5l-210 -299q-43 -60 -84.5 -119.5t-83.5 -119.5l-11 45h392l34 27h138.5h151h131.5v-328h-131.5h-151h-138.5h-727v255q38 54 85 120.5t94.5 133.5t87.5 124l160 225q44 62 87.5 123.5
t86.5 122.5h381v-243.5v-238.5v-482v-217v-197h-385z" />
    <glyph glyph-name="five" unicode="5" horiz-adv-x="1176" 
d="M555 -29q-75 0 -145 8t-133 22t-116 32t-94 38l27 347q53 -27 107.5 -50t108.5 -40t106 -26.5t100 -9.5q104 0 149.5 42.5t45.5 120.5q0 55 -24 90.5t-69.5 53t-109.5 17.5q-50 0 -103 -11t-101 -39l-164 12v239v292v269h905v-328h-234h-234h-196l103 119q-1 -69 -3 -140
t-4 -141l-1 -62h28q47 23 98 35.5t108 12.5q111 0 202 -47.5t144 -142t53 -233.5q0 -142 -59 -250t-182 -169t-313 -61z" />
    <glyph glyph-name="six" unicode="6" horiz-adv-x="1245" 
d="M655 -29q-195 0 -324 79.5t-193.5 238t-64.5 393.5q0 197 45.5 336t128.5 225t194.5 125.5t243.5 39.5q58 0 112 -5.5t104 -16t98 -24t93 -29.5l-31 -342q-41 23 -85.5 40.5t-89.5 30t-89 18.5t-85 6q-103 0 -160 -43t-80.5 -134.5t-23.5 -235.5q0 -139 24 -222.5
t67 -121t98 -37.5q53 0 88 23t53 61.5t18 86.5q0 47 -17.5 83t-52 56.5t-85.5 20.5q-23 0 -47.5 -3.5t-49.5 -12.5t-50 -25.5t-49 -42.5q-48 53 -63 86.5t0 67.5t60 86l37 -1q23 22 53 39.5t66.5 30.5t79 20.5t89.5 7.5q119 0 212 -49.5t146 -142.5t53 -223
q0 -125 -54.5 -237t-170 -182.5t-298.5 -70.5z" />
    <glyph glyph-name="seven" unicode="7" horiz-adv-x="1123" 
d="M159 0q53 121 107 242t106 240l165 371q31 68 61 136t60 135l75 -74h-246h-217.5h-219.5v328h1016v-255q-48 -111 -93.5 -217t-94.5 -217l-108 -252q-47 -109 -94 -217.5t-95 -219.5h-422z" />
    <glyph glyph-name="eight" unicode="8" horiz-adv-x="1250" 
d="M626 -29q-193 0 -316.5 54t-182.5 148t-59 216q0 107 40 177.5t102.5 110t129.5 54.5v28q-67 14 -121 51t-85.5 96t-31.5 139q0 109 61 191t178.5 127.5t284.5 45.5q166 0 283 -45.5t178 -127.5t61 -191q0 -80 -31.5 -139t-85.5 -96t-121 -51v-28q68 -15 130 -55
t102 -110.5t40 -176.5q0 -122 -59 -216t-182 -148t-315 -54zM626 285q60 0 98.5 19.5t57 52.5t18.5 74q0 46 -22 79t-62 50t-92 17t-91.5 -17t-61 -50t-21.5 -79q0 -41 18.5 -74t57.5 -52.5t100 -19.5zM626 839q71 0 111 38.5t40 98.5q0 66 -42 100.5t-109 34.5
q-68 0 -109 -34.5t-41 -100.5q0 -40 17.5 -71t51 -48.5t81.5 -17.5z" />
    <glyph glyph-name="nine" unicode="9" horiz-adv-x="1245" 
d="M560 -29q-58 0 -112 5.5t-104 16t-98 24t-92 29.5l30 342q42 -23 86 -40.5t89 -30t89.5 -18.5t84.5 -6q103 0 160 43t80.5 134.5t23.5 235.5q0 139 -24 222.5t-66.5 121t-98.5 37.5q-53 0 -88 -23t-52.5 -61.5t-17.5 -86.5q0 -47 17 -83t51.5 -56.5t85.5 -20.5
q23 0 47.5 3.5t49.5 12.5t50 25.5t49 42.5q48 -53 63 -86.5t0 -67.5t-59 -86l-38 1q-23 -21 -53 -39t-66.5 -31t-79 -20.5t-89.5 -7.5q-119 0 -212 49.5t-145.5 142.5t-52.5 223q0 125 54.5 237t169.5 182.5t298 70.5q195 0 324.5 -79.5t193.5 -238t64 -393.5
q0 -197 -45.5 -336t-128 -225t-194.5 -125.5t-244 -39.5z" />
    <glyph glyph-name="zero.dnom" horiz-adv-x="990" 
d="M499 -27q-121 0 -206 38.5t-137 105.5t-76 155t-24 188q0 142 45 253t141 174t250 63q155 0 253 -63.5t143.5 -174t45.5 -250.5q0 -145 -47 -255.5t-143.5 -172t-244.5 -61.5zM497 218q48 0 77 31t42 86t13 127q0 74 -13.5 129t-42.5 85t-76 30q-49 0 -79.5 -30.5
t-44.5 -85t-14 -128.5q0 -72 13.5 -127t44 -86t80.5 -31z" />
    <glyph glyph-name="one.dnom" horiz-adv-x="694" 
d="M89 527l-65 224q108 46 212.5 90.5t207.5 88.5l-11 -258q-77 -32 -162.5 -68.5t-181.5 -76.5zM286 0v138.5v150.5v246v136.5v134.5l158 124l137 -7v-165.5v-162.5v-306v-150.5v-138.5h-295z" />
    <glyph glyph-name="two.dnom" horiz-adv-x="855" 
d="M61 0v187l74 56t74 55q86 64 146 115.5t91.5 99t31.5 97.5q0 48 -32 72t-95 24q-43 0 -88.5 -13.5t-92.5 -36.5t-92 -51l-23 274q35 14 77 26.5t89 22.5t97.5 16t101.5 6q117 0 198 -35t123 -100.5t42 -156.5q0 -68 -28.5 -132.5t-88.5 -126t-155 -122.5l-133 -87l-34 59
h132h158h156v-249h-729z" />
    <glyph glyph-name="three.dnom" horiz-adv-x="873" 
d="M416 -27q-54 0 -106 5t-99.5 14.5t-87 21.5t-70.5 26l20 254q40 -18 79 -33.5t78 -27t76.5 -17.5t73.5 -6q73 0 103.5 23t30.5 63q0 41 -36.5 62t-111.5 21h-68h-67v174h57.5h59.5q73 0 108 21.5t35 62.5q0 39 -33.5 58t-90.5 19q-46 0 -92.5 -12t-92.5 -32t-90 -44
l-23 259q33 12 73 23.5t85.5 21t94.5 15t101 5.5q120 0 203 -31t125.5 -87t42.5 -132q0 -82 -51.5 -129.5t-127.5 -62.5v-19q52 -9 98.5 -36t76 -75t29.5 -120q0 -127 -97.5 -206t-305.5 -79z" />
    <glyph glyph-name="four.dnom" horiz-adv-x="915" 
d="M461 0v128.5v143.5l35 36v228v134.5v134.5l187 103q-37 -47 -71.5 -92.5t-71.5 -91.5l-154 -198q-30 -39 -60.5 -79.5t-61.5 -79.5l-8 17h286l25 33h157.5h150.5v-249h-150.5h-157.5h-533v188q25 32 59.5 76.5t70.5 91t66 85.5l115 150q33 41 65 82.5t64 81.5h282v-166
v-161v-324v-143.5v-128.5h-295z" />
    <glyph glyph-name="five.dnom" horiz-adv-x="871" 
d="M411 -28q-53 0 -104.5 5t-98 14t-86 21.5t-69.5 25.5l20 255q39 -19 78.5 -34.5t78.5 -27t75.5 -17.5t69.5 -6q72 0 104.5 25t32.5 75q0 35 -17 57.5t-48.5 33.5t-76.5 11q-34 0 -71.5 -8.5t-71.5 -33.5l-121 21v161v195v178h664v-236h-171.5h-170.5h-144l77 81
q-1 -46 -3 -91.5t-3 -91.5v-41h21q31 15 69.5 24.5t79.5 9.5q82 0 148 -32t105 -95t39 -156q0 -142 -98.5 -232.5t-307.5 -90.5z" />
    <glyph glyph-name="six.dnom" horiz-adv-x="929" 
d="M489 -27q-214 0 -323.5 122t-109.5 363q0 136 35 230t97.5 152t146.5 84t182 26q58 0 111 -7t100 -18t88 -23l-24 -252q-40 20 -83 33.5t-87 20.5t-85 7q-78 0 -121 -26.5t-60.5 -83.5t-17.5 -149q0 -91 17.5 -143.5t49.5 -75.5t74 -23q37 0 62 13.5t37.5 37.5t12.5 53
q0 31 -12.5 53t-37.5 34t-62 12q-33 0 -70.5 -9t-73.5 -38q-40 28 -38.5 74t37.5 80l28 -1q33 23 86.5 41t123.5 18q90 0 159 -32.5t108 -94t39 -148.5q0 -84 -39.5 -159t-125.5 -123t-224 -48z" />
    <glyph glyph-name="seven.dnom" horiz-adv-x="843" 
d="M107 0q41 83 80 162t77 159l121 248l44 90l44 90l67 -62h-181h-160.5h-160.5v249h753v-188q-34 -72 -68.5 -144.5t-67.5 -144.5l-81 -169q-34 -72 -68.5 -144.5t-69.5 -145.5h-329z" />
    <glyph glyph-name="eight.dnom" horiz-adv-x="944" 
d="M472 -27q-146 0 -238 36.5t-136 101t-44 147.5q0 69 28 116.5t73 75t96 38.5v21q-48 10 -87 35t-62 64.5t-23 93.5q0 111 102 179.5t291 68.5q127 0 215 -31t133.5 -87t45.5 -130q0 -81 -50 -129.5t-123 -63.5v-21q49 -10 94.5 -37t74 -74.5t28.5 -118.5
q0 -124 -99 -204.5t-319 -80.5zM472 201q66 0 97 27.5t31 69.5q0 44 -35 69.5t-93 25.5q-38 0 -66.5 -11.5t-44.5 -33t-16 -50.5q0 -42 31.5 -69.5t95.5 -27.5zM472 559q52 0 82 24.5t30 62.5q0 43 -31.5 65.5t-80.5 22.5q-47 0 -77.5 -22.5t-30.5 -65.5q0 -38 29 -62.5
t79 -24.5z" />
    <glyph glyph-name="nine.dnom" horiz-adv-x="929" 
d="M411 -27q-57 0 -109.5 7t-100 18t-88.5 24l23 252q41 -20 84 -34t86.5 -20.5t84.5 -6.5q79 0 122 26.5t60.5 83.5t17.5 149q0 90 -18 143t-49.5 76t-73.5 23q-37 0 -62 -14t-37.5 -37.5t-12.5 -53.5t12.5 -52t37.5 -34.5t62 -12.5q34 0 71 9.5t72 38.5q41 -27 40 -73
t-38 -81h-28q-33 -22 -86.5 -40t-123.5 -18q-90 0 -159 32t-108 93.5t-39 149.5q0 83 39.5 158.5t125.5 123t224 47.5q214 0 323.5 -121.5t109.5 -363.5q0 -135 -35 -229t-97.5 -152t-146.5 -84.5t-183 -26.5z" />
    <glyph glyph-name="zero.numr" horiz-adv-x="990" 
d="M499 476q-121 0 -206 38.5t-137 105.5t-76 155t-24 188q0 142 45 253t141 174t250 63q155 0 253 -63.5t143.5 -174t45.5 -250.5q0 -145 -47 -255.5t-143.5 -172t-244.5 -61.5zM497 721q48 0 77 31t42 86t13 127q0 74 -13.5 129t-42.5 85t-76 30q-49 0 -79.5 -30.5
t-44.5 -85t-14 -128.5q0 -72 13.5 -127t44 -86t80.5 -31z" />
    <glyph glyph-name="one.numr" horiz-adv-x="694" 
d="M89 1030l-65 224q108 46 212.5 90.5t207.5 88.5l-11 -258q-77 -32 -162.5 -68.5t-181.5 -76.5zM286 503v138.5v150.5v246v136.5v134.5l158 124l137 -7v-165.5v-162.5v-306v-150.5v-138.5h-295z" />
    <glyph glyph-name="two.numr" horiz-adv-x="855" 
d="M61 503v187l74 56t74 55q86 64 146 115.5t91.5 99t31.5 97.5q0 48 -32 72t-95 24q-43 0 -88.5 -13.5t-92.5 -36.5t-92 -51l-23 274q35 14 77 26.5t89 22.5t97.5 16t101.5 6q117 0 198 -35t123 -100.5t42 -156.5q0 -68 -28.5 -132.5t-88.5 -126t-155 -122.5l-133 -87
l-34 59h132h158h156v-249h-729z" />
    <glyph glyph-name="three.numr" horiz-adv-x="873" 
d="M416 476q-54 0 -106 5t-99.5 14.5t-87 21.5t-70.5 26l20 254q40 -18 79 -33.5t78 -27t76.5 -17.5t73.5 -6q73 0 103.5 23t30.5 63q0 41 -36.5 62t-111.5 21h-68h-67v174h57.5h59.5q73 0 108 21.5t35 62.5q0 39 -33.5 58t-90.5 19q-46 0 -92.5 -12t-92.5 -32t-90 -44
l-23 259q33 12 73 23.5t85.5 21t94.5 15t101 5.5q120 0 203 -31t125.5 -87t42.5 -132q0 -82 -51.5 -129.5t-127.5 -62.5v-19q52 -9 98.5 -36t76 -75t29.5 -120q0 -127 -97.5 -206t-305.5 -79z" />
    <glyph glyph-name="four.numr" horiz-adv-x="915" 
d="M461 503v128.5v143.5l35 36v228v134.5v134.5l187 103q-37 -47 -71.5 -92.5t-71.5 -91.5l-154 -198q-30 -39 -60.5 -79.5t-61.5 -79.5l-8 17h286l25 33h157.5h150.5v-249h-150.5h-157.5h-533v188q25 32 59.5 76.5t70.5 91t66 85.5l115 150q33 41 65 82.5t64 81.5h282v-166
v-161v-324v-143.5v-128.5h-295z" />
    <glyph glyph-name="five.numr" horiz-adv-x="871" 
d="M411 475q-53 0 -104.5 5t-98 14t-86 21.5t-69.5 25.5l20 255q39 -19 78.5 -34.5t78.5 -27t75.5 -17.5t69.5 -6q72 0 104.5 25t32.5 75q0 35 -17 57.5t-48.5 33.5t-76.5 11q-34 0 -71.5 -8.5t-71.5 -33.5l-121 21v161v195v178h664v-236h-171.5h-170.5h-144l77 81
q-1 -46 -3 -91.5t-3 -91.5v-41h21q31 15 69.5 24.5t79.5 9.5q82 0 148 -32t105 -95t39 -156q0 -142 -98.5 -232.5t-307.5 -90.5z" />
    <glyph glyph-name="six.numr" horiz-adv-x="929" 
d="M489 476q-214 0 -323.5 122t-109.5 363q0 136 35 230t97.5 152t146.5 84t182 26q58 0 111 -7t100 -18t88 -23l-24 -252q-40 20 -83 33.5t-87 20.5t-85 7q-78 0 -121 -26.5t-60.5 -83.5t-17.5 -149q0 -91 17.5 -143.5t49.5 -75.5t74 -23q37 0 62 13.5t37.5 37.5t12.5 53
q0 31 -12.5 53t-37.5 34t-62 12q-33 0 -70.5 -9t-73.5 -38q-40 28 -38.5 74t37.5 80l28 -1q33 23 86.5 41t123.5 18q90 0 159 -32.5t108 -94t39 -148.5q0 -84 -39.5 -159t-125.5 -123t-224 -48z" />
    <glyph glyph-name="seven.numr" horiz-adv-x="843" 
d="M107 503q41 83 80 162t77 159l121 248l44 90l44 90l67 -62h-181h-160.5h-160.5v249h753v-188q-34 -72 -68.5 -144.5t-67.5 -144.5l-81 -169q-34 -72 -68.5 -144.5t-69.5 -145.5h-329z" />
    <glyph glyph-name="eight.numr" horiz-adv-x="944" 
d="M472 476q-146 0 -238 36.5t-136 101t-44 147.5q0 69 28 116.5t73 75t96 38.5v21q-48 10 -87 35t-62 64.5t-23 93.5q0 111 102 179.5t291 68.5q127 0 215 -31t133.5 -87t45.5 -130q0 -81 -50 -129.5t-123 -63.5v-21q49 -10 94.5 -37t74 -74.5t28.5 -118.5
q0 -124 -99 -204.5t-319 -80.5zM472 704q66 0 97 27.5t31 69.5q0 44 -35 69.5t-93 25.5q-38 0 -66.5 -11.5t-44.5 -33t-16 -50.5q0 -42 31.5 -69.5t95.5 -27.5zM472 1062q52 0 82 24.5t30 62.5q0 43 -31.5 65.5t-80.5 22.5q-47 0 -77.5 -22.5t-30.5 -65.5q0 -38 29 -62.5
t79 -24.5z" />
    <glyph glyph-name="nine.numr" horiz-adv-x="929" 
d="M411 476q-57 0 -109.5 7t-100 18t-88.5 24l23 252q41 -20 84 -34t86.5 -20.5t84.5 -6.5q79 0 122 26.5t60.5 83.5t17.5 149q0 90 -18 143t-49.5 76t-73.5 23q-37 0 -62 -14t-37.5 -37.5t-12.5 -53.5t12.5 -52t37.5 -34.5t62 -12.5q34 0 71 9.5t72 38.5q41 -27 40 -73
t-38 -81h-28q-33 -22 -86.5 -40t-123.5 -18q-90 0 -159 32t-108 93.5t-39 149.5q0 83 39.5 158.5t125.5 123t224 47.5q214 0 323.5 -121.5t109.5 -363.5q0 -135 -35 -229t-97.5 -152t-146.5 -84.5t-183 -26.5z" />
    <glyph glyph-name="glyph353" horiz-adv-x="642" 
d="M-225 0q57 110 111.5 216.5t124.5 243.5l255 494q48 93 88.5 172t78 152t76.5 148h359q-39 -75 -76.5 -148t-78 -152t-88.5 -172l-255 -494q-71 -137 -125.5 -243.5t-111.5 -216.5h-358z" />
    <glyph glyph-name="period" unicode="." horiz-adv-x="560" 
d="M279 -29q-67 0 -115 28t-74 75.5t-26 106.5q0 89 58 147.5t159 58.5q67 0 115 -26.5t74.5 -73t26.5 -106.5q0 -88 -57.5 -149t-160.5 -61z" />
    <glyph glyph-name="comma" unicode="," horiz-adv-x="523" 
d="M7 -314q35 57 58 120t34.5 133.5t11.5 150.5v139.5v146.5l163 15q98 -13 141.5 -77t43.5 -156q0 -77 -25.5 -147.5t-67 -131.5t-91 -109t-96.5 -80z" />
    <glyph glyph-name="colon" unicode=":" horiz-adv-x="560" 
d="M279 615q-67 0 -115 28t-74 75.5t-26 106.5q0 89 58 147.5t159 58.5q67 0 115 -26.5t74.5 -73t26.5 -106.5q0 -88 -57.5 -149t-160.5 -61zM279 -29q-67 0 -115 28t-74 75.5t-26 106.5q0 89 58 147.5t159 58.5q67 0 115 -26.5t74.5 -73t26.5 -106.5q0 -88 -57.5 -149
t-160.5 -61z" />
    <glyph glyph-name="semicolon" unicode=";" horiz-adv-x="560" 
d="M279 615q-67 0 -115 28t-74 75.5t-26 106.5q0 89 58 147.5t159 58.5q67 0 115 -26.5t74.5 -73t26.5 -106.5q0 -88 -57.5 -149t-160.5 -61zM45 -314q35 57 58 120t34.5 133.5t11.5 150.5v139.5v146.5l163 15q98 -13 141.5 -77t43.5 -156q0 -77 -25.5 -147.5t-67 -131.5
t-91 -109t-96.5 -80z" />
    <glyph glyph-name="exclam" unicode="!" horiz-adv-x="560" 
d="M131 548q-10 233 -22.5 462t-25.5 456l398 10q-12 -229 -24.5 -459.5t-23.5 -464.5zM279 -29q-67 0 -115 28t-74 75.5t-26 106.5q0 89 58 147.5t159 58.5q67 0 115 -26.5t74.5 -73t26.5 -106.5q0 -88 -57.5 -149t-160.5 -61z" />
    <glyph glyph-name="question" unicode="?" horiz-adv-x="926" 
d="M462 482q-147 0 -210 54.5t-63 142.5q0 67 28 115.5t72 86t93 72.5q34 24 63.5 47.5t48 50t18.5 57.5q0 40 -35 63t-104 23q-42 0 -91 -9t-100 -27.5t-100 -45.5l-16 309q33 13 76 26t93.5 24.5t108 19t120.5 7.5q133 0 223.5 -31.5t137 -98.5t46.5 -173
q0 -101 -39.5 -171t-96.5 -119t-108 -85q-45 -32 -77.5 -60t-32.5 -58t20.5 -40.5t43.5 -10.5t48 7t46 18l10 -156q-24 -9 -59 -17.5t-77 -14.5t-87 -6zM439 -29q-67 0 -115 28t-74.5 75.5t-26.5 106.5q0 89 58 147.5t160 58.5q67 0 115 -26.5t74 -73t26 -106.5
q0 -88 -57.5 -149t-159.5 -61z" />
    <glyph glyph-name="asterisk" unicode="*" horiz-adv-x="1006" 
d="M845 695q-94 70 -187.5 139t-188.5 138q-106 48 -212.5 96.5t-212.5 96.5l117 203q95 -70 188.5 -139t187.5 -138q106 -48 212.5 -96.5t212.5 -96.5zM161 695l-117 203q105 48 212 96.5t213 96.5q95 69 188.5 138t187.5 139l117 -203q-106 -48 -212.5 -96.5t-212.5 -96.5
q-94 -69 -187.5 -138t-188.5 -139zM385 567q12 116 24.5 232t24.5 233l-24 232t-25 232h236q-13 -116 -25 -232l-24 -232q12 -117 24.5 -233t24.5 -232h-236z" />
    <glyph glyph-name="numbersign" unicode="#" horiz-adv-x="1412" 
d="M24 239v272h208.5h189.5h474h190h208v-272h-208h-190h-474h-189.5h-208.5zM198 0q17 99 34.5 201.5t39.5 232.5l79 463q15 89 27 159.5t24 138t24 144.5h276q-13 -73 -24 -140t-23.5 -139.5t-27.5 -163.5l-80 -462l-38 -228t-35 -206h-276zM118 822v271h209h189h474h190
h208v-271h-208h-190h-474h-189h-209zM707 0q17 99 34.5 201.5t39.5 232.5l79 462q16 90 27.5 161t23.5 138t24 144h276q-13 -73 -24 -140t-23.5 -139.5t-27.5 -163.5l-80 -462l-38 -228t-35 -206h-276z" />
    <glyph glyph-name="slash" unicode="/" horiz-adv-x="918" 
d="M16 0q42 111 80.5 215.5t88.5 240.5l184 496q53 141 93 250t82 224h358q-28 -77 -55 -149.5t-56.5 -152t-65.5 -177.5l-182 -491q-50 -136 -89 -240.5t-80 -215.5h-358z" />
    <glyph glyph-name="backslash" unicode="\" horiz-adv-x="918" 
d="M544 0q-41 111 -79.5 215.5t-89.5 240.5l-181 492q-36 97 -65.5 176.5t-56.5 152t-56 149.5h358q44 -115 84 -224t92 -250l183 -496q51 -136 89.5 -240.5t79.5 -215.5h-358z" />
    <glyph glyph-name="parenleft" unicode="(" horiz-adv-x="854" 
d="M584 -278q-111 65 -204.5 156t-162 208t-105.5 257.5t-37 302.5q0 164 37 304.5t105.5 257.5t162 208t204.5 155l227 -107q-95 -84 -177 -197.5t-132 -266.5t-50 -354q0 -200 50 -353t132 -267t177 -197z" />
    <glyph glyph-name="parenright" unicode=")" horiz-adv-x="854" 
d="M270 -278l-227 107q95 83 176.5 197t132 267t50.5 353q0 201 -50.5 354t-132 266.5t-176.5 197.5l227 107q111 -64 204.5 -155.5t161.5 -208.5t105.5 -257.5t37.5 -303.5t-37.5 -303.5t-105.5 -257.5t-161.5 -207.5t-204.5 -155.5z" />
    <glyph glyph-name="braceleft" unicode="{" horiz-adv-x="937" 
d="M668 -253q-126 0 -216.5 40.5t-139 119t-48.5 191.5v51.5v51.5v52v51.5v51.5q0 56 -17.5 93t-49.5 55t-75 18h-86v260h86q43 0 75 18t49.5 55t17.5 92v52.5v51.5v51.5v52v51.5q0 169 107.5 260.5t296.5 91.5h208v-294h-84h-64q-60 0 -93 -32.5t-33 -95.5v-173
q0 -79 -21 -135t-65 -95t-112 -68v-26q68 -28 112 -68t65 -96.5t21 -133.5v-173q0 -62 33 -95t93 -33h65.5h90.5v-293h-216z" />
    <glyph glyph-name="braceright" unicode="}" horiz-adv-x="937" 
d="M61 -253v293h83.5h63.5q61 0 93.5 33t32.5 95v173q0 80 21 135.5t65 94.5t112 68v26q-68 28 -112 68.5t-65 96.5t-21 133v173q0 63 -32.5 95.5t-93.5 32.5h-64.5h-90.5v294h216q125 0 215.5 -41t139 -119.5t48.5 -191.5v-51.5v-51.5v-51.5v-51.5v-52q0 -56 18 -92.5
t50 -55t75 -18.5h85v-260h-85q-43 0 -75 -18t-50 -55t-18 -92v-52v-52v-51.5v-51.5v-52q0 -169 -107 -260t-296 -91h-208z" />
    <glyph glyph-name="bracketleft" unicode="[" horiz-adv-x="853" 
d="M131 -253v219.5v241.5v872v251v227h661v-294h-128h-162h-190l156 227v-226.5v-250.5v-739v-242v-220l-130 227h183h146h133v-293h-669z" />
    <glyph glyph-name="bracketright" unicode="]" horiz-adv-x="853" 
d="M61 -253v293h128.5h161.5h190l-156 -227v227.5v250.5v738v242.5v219.5l130 -227h-183h-145.5h-133.5v294h670v-219.5v-242.5v-872v-250v-227h-662z" />
    <glyph glyph-name="hyphen" unicode="-" horiz-adv-x="856" 
d="M91 444v321h177h160h161h176v-321h-176h-161h-160h-177z" />
    <glyph glyph-name="underscore" unicode="_" horiz-adv-x="891" 
d="M-20 -372v301h209h189h134h190h209v-301h-209h-190h-134h-189h-209z" />
    <glyph glyph-name="quotedbl" unicode="&#x22;" horiz-adv-x="944" 
d="M94 757q-10 183 -21 364t-24 360l359 9q-12 -180 -23.5 -363t-21.5 -368zM559 757q-10 183 -21 364t-24 360l359 9q-12 -180 -23.5 -363t-21.5 -368z" />
    <glyph glyph-name="quotesingle" unicode="'" horiz-adv-x="479" 
d="M94 757q-10 183 -21 364t-24 360l359 9q-12 -180 -23.5 -363t-21.5 -368z" />
    <glyph glyph-name="space" unicode=" " horiz-adv-x="381" 
 />
    <glyph glyph-name="glyph375" horiz-adv-x="253" 
 />
    <glyph glyph-name="uni000D" unicode="&#xd;" horiz-adv-x="381" 
 />
    <glyph glyph-name="dollar" unicode="$" horiz-adv-x="1163" 
d="M565 -28q-86 0 -177 13.5t-170 35.5t-130 47l28 325q67 -36 141.5 -61t149 -39t142.5 -14t116.5 13t74.5 39t26 66t-38.5 64.5t-110 45t-169.5 47.5q-121 35 -206.5 84t-131 128.5t-45.5 206.5t53.5 223t163 149.5t279.5 53.5q63 0 130 -7.5t130.5 -21t119.5 -30
t97 -35.5l-26 -330q-63 36 -129.5 60.5t-132.5 37t-125 12.5q-55 0 -103 -12t-77.5 -36.5t-29.5 -62.5q0 -36 28.5 -57.5t88.5 -39.5t154 -46q161 -47 254.5 -101t133.5 -132t40 -195q0 -134 -57.5 -230.5t-178.5 -148.5t-313 -52zM460 -274v172.5v164v160.5v161v564v161
v160.5v164.5v172h272v-172v-164.5v-160.5v-161v-564v-162.5v-161v-163.5v-171h-272z" />
    <glyph glyph-name="plus" unicode="+" horiz-adv-x="1209" 
d="M439 96v208.5v189.5v238v190v208h331v-208v-190v-238v-189.5v-208.5h-331zM91 452v321h209h189h231h190h208v-321h-208h-190h-231h-189h-209z" />
    <glyph glyph-name="equal" unicode="=" horiz-adv-x="1169" 
d="M107 202v321h209.5h189.5h157h190h209v-321h-209h-190h-157h-189.5h-209.5zM107 703v321h209.5h189.5h157h190h209v-321h-209h-190h-157h-189.5h-209.5z" />
    <glyph glyph-name="greater" unicode="&#x3e;" horiz-adv-x="1169" 
d="M91 86v339q80 28 160.5 57t160.5 57l169 59v29l-169 59q-80 29 -160.5 57.5t-160.5 56.5v339q108 -39 209 -77t190 -71l190 -70q89 -33 190 -71t208 -77v-321q-107 -39 -208 -77t-190 -71l-190 -70q-89 -33 -190 -71t-209 -77z" />
    <glyph glyph-name="less" unicode="&#x3c;" horiz-adv-x="1169" 
d="M1078 86q-107 40 -208.5 77.5t-191.5 70.5l-189 70q-88 33 -190 71t-208 77v321q107 40 208.5 77.5t190.5 70.5l188 70q90 33 191.5 70.5t208.5 77.5v-339l-160 -56t-160 -57l-170 -60v-29l169 -60q80 -28 161 -56.5t160 -56.5v-339z" />
    <glyph glyph-name="asciicircum" unicode="^" horiz-adv-x="1291" 
d="M880 698q-55 92 -110 183t-110 181h-29q-54 -88 -109 -177.5t-109 -178.5h-330q86 168 172.5 335.5t172.5 336.5h435q86 -169 173 -338.5t172 -337.5z" />
    <glyph glyph-name="percent" unicode="%" horiz-adv-x="1945" 
d="M374 0q66 110 130 217t145 243l298 496q56 92 103 170.5t90.5 151.5t88.5 148h326q-45 -75 -88.5 -148t-91 -151.5t-102.5 -170.5l-298 -496q-81 -136 -145 -243t-130 -217h-326zM460 717q-124 0 -216.5 44t-144.5 127.5t-52 200.5q0 104 52 187.5t144.5 132t216.5 48.5
t217 -48.5t144 -132t51 -187.5q0 -117 -51 -200.5t-144 -127.5t-217 -44zM460 942q67 0 104 38.5t37 104.5q0 40 -17 72.5t-48.5 52.5t-75.5 20q-66 0 -104 -41.5t-38 -103.5q0 -66 38 -104.5t104 -38.5zM1469 -29q-124 0 -216.5 44t-144 127t-51.5 200q0 105 51.5 188
t144.5 131.5t217 48.5t216.5 -48.5t144 -131.5t51.5 -188q0 -117 -51.5 -200t-144.5 -127t-217 -44zM1469 196q67 0 104.5 38.5t37.5 104.5q0 40 -17 72.5t-48.5 52t-75.5 19.5q-67 0 -104.5 -41t-37.5 -103q0 -66 37.5 -104.5t103.5 -38.5z" />
    <glyph glyph-name="at" unicode="@" horiz-adv-x="1794" 
d="M956 -301q-247 0 -430.5 82t-296 224.5t-150 327.5t6.5 390q38 179 122 309.5t200.5 215t255.5 125t286 40.5q199 0 356 -69.5t261.5 -192.5t144 -286t3.5 -350q-21 -112 -67 -188t-105 -121.5t-121 -66t-115 -20.5q-81 0 -145 20.5t-108.5 54.5t-66.5 77h-21
q-43 -75 -105.5 -105t-123.5 -30q-110 0 -181.5 68.5t-97.5 179t0 239.5q20 99 67.5 181.5t119.5 132t164 49.5q47 0 87.5 -14t71 -42t50.5 -69h23l31 100l259 15q-21 -98 -43.5 -203.5t-45.5 -212.5l-7 -34q-22 -100 5 -141.5t70 -41.5q31 0 59 14t52 41.5t42 68t29 93.5
q29 148 3.5 267t-99.5 204t-188 130t-262 45q-181 0 -312 -68t-213 -188t-117 -276q-36 -163 -11 -303t108.5 -244.5t223 -162.5t331.5 -58q75 0 164 14.5t190.5 52t213.5 107.5v-235q-85 -51 -177 -83.5t-190 -47.5t-201 -15zM828 394q31 0 57.5 17.5t43.5 49.5l46 217
q-14 20 -36.5 32.5t-51.5 12.5q-55 0 -92 -43.5t-52 -109.5q-9 -43 -2.5 -83.5t28 -66.5t59.5 -26z" />
    <glyph glyph-name="ampersand" unicode="&#x26;" horiz-adv-x="1562" 
d="M1103 0q-61 68 -123 136.5t-123 135.5l-425 467q-77 86 -122 171.5t-45 184.5q0 120 60.5 200.5t162.5 121t226 40.5q126 0 223 -39t151.5 -113.5t54.5 -180.5q0 -81 -29.5 -141t-77 -103.5t-101.5 -75.5t-103 -55l-139 165q47 25 79.5 54t50 64t17.5 75q0 49 -29.5 83
t-77.5 34q-46 0 -78 -31t-32 -86q0 -51 27.5 -97t85.5 -109l402 -442q104 -114 208.5 -229t208.5 -230h-452zM510 -26q-151 0 -252 52.5t-152 142.5t-51 204q0 118 47 204.5t125 148t169 102.5l155 -196q-44 -26 -73.5 -58t-45 -68t-15.5 -76q0 -46 20 -84t60 -60t98 -22
q37 0 74 12.5t70.5 36.5t61.5 58l161 -167l2 -41h-31q-51 -59 -113 -101.5t-138.5 -65t-171.5 -22.5zM1192 337l-202 203q55 87 109 171l108 168l297 -193q-77 -87 -155 -173.5t-157 -175.5z" />
    <glyph glyph-name="bar" unicode="|" horiz-adv-x="585" 
d="M132 -324v172.5v164v160.5v161v564v161v160.5v164.5v172h321v-172v-164.5v-160.5v-161v-564v-161v-160.5v-164v-172.5h-321z" />
    <glyph glyph-name="glyph387" 
d="M834 1109q-87 0 -136 46t-49 139q0 81 49.5 130.5t137.5 49.5q86 0 135 -52t49 -128q0 -93 -49 -139t-137 -46zM362 1109q-87 0 -135.5 46t-48.5 139q0 81 49 130.5t137 49.5q86 0 135 -52t49 -128q0 -93 -49 -139t-137 -46z" />
    <glyph glyph-name="glyph388" 
d="M264 1113q-99 0 -157.5 45t-58.5 149q0 90 58.5 139.5t159.5 49.5t158.5 -51.5t57.5 -137.5q0 -104 -58 -149t-160 -45z" />
    <glyph glyph-name="glyph389" 
d="M550 1118q-55 68 -111.5 138t-114.5 142.5t-119 146.5l379 8q58 -108 117.5 -215.5t118.5 -215.5z" />
    <glyph glyph-name="glyph390" 
d="M380 1118q59 108 118 214t117 213l380 8q-60 -75 -118.5 -148t-114.5 -143.5t-112 -139.5z" />
    <glyph glyph-name="glyph391" 
d="M649 1118q57 108 113 214t112 213l358 8q-57 -75 -112.5 -148t-109.5 -144t-106 -139zM213 1118q44 108 87.5 214t87.5 213l342 8q-48 -75 -94.5 -148t-92 -144t-88.5 -139z" />
    <glyph glyph-name="glyph392" 
d="M243 1158v271h169.5h187.5h187.5h169.5v-271h-169.5h-187.5h-187.5h-169.5z" />
    <glyph glyph-name="glyph393" 
d="M541 -449q-29 0 -56.5 2t-50.5 6.5t-38 10.5v198q12 -3 35 -7t50 -4q48 0 72 14.5t24 43.5q0 18 -11 32.5t-36 27.5t-69 25l69 163h189v-63l-38 -89q65 -14 105 -38.5t57 -59t17 -79.5q0 -52 -30 -93.5t-100 -65.5t-189 -24z" />
    <glyph glyph-name="grave" unicode="`" horiz-adv-x="1200" 
d="M550 1118q-55 68 -111.5 138t-114.5 142.5t-119 146.5l379 8q58 -108 117.5 -215.5t118.5 -215.5z" />
    <glyph glyph-name="glyph395" 
d="M834 1530q-87 0 -136 46t-49 139q0 81 49.5 130.5t137.5 49.5q86 0 135 -52t49 -128q0 -93 -49 -139t-137 -46zM362 1530q-87 0 -135.5 46t-48.5 139q0 81 49 130.5t137 49.5q86 0 135 -52t49 -128q0 -93 -49 -139t-137 -46z" />
    <glyph glyph-name="glyph396" 
d="M550 1539q-55 63 -112 126.5t-114.5 129t-118.5 132.5l379 8q59 -99 118 -196.5t118 -195.5z" />
    <glyph glyph-name="glyph397" 
d="M380 1539q60 98 118.5 194.5t116.5 193.5l380 8q-60 -68 -118.5 -134.5t-115 -131t-111.5 -126.5z" />
    <glyph glyph-name="glyph398" 
d="M649 1539q56 97 112.5 194t112.5 194l358 8q-57 -68 -112.5 -134.5t-109.5 -131t-106 -126.5zM213 1539q44 98 87.5 194.5t87.5 193.5l342 8q-48 -68 -94.5 -134.5t-92 -131t-88.5 -126.5z" />
    <glyph glyph-name="glyph399" 
d="M243 1579v272h169.5h187.5h187.5h169.5v-272h-169.5h-187.5h-187.5h-169.5z" />
    <glyph glyph-name="glyph400" 
d="M805 1109q-81 0 -127 46t-46 139q0 81 46.5 130.5t128.5 49.5t127.5 -52t45.5 -128q0 -62 -21 -103t-60 -61.5t-94 -20.5zM390 1109q-81 0 -126.5 46t-45.5 139q0 81 46 130.5t128 49.5t127.5 -52t45.5 -128q0 -62 -21 -103t-59.5 -61.5t-94.5 -20.5z" />
    <glyph glyph-name="glyph401" 
d="M598 1093q-216 0 -317 97.5t-103 288.5l292 11q0 -79 25 -132t103 -53q54 0 82 23.5t38 63t10 87.5h292q-1 -191 -101 -288.5t-321 -97.5z" />
    <glyph glyph-name="glyph402" 
d="M599 1518q-151 0 -250.5 44t-149 130t-51.5 212l292 11q0 -82 38 -132.5t121 -50.5t121 48.5t38 123.5h292q-1 -126 -50 -212t-148.5 -130t-252.5 -44z" />
    <glyph glyph-name="glyph403" 
 />
    <glyph glyph-name="glyph403" 
 />
    <glyph glyph-name="dollar.rvrn" horiz-adv-x="1163" 
d="M565 -28q-86 0 -177 13.5t-170 35.5t-130 47l28 325q67 -36 140.5 -61t145 -39t131.5 -14q53 0 90.5 13.5t57.5 40.5t20 70t-32 71.5t-89 49.5t-132 42q-121 33 -206.5 81.5t-131 126.5t-45.5 199q0 127 53.5 223t163 149.5t279.5 53.5q63 0 130 -7.5t130.5 -21
t119.5 -30t97 -35.5l-26 -330q-63 36 -129 60.5t-128 37t-113 12.5q-47 0 -83.5 -12.5t-57.5 -37.5t-21 -66q0 -38 21.5 -63t67 -44.5t117.5 -40.5q161 -46 254.5 -100t133.5 -130t40 -188q0 -134 -57.5 -230.5t-178.5 -148.5t-313 -52zM460 -274v220.5v208.5h272v-208.5
v-220.5h-272zM460 1234v182v190h272v-190v-182h-272z" />
    </font>
</defs>
</svg>
