<svg width="24" height="25" viewBox="0 0 24 25" fill="none" xmlns="http://www.w3.org/2000/svg">
<path d="M8.41055 21.1393C8.32028 21.1032 8.23452 21.0581 8.14876 21.0174L7.62516 20.7692C6.95261 20.39 6.29361 19.9748 5.72487 19.4467C5.42245 19.2029 5.16517 18.9095 4.89886 18.6297C4.75893 18.4943 4.65512 18.3272 4.52873 18.1783C4.41137 18.0203 4.28047 17.8804 4.17666 17.7134C3.97354 17.3839 3.73882 17.0679 3.57633 16.7113C3.49057 16.5353 3.39127 16.3683 3.31002 16.1877L3.09787 15.6461C2.43435 13.9941 2.34859 12.4503 1.90624 12.5858C1.72118 12.649 1.57674 13.0281 1.49098 13.6645C1.48195 13.9805 1.47744 14.3597 1.51806 14.7885C1.55417 15.0006 1.59479 15.2263 1.63993 15.461C1.66701 15.5784 1.68507 15.7002 1.72118 15.8221C1.7618 15.9395 1.80243 16.0613 1.84305 16.1877C2.11839 17.0905 2.56976 17.9255 3.06628 18.729C3.34613 19.1126 3.60341 19.5098 3.93292 19.8574L4.16763 20.1237C4.24436 20.214 4.32561 20.3043 4.41137 20.381L4.93045 20.8685C5.65265 21.4824 6.43805 22.0466 7.3092 22.4438C7.72898 22.674 8.18938 22.8184 8.63624 22.9854C8.86193 23.0667 9.09664 23.1118 9.32684 23.175C9.56156 23.2337 9.78273 23.3014 10.0355 23.3285L10.6268 23.4142L10.9202 23.4549L11.1865 23.4684L11.7236 23.491L11.8591 23.4955L11.9268 23.5H11.9584H11.999H12.0035H12.0125H12.0306L12.3195 23.4865C12.7031 23.4594 13.0868 23.4639 13.466 23.3872C13.8451 23.324 14.2243 23.2788 14.5944 23.166C16.0794 22.7913 17.4787 22.0962 18.6748 21.1483C19.8664 20.2005 20.8685 19.0088 21.5591 17.6547L21.8028 17.1401C21.8796 16.9686 21.9698 16.8016 22.0285 16.6165L22.2181 16.0794L22.3129 15.8131C22.34 15.7228 22.358 15.628 22.3851 15.5378L22.5205 14.9871C22.5431 14.8923 22.5702 14.8065 22.5837 14.7072L22.6243 14.4183C22.674 14.0347 22.7462 13.6375 22.7462 13.2899C22.8997 11.9629 22.7959 10.5546 22.4122 9.23205C22.033 7.90049 21.3785 6.64116 20.5029 5.54883C19.6272 4.4565 18.5349 3.53119 17.2981 2.84961L16.3457 2.38469C16.0162 2.25831 15.6822 2.13644 15.3527 2.01457C15.0142 1.91526 14.6711 1.83402 14.3281 1.74374C13.976 1.67152 13.6014 1.62638 13.2403 1.57222L13.1048 1.55416L12.983 1.54514L12.7392 1.5316L12.2518 1.50903L12.1299 1.50451L12.0712 1.5H12.008H11.99H11.9584L11.692 1.51354L11.1504 1.52708L10.8841 1.54062C10.7983 1.54965 10.708 1.56771 10.6223 1.57673L10.0987 1.66249C9.74662 1.70312 9.40809 1.81145 9.06505 1.89721C7.70189 2.27185 6.41096 2.91732 5.29155 3.77944C4.16763 4.63705 3.21523 5.71133 2.48852 6.92101C2.39824 7.07448 2.29894 7.21892 2.22221 7.3769L1.992 7.85084C1.91978 8.00882 1.83402 8.1668 1.76632 8.3293L1.58125 8.82581C1.52258 8.99282 1.45487 9.15531 1.4007 9.32232L1.26529 9.83238L1.12988 10.3469L1.0396 10.8931C0.92676 11.4438 1.08023 12.1434 1.1705 12.3826C1.37362 12.843 1.57223 12.2698 1.77986 11.3986C2.17707 9.96327 2.84962 8.51888 3.82459 7.21892C3.93743 7.05191 4.08638 6.90747 4.21277 6.74949L4.41137 6.51477L4.51068 6.39742L4.61901 6.28908C4.76345 6.14465 4.9124 6.00021 5.05684 5.85125L5.16517 5.74292L5.28704 5.64362L5.52627 5.44501C5.8332 5.16516 6.18528 4.93948 6.52832 4.69573C6.69533 4.56935 6.88942 4.48359 7.06546 4.37526C7.24601 4.27144 7.42204 4.15408 7.61613 4.07735C8.51437 3.61243 9.49837 3.33709 10.4914 3.19265C10.7396 3.16557 10.9879 3.11141 11.2407 3.11592L11.6153 3.10238L11.8049 3.09787L11.8997 3.09335H11.9448H11.9674H11.9764L12.7618 3.14752L12.9649 3.16106C13.0326 3.16557 13.0868 3.17911 13.1455 3.18814L13.5021 3.25133L13.8586 3.31001C13.976 3.33258 14.0979 3.3732 14.2197 3.4048L14.5808 3.5041C14.7027 3.5357 14.8201 3.5673 14.9374 3.61695L15.6325 3.88326C15.8582 3.99159 16.0794 4.10443 16.3006 4.21728C17.1762 4.69122 17.9752 5.29606 18.6658 6.00472C19.3564 6.71789 19.9161 7.54842 20.3539 8.43312L20.5119 8.76713L20.5932 8.93414L20.6563 9.11018L20.9091 9.80529L21.0897 10.523C21.1032 10.5817 21.1213 10.6403 21.1348 10.7035L21.1619 10.8886L21.2161 11.2542L21.2747 11.6198L21.2928 11.9899L21.3108 12.3601L21.3199 12.5451V12.5632V12.6038L21.3154 12.7031L21.2792 13.5111C21.2522 13.7593 21.207 13.9805 21.1799 14.2197C21.0129 15.1721 20.7015 16.1426 20.2501 17.0273C19.7536 17.8804 19.1352 18.6567 18.4175 19.3293C16.1516 21.4778 12.7934 22.3355 9.79176 21.5771L9.23205 21.4327L8.68589 21.2341L8.41055 21.1393Z" fill="#F69F13" stroke="#F69F13"/>
<path d="M9.73057 15.2075L9.81839 15.2881C10.1587 15.5988 10.6692 15.5643 10.9656 15.2075C11.3938 14.6954 11.8 14.1602 12.2172 13.6422C13.809 12.9056 14.7257 11.4094 15.9773 10.293C16.0322 10.2412 15.9773 10.0167 15.9114 9.89012C15.7742 9.63691 15.5436 9.53908 15.3296 9.51606C14.605 9.4355 14.0396 9.66569 13.5895 10.034C12.5136 10.926 11.3828 11.7547 10.5375 12.9056C10.4991 12.9401 10.4551 12.9747 10.4167 13.0035C10.0599 12.6467 9.67567 12.3186 9.25849 12.0309C9.0005 11.8525 8.6437 11.8525 8.30337 12.2381C7.99598 12.5891 7.91364 12.9977 8.09478 13.2682C8.42413 13.7573 8.748 14.2522 9.1542 14.6608C9.34632 14.8507 9.53844 15.0291 9.73057 15.2075Z" fill="#F69F13"/>
</svg>
