<svg width="100" height="100" viewBox="0 0 100 100" fill="none" xmlns="http://www.w3.org/2000/svg">
<path d="M25.3182 59.9509C25.1182 66.4273 27.76 72.9455 32.3364 77.6091C36.9128 82.2891 43.4364 85.0036 50 85.0091C56.5637 84.9982 63.0891 82.2909 67.6618 77.6055C72.24 72.9436 74.8764 66.4236 74.6764 59.9509C74.5764 53.4782 71.7182 47.1818 67.0728 42.8855C62.4182 38.6127 56.1091 36.2746 50 36.7073C56.0855 37.1 61.88 39.7582 65.82 44.1382C69.8062 48.4275 71.9688 54.0984 71.8509 59.9527C71.7055 65.6764 69.3237 71.2564 65.2364 75.1764C61.2073 79.1382 55.6328 81.4236 50 81.3746C44.3691 81.4182 38.7909 79.1382 34.7673 75.1727C30.6764 71.2546 28.3018 65.6746 28.1546 59.9546C28.0357 54.1009 30.1978 48.4304 34.1837 44.1418C38.1218 39.76 43.9146 37.1018 50 36.7073C43.8909 36.2727 37.5818 38.6091 32.9237 42.8818C28.2764 47.18 25.4182 53.4782 25.3182 59.9509Z" fill="#3449B7"/>
<path d="M7.89618 12.6036C9.59254 15.4764 11.2271 18.38 12.9816 21.22C16.3507 26.8018 19.8325 32.3218 23.6071 37.68C18.2998 43.7473 15.1489 51.7655 15.078 59.9473C14.878 69.1909 18.6525 78.4564 25.1944 85.0745C31.7216 91.7236 40.9944 95.5745 50.3307 95.5691C59.6634 95.5691 68.9398 91.7255 75.4634 85.0709C82.0071 78.4545 85.7762 69.1891 85.578 59.9473C85.5053 51.5782 82.1962 43.3945 76.6689 37.2818C80.3344 32.0473 83.7325 26.6636 87.018 21.22C88.7725 18.38 90.4089 15.4745 92.1035 12.6036C92.3253 12.2182 92.5016 11.9455 92.7489 11.4582C93.0562 10.8945 93.2198 10.2327 93.2671 9.57636C93.306 8.91799 93.2099 8.25862 92.9849 7.63869C92.7598 7.01876 92.4105 6.45135 91.9583 5.97125C91.5061 5.49115 90.9606 5.10849 90.3553 4.84674C89.7499 4.58499 89.0975 4.44968 88.438 4.44909L85.938 4.43091L75.938 4.53091L70.838 4.66909C70.209 4.71752 69.5968 4.89548 69.0399 5.19178C68.4829 5.48809 67.9933 5.89634 67.6016 6.39091C67.416 6.63047 67.2541 6.88742 67.118 7.15818L66.2816 8.84C63.3525 14.7145 60.5325 20.6527 58.0089 26.7545C55.4762 26.2545 52.8998 26.02 50.3307 26.1473C54.758 26.3509 59.1071 27.3818 63.0907 29.1618C67.0606 30.9485 70.6411 33.4973 73.6289 36.6636C79.6162 42.9 82.9089 51.4509 82.7525 59.9436C82.6071 68.44 79.0907 76.7709 73.038 82.6418C67.0562 88.5727 58.7344 91.9945 50.3307 91.9345C41.9289 91.9891 33.6035 88.5745 27.6271 82.6382C21.5725 76.7673 18.0616 68.4382 17.9144 59.9436C17.758 51.4527 21.0507 42.9036 27.038 36.6673C30.0246 33.5007 33.6038 30.9513 37.5725 29.1636C41.5998 27.3708 45.927 26.3489 50.3307 26.1473C47.558 26.0109 44.7744 26.2927 42.0453 26.8836C39.5089 20.7364 36.6689 14.7564 33.718 8.84L32.8816 7.15818C32.7456 6.8874 32.5836 6.63044 32.398 6.39091C32.0064 5.89634 31.5167 5.48809 30.9598 5.19178C30.4028 4.89548 29.7906 4.71752 29.1616 4.66909L24.0616 4.53091L14.0616 4.43091L11.5616 4.44909C10.9021 4.44968 10.2497 4.58499 9.64433 4.84674C9.03898 5.10849 8.49348 5.49115 8.0413 5.97125C7.58912 6.45135 7.23979 7.01876 7.01474 7.63869C6.78969 8.25862 6.69366 8.91799 6.73254 9.57636C6.77982 10.2309 6.94345 10.8927 7.25073 11.46C7.498 11.9455 7.67436 12.2182 7.89618 12.6055V12.6036ZM58.0762 26.7673C61.8725 21.3745 65.3707 15.8182 68.7598 10.2018L69.7325 8.59636C69.7924 8.49895 69.8632 8.40867 69.9435 8.32727C70.0841 8.17704 70.2534 8.05652 70.4414 7.97283C70.6294 7.88914 70.8323 7.84397 71.038 7.84L75.938 7.96545L85.938 8.06545L88.438 8.04727C88.8307 8.04727 89.1235 8.16364 89.3834 8.42C89.6289 8.67273 89.7834 9.04 89.7616 9.38C89.7574 9.5584 89.7133 9.73358 89.6325 9.89273L89.0871 10.9436C87.5689 13.9145 85.9907 16.8491 84.5307 19.8527C81.6998 25.5236 78.9798 31.2545 76.5271 37.1345C75.9889 36.5491 75.458 35.9564 74.8798 35.4109C70.194 31.0198 64.3736 28.0247 58.0762 26.7673ZM10.6162 8.42182C10.739 8.29694 10.8865 8.19911 11.0493 8.13461C11.2121 8.07011 11.3866 8.04036 11.5616 8.04727L14.0616 8.06545L24.0616 7.96727L28.9616 7.84182C29.3653 7.84182 29.7653 8.02727 30.0562 8.32909C30.1364 8.41051 30.2072 8.50078 30.2671 8.59818L31.2398 10.2036C34.6544 15.8618 38.178 21.4618 42.0089 26.8945C36.0144 28.1964 30.318 31.1309 25.778 35.4073C25.0398 36.1055 24.3471 36.8473 23.6744 37.6109C21.1707 31.5636 18.3762 25.6782 15.4689 19.8527C14.0089 16.8527 12.4307 13.9164 10.9125 10.9455L10.3671 9.89454C10.2869 9.7353 10.2434 9.56009 10.2398 9.38182C10.2344 9.20467 10.265 9.02826 10.3296 8.86326C10.3943 8.69825 10.4918 8.54808 10.6162 8.42182Z" fill="#3449B7"/>
<path d="M34.7342 55.4055C34.7159 55.7929 34.788 56.1793 34.9448 56.534C35.1017 56.8887 35.339 57.202 35.6379 57.4491L36.0052 57.7437L39.8179 60.7091L41.7542 62.2182C41.6233 62.5091 41.3179 63.5019 41.0779 64.1455L39.4961 68.7055L39.2288 69.4819C39.047 70.0109 39.0124 70.6819 39.1924 71.2819C39.3234 71.7253 39.5525 72.1336 39.8627 72.4765C40.1728 72.8195 40.5561 73.0883 40.9842 73.263C41.4123 73.4378 41.8742 73.5141 42.3358 73.4862C42.7973 73.4583 43.2467 73.3269 43.6506 73.1019C43.9652 72.92 44.0542 72.84 44.1542 72.7709L47.0997 70.6582L49.9852 68.5855L50.4106 68.8982L55.9742 72.8855C56.0815 72.9582 56.4215 73.1964 56.687 73.2855C57.2615 73.5273 57.9415 73.5819 58.5415 73.4364C59.1459 73.2976 59.6954 72.9824 60.1204 72.5308C60.5454 72.0793 60.8268 71.5117 60.9288 70.9C60.9779 70.5837 60.9742 70.2709 60.9342 69.9637C60.893 69.7354 60.8347 69.5105 60.7597 69.291L60.5052 68.5273L59.9852 67.0037L58.4033 62.44L58.3361 62.2455L60.3852 60.6873L64.1942 57.7182C64.3942 57.5782 64.9506 57.1055 65.1361 56.6237C65.3724 56.1255 65.4379 55.5655 65.3506 55.0564C65.1997 54.0437 64.3797 53.1128 63.3251 52.9055C63.1005 52.858 62.871 52.8378 62.6415 52.8455L54.9942 53.1982C54.8909 53.2192 54.7835 53.2077 54.6869 53.1654C54.5902 53.1231 54.509 53.052 54.4542 52.9619L52.7033 48.5182C52.2852 47.5091 51.9252 46.5491 51.4652 45.5C51.3137 45.2274 51.0832 45.007 50.8042 44.8678C50.5251 44.7286 50.2104 44.6771 49.9015 44.72C49.6192 44.7559 49.3546 44.8768 49.1428 45.0669C48.931 45.2569 48.7822 45.5069 48.7161 45.7837C48.8119 45.5451 48.9784 45.3415 49.1932 45.2002C49.408 45.0588 49.6608 44.9864 49.9179 44.9928C50.4124 45.0037 50.8361 45.32 50.9724 45.7328L51.7506 48.8291L52.5524 51.9528C52.7015 52.4982 52.7979 52.9328 52.9888 53.5709C53.2706 54.3891 54.1506 54.9746 54.9942 54.9746L62.2397 55.3091L62.6415 55.3273C62.7961 55.34 62.7233 55.3382 62.7579 55.3491C62.767 55.3637 62.767 55.3909 62.7633 55.4437C62.7579 55.4619 62.7451 55.46 62.7433 55.4437C62.7033 55.46 62.8342 55.3437 62.5997 55.5128L61.267 56.4182L58.5997 58.2273L57.2742 59.1455L56.6142 59.6055L56.2524 59.8619C55.7815 60.2173 55.4282 60.7059 55.2382 61.2645C55.0482 61.823 55.0304 62.4258 55.187 62.9946L55.3197 63.4382L56.7197 68.0619L57.1015 69.3164L52.547 65.9582L51.8942 65.4873C51.4009 65.1247 50.8143 64.9102 50.2033 64.8691C49.5723 64.8289 48.9438 64.9797 48.3997 65.3019C48.0652 65.5128 48.0542 65.5419 47.927 65.6309L47.6015 65.8709L42.8142 69.4037L44.5742 63.5855C44.6379 63.3037 44.7415 63.1964 44.8433 62.4964C44.8935 61.9958 44.8104 61.4908 44.6025 61.0326C44.3947 60.5744 44.0694 60.1793 43.6597 59.8873L37.1179 55.4509C37.0942 55.3673 37.1342 55.2582 37.1852 55.2219C37.0761 55.1746 37.927 55.1564 38.3852 55.1309L41.6052 54.98L44.8252 54.7909C45.0252 54.7909 45.5761 54.7473 45.8888 54.5546C46.2433 54.3728 46.5397 54.0855 46.7252 53.7382C46.9252 53.3419 46.9361 53.1073 47.0124 52.8473C47.3415 51.5109 47.8615 49.5255 48.7161 45.7837C47.2052 49.3291 46.4542 51.2491 45.9452 52.5019C45.8397 52.7437 45.747 53.0473 45.6761 53.1164C45.4542 53.3564 45.2942 53.4419 44.8252 53.3819L41.607 53.1946L37.5815 53.0055C37.3979 52.9946 36.867 52.9582 36.3906 53.1328C35.4197 53.4673 34.7724 54.4128 34.7361 55.4037L34.7342 55.4055ZM41.8542 62.3037L41.8106 62.2691V62.2637L41.8761 62.3146L41.8542 62.3037Z" fill="#F69F13"/>
</svg>
