<svg width="100" height="101" viewBox="0 0 100 101" fill="none" xmlns="http://www.w3.org/2000/svg">
<g clip-path="url(#clip0_91_200)">
<path d="M11.9232 79.9407C10.9616 81.6715 10.3847 83.5945 10.1924 85.5176C10.1924 89.7484 12.8847 93.4022 16.3462 95.5176C19.8078 97.633 23.8462 98.4022 27.6924 98.5945C31.5385 98.7868 35.3847 98.4022 39.0385 97.8253C46.5385 96.4791 53.8462 93.5945 60.0001 89.3638C66.3462 85.133 71.7309 79.5561 75.3847 73.2099C70.3847 78.5945 64.6155 83.4022 58.4616 86.8638C52.1155 90.3253 45.3847 92.8253 38.2693 94.1715C34.8078 94.7484 31.1539 95.133 27.6924 95.133C24.2308 95.133 20.7693 94.5561 17.6924 93.2099C14.8078 91.6715 12.3078 88.9791 11.9232 85.7099C11.7308 83.9791 11.9232 82.2484 12.6924 80.7099C13.077 79.7484 13.6539 78.5945 14.6155 77.8253C14.6155 77.8253 14.6155 78.0176 14.8078 78.0176C15.9616 79.1715 17.6924 79.9407 19.2308 79.9407C20.9616 79.9407 22.5001 79.3638 23.6539 78.2099C24.2308 77.633 24.6155 77.2484 25.0001 76.6715L26.1539 75.3253C26.5385 74.7484 26.9232 74.3638 27.3078 73.7868C29.4232 75.133 31.7308 75.9022 34.2308 76.4791C38.6539 77.4407 43.2693 77.0561 47.5001 75.3253C49.6155 74.5561 51.5385 73.4022 53.2693 72.0561C54.2309 71.4791 55.0001 70.5176 55.7693 69.7484C58.8462 66.6715 59.4232 66.0945 65.3847 59.5561L66.5385 60.5176C66.7308 60.7099 67.1155 61.0945 67.5001 61.2868C67.8847 61.4791 68.2693 61.8638 68.6539 61.8638C70.3847 62.633 72.3078 62.4407 73.8462 61.6715C75.3847 60.9022 76.5385 59.3638 76.9232 57.633C77.3078 55.9022 76.7309 54.1715 75.7693 52.8253C75.1924 52.0561 74.8078 51.8638 74.2308 51.2868L72.6924 49.9407L70.0001 47.4407C73.8462 44.5561 77.5001 41.4792 81.1539 38.2099C83.077 36.4792 85.0001 34.7484 86.7308 33.0176C87.3078 32.633 87.5001 32.2484 88.077 31.6715C89.4232 30.3253 90.0001 28.2099 89.4232 26.4792C89.2309 25.5176 88.6539 24.5561 88.077 23.9792C86.7309 22.633 84.6155 22.0561 82.6924 22.633C81.7309 22.8253 80.9616 23.4022 80.1924 23.9792L78.8462 25.3253C77.1155 27.2484 75.3847 28.9792 73.6539 30.9022C70.3847 34.5561 67.1155 38.4022 64.2309 42.2484C62.1155 40.3253 59.8078 38.4022 57.5001 36.4792C60.9616 40.5176 64.6155 44.5561 68.077 48.4022L70.7693 51.2868L72.1155 52.8253C72.5001 53.2099 73.077 53.7868 73.2693 54.1715C73.8462 54.9407 74.0385 55.9022 73.8462 56.8638C73.6539 57.8253 72.8847 58.5945 72.1155 58.9791C71.3462 59.3638 70.3847 59.3638 69.6155 58.9791C69.4232 58.9791 69.2309 58.7868 69.0385 58.5945C69.2309 58.4022 69.2308 58.4022 68.8462 58.0176C68.6539 57.8253 61.5385 50.3253 61.9232 50.9022L50.577 39.5561L39.2308 28.2099L33.6539 22.8253C32.5001 21.4792 32.8847 19.1715 34.6155 18.4022C35.3847 18.0176 36.3462 17.8253 37.3078 18.2099C37.6924 18.4022 38.077 18.5945 38.4616 18.9792L40.0001 20.3253L45.9616 25.7099C50.0001 29.1715 53.8462 32.8253 57.8847 36.2868C55.3847 33.4022 52.8847 30.5176 50.3847 27.8253C54.4232 24.9407 58.077 21.6715 61.7308 18.5945C63.6539 16.8638 65.577 15.133 67.3078 13.4022L68.6539 12.0561C69.2309 11.2868 69.8078 10.5176 70.0001 9.55607C70.577 7.633 70.0001 5.51761 68.6539 4.17146C67.3078 2.8253 65.1924 2.24838 63.2693 2.82531C62.3078 3.01761 61.5385 3.59454 60.7693 4.17146C60.3847 4.74838 59.8078 5.133 59.4231 5.51761C57.6924 7.44069 55.9616 9.17146 54.2309 11.0945C51.1539 14.5561 48.077 18.2099 45.1924 22.0561L41.7308 18.2099L40.3847 17.0561C40.0001 16.4792 39.2308 15.9022 38.4616 15.5176C36.9232 14.7484 35.0001 14.7484 33.2693 15.5176C31.7308 16.2868 30.3847 17.8253 30.0001 19.5561C29.6155 21.2868 30.0001 23.2099 31.1539 24.7484C31.3462 24.9407 31.5385 25.133 31.5385 25.3253L31.9232 25.7099L32.6924 26.4792L33.2693 27.0561C27.1155 32.8253 26.3462 33.5945 23.077 36.6715C22.3078 37.4407 21.5385 38.2099 20.7693 39.1715C19.2308 40.7099 18.2693 42.8253 17.3078 44.9407C15.577 49.1715 15.1924 53.7868 16.1539 58.2099C16.7308 60.7099 17.5001 63.0176 18.8462 65.133C17.6924 66.0945 17.6924 66.0945 15.9616 67.4407C15.3847 67.8253 15.1924 68.0176 14.4232 68.7868C13.4616 69.9407 12.6924 71.6715 12.8847 73.2099C12.8847 74.7484 13.4616 76.0945 14.4232 77.2484C13.2693 78.0176 12.5001 78.9791 11.9232 79.9407ZM64.6155 42.4407C68.6539 39.5561 72.3078 36.2868 75.9616 33.0176C77.8847 31.2868 79.8078 29.5561 81.5385 27.8253L82.8847 26.4792C83.077 26.2868 83.4616 26.0945 83.6539 26.0945C84.2309 25.9022 85.0001 26.0945 85.3847 26.6715C85.9616 27.2484 85.9616 27.633 85.7693 28.4022C85.7693 28.7868 85.577 28.9792 85.3847 29.3638L84.0385 30.7099C82.3078 32.633 80.577 34.3638 78.8462 36.2868C75.577 39.9407 72.5001 43.5945 69.6155 47.4407C68.077 45.5176 66.3462 43.9792 64.6155 42.4407ZM56.3462 13.4022C58.2693 11.6715 60.1924 9.94069 61.9232 8.20992L63.4616 7.05607C63.6539 6.86377 64.0385 6.67146 64.2309 6.67146C64.8078 6.47915 65.577 6.67146 65.9616 7.24838C66.3462 7.633 66.5385 8.40223 66.5385 8.97915C66.5385 9.36377 66.3462 9.55607 66.1539 9.74838L64.8078 11.0945C63.077 13.0176 61.3462 14.7484 59.6155 16.6715C56.3462 20.3253 53.2693 23.9792 50.3847 28.0176C49.4232 26.8638 48.4616 25.7099 47.3078 24.7484L45.577 22.8253C49.2309 19.7484 52.8847 16.6715 56.3462 13.4022ZM20.577 46.0945C21.3462 44.3638 22.1155 42.633 23.2693 41.0945C23.8462 40.3253 24.4232 39.5561 25.1924 38.7868C28.2693 35.5176 29.0385 34.9407 34.8078 28.5945L36.9232 30.7099L48.2693 42.0561L59.6155 53.4022L64.0385 57.8253C57.6924 63.7868 57.3078 64.1715 53.8462 67.4407C53.077 68.0176 52.5001 68.7868 51.5385 69.3638C50.0001 70.5176 48.2693 71.4791 46.5385 72.0561C39.2308 74.7484 30.7693 72.8253 25.3847 67.2484C22.6924 64.5561 20.7693 61.0945 20.0001 57.4407C19.0385 53.5945 19.2308 49.7484 20.577 46.0945ZM17.1155 70.9022C19.8078 67.633 19.2308 68.4022 20.1924 67.2484L22.5001 70.133C23.4616 70.9022 24.2308 71.8638 25.3847 72.4407C25.0001 72.8253 24.6155 73.0176 24.2308 73.4022L21.5385 75.5176C20.1924 76.4791 18.4616 76.0945 17.5001 75.133C16.3462 73.9791 16.1539 72.2484 17.1155 70.9022Z" fill="white"/>
</g>
<defs>
<clipPath id="clip0_91_200">
<rect width="100" height="100" fill="white" transform="translate(0 0.709961)"/>
</clipPath>
</defs>
</svg>
