<svg width="100" height="101" viewBox="0 0 100 101" fill="none" xmlns="http://www.w3.org/2000/svg">
<g clip-path="url(#clip0_91_180)">
<path d="M99.7053 67.7144C99.7278 61.2998 99.2038 54.8813 99.5407 48.4653C99.8274 43.0083 100.177 37.4669 99.8977 32.0047C99.7571 29.2482 99.7133 26.492 99.6004 23.7352C99.5059 21.4256 99.4315 18.9382 98.486 16.7932C96.8003 12.9687 92.4071 10.7362 88.3038 11.0886C83.9863 11.4591 82.1775 13.6278 81.9037 17.8073C81.8337 18.8753 81.8109 19.9489 81.8074 21.0245C80.1761 20.644 77.99 20.7981 76.7269 20.7729C73.357 20.7053 69.9608 20.72 66.5954 20.8647C60.9919 21.1055 55.3845 20.8743 49.779 20.8665C44.3181 20.8588 38.8629 21.0993 33.4028 20.8647C30.0381 20.7202 26.6427 20.7055 23.2733 20.7731C22.0103 20.7985 19.8243 20.6442 18.1929 21.0247C18.1894 19.9491 18.1667 18.8755 18.0966 17.8075C17.8228 13.6282 16.014 11.4595 11.6965 11.0888C7.59316 10.7366 3.20002 12.9689 1.51409 16.7934C0.56859 18.9383 0.494177 21.4258 0.399646 23.7354C0.286951 26.4922 0.243006 29.2484 0.102187 32.0049C-0.176522 37.4671 0.172694 43.0085 0.459411 48.4655C0.796519 54.8817 0.272303 61.3 0.294764 67.7146C0.304139 70.399 0.242421 73.0837 0.301405 75.7677C0.359021 78.3958 0.720152 80.9374 0.975424 83.5417C1.12679 85.0858 1.10863 86.4143 1.83987 87.8268C2.88166 89.8389 4.67228 90.2022 6.76367 90.27C9.76424 90.367 12.4841 90.5057 15.3779 90.0424C16.6544 90.0407 17.9308 90.0377 19.2027 90.053C25.1712 90.1245 31.1403 90.1823 37.1096 90.1561C51.6722 90.092 66.235 90.2274 80.7968 90.053C82.0687 90.0377 83.3451 90.0405 84.6216 90.0424C87.5154 90.5055 90.2353 90.367 93.2358 90.27C95.3272 90.2024 97.1178 89.8389 98.1596 87.8268C98.8739 86.4473 99.0889 85.1514 98.9323 83.9727C99.9569 78.6066 99.686 73.2134 99.7053 67.7144ZM2.24573 81.1864C2.17952 80.429 2.11819 79.6718 2.11077 78.9165C2.08479 76.3132 2.16428 73.7039 2.16975 71.0998C2.17913 66.4996 2.27639 61.9053 2.43088 57.3086C2.59846 52.3243 2.13108 47.3954 2.07796 42.4218C2.02581 37.5503 2.101 32.7185 2.18674 27.8506C2.26858 23.2075 1.75921 16.7223 6.54512 14.2116C8.60897 13.129 11.1564 12.7489 13.4164 13.4081C16.6367 14.3472 16.1513 18.4124 16.1539 21.0672C16.163 30.7787 14.7384 40.4865 14.6552 50.203C14.6058 55.976 14.606 61.775 14.3541 67.542C14.2478 69.9759 14.2923 72.4164 14.2919 74.8527C14.2918 76.1742 14.298 77.4952 14.3226 78.8163C13.1326 77.6374 11.2674 77.2544 9.47909 77.4421C6.65313 77.7386 3.81056 79.1087 2.24573 81.1864ZM96.7262 85.0722C96.4325 88.2784 93.5768 88.1805 91.1101 88.2842C90.5306 88.3086 89.9532 88.3381 89.3765 88.3684C89.3694 88.368 89.3614 88.3671 89.3546 88.3667C87.1439 88.2385 84.949 88.1583 82.733 88.1374C77.8931 88.0919 73.0537 88.1026 68.2137 88.0868C56.0782 88.0469 43.9361 88.0868 31.7868 88.0868C26.9468 88.1026 22.1075 88.0919 17.2675 88.1374C15.0517 88.1583 12.8568 88.2385 10.6459 88.3667C10.6388 88.3671 10.631 88.368 10.624 88.3684C10.0471 88.3381 9.46971 88.3086 8.89042 88.2842C6.42363 88.1805 3.56799 88.2784 3.27424 85.0722C2.95237 81.5585 6.99512 79.6392 9.99314 79.4501C12.4738 79.2937 15.2273 81.7948 12.6562 83.8679C12.1609 84.2673 10.9025 84.951 10.2822 84.5497C9.61092 84.1153 9.64744 83.1218 10.1426 82.6825C10.541 82.3292 10.3404 81.5866 9.82342 81.4735C7.92949 81.0591 6.49356 83.0661 7.23476 84.8067C8.02831 86.6706 10.7293 86.771 12.3847 86.1846C13.7867 85.6882 15.2751 84.2616 15.929 82.9243C16.8046 81.1335 16.3128 78.5653 16.3249 76.6159C16.3408 74.1054 16.279 71.5951 16.3279 69.0847C16.4384 63.394 16.5708 57.7016 16.6622 52.0087C16.7544 46.2759 17.1031 40.5714 17.4423 34.8478C17.6794 30.8459 18.0902 26.7748 18.1792 22.7303C18.6525 22.7506 19.1558 22.8405 19.5634 22.8379C21.1282 22.8284 22.6831 22.7387 24.2507 22.7567C27.4481 22.7936 30.6405 22.8108 33.8334 22.9454C44.5674 23.3981 55.4323 23.3981 66.1668 22.9454C69.3596 22.8106 72.552 22.7934 75.7496 22.7567C77.3172 22.7385 78.872 22.8282 80.4369 22.8379C80.8445 22.8405 81.3478 22.7506 81.821 22.7303C81.9101 26.7746 82.3208 30.8459 82.558 34.8478C82.897 40.5714 83.2458 46.2759 83.338 52.0087C83.4294 57.7016 83.5619 63.394 83.6724 69.0847C83.7212 71.5951 83.6597 74.1056 83.6755 76.6159C83.6876 78.5653 83.1958 81.1335 84.0714 82.9243C84.7253 84.2618 86.214 85.6882 87.6157 86.1846C89.2712 86.771 91.9724 86.6706 92.7657 84.8067C93.5069 83.0659 92.071 81.0589 90.1771 81.4735C89.6601 81.5866 89.4593 82.3292 89.8577 82.6825C90.353 83.1218 90.3895 84.1153 89.7181 84.5497C89.0978 84.951 87.8394 84.2675 87.3441 83.8679C84.773 81.7948 87.5265 79.2937 90.0071 79.4501C93.0054 79.6392 97.0483 81.5587 96.7262 85.0722ZM97.9229 42.4216C97.8698 47.3952 97.4024 52.3243 97.57 57.3084C97.7245 61.9051 97.8217 66.4994 97.8311 71.0996C97.8366 73.7037 97.9161 76.3132 97.8901 78.9163C97.8827 79.6716 97.8213 80.429 97.7551 81.1862C96.1903 79.1085 93.3477 77.7386 90.522 77.4419C88.7337 77.2542 86.8685 77.6372 85.6784 78.8161C85.7031 77.4949 85.7091 76.174 85.7091 74.8525C85.7089 72.4162 85.7534 69.9757 85.6472 67.5418C85.3952 61.7746 85.3954 55.9758 85.346 50.2028C85.2626 40.4863 83.8382 30.7785 83.8472 21.067C83.8497 18.4124 83.3646 14.347 86.5847 13.4079C88.8446 12.7489 91.3921 13.1288 93.4559 14.2114C98.2419 16.722 97.7325 23.2073 97.8143 27.8504C97.8999 32.7183 97.9751 37.5502 97.9229 42.4216Z" fill="white"/>
<path d="M79.7582 72.7242C79.2115 71.8831 78.117 71.8656 77.2391 71.8392C75.6842 71.7923 74.058 71.8275 72.4762 71.9663C72.3832 67.0904 72.2791 62.1168 72.5885 57.2627C72.7278 55.0778 72.5164 52.8788 72.5924 50.6901C72.6225 49.829 72.6543 48.9794 72.6735 48.1196C72.6727 48.1596 72.7045 47.3513 72.6705 46.7925C74.5529 46.3075 76.4228 45.7888 78.2717 45.2145C78.7609 45.0626 78.6906 44.2831 78.1476 44.2976C73.724 44.4149 69.3918 45.9091 65.1059 46.8657C60.2122 47.9581 55.3333 49.1122 50.4753 50.3553C41.41 52.675 32.3014 55.2618 23.5878 58.6608C23.0698 58.8629 23.2589 59.6412 23.8216 59.509C25.5134 59.1115 27.186 58.6285 28.8526 58.1174C28.7766 58.8199 28.5409 59.8375 28.5407 60.1805C28.5401 61.3078 28.4229 62.4234 28.4192 63.5463C28.4104 66.1488 28.4905 68.8132 28.7069 71.4167C26.754 71.3812 24.8024 71.3859 22.854 71.5158C22.5921 71.5232 22.3339 71.5408 22.0863 71.5759C21.8851 71.5931 21.6837 71.6029 21.4825 71.6232C21.274 71.6443 21.1349 71.7462 21.0499 71.8759C20.6038 72.0986 20.2675 72.4452 20.1288 72.9825C19.2177 76.5144 24.9308 75.9398 26.7882 76.0153C34.8657 76.3446 42.9523 76.6239 51.0333 76.8095C55.4165 76.9101 59.811 76.9271 64.1969 77.0567C68.0366 77.1702 72.1934 77.6651 76 77.1249C77.7601 76.8751 81.381 75.22 79.7582 72.7242ZM29.9497 58.5459C29.9716 58.2348 30.0305 57.9848 30.0399 57.7483C32.4022 57.0088 34.7586 56.242 37.1457 55.611C41.59 54.4362 45.974 53.0489 50.4271 51.9114C57.3157 50.1516 64.3938 48.8552 71.3166 47.1366C71.2164 47.5956 71.1461 48.0657 71.0942 48.5421C67.976 48.9264 64.878 49.9926 61.8358 50.7456C58.3774 51.6016 54.93 52.4844 51.4619 53.2868C47.4406 54.2172 43.4691 55.4219 39.4615 56.4186C37.5543 56.8928 35.6827 57.3918 33.8182 58.0184C32.4803 58.468 31.22 59.1316 29.9143 59.6395C29.9159 59.2746 29.9241 58.9102 29.9497 58.5459ZM70.9543 71.9462C70.9477 71.9683 70.9512 71.9958 70.9475 72.0195C68.2106 71.963 65.4737 71.912 62.7376 71.8204C62.6819 71.8185 62.6263 71.8181 62.5708 71.8163C62.7725 70.749 62.5386 69.5433 62.5272 68.4673C62.5087 66.7019 62.3958 64.9521 62.4038 63.181C62.4137 60.9945 62.4112 58.8022 62.3721 56.6158C62.3448 55.0764 62.5852 53.3903 62.319 51.8508C65.17 51.0628 68.1038 50.1967 71.003 49.7729C70.8969 52.2821 71.2045 54.9149 71.0541 57.2627C70.7442 62.0951 70.802 67.09 70.9543 71.9462ZM47.6734 70.2531C47.6166 68.58 47.5486 66.9224 47.5478 65.2451C47.5463 62.117 47.9197 58.7389 47.497 55.6164C48.5759 55.3309 49.6564 55.0516 50.7332 54.7577C54.1132 53.8354 57.5577 53.1243 60.9487 52.2235C61.0786 52.1891 61.2098 52.1524 61.3401 52.1172C60.7327 55.3995 61.0649 58.9506 61.055 62.2432C61.0495 64.051 61.0972 65.7929 61.1952 67.5912C61.2641 68.8546 61.4438 70.4921 61.2866 71.7847C57.0718 71.7044 52.8685 71.8593 48.6574 71.7726C48.3256 71.7658 47.9945 71.7562 47.6629 71.7484C47.784 71.3001 47.6922 70.8042 47.6734 70.2531ZM46.4222 71.7185C43.9137 71.6542 41.4092 71.581 38.9002 71.5453C38.891 71.4884 38.883 71.3984 38.891 71.2562C38.9231 70.6902 38.8227 69.955 38.7748 69.3923C38.676 68.2338 38.5649 67.0759 38.5223 65.906C38.4264 63.2807 38.7246 60.533 38.4494 57.9235C38.5944 57.8869 38.7373 57.8475 38.8828 57.8123C41.4389 57.1924 43.9867 56.5401 46.5306 55.8729C45.8201 61.1129 46.6029 66.4672 46.4222 71.7185ZM29.9044 62.5519C29.9444 61.8557 29.9302 61.1586 29.92 60.4615C31.1051 60.318 32.2319 59.7387 33.3756 59.384C34.7551 58.9563 36.1209 58.5385 37.5076 58.1651C37.0229 60.6617 37.2168 63.3988 37.2817 65.906C37.3295 67.764 37.3737 69.6736 37.5971 71.5306C36.827 71.5246 36.0567 71.5199 35.2852 71.5247C33.5418 71.5357 31.7981 71.4859 30.0555 71.4449C30.2866 68.4953 29.7352 65.492 29.9044 62.5519ZM78.1008 74.3827C78.0603 74.8734 77.6514 75.3611 77.015 75.653C75.5051 76.3462 73.1639 75.7882 71.5508 75.7927C70.1164 75.7966 68.6813 75.8091 67.2467 75.7982C61.5807 75.7548 55.8597 75.6784 50.2041 75.4116C44.3574 75.1357 38.4916 75.2823 32.6419 74.9683C30.119 74.8327 27.5944 74.6726 25.0661 74.6173C23.8101 74.59 22.6675 74.4075 21.7027 73.5148C21.598 73.4179 21.4898 73.2781 21.5452 73.1466C21.5765 73.0722 21.6523 73.0277 21.7249 72.9925C23.2448 72.2605 26.2524 72.73 27.8891 72.8806C30.2143 73.0945 32.5073 73.0909 34.8407 73.0718C39.4584 73.0339 44.0471 73.2443 48.6572 73.3202C53.1923 73.395 57.7169 73.1384 62.2598 73.2742C65.4239 73.3687 68.5913 73.3599 71.7571 73.2992C71.7752 73.2997 71.7932 73.2986 71.8121 73.298C73.3758 73.2677 76.1621 72.4281 77.5494 73.382C77.9646 73.6675 78.1301 74.0259 78.1008 74.3827Z" fill="white"/>
<path d="M52.1386 41.312C49.9482 39.9687 47.4702 39.2681 45.1948 38.0972C42.8396 36.8851 40.4353 35.8972 38.039 34.7681C35.9833 33.7997 33.9609 32.8036 31.9243 31.8011C30.5099 31.1048 29.2767 30.2755 27.7587 29.7494C26.9327 29.463 26.406 29.7484 26.746 30.5626C27.0159 31.2085 28.5005 31.5236 29.0749 31.7962C29.0987 31.8076 29.1222 31.8201 29.146 31.8314C29.137 31.8632 29.122 31.8898 29.1175 31.9255C28.7927 34.4765 28.8046 37.0244 28.9261 39.582C28.9732 40.5714 29.0575 41.5462 29.056 42.5406C29.0548 43.2947 29.0298 44.0515 29.0441 44.8054C29.0456 44.8892 29.1921 45.8747 29.2335 46.2074C29.2167 46.073 25.8048 46.5822 25.5829 46.6419C25.3445 46.7062 25.0638 46.8351 25.0501 47.0816C25.0306 47.4349 25.5298 47.5277 25.8816 47.4911C29.3464 47.1324 32.7829 47.5189 36.2907 47.5189C40.9464 47.5212 45.607 47.7826 50.2474 47.2261C50.8655 47.1519 50.8784 46.3161 50.2474 46.2538C48.8837 46.1195 47.4892 46.0689 46.0841 46.056C46.1978 45.5154 46.0841 45.0161 46.0982 44.4619C46.1208 43.5576 46.2136 42.6851 46.1862 41.7679C46.1755 41.4054 46.2587 40.707 46.2089 40.0806C48.0202 40.8865 49.8468 41.6552 51.7017 42.3486C52.3198 42.5798 52.6691 41.6374 52.1386 41.312ZM44.756 45.8003C44.7327 45.891 44.7302 45.9747 44.7386 46.0533C42.0593 46.0736 39.3575 46.2038 36.7509 46.204C34.6681 46.2042 32.5902 46.1921 30.5128 46.1992C30.2655 42.8796 30.4083 39.5173 30.3556 36.1786C30.9732 36.4835 31.6224 36.7488 32.2255 37.022C33.9607 37.8077 35.4974 38.9132 37.2286 39.7113C38.7611 40.4177 40.3446 40.9986 41.8841 41.6849C42.8517 42.1163 43.8458 42.8242 44.8771 43.1036C44.8581 43.4369 44.8343 43.7697 44.8021 44.1093C44.7497 44.6628 44.8935 45.2617 44.756 45.8003ZM44.9263 41.88C42.1236 40.4708 39.1058 39.488 36.3681 37.974C34.9491 37.1894 32.3427 35.1452 30.3249 35.0236C30.2962 34.1269 30.2542 33.232 30.1753 32.3411C32.2118 33.3589 34.1993 34.4589 36.2648 35.4251C39.1972 36.7968 42.1177 38.2253 45.0739 39.5697C44.9894 40.337 44.9503 41.1079 44.9263 41.88Z" fill="white"/>
<path d="M75.7633 30.1021C71.8291 29.5101 67.7734 29.7195 63.8086 29.6093C59.764 29.4968 55.5838 29.4679 51.5605 29.9351C51.0554 29.9937 51.0623 30.674 51.5689 30.722C55.483 31.0933 59.4359 30.8105 63.3597 30.9212C67.3377 31.0335 71.708 31.5826 75.6472 31.0355C76.1197 30.9699 76.3467 30.1898 75.7633 30.1021Z" fill="white"/>
<path d="M75.802 33.6822C71.8679 33.0902 67.8122 33.2995 63.8474 33.1894C59.8028 33.0769 55.6226 33.048 51.5991 33.5152C51.0942 33.5738 51.1009 34.254 51.6077 34.3021C55.5216 34.6734 59.4747 34.3906 63.3983 34.5013C67.3763 34.6136 71.7466 35.1626 75.686 34.6156C76.1583 34.5501 76.3853 33.77 75.802 33.6822Z" fill="white"/>
<path d="M75.8407 37.2622C71.9066 36.6702 67.8509 36.8796 63.8861 36.7695C59.8415 36.657 55.6613 36.6281 51.6378 37.0952C51.1329 37.1538 51.1396 37.8341 51.6464 37.8822C55.5605 38.2535 59.5134 37.9706 63.4372 38.0814C67.4152 38.1937 71.7853 38.7427 75.7247 38.1956C76.1972 38.13 76.4241 37.3499 75.8407 37.2622Z" fill="white"/>
</g>
<defs>
<clipPath id="clip0_91_180">
<rect width="100" height="100" fill="white" transform="translate(0 0.709961)"/>
</clipPath>
</defs>
</svg>
