<svg width="24" height="24" viewBox="0 0 24 24" fill="none" xmlns="http://www.w3.org/2000/svg">
<g clip-path="url(#clip0_961_5224)">
<path d="M8.4108 20.6393C8.32052 20.6032 8.23476 20.5581 8.149 20.5174L7.62541 20.2692C6.95286 19.89 6.29385 19.4748 5.72512 18.9467C5.4227 18.7029 5.16541 18.4095 4.8991 18.1297C4.75918 17.9943 4.65536 17.8272 4.52897 17.6783C4.41162 17.5203 4.28072 17.3804 4.1769 17.2134C3.97378 16.8839 3.73907 16.5679 3.57657 16.2113C3.49081 16.0353 3.39151 15.8683 3.31026 15.6877L3.09812 15.1461C2.4346 13.4941 2.34883 11.9503 1.90649 12.0858C1.72142 12.149 1.57698 12.5281 1.49122 13.1645C1.4822 13.4805 1.47768 13.8597 1.51831 14.2885C1.55442 14.5006 1.59504 14.7263 1.64018 14.961C1.66726 15.0784 1.68531 15.2002 1.72142 15.3221C1.76205 15.4395 1.80267 15.5613 1.8433 15.6877C2.11863 16.5905 2.57001 17.4255 3.06652 18.229C3.34637 18.6126 3.60366 19.0098 3.93316 19.3574L4.16787 19.6237C4.24461 19.714 4.32586 19.8043 4.41162 19.881L4.9307 20.3685C5.6529 20.9824 6.43829 21.5466 7.30944 21.9438C7.72922 22.174 8.18962 22.3184 8.63648 22.4854C8.86217 22.5667 9.09689 22.6118 9.32709 22.675C9.5618 22.7337 9.78298 22.8014 10.0357 22.8285L10.627 22.9142L10.9204 22.9549L11.1868 22.9684L11.7239 22.991L11.8593 22.9955L11.927 23H11.9586H11.9992H12.0037H12.0128H12.0308L12.3197 22.9865C12.7034 22.9594 13.087 22.9639 13.4662 22.8872C13.8453 22.824 14.2245 22.7788 14.5946 22.666C16.0797 22.2913 17.4789 21.5962 18.6751 20.6483C19.8667 19.7005 20.8687 18.5088 21.5593 17.1547L21.8031 16.6401C21.8798 16.4686 21.9701 16.3016 22.0288 16.1165L22.2183 15.5794L22.3131 15.3131C22.3402 15.2228 22.3583 15.128 22.3854 15.0378L22.5208 14.4871C22.5433 14.3923 22.5704 14.3065 22.584 14.2072L22.6246 13.9183C22.6742 13.5347 22.7465 13.1375 22.7465 12.7899C22.8999 11.4629 22.7961 10.0546 22.4124 8.73205C22.0333 7.40049 21.3788 6.14116 20.5031 5.04883C19.6275 3.9565 18.5351 3.03119 17.2984 2.34961L16.346 1.88469C16.0165 1.75831 15.6824 1.63644 15.3529 1.51457C15.0144 1.41526 14.6714 1.33402 14.3283 1.24374C13.9762 1.17152 13.6016 1.12638 13.2405 1.07222L13.1051 1.05416L12.9832 1.04514L12.7395 1.0316L12.252 1.00903L12.1301 1.00451L12.0714 1H12.0083H11.9902H11.9586L11.6923 1.01354L11.1506 1.02708L10.8843 1.04062C10.7986 1.04965 10.7083 1.06771 10.6225 1.07673L10.0989 1.16249C9.74687 1.20312 9.40833 1.31145 9.06529 1.39721C7.70214 1.77185 6.41121 2.41732 5.2918 3.27944C4.16787 4.13705 3.21547 5.21133 2.48876 6.42101C2.39849 6.57448 2.29918 6.71892 2.22245 6.8769L1.99225 7.35084C1.92003 7.50882 1.83427 7.6668 1.76656 7.8293L1.5815 8.32581C1.52282 8.49282 1.45511 8.65531 1.40095 8.82232L1.26554 9.33238L1.13012 9.84694L1.03985 10.3931C0.927005 10.9438 1.08047 11.6434 1.17075 11.8826C1.37387 12.343 1.57247 11.7698 1.7801 10.8986C2.17731 9.46327 2.84986 8.01888 3.82483 6.71892C3.93767 6.55191 4.08663 6.40747 4.21301 6.24949L4.41162 6.01477L4.51092 5.89741L4.61925 5.78908C4.76369 5.64465 4.91264 5.50021 5.05708 5.35125L5.16541 5.24292L5.28728 5.14362L5.52651 4.94501C5.83345 4.66516 6.18552 4.43947 6.52856 4.19573C6.69557 4.06935 6.88966 3.98359 7.0657 3.87526C7.24625 3.77144 7.42229 3.65408 7.61638 3.57735C8.51461 3.11243 9.49861 2.83709 10.4916 2.69265C10.7399 2.66557 10.9881 2.61141 11.2409 2.61592L11.6156 2.60238L11.8051 2.59787L11.8999 2.59335H11.9451H11.9676H11.9767L12.762 2.64752L12.9652 2.66106C13.0329 2.66557 13.087 2.67911 13.1457 2.68814L13.5023 2.75133L13.8589 2.81001C13.9762 2.83258 14.0981 2.8732 14.22 2.9048L14.5811 3.0041C14.703 3.0357 14.8203 3.0673 14.9377 3.11695L15.6328 3.38326C15.8585 3.49159 16.0797 3.60443 16.3008 3.71728C17.1765 4.19122 17.9754 4.79606 18.666 5.50472C19.3566 6.21789 19.9163 7.04842 20.3542 7.93311L20.5122 8.26713L20.5934 8.43414L20.6566 8.61018L20.9094 9.30529L21.0899 10.023C21.1035 10.0817 21.1215 10.1403 21.135 10.2035L21.1621 10.3886L21.2163 10.7542L21.275 11.1198L21.293 11.4899L21.3111 11.8601L21.3201 12.0451V12.0632V12.1038L21.3156 12.2031L21.2795 13.0111C21.2524 13.2593 21.2073 13.4805 21.1802 13.7197C21.0132 14.6721 20.7017 15.6426 20.2504 16.5273C19.7538 17.3804 19.1355 18.1568 18.4178 18.8293C16.1519 20.9778 12.7936 21.8355 9.792 21.0771L9.2323 20.9327L8.68614 20.7341L8.4108 20.6393Z" fill="#E24D5F" stroke="#E24D5F"/>
<path d="M13.5627 11.8102C13.7985 12.0171 15.4998 13.5092 15.4624 14.6735C15.4311 14.8348 15.3892 14.8994 15.2697 15.0127C15.1943 15.0841 15.115 15.1662 15.0136 15.1977C14.8278 15.2555 14.6217 15.2469 14.4302 15.2354C13.4821 15.1787 11.6711 13.7089 11.0005 13C8.69923 10.7925 7.50101 10 7.8426 9.00414C7.88541 8.80372 8.00008 7.99987 9.08982 8.41736C9.23074 8.44819 11.001 9.5 13.5573 11.8056L13.5627 11.8102Z" fill="#E24D5F"/>
<path d="M9.68537 11.8102C9.44953 12.0171 7.74827 13.5092 7.78561 14.6735C7.81698 14.8348 7.8588 14.8994 7.97835 15.0127C8.05373 15.0841 8.13302 15.1662 8.23447 15.1977C8.42023 15.2555 8.62632 15.2469 8.81782 15.2354C9.7659 15.1787 11.5769 13.7089 12.2476 13C14.5488 10.7925 15.747 10 15.4054 9.00414C15.3626 8.80372 15.248 7.99987 14.1582 8.41736C14.0173 8.44819 12.247 9.5 9.6907 11.8056L9.68537 11.8102Z" fill="#E24D5F"/>
</g>
<defs>
<clipPath id="clip0_961_5224">
<rect width="24" height="24" fill="white"/>
</clipPath>
</defs>
</svg>
