<svg width="213" height="51" viewBox="0 0 213 51" fill="none" xmlns="http://www.w3.org/2000/svg">
<path d="M62.4881 43.0506V41.4406C62.4859 39.9668 61.8994 38.554 60.8573 37.5118C59.8152 36.4697 58.4024 35.8833 56.9286 35.8811H37.0715L32.8001 40.2107L28.5266 35.8811H9.15569C7.6819 35.8833 6.2691 36.4697 5.22697 37.5118C4.18485 38.554 3.59841 39.9668 3.59621 41.4406V43.0506H0V45.6164H24.5959C25.5578 46.946 28.1277 49.84 32.3888 50C32.5113 50 32.6339 50 32.7565 50C34.3774 49.9973 35.9726 49.5952 37.401 48.8291C38.8295 48.0631 40.0471 46.9568 40.9461 45.6081H65.5171V43.0506H62.4881ZM39.4877 43.0506L39.12 43.7009C38.4626 44.8723 37.4961 45.8406 36.3259 46.5C35.1557 47.1595 33.8268 47.4848 32.4843 47.4405C28.483 47.2909 26.4823 43.8505 26.3992 43.7009L26.0294 43.0506H6.16197V41.4406C6.16307 40.6469 6.47883 39.8861 7.04002 39.3249C7.60121 38.7637 8.36205 38.4479 9.15569 38.4468H27.4546L32.8001 43.863L38.1456 38.4468H56.9286C57.7222 38.4479 58.4831 38.7637 59.0443 39.3249C59.6054 39.8861 59.9212 40.6469 59.9223 41.4406V43.0506H39.4877Z" fill="#3449B7"/>
<path d="M44.3868 0H21.1246V2.56575H44.3868V0Z" fill="#3449B7"/>
<path d="M31.4768 25.8445H28.3439V8.88977H25.7781V28.7988L32.7545 35.8624L39.7309 28.7988V8.88977H37.1651V25.8445H34.0488V6.28246H54.6559V3.71671H10.8615V6.28246H31.4768V25.8445ZM28.749 28.1589H36.76L32.7545 32.2163L28.749 28.1589Z" fill="#3449B7"/>
<path d="M52.254 8.07538L47.8019 15.7893L48.9134 17.7151H57.8177L58.9208 15.7893L54.477 8.07538H52.254ZM51.1363 15.139L53.3655 11.2769L55.5968 15.1452L51.1363 15.139Z" fill="#3449B7"/>
<path d="M16.5954 17.711L17.7069 15.7893L13.2547 8.07538H11.0338L6.57959 15.7893L7.69107 17.7151L16.5954 17.711ZM12.1432 11.2831L14.3745 15.1452H9.91403L12.1432 11.2831Z" fill="#3449B7"/>
<path d="M24.7288 39.8949H8.47205V41.6047H24.7288V39.8949Z" fill="#3449B7"/>
<path d="M57.0469 39.8949H40.7902V41.6047H57.0469V39.8949Z" fill="#3449B7"/>
<path d="M75.9791 22C76.2578 21.1567 76.5474 20.2693 76.8481 19.338C77.1561 18.4067 77.4458 17.523 77.7171 16.687L79.4881 11.308C79.8034 10.3327 80.0894 9.45633 80.3461 8.679C80.6028 7.89433 80.8594 7.106 81.1161 6.314H85.7801C86.0441 7.13533 86.3008 7.93467 86.5501 8.712C86.8068 9.48933 87.0928 10.3547 87.4081 11.308L89.1571 16.698C89.4431 17.5633 89.7328 18.4543 90.0261 19.371C90.3268 20.2877 90.6128 21.164 90.8841 22H87.1441C86.9094 21.164 86.6674 20.3097 86.4181 19.437C86.1688 18.557 85.9304 17.7247 85.7031 16.94L83.5471 9.383H83.2831L81.1051 16.863C80.8704 17.677 80.6211 18.5313 80.3571 19.426C80.1004 20.3133 79.8511 21.1713 79.6091 22H75.9791ZM79.7631 18.722L80.1481 16.016H87.1551L87.4631 18.722H79.7631ZM102.66 22C102.66 21.1567 102.66 20.339 102.66 19.547C102.66 18.755 102.66 17.8677 102.66 16.885V11.561C102.66 10.549 102.66 9.636 102.66 8.822C102.66 8.008 102.66 7.172 102.66 6.314H106.29C106.29 7.172 106.29 8.008 106.29 8.822C106.29 9.636 106.29 10.549 106.29 11.561V16.885C106.29 17.8677 106.29 18.755 106.29 19.547C106.29 20.339 106.29 21.1567 106.29 22H102.66ZM92.8806 22C92.8806 21.1567 92.8806 20.339 92.8806 19.547C92.8806 18.755 92.8806 17.8677 92.8806 16.885V11.561C92.8806 10.549 92.8806 9.636 92.8806 8.822C92.8806 8.008 92.8806 7.172 92.8806 6.314H96.4996C96.4996 7.172 96.4996 8.008 96.4996 8.822C96.4996 9.636 96.4996 10.549 96.4996 11.561V16.885C96.4996 17.8677 96.4996 18.755 96.4996 19.547C96.4996 20.339 96.4996 21.1567 96.4996 22H92.8806ZM95.5096 15.609V12.595H103.727V15.609H95.5096ZM116.861 22.297C115.445 22.297 114.221 22.0807 113.187 21.648C112.153 21.208 111.302 20.6103 110.635 19.855C109.967 19.0923 109.469 18.2233 109.139 17.248C108.816 16.2727 108.655 15.246 108.655 14.168C108.655 12.6427 108.955 11.264 109.557 10.032C110.165 8.79267 111.067 7.81 112.263 7.084C113.465 6.358 114.965 5.995 116.762 5.995C118.126 5.995 119.317 6.20767 120.337 6.633C121.356 7.051 122.203 7.634 122.878 8.382C123.56 9.13 124.069 9.99533 124.407 10.978C124.744 11.9607 124.913 13.0167 124.913 14.146C124.913 15.708 124.601 17.1013 123.978 18.326C123.362 19.5507 122.456 20.5187 121.261 21.23C120.065 21.9413 118.599 22.297 116.861 22.297ZM116.806 19.316C117.532 19.316 118.166 19.1803 118.709 18.909C119.251 18.6303 119.702 18.249 120.062 17.765C120.421 17.281 120.689 16.731 120.865 16.115C121.048 15.4917 121.14 14.8353 121.14 14.146C121.14 13.42 121.041 12.7453 120.843 12.122C120.652 11.4913 120.37 10.9413 119.996 10.472C119.629 10.0027 119.178 9.636 118.643 9.372C118.107 9.108 117.495 8.976 116.806 8.976C116.094 8.976 115.464 9.11167 114.914 9.383C114.371 9.65433 113.916 10.032 113.55 10.516C113.183 10.9927 112.904 11.5427 112.714 12.166C112.523 12.7893 112.428 13.4493 112.428 14.146C112.428 14.8427 112.519 15.5027 112.703 16.126C112.886 16.742 113.157 17.292 113.517 17.776C113.883 18.2527 114.338 18.6303 114.881 18.909C115.431 19.1803 116.072 19.316 116.806 19.316ZM143.631 25.344L143.433 21.439L144.071 22H131.509C131.509 21.1567 131.509 20.339 131.509 19.547C131.509 18.755 131.509 17.8677 131.509 16.885V11.561C131.509 10.549 131.509 9.636 131.509 8.822C131.509 8.008 131.509 7.172 131.509 6.314H135.128C135.128 7.172 135.128 8.008 135.128 8.822C135.128 9.636 135.128 10.549 135.128 11.561V16.302C135.128 17.2847 135.128 18.172 135.128 18.964C135.128 19.756 135.128 20.5737 135.128 21.417L133.456 18.986H140.716C141.677 18.986 142.66 18.986 143.664 18.986C144.676 18.986 145.677 18.986 146.667 18.986C146.667 19.514 146.667 20.053 146.667 20.603C146.667 21.153 146.667 21.6957 146.667 22.231C146.667 22.7443 146.667 23.2613 146.667 23.782C146.667 24.3027 146.667 24.8233 146.667 25.344H143.631ZM141.024 21.417C141.024 20.5737 141.024 19.756 141.024 18.964C141.024 18.172 141.024 17.2847 141.024 16.302V11.561C141.024 10.549 141.024 9.636 141.024 8.822C141.024 8.008 141.024 7.172 141.024 6.314H144.654C144.654 7.172 144.654 8.008 144.654 8.822C144.654 9.636 144.654 10.549 144.654 11.561V16.302C144.654 17.2847 144.654 18.172 144.654 18.964C144.654 19.756 144.654 20.5737 144.654 21.417H141.024ZM156.19 22.297C154.914 22.297 153.766 22.1027 152.747 21.714C151.727 21.3253 150.855 20.7717 150.129 20.053C149.41 19.327 148.86 18.469 148.479 17.479C148.097 16.4817 147.907 15.378 147.907 14.168C147.907 12.5987 148.226 11.198 148.864 9.966C149.502 8.72667 150.418 7.755 151.614 7.051C152.809 6.347 154.239 5.995 155.904 5.995C156.41 5.995 156.908 6.028 157.4 6.094C157.898 6.16 158.375 6.248 158.83 6.358C159.284 6.468 159.706 6.59633 160.095 6.743C160.491 6.88233 160.843 7.03267 161.151 7.194L160.876 10.56C160.304 10.2007 159.754 9.91467 159.226 9.702C158.698 9.482 158.188 9.32433 157.697 9.229C157.213 9.12633 156.751 9.075 156.311 9.075C155.416 9.075 154.62 9.273 153.924 9.669C153.227 10.0577 152.677 10.6333 152.274 11.396C151.878 12.1513 151.68 13.0753 151.68 14.168C151.68 14.8647 151.782 15.5247 151.988 16.148C152.193 16.764 152.501 17.3103 152.912 17.787C153.33 18.2637 153.85 18.6377 154.474 18.909C155.097 19.1803 155.827 19.316 156.663 19.316C157.007 19.316 157.352 19.294 157.697 19.25C158.049 19.1987 158.401 19.1217 158.753 19.019C159.105 18.9163 159.457 18.777 159.809 18.601C160.161 18.4177 160.513 18.1977 160.865 17.941L161.063 21.263C160.747 21.439 160.399 21.593 160.018 21.725C159.636 21.857 159.233 21.9633 158.808 22.044C158.39 22.132 157.957 22.1943 157.51 22.231C157.07 22.275 156.63 22.297 156.19 22.297ZM163.386 22C163.386 21.2153 163.386 20.4563 163.386 19.723C163.386 18.9823 163.386 18.1573 163.386 17.248V16.148C163.386 15.422 163.386 14.773 163.386 14.201C163.386 13.6217 163.386 13.079 163.386 12.573C163.386 12.0597 163.386 11.5427 163.386 11.022L166.543 10.934C166.543 11.418 166.543 11.8983 166.543 12.375C166.543 12.8443 166.543 13.3467 166.543 13.882C166.543 14.4173 166.543 15.0223 166.543 15.697V17.6H166.741L168.347 14.74C168.699 14.1093 169.047 13.486 169.392 12.87C169.744 12.2467 170.092 11.6307 170.437 11.022H173.671C173.671 11.5427 173.671 12.0597 173.671 12.573C173.671 13.079 173.671 13.6217 173.671 14.201C173.671 14.773 173.671 15.422 173.671 16.148V17.248C173.671 18.1573 173.671 18.9823 173.671 19.723C173.671 20.4563 173.671 21.2153 173.671 22H170.536C170.536 21.23 170.536 20.4857 170.536 19.767C170.536 19.0483 170.536 18.2453 170.536 17.358V15.422H170.327L168.743 18.249C168.391 18.8797 168.039 19.5103 167.687 20.141C167.342 20.7643 166.994 21.384 166.642 22H163.386ZM180.997 22.286C180.527 22.286 180.062 22.264 179.6 22.22C179.138 22.1833 178.694 22.1247 178.269 22.044C177.843 21.9633 177.436 21.857 177.048 21.725C176.666 21.593 176.318 21.439 176.003 21.263L176.201 17.996C176.545 18.2527 176.894 18.469 177.246 18.645C177.605 18.8137 177.964 18.9493 178.324 19.052C178.69 19.1547 179.057 19.2317 179.424 19.283C179.79 19.327 180.161 19.349 180.535 19.349C181.759 19.349 182.742 19.1547 183.483 18.766C184.231 18.37 184.773 17.8237 185.111 17.127C185.455 16.4303 185.628 15.6237 185.628 14.707V13.541C185.628 12.7857 185.51 12.1257 185.276 11.561C185.048 10.9963 184.722 10.527 184.297 10.153C183.879 9.779 183.384 9.50033 182.812 9.317C182.247 9.12633 181.631 9.031 180.964 9.031C180.472 9.031 179.966 9.08233 179.446 9.185C178.932 9.28767 178.404 9.44533 177.862 9.658C177.326 9.86333 176.773 10.1383 176.201 10.483L175.926 7.194C176.226 7.03267 176.575 6.88233 176.971 6.743C177.374 6.59633 177.81 6.468 178.28 6.358C178.749 6.248 179.237 6.16 179.743 6.094C180.256 6.028 180.78 5.995 181.316 5.995C182.584 5.995 183.71 6.19667 184.693 6.6C185.683 7.00333 186.515 7.57533 187.19 8.316C187.872 9.04933 188.389 9.91467 188.741 10.912C189.093 11.902 189.269 12.991 189.269 14.179C189.269 15.7923 188.946 17.2077 188.301 18.425C187.663 19.6423 186.728 20.592 185.496 21.274C184.264 21.9487 182.764 22.286 180.997 22.286ZM178.698 15.477V12.793C179.35 12.793 180.021 12.793 180.711 12.793C181.4 12.793 182.225 12.793 183.186 12.793H186.288V15.477H183.197C182.265 15.477 181.451 15.477 180.755 15.477C180.065 15.477 179.38 15.477 178.698 15.477ZM201.592 21.417C201.592 20.5737 201.592 19.756 201.592 18.964C201.592 18.172 201.592 17.2847 201.592 16.302V12.133C201.592 11.121 201.592 10.208 201.592 9.394C201.592 8.58 201.592 7.744 201.592 6.886L202.659 9.328H195.41L197.192 7.073C197.141 7.997 197.086 8.92833 197.027 9.867C196.976 10.7983 196.921 11.7297 196.862 12.661C196.796 13.7537 196.697 14.7033 196.565 15.51C196.433 16.3093 196.235 17.017 195.971 17.633C195.707 18.2417 195.348 18.8137 194.893 19.349L191.439 19.008C191.799 18.6853 192.125 18.2343 192.418 17.655C192.719 17.0683 192.972 16.3093 193.177 15.378C193.39 14.4467 193.533 13.299 193.606 11.935C193.665 10.945 193.724 9.977 193.782 9.031C193.841 8.085 193.892 7.17933 193.936 6.314H205.222C205.222 7.172 205.222 8.008 205.222 8.822C205.222 9.636 205.222 10.549 205.222 11.561V16.302C205.222 17.2847 205.222 18.172 205.222 18.964C205.222 19.756 205.222 20.5737 205.222 21.417H201.592ZM190.174 25.344C190.174 24.8233 190.174 24.3027 190.174 23.782C190.174 23.2687 190.174 22.7517 190.174 22.231C190.174 21.6957 190.174 21.1567 190.174 20.614C190.174 20.064 190.174 19.5213 190.174 18.986C191.164 18.986 192.165 18.986 193.177 18.986C194.189 18.986 195.176 18.986 196.136 18.986H201.273C202.241 18.986 203.231 18.986 204.243 18.986C205.255 18.986 206.256 18.986 207.246 18.986C207.246 19.5213 207.246 20.064 207.246 20.614C207.246 21.1567 207.246 21.6957 207.246 22.231C207.246 22.7517 207.246 23.2687 207.246 23.782C207.246 24.3027 207.246 24.8233 207.246 25.344H204.21L204.012 21.439L204.65 22H192.759L193.408 21.439L193.21 25.344H190.174Z" fill="#161624"/>
<path d="M75.7291 39C75.8358 38.6933 75.9478 38.3707 76.0651 38.032C76.1824 37.6933 76.2958 37.372 76.4051 37.068L77.0851 35.108C77.2104 34.756 77.3224 34.4387 77.4211 34.156C77.5198 33.8707 77.6198 33.584 77.7211 33.296H78.9411C79.0451 33.592 79.1451 33.8813 79.2411 34.164C79.3398 34.4467 79.4504 34.7627 79.5731 35.112L80.2491 37.076C80.3584 37.3907 80.4704 37.7147 80.5851 38.048C80.7024 38.3787 80.8131 38.696 80.9171 39H79.9411C79.8371 38.6773 79.7304 38.3467 79.6211 38.008C79.5118 37.6667 79.4078 37.344 79.3091 37.04L78.3651 34.12H78.2851L77.3291 37.012C77.2251 37.3267 77.1171 37.656 77.0051 38C76.8931 38.344 76.7838 38.6773 76.6771 39H75.7291ZM76.9011 37.656L76.9891 36.936H79.7571L79.8291 37.656H76.9011ZM85.5027 39C85.5027 38.6853 85.5027 38.3827 85.5027 38.092C85.5027 37.8013 85.5027 37.4787 85.5027 37.124V35.204C85.5027 34.8413 85.5027 34.512 85.5027 34.216C85.5027 33.92 85.5027 33.6133 85.5027 33.296H86.4427C86.4427 33.6133 86.4427 33.92 86.4427 34.216C86.4427 34.512 86.4427 34.8413 86.4427 35.204V37.124C86.4427 37.4787 86.4427 37.8013 86.4427 38.092C86.4427 38.3827 86.4427 38.6853 86.4427 39H85.5027ZM81.7947 39C81.7947 38.6853 81.7947 38.3827 81.7947 38.092C81.7947 37.8013 81.7947 37.4787 81.7947 37.124V35.204C81.7947 34.8413 81.7947 34.512 81.7947 34.216C81.7947 33.92 81.7947 33.6133 81.7947 33.296H82.7347C82.7347 33.6133 82.7347 33.92 82.7347 34.216C82.7347 34.512 82.7347 34.8413 82.7347 35.204V37.124C82.7347 37.4787 82.7347 37.8013 82.7347 38.092C82.7347 38.3827 82.7347 38.6853 82.7347 39H81.7947ZM82.4427 36.516V35.72H85.8187V36.516H82.4427ZM90.4107 39.096C89.9147 39.096 89.4827 39.0173 89.1147 38.86C88.7493 38.7027 88.4453 38.4867 88.2027 38.212C87.9627 37.9373 87.7827 37.6227 87.6627 37.268C87.5427 36.9133 87.4827 36.5387 87.4827 36.144C87.4827 35.592 87.5933 35.0933 87.8147 34.648C88.0387 34.2 88.3653 33.8453 88.7947 33.584C89.2267 33.32 89.756 33.188 90.3827 33.188C90.8573 33.188 91.2747 33.264 91.6347 33.416C91.9973 33.568 92.3 33.78 92.5427 34.052C92.788 34.3213 92.972 34.6347 93.0947 34.992C93.2173 35.3493 93.2787 35.7333 93.2787 36.144C93.2787 36.7067 93.1667 37.2107 92.9427 37.656C92.7187 38.1013 92.392 38.4533 91.9627 38.712C91.536 38.968 91.0187 39.096 90.4107 39.096ZM90.3907 38.304C90.7187 38.304 91.0027 38.2453 91.2427 38.128C91.4827 38.0107 91.6813 37.8507 91.8387 37.648C91.996 37.4453 92.112 37.2147 92.1867 36.956C92.264 36.6973 92.3027 36.4267 92.3027 36.144C92.3027 35.84 92.2613 35.5573 92.1787 35.296C92.096 35.0347 91.9733 34.8053 91.8107 34.608C91.6507 34.4107 91.452 34.2573 91.2147 34.148C90.9773 34.036 90.7027 33.98 90.3907 33.98C90.068 33.98 89.7867 34.0373 89.5467 34.152C89.3067 34.2667 89.1053 34.4253 88.9427 34.628C88.7827 34.8307 88.6627 35.0613 88.5827 35.32C88.5027 35.5787 88.4627 35.8533 88.4627 36.144C88.4627 36.432 88.5013 36.7053 88.5787 36.964C88.656 37.2227 88.7733 37.4533 88.9307 37.656C89.0907 37.856 89.292 38.0147 89.5347 38.132C89.7773 38.2467 90.0627 38.304 90.3907 38.304ZM98.8092 39.016C98.5638 38.6773 98.3198 38.3387 98.0772 38C97.8345 37.6613 97.5905 37.3227 97.3452 36.984C97.5905 36.6427 97.8345 36.3027 98.0772 35.964C98.3198 35.6253 98.5638 35.2867 98.8092 34.948L99.6612 35C99.4265 35.3253 99.1918 35.6507 98.9572 35.976C98.7252 36.3013 98.4918 36.6267 98.2572 36.952V37.032C98.4918 37.3547 98.7252 37.6773 98.9572 38C99.1918 38.3227 99.4265 38.6467 99.6612 38.972L98.8092 39.016ZM96.8612 39.016C96.6158 38.6773 96.3718 38.3387 96.1292 38C95.8865 37.6613 95.6425 37.3227 95.3972 36.984C95.6425 36.6427 95.8865 36.3027 96.1292 35.964C96.3718 35.6253 96.6158 35.2867 96.8612 34.948L97.7132 35C97.4785 35.3253 97.2438 35.6507 97.0092 35.976C96.7772 36.3013 96.5438 36.6267 96.3092 36.952V37.032C96.5438 37.3547 96.7772 37.6773 97.0092 38C97.2438 38.3227 97.4785 38.6467 97.7132 38.972L96.8612 39.016ZM105.119 40.224L105.067 38.852L105.259 39H100.623C100.623 38.6853 100.623 38.3827 100.623 38.092C100.623 37.8013 100.623 37.4787 100.623 37.124V35.204C100.623 34.8413 100.623 34.512 100.623 34.216C100.623 33.92 100.623 33.6133 100.623 33.296H101.563C101.563 33.6133 101.563 33.92 101.563 34.216C101.563 34.512 101.563 34.8413 101.563 35.204V36.976C101.563 37.3307 101.563 37.6547 101.563 37.948C101.563 38.2387 101.563 38.54 101.563 38.852L101.111 38.204H103.835C104.171 38.204 104.515 38.204 104.867 38.204C105.221 38.204 105.571 38.204 105.915 38.204C105.915 38.372 105.915 38.544 105.915 38.72C105.915 38.8933 105.915 39.0653 105.915 39.236C105.915 39.3987 105.915 39.5627 105.915 39.728C105.915 39.896 105.915 40.0613 105.915 40.224H105.119ZM104.243 38.852C104.243 38.54 104.243 38.2387 104.243 37.948C104.243 37.6547 104.243 37.3307 104.243 36.976V35.204C104.243 34.8413 104.243 34.512 104.243 34.216C104.243 33.92 104.243 33.6133 104.243 33.296H105.183C105.183 33.6133 105.183 33.92 105.183 34.216C105.183 34.512 105.183 34.8413 105.183 35.204V36.976C105.183 37.3307 105.183 37.6547 105.183 37.948C105.183 38.2387 105.183 38.54 105.183 38.852H104.243ZM106.775 39C106.775 38.6853 106.775 38.3827 106.775 38.092C106.775 37.8013 106.775 37.4787 106.775 37.124V35.2C106.775 34.8427 106.775 34.5147 106.775 34.216C106.775 33.9173 106.775 33.6107 106.775 33.296H110.407V34.088C110.148 34.088 109.871 34.088 109.575 34.088C109.279 34.088 108.93 34.088 108.527 34.088H107.171L107.695 33.44C107.695 33.7547 107.695 34.0613 107.695 34.36C107.695 34.656 107.695 34.984 107.695 35.344V36.98C107.695 37.332 107.695 37.6547 107.695 37.948C107.695 38.2387 107.695 38.5413 107.695 38.856L107.227 38.208H108.603C108.939 38.208 109.258 38.208 109.559 38.208C109.86 38.208 110.15 38.208 110.427 38.208V39H106.775ZM107.487 36.496V35.732H108.571C108.934 35.732 109.244 35.732 109.503 35.732C109.764 35.732 110.016 35.732 110.259 35.732V36.496C110.006 36.496 109.748 36.496 109.487 36.496C109.228 36.496 108.922 36.496 108.567 36.496H107.487ZM115.245 39C115.245 38.6853 115.245 38.3827 115.245 38.092C115.245 37.8013 115.245 37.4787 115.245 37.124V35.204C115.245 34.8413 115.245 34.512 115.245 34.216C115.245 33.92 115.245 33.6133 115.245 33.296H116.185C116.185 33.6133 116.185 33.92 116.185 34.216C116.185 34.512 116.185 34.8413 116.185 35.204V37.124C116.185 37.4787 116.185 37.8013 116.185 38.092C116.185 38.3827 116.185 38.6853 116.185 39H115.245ZM111.537 39C111.537 38.6853 111.537 38.3827 111.537 38.092C111.537 37.8013 111.537 37.4787 111.537 37.124V35.204C111.537 34.8413 111.537 34.512 111.537 34.216C111.537 33.92 111.537 33.6133 111.537 33.296H112.477C112.477 33.6133 112.477 33.92 112.477 34.216C112.477 34.512 112.477 34.8413 112.477 35.204V37.124C112.477 37.4787 112.477 37.8013 112.477 38.092C112.477 38.3827 112.477 38.6853 112.477 39H111.537ZM112.185 36.516V35.72H115.561V36.516H112.185ZM118.965 39C118.965 38.6853 118.965 38.3827 118.965 38.092C118.965 37.8013 118.965 37.4787 118.965 37.124V35.344C118.965 34.984 118.965 34.656 118.965 34.36C118.965 34.0613 118.965 33.7547 118.965 33.44L119.329 34.124H118.621C118.306 34.124 118.028 34.124 117.785 34.124C117.542 34.124 117.312 34.124 117.093 34.124V33.296H121.769V34.124C121.553 34.124 121.324 34.124 121.081 34.124C120.838 34.124 120.558 34.124 120.241 34.124H119.533L119.901 33.44C119.901 33.7547 119.901 34.0613 119.901 34.36C119.901 34.656 119.901 34.984 119.901 35.344V37.124C119.901 37.4787 119.901 37.8013 119.901 38.092C119.901 38.3827 119.901 38.6853 119.901 39H118.965ZM122.673 39C122.673 38.6853 122.673 38.3827 122.673 38.092C122.673 37.8013 122.673 37.4787 122.673 37.124V35.2C122.673 34.8427 122.673 34.5147 122.673 34.216C122.673 33.9173 122.673 33.6107 122.673 33.296C122.897 33.296 123.189 33.296 123.549 33.296C123.909 33.296 124.323 33.296 124.789 33.296C125.235 33.296 125.604 33.3533 125.897 33.468C126.191 33.5827 126.411 33.764 126.557 34.012C126.704 34.26 126.777 34.5853 126.777 34.988C126.777 35.3453 126.712 35.6627 126.581 35.94C126.451 36.2173 126.235 36.4347 125.933 36.592C125.632 36.7493 125.225 36.828 124.713 36.828C124.583 36.828 124.441 36.828 124.289 36.828C124.14 36.828 123.993 36.828 123.849 36.828C123.705 36.828 123.581 36.828 123.477 36.828V36.064H124.517C124.819 36.064 125.065 36.028 125.257 35.956C125.449 35.884 125.591 35.7693 125.681 35.612C125.775 35.4547 125.821 35.2493 125.821 34.996C125.821 34.788 125.788 34.6227 125.721 34.5C125.655 34.3747 125.567 34.2813 125.457 34.22C125.351 34.156 125.232 34.1133 125.101 34.092C124.973 34.0707 124.848 34.06 124.725 34.06H123.145L123.601 33.44C123.601 33.7547 123.601 34.0613 123.601 34.36C123.601 34.656 123.601 34.984 123.601 35.344V37.124C123.601 37.4787 123.601 37.8013 123.601 38.092C123.601 38.3827 123.601 38.6853 123.601 39H122.673ZM131.931 39.096C131.475 39.096 131.064 39.024 130.699 38.88C130.334 38.7333 130.023 38.528 129.767 38.264C129.511 38 129.315 37.688 129.179 37.328C129.043 36.968 128.975 36.5733 128.975 36.144C128.975 35.5707 129.092 35.0613 129.327 34.616C129.562 34.1707 129.892 33.8213 130.319 33.568C130.746 33.3147 131.248 33.188 131.827 33.188C132.014 33.188 132.196 33.2013 132.375 33.228C132.554 33.252 132.723 33.2867 132.883 33.332C133.046 33.3747 133.196 33.4227 133.335 33.476C133.474 33.5267 133.595 33.5813 133.699 33.64L133.619 34.528C133.414 34.4027 133.214 34.3013 133.019 34.224C132.824 34.1467 132.635 34.0907 132.451 34.056C132.267 34.0187 132.088 34 131.915 34C131.536 34 131.199 34.0867 130.903 34.26C130.607 34.4307 130.375 34.676 130.207 34.996C130.039 35.316 129.955 35.6987 129.955 36.144C129.955 36.44 129.998 36.7187 130.083 36.98C130.171 37.2387 130.302 37.468 130.475 37.668C130.648 37.8653 130.866 38.0213 131.127 38.136C131.388 38.248 131.691 38.304 132.035 38.304C132.168 38.304 132.3 38.296 132.431 38.28C132.564 38.2613 132.696 38.2333 132.827 38.196C132.96 38.1587 133.091 38.108 133.219 38.044C133.35 37.98 133.478 37.904 133.603 37.816L133.667 38.696C133.552 38.7627 133.427 38.8227 133.291 38.876C133.155 38.9267 133.012 38.968 132.863 39C132.714 39.032 132.56 39.056 132.403 39.072C132.246 39.088 132.088 39.096 131.931 39.096ZM134.759 39C134.759 38.6853 134.759 38.3827 134.759 38.092C134.759 37.8013 134.759 37.4787 134.759 37.124V35.2C134.759 34.8427 134.759 34.5147 134.759 34.216C134.759 33.9173 134.759 33.6107 134.759 33.296H138.391V34.088C138.133 34.088 137.855 34.088 137.559 34.088C137.263 34.088 136.914 34.088 136.511 34.088H135.155L135.679 33.44C135.679 33.7547 135.679 34.0613 135.679 34.36C135.679 34.656 135.679 34.984 135.679 35.344V36.98C135.679 37.332 135.679 37.6547 135.679 37.948C135.679 38.2387 135.679 38.5413 135.679 38.856L135.211 38.208H136.587C136.923 38.208 137.242 38.208 137.543 38.208C137.845 38.208 138.134 38.208 138.411 38.208V39H134.759ZM135.471 36.496V35.732H136.555C136.918 35.732 137.229 35.732 137.487 35.732C137.749 35.732 138.001 35.732 138.243 35.732V36.496C137.99 36.496 137.733 36.496 137.471 36.496C137.213 36.496 136.906 36.496 136.551 36.496H135.471ZM139.517 39C139.517 38.6853 139.517 38.3827 139.517 38.092C139.517 37.8013 139.517 37.4787 139.517 37.124V35.2C139.517 34.8427 139.517 34.5147 139.517 34.216C139.517 33.9173 139.517 33.6107 139.517 33.296C139.741 33.296 140.033 33.296 140.393 33.296C140.753 33.296 141.167 33.296 141.633 33.296C142.079 33.296 142.448 33.3533 142.741 33.468C143.035 33.5827 143.255 33.764 143.401 34.012C143.548 34.26 143.621 34.5853 143.621 34.988C143.621 35.3453 143.556 35.6627 143.425 35.94C143.295 36.2173 143.079 36.4347 142.777 36.592C142.476 36.7493 142.069 36.828 141.557 36.828C141.427 36.828 141.285 36.828 141.133 36.828C140.984 36.828 140.837 36.828 140.693 36.828C140.549 36.828 140.425 36.828 140.321 36.828V36.064H141.361C141.663 36.064 141.909 36.028 142.101 35.956C142.293 35.884 142.435 35.7693 142.525 35.612C142.619 35.4547 142.665 35.2493 142.665 34.996C142.665 34.788 142.632 34.6227 142.565 34.5C142.499 34.3747 142.411 34.2813 142.301 34.22C142.195 34.156 142.076 34.1133 141.945 34.092C141.817 34.0707 141.692 34.06 141.569 34.06H139.989L140.445 33.44C140.445 33.7547 140.445 34.0613 140.445 34.36C140.445 34.656 140.445 34.984 140.445 35.344V37.124C140.445 37.4787 140.445 37.8013 140.445 38.092C140.445 38.3827 140.445 38.6853 140.445 39H139.517ZM146.027 39C146.027 38.6853 146.027 38.3827 146.027 38.092C146.027 37.8013 146.027 37.4787 146.027 37.124V35.344C146.027 34.984 146.027 34.656 146.027 34.36C146.027 34.0613 146.027 33.7547 146.027 33.44L146.391 34.124H145.683C145.369 34.124 145.09 34.124 144.847 34.124C144.605 34.124 144.374 34.124 144.155 34.124V33.296H148.831V34.124C148.615 34.124 148.386 34.124 148.143 34.124C147.901 34.124 147.621 34.124 147.303 34.124H146.595L146.963 33.44C146.963 33.7547 146.963 34.0613 146.963 34.36C146.963 34.656 146.963 34.984 146.963 35.344V37.124C146.963 37.4787 146.963 37.8013 146.963 38.092C146.963 38.3827 146.963 38.6853 146.963 39H146.027ZM149.74 39C149.74 38.6853 149.74 38.3827 149.74 38.092C149.74 37.8013 149.74 37.4787 149.74 37.124V35.204C149.74 34.8413 149.74 34.512 149.74 34.216C149.74 33.92 149.74 33.6133 149.74 33.296H150.656C150.656 33.6133 150.656 33.9213 150.656 34.22C150.656 34.516 150.656 34.8453 150.656 35.208V37.416H150.728L151.856 35.808C152.133 35.408 152.416 35.0013 152.704 34.588C152.995 34.172 153.296 33.7413 153.608 33.296H154.408C154.408 33.6133 154.408 33.92 154.408 34.216C154.408 34.512 154.408 34.8413 154.408 35.204V37.124C154.408 37.4787 154.408 37.8013 154.408 38.092C154.408 38.3827 154.408 38.6853 154.408 39H153.492C153.492 38.6853 153.492 38.3827 153.492 38.092C153.492 37.7987 153.492 37.4747 153.492 37.12V34.876H153.424L152.292 36.484C151.951 36.972 151.637 37.42 151.352 37.828C151.067 38.236 150.793 38.6267 150.532 39H149.74ZM158.615 38.504L158.631 37.768H158.979C159.401 37.768 159.742 37.7067 160.003 37.584C160.265 37.4587 160.455 37.276 160.575 37.036C160.698 36.796 160.759 36.5027 160.759 36.156C160.759 35.8013 160.699 35.504 160.579 35.264C160.459 35.0213 160.271 34.8387 160.015 34.716C159.759 34.5907 159.423 34.528 159.007 34.528H158.671L158.655 33.792H159.019C159.665 33.792 160.186 33.892 160.583 34.092C160.983 34.292 161.274 34.5693 161.455 34.924C161.639 35.276 161.731 35.6867 161.731 36.156C161.731 36.6067 161.641 37.0093 161.459 37.364C161.278 37.716 160.985 37.9947 160.579 38.2C160.177 38.4027 159.638 38.504 158.963 38.504H158.615ZM158.159 38.504C157.653 38.504 157.223 38.4453 156.871 38.328C156.519 38.2107 156.234 38.0467 156.015 37.836C155.799 37.6227 155.641 37.3747 155.539 37.092C155.441 36.8067 155.391 36.4947 155.391 36.156C155.391 35.6867 155.482 35.276 155.663 34.924C155.847 34.5693 156.138 34.292 156.535 34.092C156.935 33.892 157.458 33.792 158.103 33.792H158.463L158.451 34.528H158.111C157.701 34.528 157.366 34.5907 157.107 34.716C156.849 34.8387 156.659 35.0213 156.539 35.264C156.422 35.504 156.363 35.8013 156.363 36.156C156.363 36.5027 156.423 36.796 156.543 37.036C156.666 37.276 156.858 37.4587 157.119 37.584C157.381 37.7067 157.722 37.768 158.143 37.768H158.491L158.503 38.504H158.159ZM158.091 39.152C158.091 39.008 158.091 38.872 158.091 38.744C158.091 38.616 158.091 38.484 158.091 38.348L158.115 38.332C158.115 38.148 158.115 37.96 158.115 37.768C158.115 37.5733 158.115 37.3707 158.115 37.16V35.136C158.115 34.9253 158.115 34.724 158.115 34.532C158.115 34.3373 158.115 34.148 158.115 33.964L158.091 33.948C158.091 33.812 158.091 33.68 158.091 33.552C158.091 33.4213 158.091 33.2853 158.091 33.144H159.031C159.031 33.2853 159.031 33.4213 159.031 33.552C159.031 33.68 159.031 33.812 159.031 33.948L159.007 33.964C159.007 34.148 159.007 34.3373 159.007 34.532C159.007 34.724 159.007 34.9253 159.007 35.136V37.16C159.007 37.3707 159.007 37.572 159.007 37.764C159.007 37.956 159.007 38.1453 159.007 38.332L159.031 38.348C159.031 38.4813 159.031 38.6133 159.031 38.744C159.031 38.872 159.031 39.008 159.031 39.152H158.091ZM162.709 39C162.709 38.6853 162.709 38.3827 162.709 38.092C162.709 37.8013 162.709 37.4787 162.709 37.124V35.204C162.709 34.8413 162.709 34.512 162.709 34.216C162.709 33.92 162.709 33.6133 162.709 33.296H163.625C163.625 33.6133 163.625 33.9213 163.625 34.22C163.625 34.516 163.625 34.8453 163.625 35.208V37.416H163.697L164.825 35.808C165.102 35.408 165.385 35.0013 165.673 34.588C165.963 34.172 166.265 33.7413 166.577 33.296H167.377C167.377 33.6133 167.377 33.92 167.377 34.216C167.377 34.512 167.377 34.8413 167.377 35.204V37.124C167.377 37.4787 167.377 37.8013 167.377 38.092C167.377 38.3827 167.377 38.6853 167.377 39H166.461C166.461 38.6853 166.461 38.3827 166.461 38.092C166.461 37.7987 166.461 37.4747 166.461 37.12V34.876H166.393L165.261 36.484C164.919 36.972 164.606 37.42 164.321 37.828C164.035 38.236 163.762 38.6267 163.501 39H162.709ZM172.14 39C171.913 38.7333 171.701 38.4827 171.504 38.248C171.307 38.0133 171.113 37.784 170.924 37.56L169.96 36.42H169.58V35.668H169.952L170.796 34.724C170.996 34.5027 171.192 34.2827 171.384 34.064C171.579 33.8427 171.805 33.5867 172.064 33.296H173.176C172.899 33.5973 172.628 33.8933 172.364 34.184C172.103 34.472 171.84 34.7627 171.576 35.056L170.576 36.16L170.56 35.744L171.672 37.072C171.845 37.2747 172.029 37.4933 172.224 37.728C172.421 37.9627 172.613 38.192 172.8 38.416C172.989 38.6373 173.155 38.832 173.296 39H172.14ZM168.732 39C168.732 38.6853 168.732 38.3827 168.732 38.092C168.732 37.8013 168.732 37.4787 168.732 37.124V35.204C168.732 34.8413 168.732 34.512 168.732 34.216C168.732 33.92 168.732 33.6133 168.732 33.296H169.668C169.668 33.6133 169.668 33.92 169.668 34.216C169.668 34.512 169.668 34.8413 169.668 35.204V37.124C169.668 37.4787 169.668 37.8013 169.668 38.092C169.668 38.3827 169.668 38.6853 169.668 39H168.732ZM173.713 39C173.82 38.6933 173.932 38.3707 174.049 38.032C174.167 37.6933 174.28 37.372 174.389 37.068L175.069 35.108C175.195 34.756 175.307 34.4387 175.405 34.156C175.504 33.8707 175.604 33.584 175.705 33.296H176.925C177.029 33.592 177.129 33.8813 177.225 34.164C177.324 34.4467 177.435 34.7627 177.557 35.112L178.233 37.076C178.343 37.3907 178.455 37.7147 178.569 38.048C178.687 38.3787 178.797 38.696 178.901 39H177.925C177.821 38.6773 177.715 38.3467 177.605 38.008C177.496 37.6667 177.392 37.344 177.293 37.04L176.349 34.12H176.269L175.313 37.012C175.209 37.3267 175.101 37.656 174.989 38C174.877 38.344 174.768 38.6773 174.661 39H173.713ZM174.885 37.656L174.973 36.936H177.741L177.813 37.656H174.885ZM184.275 40.224L184.223 38.852L184.415 39H179.779C179.779 38.6853 179.779 38.3827 179.779 38.092C179.779 37.8013 179.779 37.4787 179.779 37.124V35.204C179.779 34.8413 179.779 34.512 179.779 34.216C179.779 33.92 179.779 33.6133 179.779 33.296H180.719C180.719 33.6133 180.719 33.92 180.719 34.216C180.719 34.512 180.719 34.8413 180.719 35.204V36.976C180.719 37.3307 180.719 37.6547 180.719 37.948C180.719 38.2387 180.719 38.54 180.719 38.852L180.267 38.204H182.991C183.327 38.204 183.671 38.204 184.023 38.204C184.378 38.204 184.727 38.204 185.071 38.204C185.071 38.372 185.071 38.544 185.071 38.72C185.071 38.8933 185.071 39.0653 185.071 39.236C185.071 39.3987 185.071 39.5627 185.071 39.728C185.071 39.896 185.071 40.0613 185.071 40.224H184.275ZM183.399 38.852C183.399 38.54 183.399 38.2387 183.399 37.948C183.399 37.6547 183.399 37.3307 183.399 36.976V35.204C183.399 34.8413 183.399 34.512 183.399 34.216C183.399 33.92 183.399 33.6133 183.399 33.296H184.339C184.339 33.6133 184.339 33.92 184.339 34.216C184.339 34.512 184.339 34.8413 184.339 35.204V36.976C184.339 37.3307 184.339 37.6547 184.339 37.948C184.339 38.2387 184.339 38.54 184.339 38.852H183.399ZM185.935 39C185.935 38.6853 185.935 38.3827 185.935 38.092C185.935 37.8013 185.935 37.4787 185.935 37.124V35.204C185.935 34.8413 185.935 34.512 185.935 34.216C185.935 33.92 185.935 33.6133 185.935 33.296H186.851C186.851 33.6133 186.851 33.9213 186.851 34.22C186.851 34.516 186.851 34.8453 186.851 35.208V37.416H186.923L188.051 35.808C188.329 35.408 188.611 35.0013 188.899 34.588C189.19 34.172 189.491 33.7413 189.803 33.296H190.603C190.603 33.6133 190.603 33.92 190.603 34.216C190.603 34.512 190.603 34.8413 190.603 35.204V37.124C190.603 37.4787 190.603 37.8013 190.603 38.092C190.603 38.3827 190.603 38.6853 190.603 39H189.687C189.687 38.6853 189.687 38.3827 189.687 38.092C189.687 37.7987 189.687 37.4747 189.687 37.12V34.876H189.619L188.487 36.484C188.146 36.972 187.833 37.42 187.547 37.828C187.262 38.236 186.989 38.6267 186.727 39H185.935ZM191.959 39C191.959 38.6853 191.959 38.3827 191.959 38.092C191.959 37.8013 191.959 37.4787 191.959 37.124V35.204C191.959 34.8413 191.959 34.512 191.959 34.216C191.959 33.92 191.959 33.6133 191.959 33.296H192.875C192.875 33.6133 192.875 33.9213 192.875 34.22C192.875 34.516 192.875 34.8453 192.875 35.208V37.416H192.947L194.075 35.808C194.352 35.408 194.635 35.0013 194.923 34.588C195.213 34.172 195.515 33.7413 195.827 33.296H196.627C196.627 33.6133 196.627 33.92 196.627 34.216C196.627 34.512 196.627 34.8413 196.627 35.204V37.124C196.627 37.4787 196.627 37.8013 196.627 38.092C196.627 38.3827 196.627 38.6853 196.627 39H195.711C195.711 38.6853 195.711 38.3827 195.711 38.092C195.711 37.7987 195.711 37.4747 195.711 37.12V34.876H195.643L194.511 36.484C194.169 36.972 193.856 37.42 193.571 37.828C193.285 38.236 193.012 38.6267 192.751 39H191.959ZM76.1931 49C76.1931 48.6853 76.1931 48.3827 76.1931 48.092C76.1931 47.8013 76.1931 47.4787 76.1931 47.124V45.204C76.1931 44.8413 76.1931 44.512 76.1931 44.216C76.1931 43.92 76.1931 43.6133 76.1931 43.296H77.1091C77.1091 43.6133 77.1091 43.9213 77.1091 44.22C77.1091 44.516 77.1091 44.8453 77.1091 45.208V47.416H77.1811L78.3091 45.808C78.5864 45.408 78.8691 45.0013 79.1571 44.588C79.4478 44.172 79.7491 43.7413 80.0611 43.296H80.8611C80.8611 43.6133 80.8611 43.92 80.8611 44.216C80.8611 44.512 80.8611 44.8413 80.8611 45.204V47.124C80.8611 47.4787 80.8611 47.8013 80.8611 48.092C80.8611 48.3827 80.8611 48.6853 80.8611 49H79.9451C79.9451 48.6853 79.9451 48.3827 79.9451 48.092C79.9451 47.7987 79.9451 47.4747 79.9451 47.12V44.876H79.8771L78.7451 46.484C78.4038 46.972 78.0904 47.42 77.8051 47.828C77.5198 48.236 77.2464 48.6267 76.9851 49H76.1931ZM85.2558 49.092C85.0931 49.092 84.9304 49.084 84.7678 49.068C84.6078 49.052 84.4518 49.0293 84.2998 49C84.1504 48.968 84.0064 48.9267 83.8678 48.876C83.7318 48.8227 83.6064 48.7613 83.4918 48.692L83.5558 47.82C83.6811 47.9107 83.8078 47.9867 83.9358 48.048C84.0664 48.1067 84.1984 48.1547 84.3318 48.192C84.4651 48.2293 84.5998 48.2573 84.7358 48.276C84.8744 48.292 85.0131 48.3 85.1518 48.3C85.6478 48.3 86.0504 48.212 86.3598 48.036C86.6718 47.8573 86.8998 47.616 87.0438 47.312C87.1904 47.0053 87.2638 46.6587 87.2638 46.272V45.996C87.2638 45.6787 87.2158 45.3973 87.1198 45.152C87.0238 44.904 86.8878 44.6947 86.7118 44.524C86.5358 44.3533 86.3278 44.224 86.0878 44.136C85.8504 44.048 85.5891 44.004 85.3038 44.004C85.1198 44.004 84.9304 44.0213 84.7358 44.056C84.5438 44.0907 84.3478 44.1467 84.1478 44.224C83.9504 44.2987 83.7478 44.3973 83.5398 44.52L83.4598 43.64C83.5638 43.584 83.6864 43.5293 83.8278 43.476C83.9691 43.4227 84.1224 43.3747 84.2878 43.332C84.4558 43.2867 84.6318 43.252 84.8158 43.228C85.0024 43.2013 85.1918 43.188 85.3838 43.188C85.8211 43.188 86.2131 43.26 86.5598 43.404C86.9091 43.548 87.2064 43.7533 87.4518 44.02C87.6971 44.284 87.8838 44.596 88.0118 44.956C88.1424 45.316 88.2078 45.712 88.2078 46.144C88.2078 46.72 88.0931 47.2293 87.8638 47.672C87.6371 48.1147 87.3038 48.4627 86.8638 48.716C86.4264 48.9667 85.8904 49.092 85.2558 49.092ZM84.5158 46.508V45.74C84.7611 45.74 85.0144 45.74 85.2758 45.74C85.5371 45.74 85.8478 45.74 86.2078 45.74H87.4518V46.508H86.2118C85.8624 46.508 85.5571 46.508 85.2958 46.508C85.0344 46.508 84.7744 46.508 84.5158 46.508ZM92.6558 49C92.4291 48.7333 92.2171 48.4827 92.0198 48.248C91.8224 48.0133 91.6291 47.784 91.4398 47.56L90.4758 46.42H90.0958V45.668H90.4678L91.3118 44.724C91.5118 44.5027 91.7078 44.2827 91.8998 44.064C92.0944 43.8427 92.3211 43.5867 92.5798 43.296H93.6918C93.4144 43.5973 93.1438 43.8933 92.8798 44.184C92.6184 44.472 92.3558 44.7627 92.0918 45.056L91.0918 46.16L91.0758 45.744L92.1878 47.072C92.3611 47.2747 92.5451 47.4933 92.7398 47.728C92.9371 47.9627 93.1291 48.192 93.3158 48.416C93.5051 48.6373 93.6704 48.832 93.8118 49H92.6558ZM89.2478 49C89.2478 48.6853 89.2478 48.3827 89.2478 48.092C89.2478 47.8013 89.2478 47.4787 89.2478 47.124V45.204C89.2478 44.8413 89.2478 44.512 89.2478 44.216C89.2478 43.92 89.2478 43.6133 89.2478 43.296H90.1838C90.1838 43.6133 90.1838 43.92 90.1838 44.216C90.1838 44.512 90.1838 44.8413 90.1838 45.204V47.124C90.1838 47.4787 90.1838 47.8013 90.1838 48.092C90.1838 48.3827 90.1838 48.6853 90.1838 49H89.2478ZM97.048 49.096C96.592 49.096 96.1814 49.024 95.816 48.88C95.4507 48.7333 95.14 48.528 94.884 48.264C94.628 48 94.432 47.688 94.296 47.328C94.16 46.968 94.092 46.5733 94.092 46.144C94.092 45.5707 94.2094 45.0613 94.444 44.616C94.6787 44.1707 95.0094 43.8213 95.436 43.568C95.8627 43.3147 96.3654 43.188 96.944 43.188C97.1307 43.188 97.3134 43.2013 97.492 43.228C97.6707 43.252 97.84 43.2867 98 43.332C98.1627 43.3747 98.3134 43.4227 98.452 43.476C98.5907 43.5267 98.712 43.5813 98.816 43.64L98.736 44.528C98.5307 44.4027 98.3307 44.3013 98.136 44.224C97.9414 44.1467 97.752 44.0907 97.568 44.056C97.384 44.0187 97.2054 44 97.032 44C96.6534 44 96.316 44.0867 96.02 44.26C95.724 44.4307 95.492 44.676 95.324 44.996C95.156 45.316 95.072 45.6987 95.072 46.144C95.072 46.44 95.1147 46.7187 95.2 46.98C95.288 47.2387 95.4187 47.468 95.592 47.668C95.7654 47.8653 95.9827 48.0213 96.244 48.136C96.5054 48.248 96.808 48.304 97.152 48.304C97.2854 48.304 97.4174 48.296 97.548 48.28C97.6814 48.2613 97.8134 48.2333 97.944 48.196C98.0774 48.1587 98.208 48.108 98.336 48.044C98.4667 47.98 98.5947 47.904 98.72 47.816L98.784 48.696C98.6694 48.7627 98.544 48.8227 98.408 48.876C98.272 48.9267 98.1294 48.968 97.98 49C97.8307 49.032 97.6774 49.056 97.52 49.072C97.3627 49.088 97.2054 49.096 97.048 49.096ZM99.8806 49C99.8806 48.6853 99.8806 48.3827 99.8806 48.092C99.8806 47.8013 99.8806 47.4787 99.8806 47.124V45.204C99.8806 44.8413 99.8806 44.512 99.8806 44.216C99.8806 43.92 99.8806 43.6133 99.8806 43.296H104.501C104.501 43.6133 104.501 43.92 104.501 44.216C104.501 44.512 104.501 44.8413 104.501 45.204V47.124C104.501 47.4787 104.501 47.8013 104.501 48.092C104.501 48.3827 104.501 48.6853 104.501 49H103.561C103.561 48.6853 103.561 48.3827 103.561 48.092C103.561 47.8013 103.561 47.4787 103.561 47.124V45.344C103.561 44.984 103.561 44.656 103.561 44.36C103.561 44.0613 103.561 43.7547 103.561 43.44L103.861 44.092H100.521L100.821 43.44C100.821 43.7547 100.821 44.0613 100.821 44.36C100.821 44.656 100.821 44.984 100.821 45.344V47.124C100.821 47.4787 100.821 47.8013 100.821 48.092C100.821 48.3827 100.821 48.6853 100.821 49H99.8806ZM105.845 49C105.845 48.6853 105.845 48.3827 105.845 48.092C105.845 47.8013 105.845 47.4787 105.845 47.124V45.2C105.845 44.8427 105.845 44.5147 105.845 44.216C105.845 43.9173 105.845 43.6107 105.845 43.296H109.477V44.088C109.219 44.088 108.941 44.088 108.645 44.088C108.349 44.088 108 44.088 107.597 44.088H106.241L106.765 43.44C106.765 43.7547 106.765 44.0613 106.765 44.36C106.765 44.656 106.765 44.984 106.765 45.344V46.98C106.765 47.332 106.765 47.6547 106.765 47.948C106.765 48.2387 106.765 48.5413 106.765 48.856L106.297 48.208H107.673C108.009 48.208 108.328 48.208 108.629 48.208C108.931 48.208 109.22 48.208 109.497 48.208V49H105.845ZM106.557 46.496V45.732H107.641C108.004 45.732 108.315 45.732 108.573 45.732C108.835 45.732 109.087 45.732 109.329 45.732V46.496C109.076 46.496 108.819 46.496 108.557 46.496C108.299 46.496 107.992 46.496 107.637 46.496H106.557ZM110.603 49C110.603 48.6853 110.603 48.3827 110.603 48.092C110.603 47.8013 110.603 47.4787 110.603 47.124V45.2C110.603 44.8427 110.603 44.5147 110.603 44.216C110.603 43.9173 110.603 43.6107 110.603 43.296C110.827 43.296 111.119 43.296 111.479 43.296C111.839 43.296 112.252 43.296 112.719 43.296C113.164 43.296 113.534 43.3533 113.827 43.468C114.12 43.5827 114.34 43.764 114.487 44.012C114.634 44.26 114.707 44.5853 114.707 44.988C114.707 45.3453 114.642 45.6627 114.511 45.94C114.38 46.2173 114.164 46.4347 113.863 46.592C113.562 46.7493 113.155 46.828 112.643 46.828C112.512 46.828 112.371 46.828 112.219 46.828C112.07 46.828 111.923 46.828 111.779 46.828C111.635 46.828 111.511 46.828 111.407 46.828V46.064H112.447C112.748 46.064 112.995 46.028 113.187 45.956C113.379 45.884 113.52 45.7693 113.611 45.612C113.704 45.4547 113.751 45.2493 113.751 44.996C113.751 44.788 113.718 44.6227 113.651 44.5C113.584 44.3747 113.496 44.2813 113.387 44.22C113.28 44.156 113.162 44.1133 113.031 44.092C112.903 44.0707 112.778 44.06 112.655 44.06H111.075L111.531 43.44C111.531 43.7547 111.531 44.0613 111.531 44.36C111.531 44.656 111.531 44.984 111.531 45.344V47.124C111.531 47.4787 111.531 47.8013 111.531 48.092C111.531 48.3827 111.531 48.6853 111.531 49H110.603ZM117.113 49C117.113 48.6853 117.113 48.3827 117.113 48.092C117.113 47.8013 117.113 47.4787 117.113 47.124V45.344C117.113 44.984 117.113 44.656 117.113 44.36C117.113 44.0613 117.113 43.7547 117.113 43.44L117.477 44.124H116.769C116.455 44.124 116.176 44.124 115.933 44.124C115.691 44.124 115.46 44.124 115.241 44.124V43.296H119.917V44.124C119.701 44.124 119.472 44.124 119.229 44.124C118.987 44.124 118.707 44.124 118.389 44.124H117.681L118.049 43.44C118.049 43.7547 118.049 44.0613 118.049 44.36C118.049 44.656 118.049 44.984 118.049 45.344V47.124C118.049 47.4787 118.049 47.8013 118.049 48.092C118.049 48.3827 118.049 48.6853 118.049 49H117.113ZM124.534 49C124.534 48.6853 124.534 48.3827 124.534 48.092C124.534 47.8013 124.534 47.4787 124.534 47.124V45.204C124.534 44.8413 124.534 44.512 124.534 44.216C124.534 43.92 124.534 43.6133 124.534 43.296H125.474C125.474 43.6133 125.474 43.92 125.474 44.216C125.474 44.512 125.474 44.8413 125.474 45.204V47.124C125.474 47.4787 125.474 47.8013 125.474 48.092C125.474 48.3827 125.474 48.6853 125.474 49H124.534ZM120.826 49C120.826 48.6853 120.826 48.3827 120.826 48.092C120.826 47.8013 120.826 47.4787 120.826 47.124V45.204C120.826 44.8413 120.826 44.512 120.826 44.216C120.826 43.92 120.826 43.6133 120.826 43.296H121.766C121.766 43.6133 121.766 43.92 121.766 44.216C121.766 44.512 121.766 44.8413 121.766 45.204V47.124C121.766 47.4787 121.766 47.8013 121.766 48.092C121.766 48.3827 121.766 48.6853 121.766 49H120.826ZM121.474 46.516V45.72H124.85V46.516H121.474ZM129.442 49.096C128.946 49.096 128.514 49.0173 128.146 48.86C127.781 48.7027 127.477 48.4867 127.234 48.212C126.994 47.9373 126.814 47.6227 126.694 47.268C126.574 46.9133 126.514 46.5387 126.514 46.144C126.514 45.592 126.625 45.0933 126.846 44.648C127.07 44.2 127.397 43.8453 127.826 43.584C128.258 43.32 128.787 43.188 129.414 43.188C129.889 43.188 130.306 43.264 130.666 43.416C131.029 43.568 131.331 43.78 131.574 44.052C131.819 44.3213 132.003 44.6347 132.126 44.992C132.249 45.3493 132.31 45.7333 132.31 46.144C132.31 46.7067 132.198 47.2107 131.974 47.656C131.75 48.1013 131.423 48.4533 130.994 48.712C130.567 48.968 130.05 49.096 129.442 49.096ZM129.422 48.304C129.75 48.304 130.034 48.2453 130.274 48.128C130.514 48.0107 130.713 47.8507 130.87 47.648C131.027 47.4453 131.143 47.2147 131.218 46.956C131.295 46.6973 131.334 46.4267 131.334 46.144C131.334 45.84 131.293 45.5573 131.21 45.296C131.127 45.0347 131.005 44.8053 130.842 44.608C130.682 44.4107 130.483 44.2573 130.246 44.148C130.009 44.036 129.734 43.98 129.422 43.98C129.099 43.98 128.818 44.0373 128.578 44.152C128.338 44.2667 128.137 44.4253 127.974 44.628C127.814 44.8307 127.694 45.0613 127.614 45.32C127.534 45.5787 127.494 45.8533 127.494 46.144C127.494 46.432 127.533 46.7053 127.61 46.964C127.687 47.2227 127.805 47.4533 127.962 47.656C128.122 47.856 128.323 48.0147 128.566 48.132C128.809 48.2467 129.094 48.304 129.422 48.304ZM133.357 49C133.357 48.6853 133.357 48.3827 133.357 48.092C133.357 47.8013 133.357 47.4787 133.357 47.124V45.204C133.357 44.8413 133.357 44.512 133.357 44.216C133.357 43.92 133.357 43.6133 133.357 43.296H134.273C134.273 43.6133 134.273 43.9213 134.273 44.22C134.273 44.516 134.273 44.8453 134.273 45.208V47.416H134.345L135.473 45.808C135.75 45.408 136.033 45.0013 136.321 44.588C136.612 44.172 136.913 43.7413 137.225 43.296H138.025C138.025 43.6133 138.025 43.92 138.025 44.216C138.025 44.512 138.025 44.8413 138.025 45.204V47.124C138.025 47.4787 138.025 47.8013 138.025 48.092C138.025 48.3827 138.025 48.6853 138.025 49H137.109C137.109 48.6853 137.109 48.3827 137.109 48.092C137.109 47.7987 137.109 47.4747 137.109 47.12V44.876H137.041L135.909 46.484C135.568 46.972 135.254 47.42 134.969 47.828C134.684 48.236 134.41 48.6267 134.149 49H133.357ZM135.673 42.744C135.326 42.744 135.038 42.688 134.809 42.576C134.58 42.4613 134.408 42.3027 134.293 42.1C134.181 41.8947 134.124 41.6573 134.121 41.388L134.821 41.36C134.821 41.624 134.892 41.8307 135.033 41.98C135.177 42.1293 135.39 42.204 135.673 42.204C135.961 42.204 136.174 42.1307 136.313 41.984C136.454 41.8373 136.525 41.6387 136.525 41.388H137.221C137.221 41.6573 137.165 41.8947 137.053 42.1C136.944 42.3027 136.774 42.4613 136.545 42.576C136.316 42.688 136.025 42.744 135.673 42.744ZM144.704 48.852C144.704 48.54 144.704 48.2387 144.704 47.948C144.704 47.6547 144.704 47.3307 144.704 46.976V45.344C144.704 44.984 144.704 44.656 144.704 44.36C144.704 44.0613 144.704 43.7547 144.704 43.44L145.02 44.092H142.18L142.648 43.496C142.627 43.848 142.604 44.2027 142.58 44.56C142.559 44.9173 142.537 45.2733 142.516 45.628C142.489 46.0733 142.445 46.4587 142.384 46.784C142.325 47.1093 142.243 47.3947 142.136 47.64C142.029 47.8853 141.891 48.1107 141.72 48.316L140.816 48.22C140.965 48.06 141.097 47.8627 141.212 47.628C141.329 47.3933 141.427 47.0987 141.504 46.744C141.581 46.3867 141.636 45.9493 141.668 45.432C141.692 45.056 141.715 44.688 141.736 44.328C141.76 43.968 141.781 43.624 141.8 43.296H145.644C145.644 43.6133 145.644 43.92 145.644 44.216C145.644 44.512 145.644 44.8413 145.644 45.204V46.976C145.644 47.3307 145.644 47.6547 145.644 47.948C145.644 48.2387 145.644 48.54 145.644 48.852H144.704ZM140.336 50.224C140.336 50.0613 140.336 49.8973 140.336 49.732C140.336 49.5667 140.336 49.4013 140.336 49.236C140.336 49.0653 140.336 48.8933 140.336 48.72C140.336 48.5467 140.336 48.3747 140.336 48.204C140.685 48.204 141.037 48.204 141.392 48.204C141.747 48.204 142.092 48.204 142.428 48.204H144.288C144.627 48.204 144.973 48.204 145.328 48.204C145.683 48.204 146.033 48.204 146.38 48.204C146.38 48.3747 146.38 48.5467 146.38 48.72C146.38 48.8933 146.38 49.0653 146.38 49.236C146.38 49.4013 146.38 49.5667 146.38 49.732C146.38 49.8973 146.38 50.0613 146.38 50.224H145.584L145.528 48.852L145.724 49H140.992L141.188 48.852L141.132 50.224H140.336ZM147.244 49C147.244 48.6853 147.244 48.3827 147.244 48.092C147.244 47.8013 147.244 47.4787 147.244 47.124V45.2C147.244 44.8427 147.244 44.5147 147.244 44.216C147.244 43.9173 147.244 43.6107 147.244 43.296H150.876V44.088C150.617 44.088 150.34 44.088 150.044 44.088C149.748 44.088 149.398 44.088 148.996 44.088H147.64L148.164 43.44C148.164 43.7547 148.164 44.0613 148.164 44.36C148.164 44.656 148.164 44.984 148.164 45.344V46.98C148.164 47.332 148.164 47.6547 148.164 47.948C148.164 48.2387 148.164 48.5413 148.164 48.856L147.696 48.208H149.072C149.408 48.208 149.726 48.208 150.028 48.208C150.329 48.208 150.618 48.208 150.896 48.208V49H147.244ZM147.956 46.496V45.732H149.04C149.402 45.732 149.713 45.732 149.972 45.732C150.233 45.732 150.485 45.732 150.728 45.732V46.496C150.474 46.496 150.217 46.496 149.956 46.496C149.697 46.496 149.39 46.496 149.036 46.496H147.956ZM151.538 49C151.647 48.8533 151.771 48.6853 151.91 48.496C152.051 48.3067 152.196 48.1133 152.346 47.916C152.495 47.716 152.634 47.5293 152.762 47.356L153.614 46.22L153.902 46.616C153.544 46.616 153.242 46.5707 152.994 46.48C152.748 46.3893 152.55 46.2653 152.398 46.108C152.248 45.948 152.139 45.764 152.07 45.556C152 45.348 151.966 45.124 151.966 44.884C151.966 44.4947 152.042 44.184 152.194 43.952C152.348 43.72 152.576 43.5533 152.878 43.452C153.179 43.348 153.552 43.296 153.998 43.296C154.264 43.296 154.524 43.296 154.778 43.296C155.034 43.296 155.271 43.296 155.49 43.296C155.708 43.296 155.898 43.296 156.058 43.296C156.058 43.6107 156.058 43.9173 156.058 44.216C156.058 44.5147 156.058 44.844 156.058 45.204V47.124C156.058 47.4787 156.058 47.8013 156.058 48.092C156.058 48.3827 156.058 48.6853 156.058 49H155.13C155.13 48.6853 155.13 48.3827 155.13 48.092C155.13 47.8013 155.13 47.4787 155.13 47.124V45.348C155.13 44.9827 155.13 44.652 155.13 44.356C155.13 44.06 155.13 43.7547 155.13 43.44L155.622 44.06H154.03C153.907 44.06 153.782 44.0693 153.654 44.088C153.526 44.1067 153.407 44.1467 153.298 44.208C153.188 44.2667 153.1 44.3587 153.034 44.484C152.97 44.6067 152.938 44.7733 152.938 44.984C152.938 45.3707 153.046 45.644 153.262 45.804C153.478 45.9613 153.802 46.04 154.234 46.04H155.302V46.804H153.962L154.546 46.32L153.55 47.692C153.398 47.8973 153.243 48.1093 153.086 48.328C152.928 48.544 152.764 48.768 152.594 49H151.538ZM158.84 49C158.84 48.6853 158.84 48.3827 158.84 48.092C158.84 47.8013 158.84 47.4787 158.84 47.124V45.344C158.84 44.984 158.84 44.656 158.84 44.36C158.84 44.0613 158.84 43.7547 158.84 43.44L159.204 44.124H158.496C158.181 44.124 157.903 44.124 157.66 44.124C157.417 44.124 157.187 44.124 156.968 44.124V43.296H161.644V44.124C161.428 44.124 161.199 44.124 160.956 44.124C160.713 44.124 160.433 44.124 160.116 44.124H159.408L159.776 43.44C159.776 43.7547 159.776 44.0613 159.776 44.36C159.776 44.656 159.776 44.984 159.776 45.344V47.124C159.776 47.4787 159.776 47.8013 159.776 48.092C159.776 48.3827 159.776 48.6853 159.776 49H158.84ZM162.548 49C162.548 48.6853 162.548 48.3827 162.548 48.092C162.548 47.8013 162.548 47.4787 162.548 47.124V45.2C162.548 44.8427 162.548 44.5147 162.548 44.216C162.548 43.9173 162.548 43.6107 162.548 43.296H166.18V44.088C165.922 44.088 165.644 44.088 165.348 44.088C165.052 44.088 164.703 44.088 164.3 44.088H162.944L163.468 43.44C163.468 43.7547 163.468 44.0613 163.468 44.36C163.468 44.656 163.468 44.984 163.468 45.344V46.98C163.468 47.332 163.468 47.6547 163.468 47.948C163.468 48.2387 163.468 48.5413 163.468 48.856L163 48.208H164.376C164.712 48.208 165.031 48.208 165.332 48.208C165.634 48.208 165.923 48.208 166.2 48.208V49H162.548ZM163.26 46.496V45.732H164.344C164.707 45.732 165.018 45.732 165.276 45.732C165.538 45.732 165.79 45.732 166.032 45.732V46.496C165.779 46.496 165.522 46.496 165.26 46.496C165.002 46.496 164.695 46.496 164.34 46.496H163.26ZM167.298 49.08C167.226 49.08 167.156 49.076 167.086 49.068C167.017 49.0627 166.953 49.0547 166.894 49.044C166.838 49.036 166.786 49.0267 166.738 49.016L166.786 48.216C166.845 48.2267 166.897 48.2347 166.942 48.24C166.988 48.2453 167.03 48.248 167.07 48.248C167.292 48.248 167.462 48.156 167.582 47.972C167.705 47.7853 167.796 47.4973 167.854 47.108C167.913 46.7187 167.96 46.2227 167.994 45.62C168.016 45.236 168.037 44.8493 168.058 44.46C168.08 44.0707 168.102 43.6827 168.126 43.296H171.99C171.99 43.6133 171.99 43.92 171.99 44.216C171.99 44.512 171.99 44.8413 171.99 45.204V47.124C171.99 47.4787 171.99 47.8013 171.99 48.092C171.99 48.3827 171.99 48.6853 171.99 49H171.05C171.05 48.6853 171.05 48.3827 171.05 48.092C171.05 47.8013 171.05 47.4787 171.05 47.124V45.344C171.05 44.984 171.05 44.656 171.05 44.36C171.05 44.0613 171.05 43.7547 171.05 43.44L171.526 44.092H168.486L169.002 43.488C168.976 43.8933 168.949 44.3 168.922 44.708C168.896 45.1133 168.868 45.5347 168.838 45.972C168.804 46.492 168.762 46.9467 168.714 47.336C168.669 47.7253 168.596 48.0493 168.494 48.308C168.396 48.5667 168.252 48.76 168.062 48.888C167.873 49.016 167.618 49.08 167.298 49.08ZM175.354 49C174.951 49 174.587 49 174.262 49C173.936 49 173.628 49 173.338 49C173.338 48.6853 173.338 48.3827 173.338 48.092C173.338 47.8013 173.338 47.4787 173.338 47.124V45.204C173.338 44.844 173.338 44.5147 173.338 44.216C173.338 43.9173 173.338 43.6107 173.338 43.296H174.266C174.266 43.6107 174.266 43.9173 174.266 44.216C174.266 44.5147 174.266 44.844 174.266 45.204V46.976C174.266 47.2 174.266 47.4133 174.266 47.616C174.266 47.8187 174.266 48.0253 174.266 48.236H175.186C175.487 48.236 175.732 48.2 175.922 48.128C176.114 48.0533 176.255 47.9373 176.346 47.78C176.439 47.6227 176.486 47.416 176.486 47.16C176.486 46.9493 176.452 46.7813 176.386 46.656C176.322 46.528 176.235 46.432 176.126 46.368C176.019 46.304 175.9 46.2613 175.77 46.24C175.642 46.2187 175.516 46.208 175.394 46.208H174.15V45.44C174.312 45.44 174.502 45.44 174.718 45.44C174.934 45.44 175.179 45.44 175.454 45.44C175.899 45.44 176.268 45.4973 176.562 45.612C176.855 45.7267 177.075 45.9107 177.222 46.164C177.368 46.4147 177.442 46.7467 177.442 47.16C177.442 47.52 177.376 47.8387 177.246 48.116C177.115 48.3933 176.898 48.6107 176.594 48.768C176.29 48.9227 175.876 49 175.354 49ZM182.128 49C182.128 48.6853 182.128 48.3827 182.128 48.092C182.128 47.8013 182.128 47.4787 182.128 47.124V45.204C182.128 44.8413 182.128 44.512 182.128 44.216C182.128 43.92 182.128 43.6133 182.128 43.296H183.068C183.068 43.6133 183.068 43.92 183.068 44.216C183.068 44.512 183.068 44.8413 183.068 45.204V47.124C183.068 47.4787 183.068 47.8013 183.068 48.092C183.068 48.3827 183.068 48.6853 183.068 49H182.128ZM178.42 49C178.42 48.6853 178.42 48.3827 178.42 48.092C178.42 47.8013 178.42 47.4787 178.42 47.124V45.204C178.42 44.8413 178.42 44.512 178.42 44.216C178.42 43.92 178.42 43.6133 178.42 43.296H179.36C179.36 43.6133 179.36 43.92 179.36 44.216C179.36 44.512 179.36 44.8413 179.36 45.204V47.124C179.36 47.4787 179.36 47.8013 179.36 48.092C179.36 48.3827 179.36 48.6853 179.36 49H178.42ZM179.068 46.516V45.72H182.444V46.516H179.068ZM187.036 49.096C186.54 49.096 186.108 49.0173 185.74 48.86C185.374 48.7027 185.07 48.4867 184.828 48.212C184.588 47.9373 184.408 47.6227 184.288 47.268C184.168 46.9133 184.108 46.5387 184.108 46.144C184.108 45.592 184.218 45.0933 184.44 44.648C184.664 44.2 184.99 43.8453 185.42 43.584C185.852 43.32 186.381 43.188 187.008 43.188C187.482 43.188 187.9 43.264 188.26 43.416C188.622 43.568 188.925 43.78 189.168 44.052C189.413 44.3213 189.597 44.6347 189.72 44.992C189.842 45.3493 189.904 45.7333 189.904 46.144C189.904 46.7067 189.792 47.2107 189.568 47.656C189.344 48.1013 189.017 48.4533 188.588 48.712C188.161 48.968 187.644 49.096 187.036 49.096ZM187.016 48.304C187.344 48.304 187.628 48.2453 187.868 48.128C188.108 48.0107 188.306 47.8507 188.464 47.648C188.621 47.4453 188.737 47.2147 188.812 46.956C188.889 46.6973 188.928 46.4267 188.928 46.144C188.928 45.84 188.886 45.5573 188.804 45.296C188.721 45.0347 188.598 44.8053 188.436 44.608C188.276 44.4107 188.077 44.2573 187.84 44.148C187.602 44.036 187.328 43.98 187.016 43.98C186.693 43.98 186.412 44.0373 186.172 44.152C185.932 44.2667 185.73 44.4253 185.568 44.628C185.408 44.8307 185.288 45.0613 185.208 45.32C185.128 45.5787 185.088 45.8533 185.088 46.144C185.088 46.432 185.126 46.7053 185.204 46.964C185.281 47.2227 185.398 47.4533 185.556 47.656C185.716 47.856 185.917 48.0147 186.16 48.132C186.402 48.2467 186.688 48.304 187.016 48.304ZM193.595 49.096C193.139 49.096 192.728 49.024 192.363 48.88C191.998 48.7333 191.687 48.528 191.431 48.264C191.175 48 190.979 47.688 190.843 47.328C190.707 46.968 190.639 46.5733 190.639 46.144C190.639 45.5707 190.756 45.0613 190.991 44.616C191.226 44.1707 191.556 43.8213 191.983 43.568C192.41 43.3147 192.912 43.188 193.491 43.188C193.678 43.188 193.86 43.2013 194.039 43.228C194.218 43.252 194.387 43.2867 194.547 43.332C194.71 43.3747 194.86 43.4227 194.999 43.476C195.138 43.5267 195.259 43.5813 195.363 43.64L195.283 44.528C195.078 44.4027 194.878 44.3013 194.683 44.224C194.488 44.1467 194.299 44.0907 194.115 44.056C193.931 44.0187 193.752 44 193.579 44C193.2 44 192.863 44.0867 192.567 44.26C192.271 44.4307 192.039 44.676 191.871 44.996C191.703 45.316 191.619 45.6987 191.619 46.144C191.619 46.44 191.662 46.7187 191.747 46.98C191.835 47.2387 191.966 47.468 192.139 47.668C192.312 47.8653 192.53 48.0213 192.791 48.136C193.052 48.248 193.355 48.304 193.699 48.304C193.832 48.304 193.964 48.296 194.095 48.28C194.228 48.2613 194.36 48.2333 194.491 48.196C194.624 48.1587 194.755 48.108 194.883 48.044C195.014 47.98 195.142 47.904 195.267 47.816L195.331 48.696C195.216 48.7627 195.091 48.8227 194.955 48.876C194.819 48.9267 194.676 48.968 194.527 49C194.378 49.032 194.224 49.056 194.067 49.072C193.91 49.088 193.752 49.096 193.595 49.096ZM197.855 49C197.855 48.6853 197.855 48.3827 197.855 48.092C197.855 47.8013 197.855 47.4787 197.855 47.124V45.344C197.855 44.984 197.855 44.656 197.855 44.36C197.855 44.0613 197.855 43.7547 197.855 43.44L198.219 44.124H197.511C197.197 44.124 196.918 44.124 196.675 44.124C196.433 44.124 196.202 44.124 195.983 44.124V43.296H200.659V44.124C200.443 44.124 200.214 44.124 199.971 44.124C199.729 44.124 199.449 44.124 199.131 44.124H198.423L198.791 43.44C198.791 43.7547 198.791 44.0613 198.791 44.36C198.791 44.656 198.791 44.984 198.791 45.344V47.124C198.791 47.4787 198.791 47.8013 198.791 48.092C198.791 48.3827 198.791 48.6853 198.791 49H197.855ZM201.568 49C201.568 48.6853 201.568 48.3827 201.568 48.092C201.568 47.8013 201.568 47.4787 201.568 47.124V45.204C201.568 44.8413 201.568 44.512 201.568 44.216C201.568 43.92 201.568 43.6133 201.568 43.296H202.484C202.484 43.6133 202.484 43.9213 202.484 44.22C202.484 44.516 202.484 44.8453 202.484 45.208V47.416H202.556L203.684 45.808C203.961 45.408 204.244 45.0013 204.532 44.588C204.823 44.172 205.124 43.7413 205.436 43.296H206.236C206.236 43.6133 206.236 43.92 206.236 44.216C206.236 44.512 206.236 44.8413 206.236 45.204V47.124C206.236 47.4787 206.236 47.8013 206.236 48.092C206.236 48.3827 206.236 48.6853 206.236 49H205.32C205.32 48.6853 205.32 48.3827 205.32 48.092C205.32 47.7987 205.32 47.4747 205.32 47.12V44.876H205.252L204.12 46.484C203.779 46.972 203.465 47.42 203.18 47.828C202.895 48.236 202.621 48.6267 202.36 49H201.568ZM210.004 49.016L209.152 48.964C209.386 48.6387 209.621 48.3133 209.856 47.988C210.09 47.6627 210.325 47.3373 210.56 47.012V46.932C210.325 46.6093 210.09 46.2867 209.856 45.964C209.621 45.6387 209.386 45.3147 209.152 44.992L210.004 44.948C210.249 45.2867 210.493 45.6253 210.736 45.964C210.981 46.3027 211.225 46.6427 211.468 46.984C211.225 47.3227 210.981 47.6613 210.736 48C210.493 48.3387 210.249 48.6773 210.004 49.016ZM208.056 49.016L207.204 48.964C207.438 48.6387 207.672 48.3133 207.904 47.988C208.138 47.6627 208.374 47.3373 208.612 47.012V46.932C208.374 46.6093 208.138 46.2867 207.904 45.964C207.672 45.6387 207.438 45.3147 207.204 44.992L208.056 44.948C208.301 45.2867 208.545 45.6253 208.788 45.964C209.03 46.3027 209.274 46.6427 209.52 46.984C209.274 47.3227 209.03 47.6613 208.788 48C208.545 48.3387 208.301 48.6773 208.056 49.016Z" fill="#4A4A5E"/>
</svg>
